<svg width="34" height="34" viewBox="0 0 34 34" fill="none" xmlns="http://www.w3.org/2000/svg">
<path d="M32.28 18.4824C32.28 21.3914 31.3627 24.235 29.6442 26.6537C27.9256 29.0725 25.483 30.9576 22.6252 32.0708C19.7673 33.1841 16.6227 33.4753 13.5888 32.9078C10.5549 32.3403 7.76815 30.9395 5.58086 28.8825C3.39356 26.8256 1.904 24.2049 1.30053 21.3518C0.697052 18.4987 1.00678 15.5414 2.19053 12.8539C3.37429 10.1664 5.3789 7.8693 7.95089 6.25316C10.5229 4.63702 13.5467 3.77441 16.64 3.77441C18.6939 3.77441 20.7276 4.15485 22.6252 4.89399C24.5227 5.63314 26.2468 6.71652 27.6992 8.08229C29.1515 9.44805 30.3035 11.0695 31.0895 12.8539C31.8755 14.6384 32.28 16.5509 32.28 18.4824Z" fill="white" stroke="#16A1DC" stroke-width="1.62" stroke-linecap="round" stroke-linejoin="round"/>
<path d="M23.95 21.6793L19.2 30.2651L10.88 24.5758L10.67 14.1186L19.19 12.2378L23.95 21.6793Z" stroke="#16A1DC" stroke-width="1.17" stroke-linecap="round" stroke-linejoin="round"/>
<path d="M17.9822 8.1229L9.79545 9.93304C8.57503 10.2029 7.81778 11.35 8.10406 12.4953C8.39035 13.6405 9.61177 14.3501 10.8322 14.0803L19.019 12.2702C20.2394 12.0003 20.9966 10.8532 20.7104 9.70795C20.4241 8.56271 19.2026 7.85307 17.9822 8.1229Z" fill="#16A1DC" stroke="#16A1DC" stroke-width="1.17" stroke-linecap="round" stroke-linejoin="round"/>
<path d="M17.15 1L7.16003 3.21942L9.63003 9.85889L18.1 7.98742L17.15 1Z" fill="#16A1DC" stroke="#16A1DC" stroke-width="1.17" stroke-linecap="round" stroke-linejoin="round"/>
<path d="M17.4 23.0532L19.2 30.2651" stroke="#16A1DC" stroke-width="1.17" stroke-linecap="round" stroke-linejoin="round"/>
<path d="M16.95 23.0996C18.0159 23.0996 18.88 22.2871 18.88 21.2849C18.88 20.2827 18.0159 19.4702 16.95 19.4702C15.8841 19.4702 15.02 20.2827 15.02 21.2849C15.02 22.2871 15.8841 23.0996 16.95 23.0996Z" stroke="#16A1DC" stroke-width="1.17" stroke-linecap="round" stroke-linejoin="round"/>
</svg>
