<svg width="29" height="29" viewBox="0 0 29 29" fill="none" xmlns="http://www.w3.org/2000/svg">
<path d="M14.5 28C21.9558 28 28 21.9558 28 14.5C28 7.04416 21.9558 1 14.5 1C7.04416 1 1 7.04416 1 14.5C1 21.9558 7.04416 28 14.5 28Z" stroke="#849899" stroke-width="1.5" stroke-linecap="round" stroke-linejoin="round"/>
<path d="M8.59766 8.06899C10.9974 7.52844 13.4982 7.64062 15.84 8.39387C18.1817 9.14711 20.2789 10.5139 21.9136 12.3522" stroke="#849899" stroke-width="1.5" stroke-linecap="round" stroke-linejoin="round"/>
<path d="M8.41309 12.1314C10.4617 11.6761 12.5949 11.7774 14.5911 12.4248C16.5873 13.0722 18.3739 14.2422 19.7654 15.8132" stroke="#849899" stroke-width="1.5" stroke-linecap="round" stroke-linejoin="round"/>
<path d="M9.44336 16.4884C10.7893 16.1956 12.189 16.2689 13.497 16.7006C14.805 17.1322 15.9734 17.9065 16.8806 18.9429" stroke="#849899" stroke-width="1.5" stroke-linecap="round" stroke-linejoin="round"/>
</svg>
