<svg width="48" height="40" viewBox="0 0 48 40" fill="none" xmlns="http://www.w3.org/2000/svg">
<path d="M16.4566 38.999H6.0791" stroke="#16A1DC" stroke-width="1.4" stroke-linecap="round" stroke-linejoin="round"/>
<path d="M38.8042 1H16.2921C15.6312 0.999998 14.9768 1.12495 14.3663 1.3677C13.7559 1.61045 13.2014 1.96622 12.7347 2.41464C12.268 2.86306 11.8982 3.3953 11.6466 3.98088C11.3949 4.56646 11.2663 5.19387 11.2681 5.82716V34.0273" stroke="#16A1DC" stroke-width="1.4" stroke-linecap="round" stroke-linejoin="round"/>
<path d="M11.2681 38.9987H37.2668C37.8887 38.9987 38.5045 38.8813 39.0791 38.6533C39.6537 38.4252 40.1757 38.091 40.6155 37.6696C41.0552 37.2482 41.4041 36.748 41.6421 36.1974C41.8801 35.6469 42.0026 35.0568 42.0026 34.4609V8.58887" stroke="#16A1DC" stroke-width="1.4" stroke-linecap="round" stroke-linejoin="round"/>
<path d="M16.4292 1C17.0907 1 17.7458 1.12486 18.357 1.36745C18.9682 1.61003 19.5236 1.9656 19.9914 2.41384C20.4592 2.86209 20.8303 3.39423 21.0834 3.97989C21.3366 4.56555 21.4669 5.19325 21.4669 5.82716V8.5893H45.8321V5.82716C45.834 5.19387 45.7053 4.56646 45.4537 3.98088C45.202 3.3953 44.8322 2.86306 44.3655 2.41464C43.8988 1.96622 43.3443 1.61045 42.7339 1.3677C42.1235 1.12495 41.469 0.999998 40.8081 1H16.3193" stroke="#16A1DC" stroke-width="1.4" stroke-linecap="round" stroke-linejoin="round"/>
<path d="M21.6455 25.5167L26.8343 31.212L46.3539 16.3096" stroke="#16A1DC" stroke-width="1.4" stroke-linecap="round" stroke-linejoin="round"/>
<path d="M11.2677 34.1742V31.4121H1V34.1742C1 35.4545 1.53076 36.6823 2.47553 37.5876C2.94333 38.0358 3.49869 38.3914 4.1099 38.634C4.72111 38.8766 5.3762 39.0014 6.03777 39.0014H16.4153" stroke="#16A1DC" stroke-width="1.4" stroke-linecap="round" stroke-linejoin="round"/>
<path d="M6.18896 39.0014C7.52506 39.0014 8.80644 38.4928 9.7512 37.5876C10.696 36.6823 11.2267 35.4545 11.2267 34.1742V31.4121" stroke="#16A1DC" stroke-width="1.4" stroke-linecap="round" stroke-linejoin="round"/>
</svg>
