<svg width="110" height="99" viewBox="0 0 110 99" fill="none" xmlns="http://www.w3.org/2000/svg">
<path d="M1.43947 82.7857L45.7903 5.36995C46.7274 3.73637 48.0711 2.38065 49.6873 1.43831C51.3035 0.49596 53.1354 0 55 0C56.8646 0 58.6965 0.49596 60.3127 1.43831C61.9288 2.38065 63.2726 3.73637 64.2097 5.36995L108.561 82.7857C109.5 84.4262 109.997 86.2886 110 88.1853C110.003 90.0821 109.514 91.9462 108.58 93.5901C107.646 95.234 106.301 96.5996 104.681 97.5493C103.061 98.499 101.223 98.9994 99.3508 99H10.6492C8.77745 98.9994 6.93894 98.499 5.31875 97.5493C3.69857 96.5996 2.35391 95.234 1.42019 93.5901C0.486463 91.9462 -0.00336839 90.0821 1.74342e-05 88.1853C0.00340326 86.2886 0.499887 84.4262 1.43947 82.7857Z" fill="#849899"/>
</svg>
