<svg width="80" height="72" viewBox="0 0 80 72" fill="none" xmlns="http://www.w3.org/2000/svg">
<path d="M1.04689 60.2078L33.302 3.90542C33.9835 2.71736 34.9608 1.73138 36.1362 1.04604C37.3116 0.360698 38.6439 0 40 0C41.3561 0 42.6884 0.360698 43.8638 1.04604C45.0392 1.73138 46.0165 2.71736 46.698 3.90542L78.9531 60.2078C79.6364 61.4008 79.9975 62.7553 80 64.1348C80.0024 65.5142 79.6462 66.87 78.9671 68.0655C78.2881 69.2611 77.3101 70.2542 76.1318 70.9449C74.9535 71.6356 73.6164 71.9995 72.2551 72H7.74485C6.3836 71.9995 5.0465 71.6356 3.86818 70.9449C2.68987 70.2542 1.71194 69.2611 1.03286 68.0655C0.353791 66.87 -0.00244974 65.5142 1.26794e-05 64.1348C0.0024751 62.7553 0.363554 61.4008 1.04689 60.2078Z" fill="#849899"/>
<path d="M40.1245 64.5894C39.4194 64.6009 38.7198 64.462 38.071 64.1818C37.4223 63.9016 36.8389 63.4863 36.3588 62.9629C35.3704 61.9201 34.8184 60.5303 34.8184 59.0843C34.8184 57.6384 35.3704 56.2485 36.3588 55.2057C36.8403 54.6928 37.4196 54.2844 38.0617 54.0053C38.7037 53.7262 39.395 53.5823 40.0936 53.5823C40.7922 53.5823 41.4835 53.7262 42.1255 54.0053C42.7676 54.2844 43.3469 54.6928 43.8284 55.2057C44.8168 56.2485 45.3689 57.6384 45.3689 59.0843C45.3689 60.5303 44.8168 61.9201 43.8284 62.9629C43.3577 63.4816 42.7848 63.8943 42.1468 64.1745C41.5087 64.4547 40.8198 64.596 40.1245 64.5894ZM36.6057 48.1366L35.6489 23.5826C35.6196 22.9688 35.7137 22.3554 35.9255 21.7796C36.1373 21.2038 36.4623 20.6776 36.8808 20.233C37.2994 19.7884 37.8027 19.4346 38.3603 19.1931C38.9179 18.9516 39.5181 18.8274 40.1245 18.8281C40.7281 18.8276 41.3257 18.9508 41.8811 19.1904C42.4365 19.43 42.9384 19.7809 43.3565 20.2222C43.7746 20.6634 44.1003 21.1858 44.314 21.7579C44.5278 22.33 44.625 22.9401 44.6001 23.5513L43.6432 48.1054L36.6057 48.1366Z" fill="#EBF1F2"/>
</svg>
