<svg width="281" height="43" viewBox="0 0 281 43" fill="none" xmlns="http://www.w3.org/2000/svg">
<path d="M262.832 43L0.5 43L0.49996 21.5L0.5 0L262.832 0L281.001 21.5L262.832 43Z" fill="#5E852A"/>
<path d="M15.054 28.92C15.504 28.902 15.873 28.821 16.161 28.677C16.467 28.533 16.665 28.344 16.755 28.11L22.452 11.991H25.26L31.011 27.84C31.119 28.128 31.299 28.362 31.551 28.542C31.821 28.704 32.208 28.83 32.712 28.92L32.577 30H25.179L25.341 28.92C26.169 28.794 26.709 28.569 26.961 28.245L25.692 24.384H20.13L18.834 28.11C19.338 28.524 20.103 28.794 21.129 28.92L20.994 30H14.892L15.054 28.92ZM25.125 22.683L23.019 16.203L20.724 22.683H25.125ZM39.5106 30.27C36.9726 30.27 35.0376 29.505 33.7056 27.975C32.3916 26.445 31.7346 24.195 31.7346 21.225C31.7346 18.111 32.3826 15.762 33.6786 14.178C34.9926 12.594 36.9276 11.802 39.4836 11.802C40.5636 11.802 41.5176 11.955 42.3456 12.261C43.1916 12.549 43.8486 12.963 44.3166 13.503C44.7846 14.043 45.0186 14.664 45.0186 15.366C45.0186 16.014 44.8116 16.563 44.3976 17.013C43.9836 17.463 43.4706 17.688 42.8586 17.688C42.4266 17.688 42.0126 17.571 41.6166 17.337C41.2386 17.103 40.9596 16.806 40.7796 16.446C41.0676 15.96 41.2116 15.483 41.2116 15.015C41.2116 14.475 41.0406 14.043 40.6986 13.719C40.3746 13.395 39.9336 13.233 39.3756 13.233C37.2516 13.233 36.1896 15.744 36.1896 20.766C36.1896 23.304 36.5226 25.221 37.1886 26.517C37.8546 27.795 38.9256 28.434 40.4016 28.434C41.1216 28.434 41.8326 28.263 42.5346 27.921C43.2366 27.579 43.8936 27.075 44.5056 26.409L45.3966 27.273C44.5506 28.227 43.6056 28.965 42.5616 29.487C41.5356 30.009 40.5186 30.27 39.5106 30.27ZM48.9267 28.893C49.7007 28.785 50.3487 28.515 50.8707 28.083V13.665C50.2407 13.683 49.5117 13.728 48.6837 13.8L48.1437 13.827C47.8557 14.223 47.6127 14.718 47.4147 15.312C47.2347 15.888 47.1357 16.437 47.1177 16.959C46.7937 17.013 46.4697 17.04 46.1457 17.04C45.8577 17.04 45.5607 17.013 45.2547 16.959V11.883C48.0267 11.955 50.5557 11.991 52.8417 11.991C54.2097 11.991 55.6407 11.982 57.1347 11.964C58.6467 11.928 59.7537 11.901 60.4557 11.883V16.959C60.1677 17.013 59.8707 17.04 59.5647 17.04C59.2407 17.04 58.9167 17.013 58.5927 16.959C58.5207 16.365 58.3947 15.798 58.2147 15.258C58.0527 14.7 57.8547 14.232 57.6207 13.854C56.7207 13.728 55.7937 13.656 54.8397 13.638V28.083C55.2177 28.443 55.8927 28.713 56.8647 28.893L56.6757 30H48.8187L48.9267 28.893ZM60.6953 28.893C61.5053 28.767 62.1533 28.497 62.6393 28.083V13.908C62.4593 13.728 62.1713 13.566 61.7753 13.422C61.3793 13.26 60.9833 13.152 60.5873 13.098L60.7223 11.991H68.6333L68.4713 13.098C68.0393 13.188 67.6883 13.287 67.4183 13.395C67.1483 13.503 66.8783 13.674 66.6083 13.908V28.083C66.9683 28.425 67.6433 28.695 68.6333 28.893L68.4443 30H60.5873L60.6953 28.893ZM70.0471 14.259C69.8491 13.629 69.2641 13.233 68.2921 13.071L68.4271 11.991H75.8251L75.6631 13.071C74.9071 13.107 74.3491 13.305 73.9891 13.665L77.6611 25.005L81.6031 13.881C81.1351 13.467 80.4241 13.197 79.4701 13.071L79.6051 11.991H85.5721L85.4371 13.071C84.9691 13.089 84.5731 13.179 84.2491 13.341C83.9431 13.503 83.7451 13.71 83.6551 13.962L77.7961 30H75.0691L70.0471 14.259ZM92.207 30.27C89.543 30.27 87.527 29.478 86.159 27.894C84.809 26.31 84.134 23.997 84.134 20.955C84.134 17.931 84.809 15.636 86.159 14.07C87.527 12.486 89.543 11.694 92.207 11.694C94.871 11.694 96.878 12.486 98.228 14.07C99.578 15.636 100.253 17.931 100.253 20.955C100.253 23.997 99.578 26.31 98.228 27.894C96.878 29.478 94.871 30.27 92.207 30.27ZM92.207 28.704C93.467 28.704 94.376 28.101 94.934 26.895C95.492 25.689 95.771 23.709 95.771 20.955C95.771 18.219 95.492 16.257 94.934 15.069C94.376 13.863 93.467 13.26 92.207 13.26C90.929 13.26 90.002 13.863 89.426 15.069C88.868 16.257 88.589 18.219 88.589 20.955C88.589 23.709 88.868 25.689 89.426 26.895C90.002 28.101 90.929 28.704 92.207 28.704ZM104.927 28.92C105.377 28.902 105.746 28.821 106.034 28.677C106.34 28.533 106.538 28.344 106.628 28.11L112.325 11.991H115.133L120.884 27.84C120.992 28.128 121.172 28.362 121.424 28.542C121.694 28.704 122.081 28.83 122.585 28.92L122.45 30H115.052L115.214 28.92C116.042 28.794 116.582 28.569 116.834 28.245L115.565 24.384H110.003L108.707 28.11C109.211 28.524 109.976 28.794 111.002 28.92L110.867 30H104.765L104.927 28.92ZM114.998 22.683L112.892 16.203L110.597 22.683H114.998ZM122.431 28.893C122.773 28.821 123.052 28.731 123.268 28.623C123.484 28.515 123.718 28.335 123.97 28.083V13.908C123.592 13.584 123.043 13.296 122.323 13.044L122.431 11.991H128.533L132.934 24.141L136.714 11.991H143.302L143.14 13.044C142.438 13.26 141.889 13.548 141.493 13.908V28.083C141.907 28.461 142.582 28.749 143.518 28.947L143.329 30H136.012L136.12 28.893C136.462 28.821 136.741 28.731 136.957 28.623C137.173 28.515 137.398 28.335 137.632 28.083V16.284H137.605L133.231 30H131.152L126.346 17.013H126.319V28.083C126.733 28.461 127.408 28.749 128.344 28.947L128.155 30H122.323L122.431 28.893ZM144.238 28.893C144.58 28.821 144.859 28.731 145.075 28.623C145.309 28.497 145.543 28.317 145.777 28.083V13.908C145.453 13.584 144.904 13.296 144.13 13.044L144.238 11.991H151.852C154.21 11.991 156.01 12.378 157.252 13.152C158.494 13.908 159.115 15.015 159.115 16.473C159.115 17.463 158.836 18.282 158.278 18.93C157.72 19.56 156.901 20.019 155.821 20.307C157.081 20.685 158.044 21.279 158.71 22.089C159.394 22.881 159.736 23.826 159.736 24.924C159.736 26.508 159.088 27.75 157.792 28.65C156.496 29.55 154.714 30 152.446 30H144.13L144.238 28.893ZM151.231 19.659C153.697 19.659 154.93 18.615 154.93 16.527C154.93 15.591 154.633 14.88 154.039 14.394C153.445 13.89 152.599 13.638 151.501 13.638C150.817 13.638 150.232 13.674 149.746 13.746V19.659H151.231ZM151.582 28.326C152.896 28.326 153.859 28.056 154.471 27.516C155.101 26.976 155.416 26.121 155.416 24.951C155.416 23.763 155.056 22.872 154.336 22.278C153.634 21.666 152.59 21.36 151.204 21.36H149.746V28.245C150.448 28.299 151.06 28.326 151.582 28.326ZM160.351 28.893C161.161 28.767 161.809 28.497 162.295 28.083V13.908C162.115 13.728 161.827 13.566 161.431 13.422C161.035 13.26 160.639 13.152 160.243 13.098L160.378 11.991H168.289L168.127 13.098C167.695 13.188 167.344 13.287 167.074 13.395C166.804 13.503 166.534 13.674 166.264 13.908V28.083C166.624 28.425 167.299 28.695 168.289 28.893L168.1 30H160.243L160.351 28.893ZM169.027 28.893C169.315 28.857 169.612 28.776 169.918 28.65C170.224 28.506 170.44 28.362 170.566 28.218V13.773C170.134 13.395 169.585 13.134 168.919 12.99L169 11.991H182.122L182.23 16.446C181.816 16.572 181.438 16.635 181.096 16.635C180.916 16.635 180.628 16.599 180.232 16.527C180.088 15.843 179.926 15.285 179.746 14.853C179.566 14.403 179.341 13.998 179.071 13.638H174.535V20.037L177.046 19.848C177.37 19.812 177.667 19.632 177.937 19.308C178.225 18.984 178.432 18.561 178.558 18.039H179.962V23.628H178.558C178.306 22.908 178.063 22.404 177.829 22.116C177.595 21.828 177.325 21.666 177.019 21.63L174.535 21.414V28.326H179.26C179.836 27.462 180.259 26.319 180.529 24.897C180.907 24.843 181.276 24.816 181.636 24.816C181.942 24.816 182.239 24.843 182.527 24.897L182.257 30H168.919L169.027 28.893ZM183.109 28.893C183.451 28.821 183.73 28.731 183.946 28.623C184.162 28.515 184.396 28.335 184.648 28.083V13.908C184.27 13.584 183.721 13.296 183.001 13.044L183.109 11.991H188.428L195.88 25.059V13.908C195.61 13.674 195.34 13.503 195.07 13.395C194.8 13.287 194.449 13.188 194.017 13.098L194.152 11.991H200.038L199.876 13.044C199.174 13.26 198.625 13.548 198.229 13.908V30H194.125L186.997 17.58V28.083C187.411 28.461 188.086 28.749 189.022 28.947L188.833 30H183.001L183.109 28.893ZM203.697 28.893C204.471 28.785 205.119 28.515 205.641 28.083V13.665C205.011 13.683 204.282 13.728 203.454 13.8L202.914 13.827C202.626 14.223 202.383 14.718 202.185 15.312C202.005 15.888 201.906 16.437 201.888 16.959C201.564 17.013 201.24 17.04 200.916 17.04C200.628 17.04 200.331 17.013 200.025 16.959V11.883C202.797 11.955 205.326 11.991 207.612 11.991C208.98 11.991 210.411 11.982 211.905 11.964C213.417 11.928 214.524 11.901 215.226 11.883V16.959C214.938 17.013 214.641 17.04 214.335 17.04C214.011 17.04 213.687 17.013 213.363 16.959C213.291 16.365 213.165 15.798 212.985 15.258C212.823 14.7 212.625 14.232 212.391 13.854C211.491 13.728 210.564 13.656 209.61 13.638V28.083C209.988 28.443 210.663 28.713 211.635 28.893L211.446 30H203.589L203.697 28.893ZM211.86 28.92C212.31 28.902 212.679 28.821 212.967 28.677C213.273 28.533 213.471 28.344 213.561 28.11L219.258 11.991H222.066L227.817 27.84C227.925 28.128 228.105 28.362 228.357 28.542C228.627 28.704 229.014 28.83 229.518 28.92L229.383 30H221.985L222.147 28.92C222.975 28.794 223.515 28.569 223.767 28.245L222.498 24.384H216.936L215.64 28.11C216.144 28.524 216.909 28.794 217.935 28.92L217.8 30H211.698L211.86 28.92ZM221.931 22.683L219.825 16.203L217.53 22.683H221.931ZM229.39 28.893C229.678 28.857 229.975 28.776 230.281 28.65C230.587 28.506 230.803 28.362 230.929 28.218V13.908C230.641 13.656 230.083 13.386 229.255 13.098L229.39 11.991H236.923L236.761 13.098C236.329 13.188 235.978 13.287 235.708 13.395C235.438 13.503 235.168 13.674 234.898 13.908V28.326H239.623C240.199 27.462 240.622 26.319 240.892 24.897C241.252 24.843 241.621 24.816 241.999 24.816C242.287 24.816 242.584 24.843 242.89 24.897L242.62 30H229.282L229.39 28.893Z" fill="white"/>
</svg>
