<svg width="43" height="43" viewBox="0 0 43 43" fill="none" xmlns="http://www.w3.org/2000/svg">
<path d="M17.335 41.512C26.0805 41.512 33.1701 34.2958 33.1701 25.3942C33.1701 16.4926 26.0805 9.27637 17.335 9.27637C8.58959 9.27637 1.5 16.4926 1.5 25.3942C1.5 34.2958 8.58959 41.512 17.335 41.512Z" stroke="black" stroke-width="1.5" stroke-miterlimit="10"/>
<path d="M17.335 4.94732C21.134 4.93876 24.8574 6.02811 28.0722 8.08868C31.2869 10.1493 33.861 13.0964 35.495 16.5874C37.1289 20.0784 37.7557 23.9698 37.3025 27.8091C36.8492 31.6484 35.3345 35.2778 32.9344 38.2754" stroke="black" stroke-width="1.5" stroke-miterlimit="10"/>
<path d="M17.335 1C21.8357 1.00324 26.2446 2.29614 30.0571 4.73074C33.8696 7.16534 36.9317 10.6433 38.893 14.7665C40.8543 18.8898 41.6355 23.4918 41.1472 28.0458C40.6589 32.5999 38.9209 36.922 36.132 40.5176" stroke="black" stroke-width="1.5" stroke-miterlimit="10"/>
<path d="M16.0434 16.2209L24.3318 24.6572C24.518 24.8478 24.6225 25.1056 24.6225 25.3743C24.6225 25.6431 24.518 25.9009 24.3318 26.0914L16.0434 34.5278C15.9035 34.6686 15.7258 34.7642 15.5327 34.8026C15.3396 34.841 15.1396 34.8205 14.9579 34.7437C14.7762 34.6669 14.6208 34.5371 14.5113 34.3707C14.4017 34.2043 14.3429 34.0087 14.3422 33.8084V16.9358C14.3417 16.7349 14.3999 16.5384 14.5094 16.3714C14.619 16.2043 14.7748 16.0741 14.9572 15.9975C15.1396 15.9209 15.3403 15.9012 15.5337 15.941C15.7272 15.9807 15.9046 16.0782 16.0434 16.2209V16.2209Z" stroke="black" stroke-width="1.5" stroke-miterlimit="10"/>
</svg>
