<svg width="24" height="25" viewBox="0 0 24 25" fill="none" xmlns="http://www.w3.org/2000/svg">
<path d="M1.71484 11.969H22.2867V22.5436C22.2867 22.9299 22.1307 23.3005 21.853 23.5737C21.5753 23.8469 21.1987 24.0004 20.806 24.0004H3.19555C2.80284 24.0004 2.42622 23.8469 2.14853 23.5737C1.87085 23.3005 1.71484 22.9299 1.71484 22.5436V11.969Z" fill="#EBF1F2" stroke="#252B2D" stroke-width="1.2" stroke-linecap="round" stroke-linejoin="round"/>
<path d="M2.48075 7.22778H21.5192C21.7147 7.22778 21.9082 7.26584 22.0886 7.33976C22.269 7.41369 22.4328 7.52203 22.5704 7.65853C22.7081 7.79502 22.8169 7.95698 22.8906 8.13505C22.9643 8.31313 23.0015 8.5038 23 8.69608V11.9695H1.00005V8.69608C0.998501 8.5038 1.03566 8.31313 1.10938 8.13505C1.1831 7.95698 1.29192 7.79502 1.42958 7.65853C1.56723 7.52203 1.73098 7.41369 1.91139 7.33976C2.09181 7.26584 2.28532 7.22778 2.48075 7.22778Z" fill="#EBF1F2" stroke="#252B2D" stroke-width="1.2" stroke-linecap="round" stroke-linejoin="round"/>
<path d="M14.5615 7.22778H9.44336V24.0009H14.5615V7.22778Z" fill="#EBF1F2" stroke="#252B2D" stroke-width="1.2" stroke-linecap="round" stroke-linejoin="round"/>
<path d="M5.95703 4.08412C5.95742 3.67882 6.03894 3.27756 6.19694 2.90326C6.35494 2.52896 6.58634 2.18894 6.8779 1.90262C7.16947 1.6163 7.51551 1.38928 7.89625 1.23453C8.277 1.07978 8.68499 1.00032 9.09695 1.0007C9.92741 1.00223 10.7234 1.32767 11.3103 1.90567C11.8973 2.48368 12.2273 3.26708 12.2281 4.08412V7.17041H9.09695C8.68475 7.17079 8.27651 7.09124 7.89558 6.93631C7.51464 6.78137 7.16848 6.5541 6.87687 6.26747C6.58526 5.98085 6.35393 5.64049 6.1961 5.26585C6.03827 4.89122 5.95703 4.48966 5.95703 4.08412Z" fill="#EBF1F2" stroke="#252B2D" stroke-width="1.2" stroke-linecap="round" stroke-linejoin="round"/>
<path d="M12.2305 7.1731V4.85262C12.2305 4.54789 12.2915 4.24614 12.41 3.96461C12.5285 3.68308 12.7023 3.42727 12.9213 3.21179C13.1403 2.99632 13.4003 2.82539 13.6865 2.70877C13.9726 2.59216 14.2793 2.53214 14.5891 2.53214C14.8988 2.53214 15.2055 2.59216 15.4917 2.70877C15.7778 2.82539 16.0378 2.99632 16.2568 3.21179C16.4759 3.42727 16.6496 3.68308 16.7681 3.96461C16.8867 4.24614 16.9477 4.54789 16.9477 4.85262C16.9477 5.46805 16.6992 6.05827 16.2568 6.49344C15.8145 6.92862 15.2146 7.1731 14.5891 7.1731H12.2305Z" fill="#EBF1F2" stroke="#252B2D" stroke-width="1.2" stroke-linecap="round" stroke-linejoin="round"/>
</svg>
