<svg width="50" height="51" viewBox="0 0 50 51" fill="none" xmlns="http://www.w3.org/2000/svg">
<path d="M39.0704 11.0458C39.3126 11.0458 39.5524 11.0936 39.776 11.1865C39.9997 11.2794 40.2028 11.4156 40.3737 11.5871C40.5445 11.7587 40.6799 11.9624 40.7718 12.1864C40.8638 12.4104 40.9107 12.6504 40.9097 12.8926V34.1536C40.9107 34.3957 40.8638 34.6357 40.7718 34.8597C40.6799 35.0837 40.5445 35.2874 40.3737 35.459C40.2028 35.6306 39.9997 35.7667 39.776 35.8596C39.5524 35.9525 39.3126 36.0004 39.0704 36.0004H36.444V42.7367C35.5591 42.7377 34.6827 42.5641 33.865 42.2259C33.0472 41.8877 32.3042 41.3916 31.6785 40.7659C31.0528 40.1401 30.5566 39.3971 30.2185 38.5794C29.8803 37.7617 29.7067 36.8853 29.7077 36.0004H10.6417C10.1519 36.0004 9.68218 35.8058 9.33584 35.4594C8.9895 35.1131 8.79492 34.6434 8.79492 34.1536V12.8926C8.79492 12.4028 8.9895 11.933 9.33584 11.5867C9.68218 11.2404 10.1519 11.0458 10.6417 11.0458H39.0704Z" stroke="#252B2D" stroke-width="1.2" stroke-linecap="round" stroke-linejoin="round"/>
<path d="M13.5488 22.9946H36.4447" stroke="#252B2D" stroke-width="1.2" stroke-linecap="round" stroke-linejoin="round"/>
<path d="M13.5488 17.2292H36.4447" stroke="#252B2D" stroke-width="1.2" stroke-linecap="round" stroke-linejoin="round"/>
<path d="M13.5488 28.8113H36.4447" stroke="#252B2D" stroke-width="1.2" stroke-linecap="round" stroke-linejoin="round"/>
</svg>
