<svg width="39" height="39" viewBox="0 0 39 39" fill="none" xmlns="http://www.w3.org/2000/svg">
<path d="M19.5 39C30.2696 39 39 30.2696 39 19.5C39 8.73045 30.2696 0 19.5 0C8.73045 0 0 8.73045 0 19.5C0 30.2696 8.73045 39 19.5 39Z" fill="#16A1DC"/>
<path d="M14 16L20 12" stroke="white" stroke-width="1.5" stroke-linecap="round" stroke-linejoin="round"/>
<path d="M15 21L20 24" stroke="white" stroke-width="1.5" stroke-linecap="round" stroke-linejoin="round"/>
<path d="M10 24C12.7614 24 15 21.7614 15 19C15 16.2386 12.7614 14 10 14C7.23858 14 5 16.2386 5 19C5 21.7614 7.23858 24 10 24Z" stroke="white" stroke-width="1.5" stroke-linecap="round" stroke-linejoin="round"/>
<path d="M25 16C27.7614 16 30 13.7614 30 11C30 8.23858 27.7614 6 25 6C22.2386 6 20 8.23858 20 11C20 13.7614 22.2386 16 25 16Z" stroke="white" stroke-width="1.5" stroke-linecap="round" stroke-linejoin="round"/>
<path d="M25 32C27.7614 32 30 29.7614 30 27C30 24.2386 27.7614 22 25 22C22.2386 22 20 24.2386 20 27C20 29.7614 22.2386 32 25 32Z" stroke="white" stroke-width="1.5" stroke-linecap="round" stroke-linejoin="round"/>
</svg>
