<svg width="152" height="74" viewBox="0 0 152 74" fill="none" xmlns="http://www.w3.org/2000/svg">
<path d="M136.32 59.8887V15.0586H77.4834V59.8887" stroke="#16A1DC" stroke-width="1.4" stroke-miterlimit="10"/>
<path d="M70.389 5.00005H143.409C144.56 5.00005 145.664 5.45719 146.477 6.27091C147.291 7.08462 147.748 8.18825 147.748 9.33901V60.0354H66.0284V9.36071C66.0255 8.78726 66.1363 8.21892 66.3545 7.68856C66.5726 7.15821 66.8937 6.67635 67.2992 6.27085C67.7047 5.86535 68.1865 5.54426 68.7169 5.32613C69.2472 5.10801 69.8156 4.99718 70.389 5.00005V5.00005Z" stroke="#252B2D" stroke-width="1.4" stroke-miterlimit="10"/>
<path d="M68.8662 59.8845V10.5592C68.8645 10.246 68.9246 9.93553 69.043 9.64559C69.1614 9.35564 69.3358 9.09189 69.5563 8.86943C69.7767 8.64696 70.0389 8.47015 70.3277 8.34912C70.6166 8.22808 70.9265 8.1652 71.2397 8.16406H141.965C142.278 8.16577 142.587 8.22907 142.875 8.35036C143.164 8.47165 143.425 8.64855 143.645 8.87095C143.865 9.09336 144.039 9.35692 144.157 9.64659C144.276 9.93625 144.335 10.2463 144.334 10.5592V59.8845" stroke="#252B2D" stroke-width="1.4" stroke-miterlimit="10"/>
<path d="M64.6879 60.0352H149.111C149.562 60.0352 149.995 60.2144 150.314 60.5333C150.633 60.8523 150.812 61.2849 150.812 61.736V63.528C150.812 65.0931 150.19 66.594 149.083 67.7006C147.977 68.8073 146.476 69.429 144.911 69.429H68.901C67.3359 69.429 65.835 68.8073 64.7284 67.7006C63.6217 66.594 63 65.0931 63 63.528V61.7187C63.0045 61.2728 63.184 60.8466 63.4996 60.5317C63.8153 60.2169 64.242 60.0385 64.6879 60.0352V60.0352Z" stroke="#252B2D" stroke-width="1.4" stroke-miterlimit="10"/>
<path d="M94.1621 60.0352H119.636V61.4497C119.636 62.025 119.408 62.5769 119.001 62.9837C118.594 63.3906 118.042 63.6191 117.467 63.6191H96.3533C95.7779 63.6191 95.2261 63.3906 94.8192 62.9837C94.4124 62.5769 94.1838 62.025 94.1838 61.4497V60.0352H94.1621Z" stroke="#252B2D" stroke-width="1.4" stroke-miterlimit="10"/>
<path d="M96.9115 15.0547H77V34.9662H96.9115V15.0547Z" fill="#16A1DC"/>
<path d="M81.5039 20.573L81.8467 18.0391H92.4077L92.0606 20.573H88.2597L86.6412 31.9541H83.6951L85.3135 20.573H81.5039Z" fill="white"/>
<path d="M1 12.7152V4.8313C1 3.81518 1.40365 2.84067 2.12216 2.12216C2.84067 1.40365 3.81518 1 4.8313 1H50.9544C51.9487 1 52.9022 1.39497 53.6053 2.09802C54.3083 2.80106 54.7033 3.7546 54.7033 4.74886V69.8983H44.0164" stroke="#252B2D" stroke-width="1.4" stroke-miterlimit="10"/>
<path d="M44.0162 15.0736V12.6438C44.0162 11.6277 43.6126 10.6532 42.8941 9.93466C42.1756 9.21615 41.2011 8.8125 40.1849 8.8125H4.94824" stroke="#252B2D" stroke-width="1.4" stroke-miterlimit="10"/>
<path d="M1 8.8125V66.295C1 67.2513 1.37988 68.1684 2.05608 68.8446C2.73227 69.5208 3.64939 69.9007 4.60567 69.9007H38.0157" stroke="#252B2D" stroke-width="1.4" stroke-miterlimit="10"/>
<path d="M1 4.94922C1 5.96534 1.40365 6.93985 2.12216 7.65836C2.84067 8.37687 3.81518 8.78052 4.8313 8.78052H7.02247" stroke="#252B2D" stroke-width="1.4" stroke-miterlimit="10"/>
<path d="M37.7951 36.3265H21.1465V13.7812H40.867V16.5148" stroke="#252B2D" stroke-width="1.4" stroke-miterlimit="10"/>
<path d="M1 12.7602V4.86328" stroke="#252B2D" stroke-width="1.4" stroke-miterlimit="10"/>
<path d="M44.0164 12.7469C44.0164 13.7631 43.6128 14.7376 42.8942 15.4561C42.1757 16.1746 41.2012 16.5782 40.1851 16.5782H38.0156V72.8155H40.1851C41.2012 72.8155 42.1757 72.4118 42.8942 71.6933C43.6128 70.9748 44.0164 70.0003 44.0164 68.9842V12.6602" stroke="#252B2D" stroke-width="1.4" stroke-miterlimit="10"/>
<path d="M6.68848 64.5625H26.3743" stroke="#252B2D" stroke-width="1.4" stroke-miterlimit="10"/>
<path d="M29.9062 64.5625H37.5732" stroke="#252B2D" stroke-width="1.4" stroke-miterlimit="10"/>
<path d="M6.68848 58.9492H26.3743" stroke="#252B2D" stroke-width="1.4" stroke-miterlimit="10"/>
<path d="M29.9062 58.9492H37.5732" stroke="#252B2D" stroke-width="1.4" stroke-miterlimit="10"/>
<path d="M6.68848 53.3477H26.3743" stroke="#252B2D" stroke-width="1.4" stroke-miterlimit="10"/>
<path d="M29.9062 53.3477H37.5732" stroke="#252B2D" stroke-width="1.4" stroke-miterlimit="10"/>
<path d="M6.68848 47.7383H26.3743" stroke="#252B2D" stroke-width="1.4" stroke-miterlimit="10"/>
<path d="M29.9062 47.7383H37.5732" stroke="#252B2D" stroke-width="1.4" stroke-miterlimit="10"/>
<path d="M6.68848 42.1289H26.3743" stroke="#252B2D" stroke-width="1.4" stroke-miterlimit="10"/>
<path d="M6.68848 36.4258H17.922" stroke="#252B2D" stroke-width="1.4" stroke-miterlimit="10"/>
<path d="M6.68848 30.7188H17.922" stroke="#252B2D" stroke-width="1.4" stroke-miterlimit="10"/>
<path d="M29.9062 42.1289H37.5732" stroke="#252B2D" stroke-width="1.4" stroke-miterlimit="10"/>
<path d="M1.43359 4.55859H46.9102C47.7537 4.55859 48.5627 4.89368 49.1591 5.49013C49.7556 6.08658 50.0907 6.89554 50.0907 7.73905V69.8296" stroke="#252B2D" stroke-width="1.4" stroke-miterlimit="10"/>
<path d="M17.922 13.7812H6.68848V25.0148H17.922V13.7812Z" fill="#16A1DC"/>
<path d="M9.24414 16.9041L9.43506 15.4766H15.3794L15.1885 16.9041H13.019L12.1079 23.3257H10.4634L11.3789 16.9041H9.24414Z" fill="white"/>
</svg>
