<svg width="175" height="92" viewBox="0 0 175 92" fill="none" xmlns="http://www.w3.org/2000/svg">
<path d="M88.9728 34.668H69V54.6408H88.9728V34.668Z" fill="#16A1DC"/>
<path d="M73.5137 40.2158L73.862 37.6914H84.4644L84.1211 40.2158H80.3093L78.6836 51.631H75.7301L77.3558 40.2158H73.5137Z" fill="white"/>
<path d="M115.909 82.3327H70.7432C68.6544 82.3327 66.6511 81.5029 65.174 80.0259C63.697 78.5489 62.8672 76.5456 62.8672 74.4567V71.8516" stroke="#252B2D" stroke-width="1.4" stroke-miterlimit="10"/>
<path d="M120.912 37.6797V69.9512" stroke="#252B2D" stroke-width="1.4" stroke-miterlimit="10"/>
<path d="M62.8672 71.8539V29.0508H118.56" stroke="#252B2D" stroke-width="1.4" stroke-miterlimit="10"/>
<path d="M68.5576 63.6992H88.5304" stroke="#252B2D" stroke-width="1.4" stroke-linecap="round" stroke-linejoin="round"/>
<path d="M95.0576 63.6992H115.025" stroke="#252B2D" stroke-width="1.4" stroke-linecap="round" stroke-linejoin="round"/>
<path d="M95.0576 59.0742H115.025" stroke="#252B2D" stroke-width="1.4" stroke-linecap="round" stroke-linejoin="round"/>
<path d="M95 54.4453H114.973" stroke="#252B2D" stroke-width="1.4" stroke-linecap="round" stroke-linejoin="round"/>
<path d="M68.5576 59.0742H88.5304" stroke="#252B2D" stroke-width="1.4" stroke-linecap="round" stroke-linejoin="round"/>
<path d="M95 49.8125H114.973" stroke="#252B2D" stroke-width="1.4" stroke-linecap="round" stroke-linejoin="round"/>
<path d="M95 40.9727H114.973" stroke="#252B2D" stroke-width="1.4" stroke-linecap="round" stroke-linejoin="round"/>
<path d="M95 36.1328H114.973" stroke="#252B2D" stroke-width="1.4" stroke-linecap="round" stroke-linejoin="round"/>
<path d="M70.9601 82.3338C71.9946 82.3344 73.019 82.1312 73.9749 81.7356C74.9307 81.34 75.7993 80.7599 76.5307 80.0284C77.2622 79.2969 77.8424 78.4284 78.2379 77.4725C78.6335 76.5167 78.8368 75.4922 78.8361 74.4577V69.9492H126.905V74.4577C126.906 75.4922 126.702 76.5167 126.307 77.4725C125.911 78.4284 125.331 79.2969 124.6 80.0284C123.868 80.7599 123 81.34 122.044 81.7356C121.088 82.1312 120.064 82.3344 119.029 82.3338H70.7783" stroke="#252B2D" stroke-width="1.4" stroke-miterlimit="10"/>
<path d="M10.1585 78.8027H7.08884C6.68714 78.8027 6.30189 78.6431 6.01784 78.3591C5.73379 78.075 5.57422 77.6898 5.57422 77.2881V51.792C5.57422 51.3903 5.73379 51.005 6.01784 50.721C6.30189 50.4369 6.68714 50.2773 7.08884 50.2773H38.2143C38.616 50.2773 39.0012 50.4369 39.2853 50.721C39.5693 51.005 39.7289 51.3903 39.7289 51.792V55.6643" stroke="#252B2D" stroke-width="1.4" stroke-miterlimit="10"/>
<path d="M10.2594 83.214H2.51462C2.11292 83.214 1.72767 83.0544 1.44362 82.7704C1.15958 82.4863 1 82.1011 1 81.6994V56.1982C1 55.7965 1.15958 55.4113 1.44362 55.1272C1.72767 54.8432 2.11292 54.6836 2.51462 54.6836H5.57415" stroke="#252B2D" stroke-width="1.4" stroke-miterlimit="10"/>
<path d="M137.019 47.3773C147.213 47.3773 155.477 39.1133 155.477 28.9191C155.477 18.7249 147.213 10.4609 137.019 10.4609C126.825 10.4609 118.561 18.7249 118.561 28.9191C118.561 39.1133 126.825 47.3773 137.019 47.3773Z" stroke="#252B2D" stroke-width="1.4" stroke-miterlimit="10"/>
<path d="M137.019 5.51172C141.441 5.51298 145.773 6.76699 149.512 9.12852C153.252 11.4901 156.246 14.8625 158.148 18.8554C160.05 22.8482 160.781 27.2981 160.259 31.6898C159.736 36.0814 157.98 40.2352 155.194 43.67" stroke="#252B2D" stroke-width="1.4" stroke-miterlimit="10"/>
<path d="M137.019 1C142.268 0.998974 147.411 2.4771 151.858 5.26492C156.305 8.05274 159.877 12.0374 162.164 16.7621C164.451 21.4867 165.36 26.7602 164.787 31.9778C164.214 37.1954 162.182 42.1459 158.925 46.2619" stroke="#252B2D" stroke-width="1.4" stroke-miterlimit="10"/>
<path d="M137.023 15.668H137.018C132.897 15.668 129.556 19.0088 129.556 23.13V30.6425C129.556 34.7637 132.897 38.1045 137.018 38.1045H137.023C141.144 38.1045 144.485 34.7637 144.485 30.6425V23.13C144.485 19.0088 141.144 15.668 137.023 15.668Z" stroke="#252B2D" stroke-width="1.4" stroke-miterlimit="10"/>
<path d="M129.792 22.0586H144.241" stroke="#252B2D" stroke-width="1.4" stroke-miterlimit="10"/>
<path d="M129.792 27.1133H144.241" stroke="#252B2D" stroke-width="1.4" stroke-miterlimit="10"/>
<path d="M129.792 32.168H144.241" stroke="#252B2D" stroke-width="1.4" stroke-miterlimit="10"/>
<path d="M138.214 38.1016V40.9945H139.971C140.206 40.9945 140.439 41.0408 140.657 41.1309C140.874 41.221 141.072 41.353 141.238 41.5194C141.405 41.6859 141.537 41.8835 141.627 42.1009C141.717 42.3184 141.763 42.5514 141.763 42.7868V43.4835H132.297V42.7868C132.297 42.3114 132.486 41.8556 132.822 41.5194C133.158 41.1833 133.614 40.9945 134.089 40.9945H135.654V38.1016" stroke="#252B2D" stroke-width="1.4" stroke-miterlimit="10"/>
<path d="M50.9123 15.4023H13.8546C13.2451 15.4017 12.6415 15.5212 12.0783 15.7542C11.5151 15.9871 11.0033 16.3289 10.5723 16.7598C10.1414 17.1908 9.79961 17.7026 9.56668 18.2658C9.33374 18.829 9.21418 19.4326 9.21485 20.0421V38.6114C9.21418 39.2209 9.33374 39.8245 9.56668 40.3877C9.79961 40.951 10.1414 41.4627 10.5723 41.8937C11.0033 42.3247 11.5151 42.6664 12.0783 42.8993C12.6415 43.1323 13.2451 43.2518 13.8546 43.2512H40.7088C41.6337 43.2509 42.5494 43.4331 43.4037 43.7875C44.2579 44.1418 45.0338 44.6613 45.6869 45.3161L55.5572 55.1813V20.0421C55.5572 19.4324 55.437 18.8287 55.2035 18.2654C54.97 17.7021 54.6278 17.1904 54.1964 16.7595C53.7651 16.3286 53.253 15.987 52.6895 15.7541C52.126 15.5212 51.5221 15.4017 50.9123 15.4023V15.4023Z" stroke="#252B2D" stroke-width="1.4" stroke-linecap="round" stroke-linejoin="round"/>
<path d="M16.3887 23.043H35.7405" stroke="#252B2D" stroke-width="1.4" stroke-linecap="round" stroke-linejoin="round"/>
<path d="M16.3887 29.3633H35.7405" stroke="#252B2D" stroke-width="1.4" stroke-linecap="round" stroke-linejoin="round"/>
<path d="M16.3887 35.4453H35.7405" stroke="#252B2D" stroke-width="1.4" stroke-linecap="round" stroke-linejoin="round"/>
<path d="M42.9344 40.0258C42.7257 40.0278 42.5186 39.9882 42.3253 39.9092C42.1321 39.8303 41.9565 39.7136 41.8089 39.566C41.6613 39.4184 41.5446 39.2428 41.4656 39.0495C41.3867 38.8563 41.3471 38.6492 41.3491 38.4405C41.3438 38.2247 41.3833 38.0101 41.465 37.8102C41.5466 37.6104 41.6688 37.4296 41.8237 37.2793C41.9718 37.1274 42.1489 37.0067 42.3444 36.9242C42.5399 36.8418 42.75 36.7994 42.9622 36.7994C43.1744 36.7994 43.3844 36.8418 43.5799 36.9242C43.7754 37.0067 43.9525 37.1274 44.1007 37.2793C44.2536 37.429 44.3745 37.6082 44.4561 37.8061C44.5377 38.004 44.5782 38.2164 44.5752 38.4304C44.5787 38.6407 44.5382 38.8495 44.4565 39.0433C44.3748 39.2371 44.2536 39.4118 44.1007 39.5563C43.9477 39.7087 43.7656 39.8289 43.5652 39.9095C43.3649 39.9902 43.1503 40.0297 42.9344 40.0258ZM41.5864 32.3517C41.559 31.6154 41.7336 30.8856 42.0913 30.2413C42.45 29.6451 42.9056 29.1127 43.4393 28.6661C43.9836 28.2028 44.5607 27.7793 45.1659 27.3989C45.7819 27.0152 46.3574 26.6264 46.8926 26.2326C47.3936 25.8801 47.8423 25.4586 48.2255 24.9806C48.5604 24.5474 48.7384 24.0134 48.7303 23.4659C48.745 23.1344 48.6856 22.8037 48.5563 22.498C48.4271 22.1923 48.2312 21.9193 47.9831 21.6989C47.4202 21.2252 46.6983 20.9834 45.9636 21.0223C45.3246 20.9961 44.6937 21.1729 44.1612 21.5272C43.9369 21.6739 43.7532 21.8748 43.627 22.1113C43.5008 22.3478 43.4363 22.6123 43.4393 22.8803C43.4207 23.0083 43.4367 23.139 43.4855 23.2588C43.5343 23.3786 43.6142 23.4832 43.717 23.5619C43.9126 23.6746 44.1189 23.7676 44.3329 23.8395C44.5484 23.9163 44.7549 24.0161 44.9488 24.1374C45.0535 24.2281 45.1337 24.3435 45.1822 24.4731C45.2307 24.6028 45.246 24.7425 45.2265 24.8796C45.2363 25.0504 45.2083 25.2213 45.1446 25.3801C45.0809 25.5389 44.983 25.6817 44.858 25.7985C44.5727 26.0279 44.214 26.1463 43.8482 26.1317C43.5195 26.1394 43.1929 26.0772 42.89 25.9493C42.5872 25.8213 42.3149 25.6305 42.0913 25.3895C41.623 24.8921 41.3707 24.2296 41.3895 23.5467C41.3905 23.0368 41.5189 22.5353 41.7631 22.0876C42.0127 21.6214 42.3565 21.2122 42.7728 20.886C43.2269 20.5307 43.7395 20.2574 44.2875 20.0782C44.882 19.8822 45.5042 19.7833 46.1302 19.7854C46.7318 19.7795 47.3298 19.8786 47.8973 20.0782C48.3924 20.2546 48.8437 20.5358 49.2201 20.9027C49.5965 21.2695 49.8893 21.7133 50.0784 22.2038C50.2897 22.7369 50.3944 23.3064 50.3863 23.8799C50.4071 24.671 50.2172 25.4533 49.836 26.1468C49.4778 26.7836 49.0231 27.3609 48.488 27.8583C47.9391 28.3674 47.3384 28.8175 46.6957 29.2013C46.0495 29.5951 45.4537 29.9788 44.9034 30.3524C44.4109 30.6867 43.9526 31.0689 43.5352 31.4934C43.1921 31.8269 42.9944 32.2823 42.9849 32.7607C42.9849 33.4422 43.3787 33.7704 44.1663 33.7704C44.9539 33.7704 45.5799 33.3362 46.0596 32.4628L46.7512 32.8717C46.1016 34.2181 45.1542 34.8912 43.9088 34.8912C43.5922 34.9133 43.2745 34.866 42.978 34.7527C42.6815 34.6393 42.4134 34.4626 42.1922 34.2349C41.7616 33.7052 41.5454 33.0331 41.5864 32.3517Z" fill="#252B2D"/>
<path d="M154.492 90.4589C165.224 90.4589 173.925 81.7586 173.925 71.0263C173.925 60.294 165.224 51.5938 154.492 51.5938C143.76 51.5938 135.06 60.294 135.06 71.0263C135.06 81.7586 143.76 90.4589 154.492 90.4589Z" stroke="#252B2D" stroke-width="1.4" stroke-miterlimit="10"/>
<path d="M152.907 59.9646L163.095 70.168C163.322 70.3978 163.45 70.708 163.45 71.0314C163.45 71.3547 163.322 71.665 163.095 71.8947L152.907 82.0831C152.736 82.2554 152.518 82.3731 152.28 82.4212C152.043 82.4692 151.796 82.4454 151.572 82.3529C151.348 82.2603 151.156 82.1031 151.022 81.9013C150.887 81.6995 150.816 81.4622 150.816 81.2197V60.8329C150.817 60.5911 150.889 60.3548 151.024 60.1538C151.158 59.9528 151.349 59.7961 151.573 59.7033C151.796 59.6105 152.042 59.5858 152.279 59.6323C152.516 59.6787 152.735 59.7944 152.907 59.9646V59.9646Z" stroke="#252B2D" stroke-width="1.4" stroke-miterlimit="10"/>
<path d="M10.1582 71.0968L19.3772 61.8828L31.1862 73.6918" stroke="#252B2D" stroke-width="1.4" stroke-miterlimit="10"/>
<path d="M20.4727 84.1705L34.7303 69.918L44.2774 79.4651" stroke="#252B2D" stroke-width="1.4" stroke-miterlimit="10"/>
<path d="M36.6191 65.8164C38.3256 65.8164 39.7089 64.433 39.7089 62.7265C39.7089 61.0201 38.3256 59.6367 36.6191 59.6367C34.9127 59.6367 33.5293 61.0201 33.5293 62.7265C33.5293 64.433 34.9127 65.8164 36.6191 65.8164Z" stroke="#252B2D" stroke-width="1.4" stroke-linecap="round" stroke-linejoin="round"/>
<path d="M42.7831 55.6641H11.6526C10.8273 55.6641 10.1582 56.3331 10.1582 57.1585V82.6748C10.1582 83.5001 10.8273 84.1692 11.6526 84.1692H42.7831C43.6085 84.1692 44.2775 83.5001 44.2775 82.6748V57.1585C44.2775 56.3331 43.6085 55.6641 42.7831 55.6641Z" stroke="#252B2D" stroke-width="1.4" stroke-miterlimit="10"/>
</svg>
