<svg width="235" height="110" viewBox="0 0 235 110" fill="none" xmlns="http://www.w3.org/2000/svg">
<path d="M49.3288 103.107C76.1592 103.107 97.9096 81.368 97.9096 54.551C97.9096 27.7341 76.1592 5.99463 49.3288 5.99463C22.4984 5.99463 0.748047 27.7341 0.748047 54.551C0.748047 81.368 22.4984 103.107 49.3288 103.107Z" fill="white" stroke="#2E2A26" stroke-width="1.5" stroke-miterlimit="10" stroke-linecap="round"/>
<path d="M74.2672 45.8833C74.2672 52.4969 71.6387 58.8396 66.9598 63.5161C62.281 68.1926 55.9351 70.8198 49.3182 70.8198C42.7013 70.8198 36.3554 68.1926 31.6765 63.5161C26.9977 58.8396 24.3691 52.4969 24.3691 45.8833" stroke="#2E2A26" stroke-width="1.5" stroke-miterlimit="10" stroke-linecap="round"/>
<path d="M12.4746 40.4269C12.5304 39.2144 13.0516 38.0701 13.9298 37.2318C14.808 36.3935 15.9756 35.9258 17.19 35.9258C18.4043 35.9258 19.572 36.3935 20.4502 37.2318C21.3283 38.0701 21.8495 39.2144 21.9053 40.4269" stroke="#2E2A26" stroke-width="1.5" stroke-miterlimit="10" stroke-linecap="round"/>
<path d="M74.3672 40.427C74.3672 39.1757 74.8645 37.9756 75.7498 37.0909C76.635 36.2061 77.8356 35.709 79.0875 35.709C80.3395 35.709 81.5401 36.2061 82.4253 37.0909C83.3106 37.9756 83.8079 39.1757 83.8079 40.427" stroke="#2E2A26" stroke-width="1.5" stroke-miterlimit="10" stroke-linecap="round"/>
<path d="M185.591 31.4099L152.089 1.00732L118.588 31.4099H136.781V72.5452H167.408V31.4099H185.591Z" fill="white" stroke="#16A1DC" stroke-width="1.5" stroke-miterlimit="10" stroke-linecap="round"/>
<path d="M116.032 86.6192C129.535 86.6192 140.482 75.6781 140.482 62.1814C140.482 48.6848 129.535 37.7437 116.032 37.7437C102.529 37.7437 91.582 48.6848 91.582 62.1814C91.582 75.6781 102.529 86.6192 116.032 86.6192Z" fill="white" stroke="#2E2A26" stroke-width="1.5" stroke-miterlimit="10"/>
<path d="M138.387 87.3975H94.6865C93.2535 87.3975 92.0918 88.5586 92.0918 89.9909V95.7362C92.0918 97.1685 93.2535 98.3296 94.6865 98.3296H138.387C139.82 98.3296 140.982 97.1685 140.982 95.7362V89.9909C140.982 88.5586 139.82 87.3975 138.387 87.3975Z" stroke="#2E2A26" stroke-width="1.5" stroke-miterlimit="10" stroke-linecap="round"/>
<path d="M99.4766 90.3999V95.3174" stroke="#2E2A26" stroke-width="1.5" stroke-miterlimit="10" stroke-linecap="round"/>
<path d="M108.01 90.3999V95.3174" stroke="#2E2A26" stroke-width="1.5" stroke-miterlimit="10" stroke-linecap="round"/>
<path d="M116.541 90.3999V95.3174" stroke="#2E2A26" stroke-width="1.5" stroke-miterlimit="10" stroke-linecap="round"/>
<path d="M125.064 90.3999V95.3174" stroke="#2E2A26" stroke-width="1.5" stroke-miterlimit="10" stroke-linecap="round"/>
<path d="M133.598 90.3999V95.3174" stroke="#2E2A26" stroke-width="1.5" stroke-miterlimit="10" stroke-linecap="round"/>
<path d="M146.301 98.3198H102.601C101.168 98.3198 100.006 99.4809 100.006 100.913V106.659C100.006 108.091 101.168 109.252 102.601 109.252H146.301C147.734 109.252 148.896 108.091 148.896 106.659V100.913C148.896 99.4809 147.734 98.3198 146.301 98.3198Z" stroke="#2E2A26" stroke-width="1.5" stroke-miterlimit="10" stroke-linecap="round"/>
<path d="M107.391 101.332V106.25" stroke="#2E2A26" stroke-width="1.5" stroke-miterlimit="10" stroke-linecap="round"/>
<path d="M115.922 101.332V106.25" stroke="#2E2A26" stroke-width="1.5" stroke-miterlimit="10" stroke-linecap="round"/>
<path d="M124.445 101.332V106.25" stroke="#2E2A26" stroke-width="1.5" stroke-miterlimit="10" stroke-linecap="round"/>
<path d="M132.979 101.332V106.25" stroke="#2E2A26" stroke-width="1.5" stroke-miterlimit="10" stroke-linecap="round"/>
<path d="M141.5 101.332V106.25" stroke="#2E2A26" stroke-width="1.5" stroke-miterlimit="10" stroke-linecap="round"/>
<path d="M116.76 45.604V49.4343C117.619 49.5174 118.464 49.7084 119.275 50.0028C120.022 50.2668 120.728 50.6363 121.371 51.1C121.915 51.5054 122.381 52.0055 122.748 52.5763C123.077 53.0814 123.257 53.6692 123.267 54.2719C123.282 54.5002 123.251 54.729 123.175 54.9449C123.1 55.1608 122.982 55.3594 122.828 55.5287C122.669 55.681 122.481 55.7994 122.275 55.8766C122.069 55.9537 121.85 55.9881 121.63 55.9776C121.265 55.9975 120.906 55.872 120.632 55.6285C120.402 55.3778 120.225 55.0825 120.113 54.7607C119.98 54.3845 119.867 54.0016 119.774 53.6136C119.67 53.2024 119.512 52.8067 119.305 52.4366C119.084 52.0414 118.777 51.7007 118.407 51.4392C117.915 51.1133 117.348 50.9176 116.76 50.8706V59.5485C117.955 60.0593 119.119 60.6423 120.243 61.2941C121.073 61.769 121.837 62.349 122.518 63.0197C123.056 63.5626 123.474 64.2114 123.746 64.9248C124.002 65.6105 124.131 66.3374 124.125 67.0694C124.135 68.0012 123.951 68.9249 123.586 69.7825C123.236 70.6015 122.723 71.3411 122.079 71.9569C121.403 72.5923 120.615 73.0963 119.754 73.4431C118.8 73.8329 117.789 74.0653 116.76 74.1314V79.2284H115.034V74.1713C114.018 74.1336 113.011 73.9626 112.04 73.6626C111.154 73.3988 110.31 73.0092 109.535 72.5055C108.843 72.0663 108.246 71.4932 107.779 70.8198C107.354 70.1711 107.131 69.4107 107.14 68.6354C107.111 68.3656 107.138 68.093 107.219 67.834C107.3 67.575 107.432 67.3352 107.609 67.1292C107.749 66.9886 107.915 66.8773 108.098 66.802C108.282 66.7266 108.478 66.6886 108.677 66.6903C108.859 66.6765 109.042 66.7014 109.214 66.7633C109.386 66.8252 109.543 66.9227 109.675 67.0494C109.926 67.2994 110.123 67.5982 110.253 67.9272C110.401 68.2788 110.518 68.6426 110.603 69.0144C110.683 69.3935 110.762 69.7027 110.822 69.952C110.897 70.3033 111.029 70.6401 111.212 70.9495C111.406 71.2767 111.664 71.5616 111.97 71.7874C112.339 72.0626 112.755 72.2688 113.197 72.3958C113.794 72.5714 114.412 72.662 115.034 72.6651V63.1693C114.235 62.8302 113.457 62.481 112.679 62.102C111.925 61.74 111.226 61.2732 110.603 60.7155C109.989 60.1686 109.488 59.5081 109.126 58.7705C108.725 57.9163 108.531 56.9803 108.557 56.0374C108.544 55.1517 108.7 54.2716 109.016 53.444C109.31 52.6963 109.755 52.0172 110.323 51.4491C110.89 50.8618 111.569 50.3937 112.319 50.0726C113.167 49.71 114.073 49.5006 114.994 49.4542V45.604H116.76ZM111.511 54.4615C111.507 55.332 111.803 56.1773 112.349 56.8554C113.084 57.7117 114.001 58.3933 115.034 58.8503V50.9703C114.074 51.0728 113.172 51.4781 112.459 52.1274C112.143 52.4274 111.893 52.7899 111.724 53.1917C111.556 53.5935 111.473 54.0259 111.481 54.4615H111.511ZM120.882 68.5755C120.893 68.0192 120.78 67.4674 120.552 66.9596C120.337 66.4916 120.04 66.066 119.674 65.7028C119.286 65.3118 118.847 64.9762 118.367 64.7054C117.868 64.4261 117.369 64.1568 116.76 63.9074V72.5155C117.913 72.4454 119.008 71.9845 119.864 71.2088C120.194 70.8567 120.451 70.4427 120.621 69.9908C120.79 69.5389 120.869 69.0579 120.852 68.5755H120.882Z" fill="#2E2A26"/>
<path d="M196.997 40.7061C196.293 41.25 195.706 41.9309 195.272 42.7077C194.838 43.4845 194.567 44.3412 194.473 45.2259C194.38 46.1106 194.467 47.005 194.729 47.8551C194.992 48.7052 195.423 49.4934 195.999 50.172L195.919 50.2518C194.659 49.1879 193.045 48.6354 191.396 48.7038C189.748 48.7721 188.185 49.4563 187.017 50.6209C185.856 51.789 185.175 53.3496 185.109 54.9948C185.042 56.64 185.595 58.2503 186.658 59.5083L186.568 59.598C185.314 58.5269 183.703 57.9668 182.054 58.0291C180.406 58.0914 178.841 58.7715 177.671 59.9343C176.502 61.097 175.813 62.6571 175.742 64.3044C175.671 65.9516 176.222 67.5653 177.287 68.8246L155.781 47.439C154.64 46.2476 153.1 45.5171 151.455 45.3865C149.81 45.256 148.174 45.7344 146.859 46.7308C146.156 47.3019 145.58 48.0144 145.17 48.8222C144.759 49.63 144.523 50.515 144.477 51.4198C144.431 52.3245 144.576 53.2289 144.902 54.0742C145.228 54.9195 145.728 55.6868 146.37 56.3264L168.096 78.0411L172.726 82.6693L178.664 88.6541H162.407C160.594 88.6174 158.831 89.2471 157.451 90.4238C156.071 91.6004 155.172 93.2423 154.923 95.0378C154.822 96.0283 154.931 97.0288 155.241 97.9748C155.551 98.9207 156.057 99.7912 156.724 100.53C157.392 101.269 158.207 101.859 159.117 102.264C160.027 102.668 161.012 102.877 162.008 102.878H186.618C190.333 102.805 194.022 103.512 197.446 104.953C202.751 107.31 208.687 107.847 214.329 106.481C219.972 105.116 225.004 101.923 228.642 97.4018C237.185 86.8487 235.738 71.3382 226.127 61.7426L216.727 52.3465L212.206 47.818L205.949 41.5639C204.811 40.3649 203.279 39.6176 201.633 39.46C199.988 39.3023 198.341 39.7449 196.997 40.7061Z" fill="white" stroke="#2E2A26" stroke-width="1.5" stroke-linecap="round" stroke-linejoin="round"/>
<path d="M177.287 68.8545L184.562 76.116" stroke="#2E2A26" stroke-width="1.5" stroke-linecap="round" stroke-linejoin="round"/>
<path d="M186.479 59.5186L193.744 66.79" stroke="#2E2A26" stroke-width="1.5" stroke-linecap="round" stroke-linejoin="round"/>
<path d="M195.85 50.4517L203.125 57.7132" stroke="#2E2A26" stroke-width="1.5" stroke-linecap="round" stroke-linejoin="round"/>
</svg>
