<svg width="155" height="73" viewBox="0 0 155 73" fill="none" xmlns="http://www.w3.org/2000/svg">
<path d="M32.5368 68.4261C50.2334 68.4261 64.5794 53.999 64.5794 36.2023C64.5794 18.4056 50.2334 3.97852 32.5368 3.97852C14.8401 3.97852 0.494141 18.4056 0.494141 36.2023C0.494141 53.999 14.8401 68.4261 32.5368 68.4261Z" fill="white" stroke="#252B2D" stroke-width="1.4" stroke-miterlimit="10" stroke-linecap="round"/>
<path d="M48.9857 30.4497C48.9857 34.8387 47.252 39.048 44.1659 42.1515C41.0799 45.255 36.8943 46.9985 32.53 46.9985C28.1656 46.9985 23.98 45.255 20.894 42.1515C17.8079 39.048 16.0742 34.8387 16.0742 30.4497" stroke="#252B2D" stroke-width="1.4" stroke-miterlimit="10" stroke-linecap="round"/>
<path d="M8.22852 26.8291C8.26533 26.0245 8.60909 25.2651 9.18832 24.7088C9.76755 24.1525 10.5377 23.842 11.3387 23.842C12.1396 23.842 12.9098 24.1525 13.489 24.7088C14.0682 25.2651 14.412 26.0245 14.4488 26.8291" stroke="#252B2D" stroke-width="1.4" stroke-miterlimit="10" stroke-linecap="round"/>
<path d="M49.0527 26.829C49.0527 25.9986 49.3808 25.2022 49.9646 24.6151C50.5485 24.0279 51.3404 23.698 52.1662 23.698C52.9919 23.698 53.7838 24.0279 54.3677 24.6151C54.9516 25.2022 55.2796 25.9986 55.2796 26.829" stroke="#252B2D" stroke-width="1.4" stroke-miterlimit="10" stroke-linecap="round"/>
<path d="M122.412 20.845L100.316 0.668701L78.2188 20.845H90.2183V48.1439H110.419V20.845H122.412Z" fill="white" stroke="#16A1DC" stroke-width="1.4" stroke-miterlimit="10" stroke-linecap="round"/>
<path d="M76.5329 57.484C85.4394 57.484 92.6595 50.223 92.6595 41.2661C92.6595 32.3093 85.4394 25.0483 76.5329 25.0483C67.6264 25.0483 60.4062 32.3093 60.4062 41.2661C60.4062 50.223 67.6264 57.484 76.5329 57.484Z" fill="white" stroke="#252B2D" stroke-width="1.4" stroke-miterlimit="10"/>
<path d="M91.2775 58.0002H62.4536C61.5084 58.0002 60.7422 58.7708 60.7422 59.7213V63.5342C60.7422 64.4847 61.5084 65.2552 62.4536 65.2552H91.2775C92.2227 65.2552 92.9889 64.4847 92.9889 63.5342V59.7213C92.9889 58.7708 92.2227 58.0002 91.2775 58.0002Z" stroke="#252B2D" stroke-width="1.4" stroke-miterlimit="10" stroke-linecap="round"/>
<path d="M65.6133 59.9927V63.2561" stroke="#252B2D" stroke-width="1.4" stroke-miterlimit="10" stroke-linecap="round"/>
<path d="M71.2402 59.9927V63.2561" stroke="#252B2D" stroke-width="1.4" stroke-miterlimit="10" stroke-linecap="round"/>
<path d="M76.8691 59.9927V63.2561" stroke="#252B2D" stroke-width="1.4" stroke-miterlimit="10" stroke-linecap="round"/>
<path d="M82.4902 59.9927V63.2561" stroke="#252B2D" stroke-width="1.4" stroke-miterlimit="10" stroke-linecap="round"/>
<path d="M88.1172 59.9927V63.2561" stroke="#252B2D" stroke-width="1.4" stroke-miterlimit="10" stroke-linecap="round"/>
<path d="M96.4962 65.2485H67.6723C66.7272 65.2485 65.9609 66.0191 65.9609 66.9696V70.7825C65.9609 71.733 66.7272 72.5035 67.6723 72.5035H96.4962C97.4414 72.5035 98.2076 71.733 98.2076 70.7825V66.9696C98.2076 66.0191 97.4414 65.2485 96.4962 65.2485Z" stroke="#252B2D" stroke-width="1.4" stroke-miterlimit="10" stroke-linecap="round"/>
<path d="M70.832 67.2478V70.5112" stroke="#252B2D" stroke-width="1.4" stroke-miterlimit="10" stroke-linecap="round"/>
<path d="M76.4609 67.2478V70.5112" stroke="#252B2D" stroke-width="1.4" stroke-miterlimit="10" stroke-linecap="round"/>
<path d="M82.082 67.2478V70.5112" stroke="#252B2D" stroke-width="1.4" stroke-miterlimit="10" stroke-linecap="round"/>
<path d="M87.709 67.2478V70.5112" stroke="#252B2D" stroke-width="1.4" stroke-miterlimit="10" stroke-linecap="round"/>
<path d="M93.3301 67.2478V70.5112" stroke="#252B2D" stroke-width="1.4" stroke-miterlimit="10" stroke-linecap="round"/>
<path d="M77.0127 30.2644V32.8063C77.5792 32.8615 78.1365 32.9883 78.6714 33.1836C79.1644 33.3588 79.6298 33.604 80.0537 33.9118C80.4126 34.1808 80.7203 34.5127 80.9621 34.8914C81.1792 35.2267 81.2979 35.6167 81.3044 36.0168C81.3141 36.1682 81.2936 36.3201 81.2438 36.4634C81.194 36.6067 81.1161 36.7384 81.0147 36.8508C80.9101 36.9519 80.7861 37.0304 80.6503 37.0817C80.5145 37.1329 80.3697 37.1557 80.2249 37.1487C79.9836 37.1619 79.747 37.0786 79.5666 36.917C79.4145 36.7507 79.298 36.5547 79.2243 36.3411C79.1366 36.0915 79.0619 35.8374 79.0005 35.5799C78.9319 35.307 78.8279 35.0444 78.6912 34.7988C78.5452 34.5365 78.3428 34.3104 78.0988 34.1368C77.7744 33.9206 77.4007 33.7907 77.0127 33.7595V39.5185C77.8011 39.8575 78.5682 40.2443 79.3099 40.6769C79.8571 40.9921 80.3615 41.377 80.8107 41.8221C81.165 42.1824 81.4407 42.613 81.6203 43.0864C81.7895 43.5414 81.8743 44.0238 81.8704 44.5096C81.8768 45.128 81.7557 45.741 81.515 46.3101C81.2839 46.8536 80.9458 47.3445 80.5211 47.7532C80.0752 48.1748 79.5551 48.5093 78.9874 48.7395C78.358 48.9981 77.6912 49.1524 77.0127 49.1962V52.5788H75.874V49.2227C75.2039 49.1977 74.5399 49.0842 73.8993 48.8851C73.3148 48.7101 72.7584 48.4515 72.2471 48.1172C71.7906 47.8258 71.3968 47.4454 71.0886 46.9985C70.8084 46.568 70.6618 46.0634 70.6674 45.5489C70.6487 45.3699 70.6664 45.1889 70.7196 45.017C70.7728 44.8452 70.8603 44.686 70.9767 44.5493C71.0689 44.456 71.1787 44.3822 71.2996 44.3321C71.4206 44.2821 71.5503 44.2569 71.681 44.2581C71.8013 44.2489 71.922 44.2654 72.0355 44.3065C72.1489 44.3475 72.2524 44.4123 72.3393 44.4964C72.5047 44.6623 72.6347 44.8605 72.721 45.0789C72.8185 45.3122 72.8956 45.5536 72.9514 45.8004C73.0041 46.052 73.0567 46.2572 73.0962 46.4226C73.1458 46.6558 73.2324 46.8793 73.3529 47.0846C73.481 47.3017 73.6511 47.4908 73.8532 47.6406C74.0966 47.8233 74.3709 47.9601 74.6628 48.0444C75.0562 48.1609 75.4639 48.2211 75.874 48.2232V41.9214C75.3474 41.6963 74.834 41.4646 74.3205 41.2131C73.8233 40.9728 73.3624 40.663 72.9514 40.293C72.5469 39.93 72.2161 39.4916 71.9772 39.0022C71.7132 38.4353 71.5847 37.8142 71.6021 37.1884C71.5935 36.6006 71.6963 36.0165 71.9048 35.4673C72.0987 34.9711 72.3923 34.5205 72.7671 34.1434C73.1409 33.7537 73.5885 33.4431 74.0836 33.2299C74.6428 32.9893 75.2401 32.8503 75.8476 32.8195V30.2644H77.0127ZM73.5504 36.1425C73.5478 36.7202 73.7431 37.2812 74.1033 37.7312C74.5882 38.2995 75.1931 38.7518 75.874 39.0551V33.8257C75.2411 33.8937 74.6463 34.1627 74.1757 34.5936C73.9673 34.7927 73.8023 35.0332 73.6913 35.2999C73.5802 35.5665 73.5255 35.8535 73.5307 36.1425H73.5504ZM79.7312 45.5091C79.7383 45.14 79.6642 44.7737 79.514 44.4368C79.372 44.1262 79.1758 43.8437 78.9347 43.6027C78.6789 43.3432 78.3888 43.1205 78.0724 42.9408C77.7433 42.7554 77.4142 42.5767 77.0127 42.4112V48.1239C77.7733 48.0773 78.4953 47.7714 79.0598 47.2567C79.2776 47.023 79.4473 46.7483 79.5591 46.4484C79.671 46.1485 79.7227 45.8293 79.7114 45.5091H79.7312Z" fill="#252B2D"/>
<path d="M129.935 27.0145C129.471 27.3754 129.084 27.8273 128.798 28.3428C128.512 28.8583 128.332 29.4268 128.271 30.0139C128.209 30.6011 128.267 31.1946 128.44 31.7588C128.613 32.323 128.897 32.846 129.277 33.2964L129.224 33.3494C128.393 32.6433 127.328 32.2767 126.241 32.322C125.154 32.3674 124.123 32.8214 123.353 33.5943C122.587 34.3695 122.138 35.4051 122.094 36.4969C122.05 37.5888 122.415 38.6575 123.116 39.4923L123.057 39.5518C122.23 38.841 121.167 38.4693 120.079 38.5106C118.992 38.552 117.96 39.0033 117.189 39.775C116.417 40.5466 115.963 41.582 115.916 42.6751C115.869 43.7683 116.233 44.8392 116.935 45.6749L102.75 31.4827C101.998 30.692 100.982 30.2072 99.8971 30.1206C98.812 30.0339 97.7332 30.3514 96.8658 31.0127C96.4017 31.3917 96.0219 31.8645 95.7513 32.4006C95.4806 32.9367 95.325 33.524 95.2946 34.1244C95.2642 34.7249 95.3596 35.3251 95.5747 35.886C95.7898 36.447 96.1198 36.9562 96.5432 37.3806L110.873 51.7913L113.927 54.8628L117.844 58.8345H107.121C105.925 58.8101 104.762 59.228 103.852 60.0089C102.942 60.7898 102.348 61.8794 102.184 63.071C102.118 63.7283 102.19 64.3923 102.394 65.02C102.599 65.6478 102.932 66.2255 103.373 66.7157C103.813 67.206 104.351 67.598 104.951 67.8664C105.551 68.1348 106.201 68.2736 106.858 68.2739H123.09C125.54 68.2256 127.973 68.6946 130.231 69.6508C133.73 71.2149 137.646 71.5716 141.367 70.6653C145.089 69.759 148.408 67.6405 150.808 64.6398C156.442 57.6364 155.488 47.343 149.149 40.975L142.948 34.7395L139.967 31.7342L135.84 27.5838C135.09 26.7881 134.079 26.2921 132.993 26.1875C131.908 26.0828 130.822 26.3766 129.935 27.0145Z" fill="white" stroke="#252B2D" stroke-width="1.4" stroke-linecap="round" stroke-linejoin="round"/>
<path d="M116.936 45.6946L121.734 50.5136" stroke="#252B2D" stroke-width="1.4" stroke-linecap="round" stroke-linejoin="round"/>
<path d="M122.998 39.4988L127.79 44.3244" stroke="#252B2D" stroke-width="1.4" stroke-linecap="round" stroke-linejoin="round"/>
<path d="M129.178 33.4814L133.976 38.3004" stroke="#252B2D" stroke-width="1.4" stroke-linecap="round" stroke-linejoin="round"/>
</svg>
