<svg width="35" height="35" viewBox="0 0 35 35" fill="none" xmlns="http://www.w3.org/2000/svg">
<path d="M17.5 35C27.165 35 35 27.165 35 17.5C35 7.83502 27.165 0 17.5 0C7.83502 0 0 7.83502 0 17.5C0 27.165 7.83502 35 17.5 35Z" fill="#FFBB0F"/>
<path d="M24.2544 13.8495L17.8594 26.1255L10.1293 30.7137L9.45117 21.7491L15.7984 9.56323" stroke="#252B2D" stroke-width="1.2" stroke-linecap="round" stroke-linejoin="round"/>
<path d="M17.293 6.70229L17.6638 5.98703C17.9511 5.43524 18.3443 4.94544 18.8209 4.54562C19.2976 4.1458 19.8483 3.84378 20.4416 3.65682C21.035 3.46986 21.6594 3.40162 22.2791 3.45599C22.8988 3.51037 23.5018 3.68629 24.0535 3.97371V3.97371C25.1641 4.55924 25.9989 5.55914 26.3768 6.7564C26.7548 7.95365 26.6453 9.25164 26.0721 10.3687L25.6959 11.0839" stroke="#252B2D" stroke-width="1.2" stroke-linecap="round" stroke-linejoin="round"/>
<path d="M25.7506 11.2048L17.152 6.72481C16.6927 6.4855 16.1263 6.66386 15.887 7.12318L15.3533 8.1475C15.114 8.60682 15.2924 9.17317 15.7517 9.41248L24.3503 13.8925C24.8097 14.1318 25.376 13.9534 25.6153 13.4941L26.149 12.4698C26.3883 12.0105 26.21 11.4441 25.7506 11.2048Z" stroke="#252B2D" stroke-width="1.2" stroke-linecap="round" stroke-linejoin="round"/>
<path d="M9.45117 21.7491L17.6051 25.993" stroke="#252B2D" stroke-width="1.2" stroke-linecap="round" stroke-linejoin="round"/>
<path d="M9.78125 26.1044L14.1046 28.3561L10.1309 30.7138L9.78125 26.1044Z" fill="#252B2D" stroke="#252B2D" stroke-width="1.2" stroke-linecap="round" stroke-linejoin="round"/>
</svg>
