<svg width="39" height="39" viewBox="0 0 39 39" fill="none" xmlns="http://www.w3.org/2000/svg">
<g clip-path="url(#clip0)">
<path d="M19.4955 38.3188C29.8913 38.3188 38.3188 29.8913 38.3188 19.4955C38.3188 9.0997 29.8913 0.672241 19.4955 0.672241C9.0997 0.672241 0.672241 9.0997 0.672241 19.4955C0.672241 29.8913 9.0997 38.3188 19.4955 38.3188Z" stroke="#16A1DC" stroke-width="1.5" stroke-linecap="round" stroke-linejoin="round"/>
<path d="M29.1671 19.1908C29.0905 21.7037 28.0385 24.0881 26.2339 25.8385C24.4293 27.589 22.0141 28.568 19.5 28.568C16.9859 28.568 14.5706 27.589 12.766 25.8385C10.9615 24.0881 9.90941 21.7037 9.83289 19.1908H29.1671Z" stroke="#16A1DC" stroke-width="1.5" stroke-linecap="round" stroke-linejoin="round"/>
<path d="M6.17584 18.9128C7.18571 18.9128 8.00438 18.0942 8.00438 17.0843C8.00438 16.0744 7.18571 15.2557 6.17584 15.2557C5.16596 15.2557 4.34729 16.0744 4.34729 17.0843C4.34729 18.0942 5.16596 18.9128 6.17584 18.9128Z" fill="#16A1DC"/>
<path d="M32.618 18.9128C33.6279 18.9128 34.4465 18.0942 34.4465 17.0843C34.4465 16.0744 33.6279 15.2557 32.618 15.2557C31.6081 15.2557 30.7894 16.0744 30.7894 17.0843C30.7894 18.0942 31.6081 18.9128 32.618 18.9128Z" fill="#16A1DC"/>
</g>
<defs>
<clipPath id="clip0">
<rect width="39" height="39" fill="white"/>
</clipPath>
</defs>
</svg>
