<svg width="29" height="29" viewBox="0 0 29 29" fill="none" xmlns="http://www.w3.org/2000/svg">
<path d="M25.033 1H3.96703C2.32839 1 1 2.32839 1 3.96703V25.033C1 26.6716 2.32839 28 3.96703 28H25.033C26.6716 28 28 26.6716 28 25.033V3.96703C28 2.32839 26.6716 1 25.033 1Z" stroke="#000000" stroke-width="1.5" stroke-linecap="round" stroke-linejoin="round"/>
<path d="M21.2863 13.1524V11.0261C21.2864 10.3936 21.161 9.76738 20.9175 9.18367C20.6739 8.59996 20.3171 8.07033 19.8676 7.62541C19.4181 7.18049 18.8848 6.82911 18.2986 6.59161C17.7124 6.3541 17.085 6.23517 16.4525 6.24171H14.9937C14.3722 6.24314 13.7572 6.36888 13.185 6.61153C12.6127 6.85418 12.0948 7.20884 11.6617 7.65464C11.2285 8.10044 10.889 8.62837 10.6629 9.20736C10.4369 9.78635 10.3289 10.4047 10.3454 11.0261V28H15.1297V19.4203H18.2451V16.3049H15.1297V11.3598C15.1166 11.262 15.1245 11.1625 15.1529 11.068C15.1814 10.9735 15.2297 10.8861 15.2947 10.8118C15.3597 10.7375 15.4398 10.6779 15.5297 10.6371C15.6196 10.5963 15.7171 10.5752 15.8159 10.5752C15.9146 10.5752 16.0121 10.5963 16.102 10.6371C16.1919 10.6779 16.272 10.7375 16.337 10.8118C16.402 10.8861 16.4503 10.9735 16.4788 11.068C16.5072 11.1625 16.5151 11.262 16.502 11.3598V13.1153L21.2863 13.1524Z" stroke="#000000" stroke-width="1.5" stroke-linecap="round" stroke-linejoin="round"/>
</svg>
