<svg width="42" height="41" viewBox="0 0 42 41" fill="none" xmlns="http://www.w3.org/2000/svg">
<path d="M36.2143 1H5.78571C3.41878 1 1.5 2.91878 1.5 5.28571V35.7143C1.5 38.0812 3.41878 40 5.78571 40H36.2143C38.5812 40 40.5 38.0812 40.5 35.7143V5.28571C40.5 2.91878 38.5812 1 36.2143 1Z" stroke="#16A1DC" stroke-width="1.5" stroke-linecap="round" stroke-linejoin="round"/>
<path d="M30.803 18.5528V15.4814C30.8031 14.5678 30.622 13.6633 30.2702 12.8202C29.9185 11.977 29.403 11.212 28.7537 10.5694C28.1044 9.92669 27.3341 9.41915 26.4874 9.07608C25.6407 8.73302 24.7344 8.56124 23.8209 8.57068H21.7137C20.8159 8.57275 19.9276 8.75437 19.101 9.10487C18.2745 9.45536 17.5264 9.96765 16.9007 10.6116C16.2751 11.2555 15.7846 12.0181 15.4581 12.8544C15.1316 13.6907 14.9756 14.5839 14.9994 15.4814V39.9993H21.9102V27.6064H26.4102V23.1064H21.9102V15.9635C21.8911 15.8222 21.9026 15.6785 21.9437 15.542C21.9848 15.4054 22.0546 15.2793 22.1485 15.1719C22.2423 15.0646 22.358 14.9786 22.4879 14.9196C22.6177 14.8607 22.7586 14.8302 22.9012 14.8302C23.0438 14.8302 23.1847 14.8607 23.3146 14.9196C23.4444 14.9786 23.5601 15.0646 23.654 15.1719C23.7479 15.2793 23.8177 15.4054 23.8588 15.542C23.8999 15.6785 23.9113 15.8222 23.8923 15.9635V18.4993L30.803 18.5528Z" stroke="#16A1DC" stroke-width="1.5" stroke-linecap="round" stroke-linejoin="round"/>
</svg>
