<svg width="46" height="39" viewBox="0 0 46 39" fill="none" xmlns="http://www.w3.org/2000/svg">
<path d="M1.5 20.6713L13.2455 8.92578L28.3013 23.9747" stroke="white" stroke-width="1.5" stroke-miterlimit="10"/>
<path d="M14.6469 37.3242L32.8089 19.1621L44.9827 31.3291" stroke="white" stroke-width="1.5" stroke-miterlimit="10"/>
<path d="M36.4104 12.7456C38.584 12.7456 40.346 10.9836 40.346 8.81008C40.346 6.63653 38.584 4.87451 36.4104 4.87451C34.2369 4.87451 32.4749 6.63653 32.4749 8.81008C32.4749 10.9836 34.2369 12.7456 36.4104 12.7456Z" stroke="white" stroke-width="1.5" stroke-miterlimit="10"/>
<path d="M43.0716 1H3.40321C2.3521 1 1.5 1.8521 1.5 2.90321V35.4209C1.5 36.472 2.3521 37.3241 3.40321 37.3241H43.0716C44.1227 37.3241 44.9748 36.472 44.9748 35.4209V2.90321C44.9748 1.8521 44.1227 1 43.0716 1Z" stroke="white" stroke-width="1.5" stroke-miterlimit="10"/>
</svg>
