<svg width="293" height="43" viewBox="0 0 293 43" fill="none" xmlns="http://www.w3.org/2000/svg">
<path d="M274.831 43L0.50004 43L0.5 21.5L0.50004 0L274.831 0L293 21.5L274.831 43Z" fill="#BA5749"/>
<path d="M15.918 28.893C16.26 28.821 16.539 28.731 16.755 28.623C16.971 28.515 17.205 28.335 17.457 28.083V13.908C17.079 13.584 16.53 13.296 15.81 13.044L15.918 11.991H23.451L23.289 13.098C22.857 13.188 22.506 13.287 22.236 13.395C21.966 13.503 21.696 13.674 21.426 13.908V19.929H27.609V13.908C27.339 13.674 27.069 13.503 26.799 13.395C26.529 13.287 26.178 13.188 25.746 13.098L25.881 11.991H33.387L33.225 13.044C32.523 13.26 31.974 13.548 31.578 13.908V28.083C31.992 28.461 32.667 28.749 33.603 28.947L33.414 30H25.962L26.07 28.893C26.412 28.821 26.691 28.731 26.907 28.623C27.123 28.515 27.357 28.335 27.609 28.083V21.63H21.426V28.083C21.84 28.461 22.515 28.749 23.451 28.947L23.262 30H15.81L15.918 28.893ZM33.4603 28.92C33.9103 28.902 34.2793 28.821 34.5673 28.677C34.8733 28.533 35.0713 28.344 35.1613 28.11L40.8583 11.991H43.6663L49.4173 27.84C49.5253 28.128 49.7053 28.362 49.9573 28.542C50.2273 28.704 50.6143 28.83 51.1183 28.92L50.9833 30H43.5853L43.7473 28.92C44.5753 28.794 45.1153 28.569 45.3673 28.245L44.0983 24.384H38.5363L37.2403 28.11C37.7443 28.524 38.5093 28.794 39.5353 28.92L39.4003 30H33.2982L33.4603 28.92ZM43.5313 22.683L41.4253 16.203L39.1303 22.683H43.5313ZM42.7753 6.645C43.1893 6.033 43.7023 5.727 44.3143 5.727C44.6923 5.727 44.9893 5.844 45.2053 6.078C45.4393 6.312 45.5563 6.618 45.5563 6.996C45.5563 7.266 45.4843 7.536 45.3403 7.806C45.1963 8.076 44.9803 8.31 44.6923 8.508L41.5333 10.749L40.6153 9.858L42.7753 6.645ZM50.9639 28.893C51.3059 28.821 51.5849 28.731 51.8009 28.623C52.0349 28.497 52.2689 28.317 52.5029 28.083V13.908C52.1789 13.584 51.6299 13.296 50.8559 13.044L50.9639 11.991H58.5779C60.9359 11.991 62.7359 12.378 63.9779 13.152C65.2199 13.908 65.8409 15.015 65.8409 16.473C65.8409 17.463 65.5619 18.282 65.0039 18.93C64.4459 19.56 63.6269 20.019 62.5469 20.307C63.8069 20.685 64.7699 21.279 65.4359 22.089C66.1199 22.881 66.4619 23.826 66.4619 24.924C66.4619 26.508 65.8139 27.75 64.5179 28.65C63.2219 29.55 61.4399 30 59.1719 30H50.8559L50.9639 28.893ZM57.9569 19.659C60.4229 19.659 61.6559 18.615 61.6559 16.527C61.6559 15.591 61.3589 14.88 60.7649 14.394C60.1709 13.89 59.3249 13.638 58.2269 13.638C57.5429 13.638 56.9579 13.674 56.4719 13.746V19.659H57.9569ZM58.3079 28.326C59.6219 28.326 60.5849 28.056 61.1969 27.516C61.8269 26.976 62.1419 26.121 62.1419 24.951C62.1419 23.763 61.7819 22.872 61.0619 22.278C60.3599 21.666 59.3159 21.36 57.9299 21.36H56.4719V28.245C57.1739 28.299 57.7859 28.326 58.3079 28.326ZM67.0762 28.893C67.8862 28.767 68.5342 28.497 69.0202 28.083V13.908C68.8402 13.728 68.5522 13.566 68.1562 13.422C67.7602 13.26 67.3642 13.152 66.9682 13.098L67.1032 11.991H75.0142L74.8522 13.098C74.4202 13.188 74.0692 13.287 73.7992 13.395C73.5292 13.503 73.2592 13.674 72.9892 13.908V28.083C73.3492 28.425 74.0242 28.695 75.0142 28.893L74.8252 30H66.9682L67.0762 28.893ZM78.831 28.893C79.605 28.785 80.253 28.515 80.775 28.083V13.665C80.145 13.683 79.416 13.728 78.588 13.8L78.048 13.827C77.76 14.223 77.517 14.718 77.319 15.312C77.139 15.888 77.04 16.437 77.022 16.959C76.698 17.013 76.374 17.04 76.05 17.04C75.762 17.04 75.465 17.013 75.159 16.959V11.883C77.931 11.955 80.46 11.991 82.746 11.991C84.114 11.991 85.545 11.982 87.039 11.964C88.551 11.928 89.658 11.901 90.36 11.883V16.959C90.072 17.013 89.775 17.04 89.469 17.04C89.145 17.04 88.821 17.013 88.497 16.959C88.425 16.365 88.299 15.798 88.119 15.258C87.957 14.7 87.759 14.232 87.525 13.854C86.625 13.728 85.698 13.656 84.744 13.638V28.083C85.122 28.443 85.797 28.713 86.769 28.893L86.58 30H78.723L78.831 28.893ZM86.9935 28.92C87.4435 28.902 87.8125 28.821 88.1005 28.677C88.4065 28.533 88.6045 28.344 88.6945 28.11L94.3915 11.991H97.1995L102.95 27.84C103.058 28.128 103.238 28.362 103.49 28.542C103.76 28.704 104.147 28.83 104.651 28.92L104.516 30H97.1185L97.2805 28.92C98.1085 28.794 98.6485 28.569 98.9005 28.245L97.6315 24.384H92.0695L90.7735 28.11C91.2775 28.524 92.0425 28.794 93.0685 28.92L92.9335 30H86.8315L86.9935 28.92ZM97.0645 22.683L94.9585 16.203L92.6635 22.683H97.0645ZM104.886 28.893C105.66 28.785 106.308 28.515 106.83 28.083V13.665C106.2 13.683 105.471 13.728 104.643 13.8L104.103 13.827C103.815 14.223 103.572 14.718 103.374 15.312C103.194 15.888 103.095 16.437 103.077 16.959C102.753 17.013 102.429 17.04 102.105 17.04C101.817 17.04 101.52 17.013 101.214 16.959V11.883C103.986 11.955 106.515 11.991 108.801 11.991C110.169 11.991 111.6 11.982 113.094 11.964C114.606 11.928 115.713 11.901 116.415 11.883V16.959C116.127 17.013 115.83 17.04 115.524 17.04C115.2 17.04 114.876 17.013 114.552 16.959C114.48 16.365 114.354 15.798 114.174 15.258C114.012 14.7 113.814 14.232 113.58 13.854C112.68 13.728 111.753 13.656 110.799 13.638V28.083C111.177 28.443 111.852 28.713 112.824 28.893L112.635 30H104.778L104.886 28.893ZM129.201 30.162C127.833 30.162 126.564 29.955 125.394 29.541C124.224 29.109 123.288 28.479 122.586 27.651C121.884 26.823 121.533 25.842 121.533 24.708C121.533 22.116 122.739 20.406 125.151 19.578C124.431 19.254 123.864 18.795 123.45 18.201C123.054 17.607 122.856 16.878 122.856 16.014C122.856 15.024 123.126 14.187 123.666 13.503C124.224 12.819 124.953 12.306 125.853 11.964C126.771 11.622 127.761 11.451 128.823 11.451C129.597 11.451 130.398 11.559 131.226 11.775C132.072 11.991 132.783 12.342 133.359 12.828C133.953 13.296 134.25 13.917 134.25 14.691C134.25 15.303 134.034 15.852 133.602 16.338C133.188 16.806 132.657 17.04 132.009 17.04C131.415 17.04 130.893 16.824 130.443 16.392C130.731 15.87 130.875 15.375 130.875 14.907C130.875 14.385 130.695 13.971 130.335 13.665C129.993 13.341 129.534 13.179 128.958 13.179C128.274 13.179 127.752 13.413 127.392 13.881C127.032 14.349 126.852 14.97 126.852 15.744C126.852 16.5 127.023 17.139 127.365 17.661C127.725 18.183 128.301 18.453 129.093 18.471V20.712C128.013 20.874 127.14 21.306 126.474 22.008C125.826 22.692 125.502 23.556 125.502 24.6C125.502 25.95 125.88 26.976 126.636 27.678C127.392 28.38 128.328 28.731 129.444 28.731C131.172 28.731 132.477 28.182 133.359 27.084C134.259 25.986 134.709 24.609 134.709 22.953C134.709 21.891 134.529 20.838 134.169 19.794C133.845 19.812 133.593 19.938 133.413 20.172C133.251 20.406 133.17 20.694 133.17 21.036C133.17 21.504 133.305 21.9 133.575 22.224C133.089 22.566 132.531 22.737 131.901 22.737C131.343 22.737 130.884 22.566 130.524 22.224C130.182 21.864 130.011 21.405 130.011 20.847C130.011 19.965 130.398 19.281 131.172 18.795C131.946 18.291 133.134 18.039 134.736 18.039C135.618 18.039 136.248 17.949 136.626 17.769C137.004 17.571 137.193 17.256 137.193 16.824C137.193 16.374 137.022 15.996 136.68 15.69C137.13 15.348 137.697 15.177 138.381 15.177C138.939 15.177 139.389 15.33 139.731 15.636C140.091 15.942 140.271 16.338 140.271 16.824C140.271 17.562 139.992 18.147 139.434 18.579C138.894 19.011 138.057 19.308 136.923 19.47C137.247 20.514 137.409 21.549 137.409 22.575C137.409 23.979 137.103 25.257 136.491 26.409C135.897 27.561 134.979 28.479 133.737 29.163C132.513 29.829 131.001 30.162 129.201 30.162ZM145.506 28.893C145.848 28.821 146.127 28.731 146.343 28.623C146.577 28.497 146.811 28.317 147.045 28.083V13.908C146.703 13.584 146.154 13.296 145.398 13.044L145.506 11.991H153.12C157.818 11.991 160.167 13.665 160.167 17.013C160.167 18.759 159.528 20.1 158.25 21.036C156.972 21.972 155.136 22.44 152.742 22.44C152.346 22.44 151.77 22.413 151.014 22.359V28.083C151.392 28.461 152.067 28.749 153.039 28.947L152.85 30H145.398L145.506 28.893ZM152.769 20.739C153.831 20.739 154.632 20.433 155.172 19.821C155.712 19.191 155.982 18.273 155.982 17.067C155.982 15.969 155.694 15.123 155.118 14.529C154.56 13.935 153.777 13.638 152.769 13.638C152.049 13.638 151.464 13.674 151.014 13.746V20.739H152.769ZM157.168 28.92C157.618 28.902 157.987 28.821 158.275 28.677C158.581 28.533 158.779 28.344 158.869 28.11L164.566 11.991H167.374L173.125 27.84C173.233 28.128 173.413 28.362 173.665 28.542C173.935 28.704 174.322 28.83 174.826 28.92L174.691 30H167.293L167.455 28.92C168.283 28.794 168.823 28.569 169.075 28.245L167.806 24.384H162.244L160.948 28.11C161.452 28.524 162.217 28.794 163.243 28.92L163.108 30H157.006L157.168 28.92ZM167.239 22.683L165.133 16.203L162.838 22.683H167.239ZM174.672 28.893C175.014 28.821 175.293 28.731 175.509 28.623C175.725 28.515 175.959 28.335 176.211 28.083V13.908C175.833 13.584 175.284 13.296 174.564 13.044L174.672 11.991H179.991L187.443 25.059V13.908C187.173 13.674 186.903 13.503 186.633 13.395C186.363 13.287 186.012 13.188 185.58 13.098L185.715 11.991H191.601L191.439 13.044C190.737 13.26 190.188 13.548 189.792 13.908V30H185.688L178.56 17.58V28.083C178.974 28.461 179.649 28.749 180.585 28.947L180.396 30H174.564L174.672 28.893ZM192.182 28.893C192.506 28.821 192.776 28.731 192.992 28.623C193.226 28.515 193.46 28.344 193.694 28.11V13.881C193.37 13.575 192.83 13.296 192.074 13.044L192.182 11.991H197.96C200.444 11.991 202.451 12.306 203.981 12.936C205.529 13.566 206.672 14.547 207.41 15.879C208.148 17.193 208.517 18.903 208.517 21.009C208.517 23.115 208.148 24.825 207.41 26.139C206.672 27.453 205.511 28.425 203.927 29.055C202.361 29.685 200.318 30 197.798 30H192.074L192.182 28.893ZM198.743 28.326C200.687 28.326 202.091 27.741 202.955 26.571C203.837 25.401 204.278 23.538 204.278 20.982C204.278 18.408 203.855 16.545 203.009 15.393C202.163 14.241 200.768 13.665 198.824 13.665H197.69V28.218C197.978 28.29 198.329 28.326 198.743 28.326ZM209.111 28.893C209.399 28.857 209.696 28.776 210.002 28.65C210.308 28.506 210.524 28.362 210.65 28.218V13.773C210.218 13.395 209.669 13.134 209.003 12.99L209.084 11.991H222.206L222.314 16.446C221.9 16.572 221.522 16.635 221.18 16.635C221 16.635 220.712 16.599 220.316 16.527C220.172 15.843 220.01 15.285 219.83 14.853C219.65 14.403 219.425 13.998 219.155 13.638H214.619V20.037L217.13 19.848C217.454 19.812 217.751 19.632 218.021 19.308C218.309 18.984 218.516 18.561 218.642 18.039H220.046V23.628H218.642C218.39 22.908 218.147 22.404 217.913 22.116C217.679 21.828 217.409 21.666 217.103 21.63L214.619 21.414V28.326H219.344C219.92 27.462 220.343 26.319 220.613 24.897C220.991 24.843 221.36 24.816 221.72 24.816C222.026 24.816 222.323 24.843 222.611 24.897L222.341 30H209.003L209.111 28.893ZM223.193 28.893C223.535 28.821 223.814 28.731 224.03 28.623C224.246 28.515 224.48 28.335 224.732 28.083V13.908C224.354 13.584 223.805 13.296 223.085 13.044L223.193 11.991H229.295L233.696 24.141L237.476 11.991H244.064L243.902 13.044C243.2 13.26 242.651 13.548 242.255 13.908V28.083C242.669 28.461 243.344 28.749 244.28 28.947L244.091 30H236.774L236.882 28.893C237.224 28.821 237.503 28.731 237.719 28.623C237.935 28.515 238.16 28.335 238.394 28.083V16.284H238.367L233.993 30H231.914L227.108 17.013H227.081V28.083C227.495 28.461 228.17 28.749 229.106 28.947L228.917 30H223.085L223.193 28.893ZM245.001 28.893C245.811 28.767 246.459 28.497 246.945 28.083V13.908C246.765 13.728 246.477 13.566 246.081 13.422C245.685 13.26 245.289 13.152 244.893 13.098L245.028 11.991H252.939L252.777 13.098C252.345 13.188 251.994 13.287 251.724 13.395C251.454 13.503 251.184 13.674 250.914 13.908V28.083C251.274 28.425 251.949 28.695 252.939 28.893L252.75 30H244.893L245.001 28.893ZM252.814 28.92C253.264 28.902 253.633 28.821 253.921 28.677C254.227 28.533 254.425 28.344 254.515 28.11L260.212 11.991H263.02L268.771 27.84C268.879 28.128 269.059 28.362 269.311 28.542C269.581 28.704 269.968 28.83 270.472 28.92L270.337 30H262.939L263.101 28.92C263.929 28.794 264.469 28.569 264.721 28.245L263.452 24.384H257.89L256.594 28.11C257.098 28.524 257.863 28.794 258.889 28.92L258.754 30H252.652L252.814 28.92ZM262.885 22.683L260.779 16.203L258.484 22.683H262.885Z" fill="white"/>
</svg>

