<svg width="25" height="26" viewBox="0 0 25 26" fill="none" xmlns="http://www.w3.org/2000/svg">
<path d="M21.1159 4.83874C19.5482 3.13549 17.5106 1.9354 15.2608 1.39023C13.0111 0.845059 10.6501 0.979301 8.47666 1.77598C6.30318 2.57265 4.41476 3.99598 3.05024 5.86595C1.68571 7.73592 0.906368 9.96854 0.810769 12.2815C0.715169 14.5944 1.30761 16.8837 2.51316 18.8599C3.71871 20.8361 5.48322 22.4104 7.58355 23.3837C9.68387 24.357 12.0257 24.6857 14.3128 24.328C16.5998 23.9704 18.7295 22.9425 20.4324 21.3745C22.7155 19.2721 24.0701 16.3491 24.1983 13.2481C24.3265 10.1472 23.2177 7.12229 21.1159 4.83874V4.83874Z" stroke="#252B2D" stroke-width="1.2" stroke-linecap="round" stroke-linejoin="round"/>
<path d="M12.5 3.49829V12.5" stroke="#252B2D" stroke-width="1.2" stroke-linecap="round" stroke-linejoin="round"/>
<path d="M13 13L19.5 13" stroke="#252B2D" stroke-width="1.2" stroke-linecap="round" stroke-linejoin="round"/>
</svg>
