<svg width="48" height="40" viewBox="0 0 48 40" fill="none" xmlns="http://www.w3.org/2000/svg">
<path d="M37.2125 39.9714H0V7.65015H37.2125L48 23.8528L37.2125 39.9714Z" fill="#16A1DC"/>
<path d="M36.6863 20.6574C36.6843 23.9093 35.7366 27.0877 33.963 29.7905C32.1894 32.4934 29.6696 34.5995 26.7221 35.8426C23.7746 37.0856 20.5318 37.4097 17.4036 36.774C14.2754 36.1383 11.4024 34.5713 9.14763 32.2711C6.89289 29.9709 5.35771 27.0408 4.73618 23.8511C4.11465 20.6615 4.43467 17.3556 5.65579 14.3514C6.87691 11.3472 8.94429 8.77953 11.5966 6.97305C14.2489 5.16658 17.367 4.20239 20.5567 4.20239C22.6757 4.20239 24.774 4.62809 26.7316 5.45516C28.6892 6.28223 30.4678 7.49446 31.9657 9.02258C33.4636 10.5507 34.6515 12.3648 35.4615 14.3611C36.2715 16.3575 36.6877 18.497 36.6863 20.6574Z" fill="white" stroke="#252B2D" stroke-width="1.5" stroke-linecap="round" stroke-linejoin="round"/>
<path d="M9.43973 32.4019V3.30875C9.43837 3.06762 9.48378 2.82859 9.57335 2.60541C9.66292 2.38223 9.79489 2.17931 9.96166 2.00831C10.1284 1.83731 10.3267 1.70161 10.5451 1.60901C10.7635 1.51641 10.9977 1.46875 11.2342 1.46875H30.7362C30.9728 1.46875 31.2069 1.51641 31.4253 1.60901C31.6437 1.70161 31.842 1.83731 32.0088 2.00831C32.1755 2.17931 32.3075 2.38223 32.3971 2.60541C32.4867 2.82859 32.5321 3.06762 32.5307 3.30875V31.5187" fill="white"/>
<path d="M9.43973 32.4019V3.30875C9.43837 3.06762 9.48378 2.82859 9.57335 2.60541C9.66292 2.38223 9.79489 2.17931 9.96166 2.00831C10.1284 1.83731 10.3267 1.70161 10.5451 1.60901C10.7635 1.51641 10.9977 1.46875 11.2342 1.46875H30.7362C30.9728 1.46875 31.2069 1.51641 31.4253 1.60901C31.6437 1.70161 31.842 1.83731 32.0088 2.00831C32.1755 2.17931 32.3075 2.38223 32.3971 2.60541C32.4867 2.82859 32.5321 3.06762 32.5307 3.30875V31.5187" stroke="#252B2D" stroke-width="1.5" stroke-linecap="round" stroke-linejoin="round"/>
<path d="M13.4924 25.5884H28.4773" stroke="#16A1DC" stroke-width="1.5" stroke-linecap="round" stroke-linejoin="round"/>
<path d="M13.4924 30.1516H28.4773" stroke="#16A1DC" stroke-width="1.5" stroke-linecap="round" stroke-linejoin="round"/>
<path d="M13.8016 10.0379L18.36 9.71198L20.1029 5.39068C20.1731 5.21066 20.2946 5.05625 20.4519 4.94747C20.6091 4.83868 20.7947 4.78052 20.9847 4.78052C21.1747 4.78052 21.3603 4.83868 21.5176 4.94747C21.6748 5.05625 21.7963 5.21066 21.8665 5.39068L23.5991 9.71198L28.1678 10.0379C28.3605 10.0499 28.5453 10.1209 28.6978 10.2417C28.8503 10.3625 28.9636 10.5274 29.0226 10.7149C29.0817 10.9024 29.0839 11.1036 29.0289 11.2924C28.9739 11.4811 28.8642 11.6486 28.7144 11.7727L25.2079 14.7903L26.3011 19.3429C26.3394 19.5306 26.3234 19.7256 26.2549 19.9042C26.1865 20.0828 26.0685 20.2372 25.9155 20.3486C25.7625 20.4601 25.5809 20.5237 25.393 20.5318C25.2051 20.5399 25.019 20.4922 24.8573 20.3943L21.0002 17.9025L17.1121 20.3628C16.9504 20.4606 16.7643 20.5084 16.5764 20.5003C16.3885 20.4922 16.2069 20.4285 16.0539 20.3171C15.9009 20.2056 15.7829 20.0512 15.7145 19.8727C15.646 19.6941 15.63 19.4991 15.6683 19.3114L16.7512 14.7587L13.2447 11.7412C13.0949 11.6189 12.9854 11.4528 12.9311 11.2651C12.8768 11.0774 12.8802 10.8773 12.9409 10.6917C13.0016 10.506 13.1166 10.3438 13.2705 10.2269C13.4244 10.1101 13.6098 10.0441 13.8016 10.0379Z" fill="#16A1DC"/>
</svg>
