<svg width="23" height="23" viewBox="0 0 23 23" fill="none" xmlns="http://www.w3.org/2000/svg">
<path d="M19.6923 1H3.30769C2.03319 1 1 2.03319 1 3.30769V19.6923C1 20.9668 2.03319 22 3.30769 22H19.6923C20.9668 22 22 20.9668 22 19.6923V3.30769C22 2.03319 20.9668 1 19.6923 1Z" stroke="white" stroke-linecap="round" stroke-linejoin="round"/>
<path d="M11.4998 16.7017C14.3727 16.7017 16.7017 14.3727 16.7017 11.4998C16.7017 8.62683 14.3727 6.29785 11.4998 6.29785C8.62683 6.29785 6.29785 8.62683 6.29785 11.4998C6.29785 14.3727 8.62683 16.7017 11.4998 16.7017Z" stroke="white" stroke-linecap="round" stroke-linejoin="round"/>
<path d="M18.1631 6.375C18.9225 6.375 19.5381 5.75939 19.5381 5C19.5381 4.24061 18.9225 3.625 18.1631 3.625C17.4037 3.625 16.7881 4.24061 16.7881 5C16.7881 5.75939 17.4037 6.375 18.1631 6.375Z" stroke="white" stroke-linecap="round" stroke-linejoin="round"/>
</svg>
