<svg width="35" height="35" viewBox="0 0 35 35" fill="none" xmlns="http://www.w3.org/2000/svg">
<path d="M17.5 35C27.165 35 35 27.165 35 17.5C35 7.83502 27.165 0 17.5 0C7.83502 0 0 7.83502 0 17.5C0 27.165 7.83502 35 17.5 35Z" fill="#16A1DC"/>
<path d="M25.1453 7.9632H9.85469C8.66668 7.9632 7.70361 8.92626 7.70361 10.1143V25.4049C7.70361 26.5929 8.66668 27.556 9.85469 27.556H25.1453C26.3333 27.556 27.2964 26.5929 27.2964 25.4049V10.1143C27.2964 8.92626 26.3333 7.9632 25.1453 7.9632Z" stroke="white" stroke-width="1.2" stroke-linecap="round" stroke-linejoin="round"/>
<path d="M17.5001 22.618C20.1833 22.618 22.3585 20.4428 22.3585 17.7596C22.3585 15.0763 20.1833 12.9011 17.5001 12.9011C14.8168 12.9011 12.6416 15.0763 12.6416 17.7596C12.6416 20.4428 14.8168 22.618 17.5001 22.618Z" stroke="white" stroke-width="1.2" stroke-linecap="round" stroke-linejoin="round"/>
<path d="M23.7148 12.9752C24.4229 12.9752 24.997 12.4012 24.997 11.6931C24.997 10.9849 24.4229 10.4109 23.7148 10.4109C23.0067 10.4109 22.4326 10.9849 22.4326 11.6931C22.4326 12.4012 23.0067 12.9752 23.7148 12.9752Z" stroke="white" stroke-width="1.2" stroke-linecap="round" stroke-linejoin="round"/>
</svg>
