<svg width="24" height="25" viewBox="0 0 24 25" fill="none" xmlns="http://www.w3.org/2000/svg">
<path d="M5.421 13.2697C4.99113 12.8064 4.65753 12.2636 4.4393 11.6723C4.22106 11.081 4.12247 10.4528 4.14914 9.82367C4.17582 9.19454 4.32726 8.5768 4.59478 8.00578M17.1245 3.97702C15.8814 2.63593 14.2653 1.69058 12.4806 1.26045C10.696 0.830323 8.82284 0.934731 7.09798 1.56048C5.37312 2.18622 3.87398 3.30522 2.79007 4.77601C1.70615 6.2468 1.08611 8.00337 1.00834 9.82367C0.930556 11.644 1.39852 13.4463 2.35309 15.0028C3.30765 16.5593 4.70595 17.8001 6.37124 18.5684C8.03654 19.3367 9.89406 19.598 11.709 19.3193C13.524 19.0405 15.2149 18.2342 16.568 17.0023C18.3826 15.3481 19.4607 13.0466 19.565 10.604C19.6694 8.16137 18.7916 5.77764 17.1245 3.97702Z" stroke="#849899" stroke-width="1.5" stroke-linecap="round" stroke-linejoin="round"/>
<path d="M22.6324 22.284L21.0764 23.7029C20.9675 23.8033 20.8396 23.8814 20.7001 23.9326C20.5607 23.9837 20.4123 24.0069 20.2637 24.0009C20.1152 23.9948 19.9693 23.9596 19.8345 23.8972C19.6997 23.8348 19.5787 23.7466 19.4785 23.6375L16.3726 20.4079C16.1746 20.189 16.0707 19.9019 16.083 19.608C16.0953 19.3141 16.2228 19.0366 16.4384 18.8347L18.0004 17.4039C18.1088 17.3036 18.2361 17.2257 18.3751 17.1746C18.5141 17.1235 18.662 17.1003 18.8101 17.1064C18.9582 17.1125 19.1036 17.1477 19.2379 17.21C19.3721 17.2723 19.4926 17.3604 19.5922 17.4692L22.6982 20.6988C22.7995 20.8069 22.8782 20.9337 22.9298 21.0721C22.9813 21.2105 23.0047 21.3576 22.9986 21.505C22.9925 21.6524 22.957 21.7972 22.8941 21.9309C22.8312 22.0646 22.7423 22.1846 22.6324 22.284V22.284Z" stroke="#849899" stroke-width="1.5" stroke-linecap="round" stroke-linejoin="round"/>
</svg>
