<svg width="234" height="135" viewBox="0 0 234 135" fill="none" xmlns="http://www.w3.org/2000/svg">
<path d="M154.785 47.853C154.785 55.6494 152.521 63.2707 148.279 69.7532C144.037 76.2357 138.008 81.2882 130.954 84.2718C123.9 87.2553 116.138 88.036 108.65 86.515C101.161 84.9939 94.283 81.2396 88.8841 75.7267C83.4853 70.2138 79.8087 63.1899 78.3192 55.5433C76.8296 47.8967 77.5941 39.9708 80.5159 32.7678C83.4378 25.5649 88.3857 19.4084 94.734 15.077C101.082 10.7455 108.546 8.43359 116.181 8.43359C121.251 8.43359 126.27 9.45321 130.954 11.4342C135.638 13.4152 139.893 16.3188 143.478 19.9793C147.063 23.6397 149.906 27.9853 151.846 32.7678C153.786 37.5504 154.785 42.6764 154.785 47.853Z" fill="#FFF4D8" stroke="#252B2D" stroke-width="1.5" stroke-linecap="round" stroke-linejoin="round"/>
<path d="M116.182 85.338C121.896 85.4154 127.546 84.1079 132.669 81.5229C137.792 78.9379 142.242 75.1491 145.653 70.4675C142.242 65.7859 137.792 61.9971 132.669 59.4121C127.546 56.8271 121.896 55.5196 116.182 55.597C110.468 55.5196 104.817 56.8271 99.6944 59.4121C94.5713 61.9971 90.1217 65.7859 86.7107 70.4675C90.1217 75.1491 94.5713 78.9379 99.6944 81.5229C104.817 84.1079 110.468 85.4154 116.182 85.338Z" fill="#FFBB0F"/>
<path d="M140.496 25.9268C140.496 39.6882 116.085 66.9086 116.085 66.9086C116.085 66.9086 91.6735 39.6882 91.6735 25.9268C91.6735 19.3158 94.2453 12.9756 98.8233 8.3009C103.401 3.62621 109.61 1 116.085 1C122.559 1 128.768 3.62621 133.346 8.3009C137.924 12.9756 140.496 19.3158 140.496 25.9268Z" fill="white" stroke="#252B2D" stroke-width="1.5" stroke-linecap="round" stroke-linejoin="round"/>
<path d="M116.183 33.0599C120.546 33.0599 124.082 29.4491 124.082 24.9948C124.082 20.5406 120.546 16.9297 116.183 16.9297C111.821 16.9297 108.285 20.5406 108.285 24.9948C108.285 29.4491 111.821 33.0599 116.183 33.0599Z" fill="#FFF4D8" stroke="#252B2D" stroke-width="1.5" stroke-linecap="round" stroke-linejoin="round"/>
<path d="M81.3306 92.838C81.3306 100.95 78.975 108.879 74.5615 115.624C70.1481 122.369 63.8752 127.626 56.5359 130.73C49.1967 133.834 41.1208 134.646 33.3295 133.064C25.5382 131.481 18.3814 127.575 12.7642 121.839C7.14695 116.103 3.32157 108.795 1.77178 100.839C0.221996 92.8835 1.0174 84.637 4.05742 77.1427C7.09744 69.6484 12.2455 63.2429 18.8507 58.7363C25.4558 54.2296 33.2214 51.8242 41.1653 51.8242C51.8178 51.8242 62.034 56.1453 69.5665 63.8369C77.0989 71.5285 81.3306 81.9605 81.3306 92.838Z" fill="#FFF4D8" stroke="#252B2D" stroke-width="1.5" stroke-linecap="round" stroke-linejoin="round"/>
<path d="M59.9384 101.788L47.7398 125.73L26.3474 109.838L25.8081 80.0483L47.3803 74.7773L59.9384 101.788Z" fill="white" stroke="#252B2D" stroke-width="1.5" stroke-linecap="round" stroke-linejoin="round"/>
<path d="M44.5945 63.9808L23.5699 69.0282C20.4358 69.7807 18.491 72.9794 19.2263 76.1728C19.9615 79.3662 23.0982 81.345 26.2324 80.5926L47.257 75.5451C50.3911 74.7927 52.3359 71.594 51.6007 68.4006C50.8654 65.2072 47.7287 63.2284 44.5945 63.9808Z" fill="#FFBB0F" stroke="#FFBB0F" stroke-width="1.5" stroke-linecap="round" stroke-linejoin="round"/>
<path d="M42.4747 44.1211L16.8192 50.2837L23.1368 68.824L44.9144 63.5792L42.4747 44.1211Z" fill="#FFBB0F" stroke="#FFBB0F" stroke-width="1.5" stroke-linecap="round" stroke-linejoin="round"/>
<path d="M43.0908 105.586L47.739 125.725" stroke="#252B2D" stroke-width="1.5" stroke-linecap="round" stroke-linejoin="round"/>
<path d="M41.9614 105.727C44.6988 105.727 46.9178 103.462 46.9178 100.666C46.9178 97.8713 44.6988 95.6055 41.9614 95.6055C39.224 95.6055 37.0049 97.8713 37.0049 100.666C37.0049 103.462 39.224 105.727 41.9614 105.727Z" fill="#FFF4D8" stroke="#252B2D" stroke-width="1.5" stroke-linecap="round" stroke-linejoin="round"/>
<path d="M232.331 92.8528C232.326 100.964 229.966 108.891 225.549 115.632C221.133 122.373 214.858 127.626 207.518 130.726C200.178 133.826 192.103 134.635 184.314 133.049C176.524 131.464 169.37 127.556 163.755 121.819C158.14 116.082 154.318 108.774 152.77 100.818C151.222 92.8632 152.019 84.618 155.06 77.1251C158.101 69.6323 163.249 63.2283 169.853 58.7228C176.458 54.2173 184.222 51.8125 192.165 51.8125C197.442 51.8125 202.667 52.8742 207.542 54.937C212.417 56.9998 216.846 60.0232 220.576 63.8345C224.306 67.6458 227.264 72.1703 229.281 77.1494C231.298 82.1284 232.334 87.4646 232.331 92.8528Z" fill="#FFF4D8" stroke="#252B2D" stroke-width="1.5" stroke-linecap="round" stroke-linejoin="round"/>
<path d="M164.882 122.036L164.362 117.872L222.047 117.352V118.913L221.007 120.995C216.677 124.812 204.897 132.55 192.425 132.967C179.952 133.383 168.866 125.853 164.882 122.036Z" fill="white"/>
<path d="M164.482 122.151V49.5892C164.479 48.9878 164.592 48.3916 164.815 47.835C165.038 47.2783 165.367 46.7722 165.782 46.3457C166.197 45.9192 166.691 45.5808 167.235 45.3498C167.779 45.1189 168.362 45 168.951 45H217.514C218.103 45 218.686 45.1189 219.23 45.3498C219.774 45.5808 220.267 45.9192 220.683 46.3457C221.098 46.7722 221.427 47.2783 221.65 47.835C221.873 48.3916 221.986 48.9878 221.982 49.5892V119.948" fill="white"/>
<path d="M164.482 122.151V49.5892C164.479 48.9878 164.592 48.3916 164.815 47.835C165.038 47.2783 165.367 46.7722 165.782 46.3457C166.197 45.9192 166.691 45.5808 167.235 45.3498C167.779 45.1189 168.362 45 168.951 45H217.514C218.103 45 218.686 45.1189 219.23 45.3498C219.774 45.5808 220.267 45.9192 220.683 46.3457C221.098 46.7722 221.427 47.2783 221.65 47.835C221.873 48.3916 221.986 48.9878 221.982 49.5892V119.948" stroke="#252B2D" stroke-width="1.5" stroke-linecap="round" stroke-linejoin="round"/>
<path d="M174.575 105.16H211.889" stroke="#FFBB0F" stroke-width="1.5" stroke-linecap="round" stroke-linejoin="round"/>
<path d="M174.575 116.543H211.889" stroke="#FFBB0F" stroke-width="1.5" stroke-linecap="round" stroke-linejoin="round"/>
<path d="M175.344 66.3744L186.695 65.5615L191.035 54.7836C191.21 54.3346 191.513 53.9494 191.904 53.6781C192.296 53.4068 192.758 53.2617 193.231 53.2617C193.704 53.2617 194.167 53.4068 194.558 53.6781C194.95 53.9494 195.252 54.3346 195.427 54.7836L199.741 65.5615L211.118 66.3744C211.598 66.4043 212.058 66.5814 212.438 66.8827C212.818 67.1839 213.1 67.5953 213.247 68.0628C213.394 68.5304 213.399 69.0325 213.262 69.5032C213.125 69.974 212.852 70.3916 212.479 70.7013L203.748 78.2275L206.47 89.5823C206.565 90.0505 206.525 90.5369 206.355 90.9823C206.184 91.4277 205.891 91.8128 205.51 92.0907C205.129 92.3687 204.677 92.5274 204.209 92.5477C203.741 92.5679 203.277 92.4487 202.874 92.2047L193.27 85.9897L183.588 92.126C183.185 92.3701 182.722 92.4892 182.254 92.469C181.786 92.4488 181.334 92.29 180.953 92.0121C180.572 91.7341 180.278 91.349 180.108 90.9036C179.937 90.4582 179.897 89.9718 179.993 89.5036L182.689 78.1488L173.958 70.6226C173.584 70.3177 173.312 69.9032 173.176 69.4352C173.041 68.9671 173.05 68.4679 173.201 68.0049C173.352 67.542 173.638 67.1374 174.022 66.8459C174.405 66.5543 174.867 66.3898 175.344 66.3744Z" fill="#FFBB0F"/>
</svg>
