<svg width="201" height="158" viewBox="0 0 201 158" fill="none" xmlns="http://www.w3.org/2000/svg">
<path d="M132.882 16.9476C128.965 11.8997 123.945 7.81462 118.206 5.00507C112.467 2.19553 106.161 0.73602 99.7706 0.738284C98.6102 0.738284 97.4657 0.738284 96.3212 0.881308C67.2955 3.23325 54.3404 38.9097 73.6538 60.7129L94.6839 84.4389L134.058 128.856L171.032 85.8691L191.696 61.8729C209.642 41.0392 198.722 7.36505 171.493 2.89953C164.393 1.73196 157.113 2.40942 150.351 4.86682C143.589 7.32421 137.574 11.4789 132.882 16.9317" fill="#16A1DC"/>
<path d="M113.584 42.8834L114.983 32.6016H157.901L156.503 42.8834H141.02L134.439 89.08H122.486L129.066 42.8834H113.584Z" fill="white"/>
<path d="M80.0926 16.6175L7.40772 31.0583C3.5846 31.8178 1.10127 35.532 1.86104 39.3541L23.8721 150.082C24.6318 153.904 28.347 156.387 32.1701 155.627L104.855 141.186C108.678 140.427 111.161 136.713 110.402 132.891L88.3906 22.1626C87.6308 18.3405 83.9157 15.8579 80.0926 16.6175Z" fill="white" stroke="#252B2D" stroke-width="1.4" stroke-linecap="round" stroke-linejoin="round"/>
<path d="M73.7316 47.3048L25.0255 56.9816C22.2271 57.5376 20.4093 60.2563 20.9655 63.054L32.2901 120.023C32.8463 122.821 35.5657 124.638 38.3641 124.082L87.0702 114.406C89.8686 113.85 91.6864 111.131 91.1302 108.333L79.8056 51.3638C79.2495 48.5661 76.53 46.7488 73.7316 47.3048Z" stroke="#16A1DC" stroke-width="1.4" stroke-linecap="round" stroke-linejoin="round"/>
<path d="M43.3405 123.089L40.0818 106.689C39.5489 103.998 40.1069 101.206 41.6332 98.9257C43.1594 96.646 45.5289 95.0655 48.2205 94.532L66.6914 90.8611C69.3832 90.3283 72.1764 90.8862 74.4568 92.412C76.7372 93.9378 78.3181 96.3066 78.8517 98.9975L82.1103 115.382" stroke="#16A1DC" stroke-width="1.4" stroke-linecap="round" stroke-linejoin="round"/>
<path d="M54.4201 93.0682C63.006 93.0682 69.9662 86.1098 69.9662 77.5263C69.9662 68.9427 63.006 61.9844 54.4201 61.9844C45.8343 61.9844 38.874 68.9427 38.874 77.5263C38.874 86.1098 45.8343 93.0682 54.4201 93.0682Z" stroke="#16A1DC" stroke-width="1.4" stroke-linecap="round" stroke-linejoin="round"/>
<path d="M40.3359 132.721L86.7835 123.488" stroke="#16A1DC" stroke-width="1.4" stroke-linecap="round" stroke-linejoin="round"/>
<path d="M42.0371 141.233L88.4847 132" stroke="#16A1DC" stroke-width="1.4" stroke-linecap="round" stroke-linejoin="round"/>
<path d="M61.6777 28.8015L29.7319 35.1484L32.0155 46.6358L63.9612 40.2889L61.6777 28.8015Z" stroke="#252B2D" stroke-width="1.4" stroke-linecap="round" stroke-linejoin="round"/>
<path d="M35.8235 2.52482L43.3851 1.0225C44.7497 0.751398 46.1661 1.03331 47.3227 1.80623C48.4793 2.57914 49.2814 3.77975 49.5526 5.14392L54.6092 30.5814C54.8508 31.7968 54.5996 33.0583 53.9108 34.0885C53.222 35.1186 52.1521 35.8331 50.9364 36.0746L42.2678 37.7968C41.6605 37.9304 41.0327 37.9415 40.4211 37.8294C39.8094 37.7174 39.2263 37.4844 38.7059 37.1442C38.1854 36.8039 37.7382 36.3633 37.3902 35.8481C37.0423 35.3328 36.8007 34.7534 36.6796 34.1436L31.6231 8.70611C31.3519 7.34194 31.6339 5.92595 32.407 4.76964C33.1801 3.61332 34.381 2.81141 35.7456 2.54031L35.8235 2.52482Z" fill="white" stroke="#252B2D" stroke-width="1.4" stroke-linecap="round" stroke-linejoin="round"/>
</svg>
