<svg width="288" height="43" viewBox="0 0 288 43" fill="none" xmlns="http://www.w3.org/2000/svg">
<path d="M269 43L0.50004 43L0.5 21.5L0.50004 0L269 0L287.169 21.5L269 43Z" fill="#5D9DD6"/>
<path d="M15.918 28.893C16.26 28.821 16.539 28.731 16.755 28.623C16.971 28.515 17.205 28.335 17.457 28.083V13.908C17.079 13.584 16.53 13.296 15.81 13.044L15.918 11.991H22.02L26.421 24.141L30.201 11.991H36.789L36.627 13.044C35.925 13.26 35.376 13.548 34.98 13.908V28.083C35.394 28.461 36.069 28.749 37.005 28.947L36.816 30H29.499L29.607 28.893C29.949 28.821 30.228 28.731 30.444 28.623C30.66 28.515 30.885 28.335 31.119 28.083V16.284H31.092L26.718 30H24.639L19.833 17.013H19.806V28.083C20.22 28.461 20.895 28.749 21.831 28.947L21.642 30H15.81L15.918 28.893ZM45.5556 30.27C42.8916 30.27 40.8756 29.478 39.5076 27.894C38.1576 26.31 37.4826 23.997 37.4826 20.955C37.4826 17.931 38.1576 15.636 39.5076 14.07C40.8756 12.486 42.8916 11.694 45.5556 11.694C48.2196 11.694 50.2266 12.486 51.5766 14.07C52.9266 15.636 53.6016 17.931 53.6016 20.955C53.6016 23.997 52.9266 26.31 51.5766 27.894C50.2266 29.478 48.2196 30.27 45.5556 30.27ZM45.5556 28.704C46.8156 28.704 47.7246 28.101 48.2826 26.895C48.8406 25.689 49.1196 23.709 49.1196 20.955C49.1196 18.219 48.8406 16.257 48.2826 15.069C47.7246 13.863 46.8156 13.26 45.5556 13.26C44.2776 13.26 43.3506 13.863 42.7746 15.069C42.2166 16.257 41.9376 18.219 41.9376 20.955C41.9376 23.709 42.2166 25.689 42.7746 26.895C43.3506 28.101 44.2776 28.704 45.5556 28.704ZM54.2071 28.893C54.5491 28.821 54.8281 28.731 55.0441 28.623C55.2601 28.515 55.4941 28.335 55.7461 28.083V13.908C55.3681 13.584 54.8191 13.296 54.0991 13.044L54.2071 11.991H59.5261L66.9781 25.059V13.908C66.7081 13.674 66.4381 13.503 66.1681 13.395C65.8981 13.287 65.5471 13.188 65.1151 13.098L65.2501 11.991H71.1361L70.9741 13.044C70.2721 13.26 69.7231 13.548 69.3271 13.908V30H65.2231L58.0951 17.58V28.083C58.5091 28.461 59.1841 28.749 60.1201 28.947L59.9311 30H54.0991L54.2071 28.893ZM71.7168 28.893C72.5268 28.767 73.1748 28.497 73.6608 28.083V13.908C73.4808 13.728 73.1928 13.566 72.7968 13.422C72.4008 13.26 72.0048 13.152 71.6088 13.098L71.7438 11.991H79.6548L79.4928 13.098C79.0608 13.188 78.7098 13.287 78.4398 13.395C78.1698 13.503 77.8998 13.674 77.6298 13.908V28.083C77.9898 28.425 78.6648 28.695 79.6548 28.893L79.4658 30H71.6088L71.7168 28.893ZM83.4716 28.893C84.2456 28.785 84.8936 28.515 85.4156 28.083V13.665C84.7856 13.683 84.0566 13.728 83.2286 13.8L82.6886 13.827C82.4006 14.223 82.1576 14.718 81.9596 15.312C81.7796 15.888 81.6806 16.437 81.6626 16.959C81.3386 17.013 81.0146 17.04 80.6906 17.04C80.4026 17.04 80.1056 17.013 79.7996 16.959V11.883C82.5716 11.955 85.1006 11.991 87.3866 11.991C88.7546 11.991 90.1856 11.982 91.6796 11.964C93.1916 11.928 94.2986 11.901 95.0006 11.883V16.959C94.7126 17.013 94.4156 17.04 94.1096 17.04C93.7856 17.04 93.4616 17.013 93.1376 16.959C93.0656 16.365 92.9396 15.798 92.7596 15.258C92.5976 14.7 92.3996 14.232 92.1656 13.854C91.2656 13.728 90.3386 13.656 89.3846 13.638V28.083C89.7626 28.443 90.4376 28.713 91.4096 28.893L91.2206 30H83.3636L83.4716 28.893ZM102.306 30.27C99.6416 30.27 97.6256 29.478 96.2576 27.894C94.9076 26.31 94.2326 23.997 94.2326 20.955C94.2326 17.931 94.9076 15.636 96.2576 14.07C97.6256 12.486 99.6416 11.694 102.306 11.694C104.97 11.694 106.977 12.486 108.327 14.07C109.677 15.636 110.352 17.931 110.352 20.955C110.352 23.997 109.677 26.31 108.327 27.894C106.977 29.478 104.97 30.27 102.306 30.27ZM102.306 28.704C103.566 28.704 104.475 28.101 105.033 26.895C105.591 25.689 105.87 23.709 105.87 20.955C105.87 18.219 105.591 16.257 105.033 15.069C104.475 13.863 103.566 13.26 102.306 13.26C101.028 13.26 100.101 13.863 99.5246 15.069C98.9666 16.257 98.6876 18.219 98.6876 20.955C98.6876 23.709 98.9666 25.689 99.5246 26.895C100.101 28.101 101.028 28.704 102.306 28.704ZM110.957 28.893C111.299 28.821 111.578 28.731 111.794 28.623C112.028 28.497 112.262 28.317 112.496 28.083V13.908C112.154 13.584 111.605 13.296 110.849 13.044L110.957 11.991H118.571C123.179 11.991 125.483 13.575 125.483 16.743C125.483 17.895 125.186 18.858 124.592 19.632C123.998 20.406 123.125 20.982 121.973 21.36C122.549 21.756 123.017 22.35 123.377 23.142L125.402 27.948C125.51 28.2 125.699 28.398 125.969 28.542C126.257 28.668 126.617 28.785 127.049 28.893L126.86 30H121.946L119.327 22.953C119.075 22.269 118.526 21.918 117.68 21.9L116.465 21.846V28.083C116.843 28.461 117.518 28.749 118.49 28.947L118.301 30H110.849L110.957 28.893ZM118.22 20.199C120.272 20.199 121.298 19.065 121.298 16.797C121.298 15.789 121.028 15.015 120.488 14.475C119.948 13.917 119.192 13.638 118.22 13.638C117.5 13.638 116.915 13.674 116.465 13.746V20.199H118.22ZM132.16 28.893C132.484 28.821 132.754 28.731 132.97 28.623C133.204 28.515 133.438 28.344 133.672 28.11V13.881C133.348 13.575 132.808 13.296 132.052 13.044L132.16 11.991H137.938C140.422 11.991 142.429 12.306 143.959 12.936C145.507 13.566 146.65 14.547 147.388 15.879C148.126 17.193 148.495 18.903 148.495 21.009C148.495 23.115 148.126 24.825 147.388 26.139C146.65 27.453 145.489 28.425 143.905 29.055C142.339 29.685 140.296 30 137.776 30H132.052L132.16 28.893ZM138.721 28.326C140.665 28.326 142.069 27.741 142.933 26.571C143.815 25.401 144.256 23.538 144.256 20.982C144.256 18.408 143.833 16.545 142.987 15.393C142.141 14.241 140.746 13.665 138.802 13.665H137.668V28.218C137.956 28.29 138.307 28.326 138.721 28.326ZM149.09 28.893C149.378 28.857 149.675 28.776 149.981 28.65C150.287 28.506 150.503 28.362 150.629 28.218V13.773C150.197 13.395 149.648 13.134 148.982 12.99L149.063 11.991H162.185L162.293 16.446C161.879 16.572 161.501 16.635 161.159 16.635C160.979 16.635 160.691 16.599 160.295 16.527C160.151 15.843 159.989 15.285 159.809 14.853C159.629 14.403 159.404 13.998 159.134 13.638H154.598V20.037L157.109 19.848C157.433 19.812 157.73 19.632 158 19.308C158.288 18.984 158.495 18.561 158.621 18.039H160.025V23.628H158.621C158.369 22.908 158.126 22.404 157.892 22.116C157.658 21.828 157.388 21.666 157.082 21.63L154.598 21.414V28.326H159.323C159.899 27.462 160.322 26.319 160.592 24.897C160.97 24.843 161.339 24.816 161.699 24.816C162.005 24.816 162.302 24.843 162.59 24.897L162.32 30H148.982L149.09 28.893ZM168.105 28.893C168.447 28.821 168.726 28.731 168.942 28.623C169.158 28.515 169.392 28.335 169.644 28.083V13.908C169.266 13.584 168.717 13.296 167.997 13.044L168.105 11.991H174.207L178.608 24.141L182.388 11.991H188.976L188.814 13.044C188.112 13.26 187.563 13.548 187.167 13.908V28.083C187.581 28.461 188.256 28.749 189.192 28.947L189.003 30H181.686L181.794 28.893C182.136 28.821 182.415 28.731 182.631 28.623C182.847 28.515 183.072 28.335 183.306 28.083V16.284H183.279L178.905 30H176.826L172.02 17.013H171.993V28.083C172.407 28.461 173.082 28.749 174.018 28.947L173.829 30H167.997L168.105 28.893ZM189.912 28.893C190.2 28.857 190.497 28.776 190.803 28.65C191.109 28.506 191.325 28.362 191.451 28.218V13.773C191.019 13.395 190.47 13.134 189.804 12.99L189.885 11.991H203.007L203.115 16.446C202.701 16.572 202.323 16.635 201.981 16.635C201.801 16.635 201.513 16.599 201.117 16.527C200.973 15.843 200.811 15.285 200.631 14.853C200.451 14.403 200.226 13.998 199.956 13.638H195.42V20.037L197.931 19.848C198.255 19.812 198.552 19.632 198.822 19.308C199.11 18.984 199.317 18.561 199.443 18.039H200.847V23.628H199.443C199.191 22.908 198.948 22.404 198.714 22.116C198.48 21.828 198.21 21.666 197.904 21.63L195.42 21.414V28.326H200.145C200.721 27.462 201.144 26.319 201.414 24.897C201.792 24.843 202.161 24.816 202.521 24.816C202.827 24.816 203.124 24.843 203.412 24.897L203.142 30H189.804L189.912 28.893ZM203.994 28.893C204.318 28.821 204.588 28.731 204.804 28.623C205.038 28.515 205.272 28.344 205.506 28.11V13.881C205.182 13.575 204.642 13.296 203.886 13.044L203.994 11.991H209.772C212.256 11.991 214.263 12.306 215.793 12.936C217.341 13.566 218.484 14.547 219.222 15.879C219.96 17.193 220.329 18.903 220.329 21.009C220.329 23.115 219.96 24.825 219.222 26.139C218.484 27.453 217.323 28.425 215.739 29.055C214.173 29.685 212.13 30 209.61 30H203.886L203.994 28.893ZM210.555 28.326C212.499 28.326 213.903 27.741 214.767 26.571C215.649 25.401 216.09 23.538 216.09 20.982C216.09 18.408 215.667 16.545 214.821 15.393C213.975 14.241 212.58 13.665 210.636 13.665H209.502V28.218C209.79 28.29 210.141 28.326 210.555 28.326ZM220.924 28.893C221.734 28.767 222.382 28.497 222.868 28.083V13.908C222.688 13.728 222.4 13.566 222.004 13.422C221.608 13.26 221.212 13.152 220.816 13.098L220.951 11.991H228.862L228.7 13.098C228.268 13.188 227.917 13.287 227.647 13.395C227.377 13.503 227.107 13.674 226.837 13.908V28.083C227.197 28.425 227.872 28.695 228.862 28.893L228.673 30H220.816L220.924 28.893ZM237.431 30.27C234.767 30.27 232.751 29.478 231.383 27.894C230.033 26.31 229.358 23.997 229.358 20.955C229.358 17.931 230.033 15.636 231.383 14.07C232.751 12.486 234.767 11.694 237.431 11.694C240.095 11.694 242.102 12.486 243.452 14.07C244.802 15.636 245.477 17.931 245.477 20.955C245.477 23.997 244.802 26.31 243.452 27.894C242.102 29.478 240.095 30.27 237.431 30.27ZM237.431 28.704C238.691 28.704 239.6 28.101 240.158 26.895C240.716 25.689 240.995 23.709 240.995 20.955C240.995 18.219 240.716 16.257 240.158 15.069C239.6 13.863 238.691 13.26 237.431 13.26C236.153 13.26 235.226 13.863 234.65 15.069C234.092 16.257 233.813 18.219 233.813 20.955C233.813 23.709 234.092 25.689 234.65 26.895C235.226 28.101 236.153 28.704 237.431 28.704ZM251.347 30.189C250.339 30.189 249.331 30.072 248.323 29.838C247.315 29.604 246.388 29.262 245.542 28.812V24.708L247.999 24.249C248.053 25.005 248.161 25.779 248.323 26.571C248.503 27.345 248.683 27.903 248.863 28.245C249.673 28.551 250.42 28.704 251.104 28.704C251.878 28.704 252.499 28.47 252.967 28.002C253.453 27.516 253.696 26.85 253.696 26.004C253.696 25.176 253.426 24.474 252.886 23.898C252.346 23.322 251.491 22.782 250.321 22.278C249.115 21.756 248.17 21.252 247.486 20.766C246.802 20.262 246.307 19.695 246.001 19.065C245.713 18.417 245.569 17.634 245.569 16.716C245.569 15.78 245.83 14.943 246.352 14.205C246.874 13.449 247.594 12.855 248.512 12.423C249.43 11.991 250.465 11.775 251.617 11.775C252.625 11.775 253.552 11.937 254.398 12.261C255.262 12.567 255.937 12.99 256.423 13.53C256.927 14.07 257.179 14.655 257.179 15.285C257.179 15.897 257.017 16.383 256.693 16.743C256.369 17.103 255.946 17.283 255.424 17.283C254.758 17.283 254.074 17.013 253.372 16.473C253.822 15.969 254.047 15.429 254.047 14.853C254.047 14.349 253.831 13.953 253.399 13.665C252.985 13.377 252.409 13.233 251.671 13.233C250.915 13.233 250.303 13.431 249.835 13.827C249.385 14.223 249.16 14.745 249.16 15.393C249.16 15.933 249.268 16.401 249.484 16.797C249.7 17.193 250.069 17.571 250.591 17.931C251.131 18.291 251.887 18.687 252.859 19.119C254.551 19.857 255.748 20.649 256.45 21.495C257.17 22.341 257.53 23.43 257.53 24.762C257.53 26.436 256.963 27.759 255.829 28.731C254.713 29.703 253.219 30.189 251.347 30.189Z" fill="white"/>
</svg>
