<svg width="50" height="50" viewBox="0 0 50 50" fill="none" xmlns="http://www.w3.org/2000/svg">

<path d="M21.8441 10.4676V9.33981C21.8441 8.50665 22.1735 7.70728 22.7605 7.11602C23.3475 6.52476 24.1445 6.18959 24.9777 6.18359C25.8154 6.18359 26.619 6.51588 27.2121 7.10757C27.8052 7.69926 28.1394 8.50204 28.1414 9.33981V10.4676C30.7794 11.1629 33.1139 12.7099 34.7823 14.8683C36.4507 17.0267 37.3596 19.6757 37.3679 22.4037V31.5772C37.3663 32.422 37.4835 33.2628 37.7161 34.0749L39.8581 37.2008C39.9895 37.3909 40.0663 37.6133 40.0802 37.8439C40.0941 38.0745 40.0445 38.3045 39.9369 38.509C39.8292 38.7134 39.6676 38.8844 39.4695 39.0034C39.2715 39.1224 39.0446 39.1848 38.8136 39.1839H11.1872C10.9568 39.1834 10.7309 39.12 10.5339 39.0004C10.337 38.8809 10.1764 38.7098 10.0697 38.5056C9.96291 38.3014 9.91399 38.072 9.92818 37.842C9.94238 37.612 10.0192 37.3903 10.1502 37.2008L12.2922 34.0598C12.5248 33.2476 12.642 32.4068 12.6404 31.562V22.4037C12.6473 19.6787 13.553 17.032 15.217 14.874C16.881 12.716 19.2104 11.1672 21.8441 10.4676V10.4676Z" stroke="#252B2D" stroke-width="1.4" stroke-linecap="round" stroke-linejoin="round"/>
<path d="M19.1631 39.184H30.8419V39.3202C30.8409 40.0888 30.6883 40.8497 30.3927 41.5592C30.0972 42.2688 29.6646 42.913 29.1197 43.4551C28.5748 43.9972 27.9284 44.4264 27.2173 44.7183C26.5062 45.0101 25.7446 45.1588 24.976 45.1558V45.1558C23.4263 45.1558 21.94 44.5402 20.8442 43.4444C19.7484 42.3486 19.1328 40.8623 19.1328 39.3126V39.1764L19.1631 39.184Z" stroke="#252B2D" stroke-width="1.4" stroke-linecap="round" stroke-linejoin="round"/>
<path d="M4.74609 19.0584C5.43055 16.1035 6.75324 13.3341 8.62136 10.9446" stroke="#252B2D" stroke-width="1.4" stroke-linecap="round" stroke-linejoin="round"/>
<path d="M8.08398 19.3233C8.45284 17.7608 9.04421 16.2595 9.83996 14.8652C10.0822 14.4489 10.3319 14.0402 10.5969 13.639" stroke="#252B2D" stroke-width="1.4" stroke-linecap="round" stroke-linejoin="round"/>
<path d="M44.9358 19.0584C44.2546 16.1024 42.9316 13.3323 41.0605 10.9446" stroke="#252B2D" stroke-width="1.4" stroke-linecap="round" stroke-linejoin="round"/>
<path d="M41.6286 19.3233C41.2679 17.7606 40.6815 16.2588 39.8877 14.8652C39.6531 14.4489 39.3958 14.0402 39.1309 13.639" stroke="#252B2D" stroke-width="1.4" stroke-linecap="round" stroke-linejoin="round"/>
</svg>
