<svg width="34" height="29" viewBox="0 0 34 29" fill="none" xmlns="http://www.w3.org/2000/svg">
<path d="M1 9.0703V3.63076C1 2.93304 1.27324 2.26389 1.75962 1.77053C2.246 1.27717 2.90567 1 3.59352 1H30.4549C30.7891 1 31.12 1.06677 31.4288 1.19649C31.7375 1.32621 32.018 1.51635 32.2543 1.75605C32.4906 1.99574 32.6781 2.28031 32.806 2.59348C32.9339 2.90666 32.9997 3.24233 32.9997 3.58131V27.9999H25.7554" stroke="#2E2A26" stroke-width="1.4" stroke-linecap="round" stroke-linejoin="round"/>
<path d="M1.00031 6.36951V25.4771C0.995136 25.8064 1.05462 26.1335 1.17528 26.4393C1.29595 26.745 1.4754 27.0234 1.70316 27.2581C1.93093 27.4928 2.20246 27.6792 2.50195 27.8064C2.80144 27.9336 3.12289 27.9991 3.44758 27.9991H26.7307V8.31786C26.7307 7.79326 26.5253 7.29014 26.1596 6.91919C25.7939 6.54824 25.2979 6.33984 24.7807 6.33984H3.68158" stroke="#2E2A26" stroke-width="1.4" stroke-linecap="round" stroke-linejoin="round"/>
<path d="M1 3.71875C1 4.41647 1.27324 5.08561 1.75962 5.57898C2.246 6.07234 2.90567 6.34951 3.59351 6.34951H5.08527" stroke="#2E2A26" stroke-width="1.4" stroke-linecap="round" stroke-linejoin="round"/>
<path d="M23.6107 9.79297H4.85156V17.5171H23.6107V9.79297Z" stroke="#2E2A26" stroke-width="1.4" stroke-linecap="round" stroke-linejoin="round"/>
<path d="M1 9.09188V3.65234" stroke="#2E2A26" stroke-width="1.4" stroke-linecap="round" stroke-linejoin="round"/>
<path d="M4.85156 21.5703H12.8174" stroke="#2E2A26" stroke-width="1.4" stroke-linecap="round" stroke-linejoin="round"/>
<path d="M4.85156 24.2891H12.8174" stroke="#2E2A26" stroke-width="1.4" stroke-linecap="round" stroke-linejoin="round"/>
<path d="M15.5762 21.5703H23.542" stroke="#2E2A26" stroke-width="1.4" stroke-linecap="round" stroke-linejoin="round"/>
<path d="M15.5762 24.2891H23.542" stroke="#2E2A26" stroke-width="1.4" stroke-linecap="round" stroke-linejoin="round"/>
<path d="M1.29297 3.44141H27.7156C28.2871 3.44141 28.8352 3.67169 29.2393 4.08158C29.6434 4.49148 29.8704 5.04743 29.8704 5.62711V27.9094" stroke="#2E2A26" stroke-width="1.4" stroke-linecap="round" stroke-linejoin="round"/>
</svg>
