<svg width="161" height="164" viewBox="0 0 161 164" fill="none" xmlns="http://www.w3.org/2000/svg">
<path d="M50.5938 97.3575L25.5145 97.4581C24.0729 97.4639 22.909 98.6372 22.9148 100.079L23.0326 129.419C23.0383 130.86 24.2117 132.024 25.6532 132.018L50.7325 131.918C52.1741 131.912 53.338 130.739 53.3323 129.297L53.2145 99.9572C53.2087 98.5156 52.0354 97.3517 50.5938 97.3575Z" stroke="#16A1DC" stroke-width="1.4" stroke-miterlimit="10" stroke-linecap="round"/>
<path d="M28.2228 132.013V123.572C28.2181 122.886 28.3491 122.205 28.6083 121.569C28.8675 120.933 29.2498 120.355 29.7333 119.867C30.2167 119.38 30.7918 118.993 31.4254 118.728C32.059 118.463 32.7386 118.326 33.4253 118.325H42.9243C44.2942 118.33 45.6077 118.872 46.5822 119.834C47.5568 120.797 48.1146 122.104 48.1357 123.474V131.914" stroke="#16A1DC" stroke-width="1.4" stroke-miterlimit="10" stroke-linecap="round"/>
<path d="M38.1075 118.343C42.4471 118.343 45.9651 114.825 45.9651 110.486C45.9651 106.146 42.4471 102.628 38.1075 102.628C33.7679 102.628 30.25 106.146 30.25 110.486C30.25 114.825 33.7679 118.343 38.1075 118.343Z" stroke="#16A1DC" stroke-width="1.4" stroke-miterlimit="10" stroke-linecap="round"/>
<path d="M23.5059 136.498L49.7246 136.4" stroke="#16A1DC" stroke-width="1.4" stroke-miterlimit="10" stroke-linecap="round"/>
<path d="M23.5234 140.885L49.7421 140.786" stroke="#16A1DC" stroke-width="1.4" stroke-miterlimit="10" stroke-linecap="round"/>
<path d="M55.9026 148.589C53.5329 149.563 50.9277 149.812 48.4164 149.305C45.9052 148.798 43.6007 147.557 41.7944 145.741C39.9881 143.924 38.7612 141.612 38.2688 139.098C37.7764 136.584 38.0407 133.98 39.0282 131.616C40.0157 129.252 41.6821 127.234 43.8165 125.817C45.951 124.4 48.4577 123.648 51.0197 123.656C53.5816 123.664 56.0836 124.432 58.2093 125.862C60.335 127.292 61.9889 129.32 62.9618 131.69C63.6088 133.263 63.9394 134.948 63.9348 136.649C63.9301 138.35 63.5903 140.033 62.9347 141.602C62.2791 143.172 61.3206 144.597 60.114 145.796C58.9073 146.994 57.4763 147.944 55.9026 148.589Z" fill="white"/>
<path d="M57.0506 125.159V130.111C57.053 130.515 56.9754 130.917 56.8224 131.291C56.6694 131.666 56.444 132.007 56.159 132.295C55.874 132.582 55.5351 132.81 55.1617 132.967C54.7883 133.123 54.3877 133.204 53.9829 133.205L38.4473 133.268" stroke="#16A1DC" stroke-width="1.4" stroke-miterlimit="10" stroke-linecap="round"/>
<path d="M50.9512 123.868L50.9781 132.318" stroke="#16A1DC" stroke-width="1.4" stroke-miterlimit="10" stroke-linecap="round"/>
<path d="M38.1777 138.551L55.624 138.479" stroke="#16A1DC" stroke-width="1.4" stroke-miterlimit="10" stroke-linecap="round"/>
<path d="M40.1152 143.71L55.6419 143.656" stroke="#16A1DC" stroke-width="1.4" stroke-miterlimit="10" stroke-linecap="round"/>
<path d="M62.3797 126.004C60.305 123.752 57.6091 122.166 54.6329 121.446C51.6567 120.727 48.534 120.906 45.6595 121.96C42.785 123.015 40.2879 124.899 38.4839 127.373C36.68 129.847 35.6502 132.801 35.5247 135.86C35.3993 138.92 36.1839 141.947 37.7792 144.561C39.3746 147.174 41.7091 149.256 44.4876 150.543C47.2661 151.83 50.3637 152.264 53.3888 151.79C56.4139 151.316 59.2306 149.956 61.4827 147.882C62.9782 146.504 64.1876 144.845 65.0421 143C65.8965 141.155 66.3791 139.16 66.4624 137.129C66.5457 135.097 66.228 133.069 65.5275 131.16C64.827 129.252 63.7574 127.5 62.3797 126.004ZM59.7426 146.016C57.8566 147.75 55.4988 148.885 52.9673 149.279C50.4359 149.673 47.8445 149.307 45.5209 148.228C43.1973 147.149 41.2459 145.405 39.9135 143.217C38.5811 141.029 37.9275 138.495 38.0354 135.935C38.1433 133.376 39.0079 130.905 40.5197 128.837C42.0316 126.769 44.1228 125.196 46.529 124.316C48.9351 123.436 51.5481 123.29 54.0374 123.895C56.5268 124.501 58.7806 125.831 60.514 127.717C62.8377 130.246 64.0618 133.595 63.9172 137.026C63.7725 140.458 62.2709 143.691 59.7426 146.016Z" fill="#EBF7FE" stroke="#252B2D" stroke-width="1.4" stroke-linecap="round" stroke-linejoin="round"/>
<path d="M41.5687 138.723C41.2195 137.116 41.2812 135.447 41.7481 133.87" stroke="#252B2D" stroke-width="1.4" stroke-linecap="round" stroke-linejoin="round"/>
<path d="M57.6897 143.773C56.748 144.64 55.6446 145.314 54.4425 145.755C53.2404 146.196 51.9632 146.396 50.6839 146.344C49.4045 146.291 48.148 145.987 46.9861 145.449C45.8242 144.911 44.7796 144.149 43.9121 143.208" stroke="#252B2D" stroke-width="1.4" stroke-linecap="round" stroke-linejoin="round"/>
<path d="M74.5981 159.532L71.9969 161.918C71.8139 162.09 71.5984 162.223 71.3632 162.31C71.1279 162.397 70.8776 162.437 70.6269 162.426C70.3762 162.415 70.1303 162.354 69.9034 162.247C69.6766 162.14 69.4735 161.988 69.306 161.801L61.9238 153.8C61.7505 153.618 61.6155 153.404 61.5269 153.168C61.4382 152.933 61.3977 152.683 61.4077 152.432C61.4178 152.181 61.4782 151.935 61.5853 151.707C61.6925 151.48 61.8442 151.277 62.0315 151.109L64.6327 148.723C64.8146 148.55 65.0294 148.415 65.2644 148.326C65.4995 148.238 65.75 148.197 66.001 148.207C66.252 148.217 66.4984 148.278 66.7256 148.385C66.9529 148.492 67.1562 148.644 67.3236 148.831L74.7058 156.832C74.8793 157.015 75.0145 157.23 75.1033 157.466C75.192 157.702 75.2326 157.953 75.2226 158.205C75.2125 158.456 75.1521 158.704 75.0448 158.932C74.9376 159.16 74.7857 159.364 74.5981 159.532Z" fill="white" stroke="#252B2D" stroke-width="1.4" stroke-linecap="round" stroke-linejoin="round"/>
<path d="M62.0676 151.145L60.166 149.073" stroke="#252B2D" stroke-width="1.4" stroke-linecap="round" stroke-linejoin="round"/>
<path d="M64.891 148.554L62.9805 146.473" stroke="#252B2D" stroke-width="1.4" stroke-linecap="round" stroke-linejoin="round"/>
<path d="M120.917 31.6758L120.567 30.6891C120.438 30.3258 120.382 29.9406 120.402 29.5555C120.423 29.1705 120.519 28.7934 120.686 28.4457C120.852 28.0981 121.086 27.7868 121.374 27.5299C121.661 27.273 121.997 27.0755 122.361 26.9487C122.724 26.8209 123.109 26.7659 123.494 26.7869C123.878 26.8078 124.255 26.9044 124.603 27.0709C124.95 27.2375 125.261 27.4709 125.518 27.7577C125.775 28.0446 125.973 28.3793 126.101 28.7427L126.451 29.7204C128.967 29.5156 131.48 30.1465 133.602 31.5152C135.723 32.8839 137.333 34.914 138.184 37.2909L141.027 45.2919C141.284 46.0262 141.644 46.7207 142.094 47.355L144.929 49.418C145.104 49.5421 145.241 49.7121 145.326 49.9093C145.41 50.1065 145.439 50.3232 145.408 50.5355C145.378 50.7479 145.289 50.9477 145.152 51.1129C145.016 51.2782 144.836 51.4025 144.633 51.4721L120.567 60.0383C120.366 60.1113 120.149 60.1279 119.94 60.0862C119.731 60.0445 119.537 59.9461 119.379 59.8017C119.222 59.6574 119.107 59.4726 119.048 59.2676C118.988 59.0625 118.986 58.8451 119.042 58.639L119.939 55.2394C119.885 54.459 119.725 53.6896 119.464 52.9521L116.62 44.9511C115.776 42.5739 115.739 39.9846 116.516 37.5844C117.293 35.1843 118.84 33.1075 120.917 31.6758Z" fill="white" stroke="#252B2D" stroke-width="1.4" stroke-miterlimit="10"/>
<path d="M127.48 57.5653L137.682 53.9389L137.724 54.0572C138.202 55.4021 138.126 56.8819 137.513 58.1709C136.9 59.46 135.8 60.4528 134.455 60.9309C133.11 61.409 131.631 61.3333 130.342 60.7203C129.053 60.1074 128.06 59.0075 127.582 57.6626L127.54 57.5443L127.48 57.5653Z" fill="white" stroke="#252B2D" stroke-width="1.4" stroke-miterlimit="10"/>
<path d="M108.655 44.4764C108.34 41.6843 108.647 38.8571 109.552 36.1973" stroke="#252B2D" stroke-width="1.4" stroke-miterlimit="10"/>
<path d="M111.651 43.6423C111.484 42.1665 111.53 40.6743 111.786 39.2113C111.866 38.7717 111.965 38.3143 112.073 37.9106" stroke="#252B2D" stroke-width="1.4" stroke-miterlimit="10"/>
<path d="M143.736 31.9815C142.224 29.6131 140.209 27.6071 137.834 26.1063" stroke="#252B2D" stroke-width="1.4" stroke-miterlimit="10"/>
<path d="M140.902 33.2749C140.101 32.0269 139.125 30.9001 138.005 29.9292C137.664 29.6362 137.314 29.3581 136.955 29.095" stroke="#252B2D" stroke-width="1.4" stroke-miterlimit="10"/>
<path d="M89.2789 6.18018C87.7842 4.25546 85.8692 2.69798 83.6802 1.62683C81.4913 0.555687 79.0864 -0.00077093 76.6495 8.01616e-07C76.207 8.01616e-07 75.7674 0.0179404 75.3309 0.0538195C64.2622 0.950798 59.3198 14.558 66.684 22.873L74.703 31.9235L89.7095 48.8674L103.81 32.4706L111.685 23.3214C118.538 15.3473 114.376 2.52948 103.998 0.834191C103.138 0.696916 102.268 0.627932 101.397 0.627886C99.0957 0.626142 96.8211 1.12225 94.7293 2.08218C92.6376 3.0421 90.7783 4.44313 89.2789 6.18915" fill="#16A1DC"/>
<path d="M81.916 16.0643L82.4452 12.1445H98.7882L98.259 16.0643H92.3748L89.8722 33.69H85.3066L87.8181 16.0643H81.916Z" fill="#EBF7FE"/>
<path d="M116.978 130.713L119.776 138.015L112.654 135.037L99.5315 121.914C98.9585 121.341 98.6367 120.563 98.6367 119.752C98.6367 118.942 98.9585 118.164 99.5315 117.591V117.591C100.105 117.018 100.883 116.696 101.693 116.696C102.504 116.696 103.281 117.018 103.855 117.591L116.978 130.713Z" stroke="#16A1DC" stroke-width="1.4" stroke-linecap="round" stroke-linejoin="round"/>
<path d="M100.824 123.177L105.139 118.863" stroke="#16A1DC" stroke-width="1.4" stroke-linecap="round" stroke-linejoin="round"/>
<path d="M100.162 124.021L98.9238 125.258L102.772 129.106" stroke="#16A1DC" stroke-width="1.4" stroke-linecap="round" stroke-linejoin="round"/>
<path d="M106.217 130.784L110.917 125.59C111.271 125.53 111.636 125.562 111.974 125.685C112.312 125.807 112.612 126.016 112.845 126.29C113.491 127.187 113.106 130.057 112.478 130.775C111.85 131.492 116.155 131.134 116.963 132.632C117.77 134.13 118.694 138.014 117.411 138.848C116.128 139.682 112.72 138.848 112.72 138.848L106.217 130.784Z" fill="#EBF7FE"/>
<path d="M119.985 84.4918C120.847 84.4918 121.545 83.793 121.545 82.9311C121.545 82.0691 120.847 81.3703 119.985 81.3703C119.123 81.3703 118.424 82.0691 118.424 82.9311C118.424 83.793 119.123 84.4918 119.985 84.4918Z" fill="#252B2D"/>
<path d="M120.568 90.3664C121.705 91.2551 123.1 91.7495 124.542 91.7747C124.841 91.7974 125.14 91.7974 125.439 91.7747" stroke="#252B2D" stroke-width="1.4" stroke-linecap="round" stroke-linejoin="round"/>
<path d="M104.6 81.4597C103.51 81.5893 102.505 82.1143 101.776 82.935C101.047 83.7558 100.645 84.8154 100.645 85.9132C100.645 87.0109 101.047 88.0705 101.776 88.8913C102.505 89.7121 103.51 90.237 104.6 90.3667" stroke="#252B2D" stroke-width="1.4" stroke-linecap="round" stroke-linejoin="round"/>
<path d="M104.25 84.4915C104.026 84.4748 103.801 84.5046 103.589 84.5788C103.377 84.6531 103.182 84.7703 103.018 84.9231C102.853 85.0759 102.722 85.261 102.632 85.4669C102.542 85.6727 102.496 85.8949 102.496 86.1195C102.496 86.344 102.542 86.5662 102.632 86.772C102.722 86.9779 102.853 87.163 103.018 87.3158C103.182 87.4686 103.377 87.5858 103.589 87.6601C103.801 87.7344 104.026 87.7641 104.25 87.7475" stroke="#252B2D" stroke-width="1.4" stroke-linecap="round" stroke-linejoin="round"/>
<path d="M120.271 79.3165C120.027 79.1073 119.735 78.962 119.421 78.8936C119.107 78.8253 118.781 78.8361 118.472 78.9251C118.164 79.0141 117.882 79.1784 117.653 79.4033C117.423 79.6282 117.253 79.9066 117.158 80.2135" stroke="#252B2D" stroke-width="1.4" stroke-linecap="round" stroke-linejoin="round"/>
<path d="M104.25 80.6974C104.25 80.6974 116.808 84.9939 119.499 70.6153" stroke="#252B2D" stroke-width="1.4" stroke-linecap="round" stroke-linejoin="round"/>
<path d="M102.627 89.8907C102.627 89.8907 117.786 100.654 112.206 109.624C111.425 110.815 110.384 111.813 109.161 112.543C107.938 113.273 106.566 113.717 105.147 113.84C101.165 114.271 94.222 113.463 89.3694 112.046C75.1882 107.902 84.5795 88.7247 89.782 77.0012C94.7333 65.8427 109.516 67.1344 109.516 67.1344C113.94 67.1366 118.2 68.814 121.439 71.8293C124.677 74.8447 126.653 78.9742 126.971 83.3876C128.28 85.6211 129.141 85.7646 129.141 86.841C129.139 87.3557 128.933 87.8485 128.568 88.2116C128.203 88.5746 127.71 88.7785 127.195 88.7785C126.978 88.7761 126.762 88.7367 126.558 88.6619C125.781 91.9597 124.064 94.9614 121.616 97.3033C119.167 99.6452 116.092 101.227 112.763 101.856" stroke="#252B2D" stroke-width="1.4" stroke-linecap="round" stroke-linejoin="round"/>
<path d="M97.0401 69.3592C97.0401 69.3592 98.8341 66.6683 97.6052 64.4348C96.3764 62.2013 90.1872 58.3174 85.8279 66.139C81.4686 73.9607 86.0342 76.7054 90.8331 75.0281" stroke="#252B2D" stroke-width="1.4" stroke-linecap="round" stroke-linejoin="round"/>
<path d="M96.3496 73.3326C96.5122 74.6174 96.9732 75.8464 97.696 76.9211C98.4187 77.9959 99.3829 78.8865 100.512 79.5217" stroke="#252B2D" stroke-width="1.4" stroke-linecap="round" stroke-linejoin="round"/>
<path d="M93.7645 75.9341C93.7645 75.9341 92.724 81.316 97.0384 84.6169" stroke="#252B2D" stroke-width="1.4" stroke-linecap="round" stroke-linejoin="round"/>
<path d="M88.2768 126.596H76.625" stroke="#252B2D" stroke-width="1.4" stroke-linecap="round" stroke-linejoin="round"/>
<path d="M123.133 117.402V140.239" stroke="#252B2D" stroke-width="1.4" stroke-linecap="round" stroke-linejoin="round"/>
<path d="M123.133 124.469L137.18 140.238" stroke="#252B2D" stroke-width="1.4" stroke-linecap="round" stroke-linejoin="round"/>
<path d="M129.34 131.035L139.171 121.761" stroke="#252B2D" stroke-width="1.4" stroke-linecap="round" stroke-linejoin="round"/>
<path d="M84.8944 109.453C83.8068 109.452 82.7297 109.666 81.7247 110.081C80.7197 110.497 79.8065 111.107 79.0375 111.876C78.2685 112.645 77.6587 113.558 77.243 114.563C76.8274 115.568 76.6141 116.645 76.6152 117.733V135.08C76.6152 136.448 77.1586 137.76 78.1259 138.727C79.0931 139.694 80.405 140.238 81.7729 140.238H113.463C114.653 140.238 115.793 139.765 116.634 138.924C117.476 138.083 117.948 136.942 117.948 135.753V135.753C117.948 134.563 117.476 133.423 116.634 132.582C115.793 131.741 114.653 131.268 113.463 131.268H111.822L113.113 129.42C113.487 128.973 113.667 128.396 113.615 127.815C113.563 127.235 113.282 126.699 112.835 126.326C112.389 125.951 111.813 125.769 111.232 125.82C110.652 125.87 110.116 126.149 109.741 126.595L105.964 131.08L105.884 131.241H88.276V121.374" stroke="#252B2D" stroke-width="1.4" stroke-linecap="round" stroke-linejoin="round"/>
<path d="M151.065 138.408L135.978 116.36C134.688 114.252 132.878 112.509 130.721 111.3C128.565 110.091 126.135 109.455 123.663 109.453H112.199" stroke="#252B2D" stroke-width="1.4" stroke-linecap="round" stroke-linejoin="round"/>
<path d="M148.617 135.925H150.411C151.522 135.925 152.587 136.366 153.373 137.152C154.158 137.937 154.599 139.003 154.599 140.114H144.428C144.428 139.003 144.869 137.937 145.655 137.152C146.44 136.366 147.506 135.925 148.617 135.925Z" fill="#EBF7FE" stroke="#252B2D" stroke-width="1.4" stroke-linecap="round" stroke-linejoin="round"/>
<path d="M71.377 140.247H156.59C157.442 140.247 158.258 140.585 158.861 141.187C159.463 141.79 159.801 142.606 159.801 143.458" stroke="#252B2D" stroke-width="1.4" stroke-linecap="round" stroke-linejoin="round"/>
<path d="M75.3145 96.7262V83.406" stroke="#252B2D" stroke-width="1.4" stroke-linecap="round" stroke-linejoin="round"/>
<path d="M66.1388 38.6744C75.3149 34.1267 72.4176 21.1743 72.4176 21.1743C67.852 1.63813 46.3514 5.45029 46.3514 5.45029C35.0316 7.12764 29.4075 15.0659 28.7348 24.4752C27.3803 26.7984 26.4923 26.9509 26.4923 28.0631C26.4923 28.596 26.704 29.1071 27.0808 29.4839C27.4576 29.8607 27.9687 30.0724 28.5016 30.0724C28.7248 30.0708 28.9462 30.0314 29.1563 29.9558C29.479 31.0545 29.89 32.1254 30.3852 33.158C30.6828 33.194 30.9825 33.209 31.2822 33.2028C32.776 33.1706 34.2197 32.6579 35.3993 31.7407C35.3993 31.7407 37.1933 36.5844 33.8924 38.6923C36.4622 41.3163 39.8027 43.051 43.4273 43.6437L46.8986 43.9666V51.5102H37.6507C35.0881 51.5138 32.5694 52.1756 30.3359 53.4321C28.1025 54.6886 26.2292 56.4977 24.8957 58.686L18.1594 72.4187V57.1701H9.03711V78.6976C9.03711 81.0337 9.96513 83.2741 11.617 84.926C13.2689 86.5779 15.5093 87.5059 17.8454 87.5059C19.2877 87.5072 20.7081 87.1536 21.9814 86.4762C23.2547 85.7989 24.3418 84.8187 25.1469 83.622L34.3588 69.9341V91.2822" fill="#EBF7FE"/>
<path d="M66.1388 38.6744C75.3149 34.1267 72.4176 21.1743 72.4176 21.1743C67.852 1.63813 46.3514 5.45029 46.3514 5.45029C35.0316 7.12764 29.4075 15.0659 28.7348 24.4752C27.3803 26.7984 26.4923 26.9509 26.4923 28.0631C26.4923 28.596 26.704 29.1071 27.0808 29.4839C27.4576 29.8607 27.9687 30.0724 28.5016 30.0724C28.7248 30.0708 28.9462 30.0314 29.1563 29.9558C29.479 31.0545 29.89 32.1254 30.3852 33.158C30.6828 33.194 30.9825 33.209 31.2822 33.2028C32.776 33.1706 34.2197 32.6579 35.3993 31.7407C35.3993 31.7407 37.1933 36.5844 33.8924 38.6923C36.4622 41.3163 39.8027 43.051 43.4273 43.6437L46.8986 43.9666V51.5102H37.6507C35.0881 51.5138 32.5694 52.1756 30.3359 53.4321C28.1025 54.6886 26.2292 56.4977 24.8957 58.686L18.1594 72.4187V57.1701H9.03711V78.6976C9.03711 81.0337 9.96513 83.2741 11.617 84.926C13.2689 86.5779 15.5093 87.5059 17.8454 87.5059V87.5059C19.2877 87.5072 20.7081 87.1536 21.9814 86.4762C23.2547 85.7989 24.3418 84.8187 25.1469 83.622L34.3588 69.9341V91.2822" stroke="#252B2D" stroke-width="1.4" stroke-linecap="round" stroke-linejoin="round"/>
<path d="M17.0817 50.2529V54.8005C17.0828 55.1017 17.0246 55.4001 16.9101 55.6786C16.7957 55.9572 16.6274 56.2104 16.4149 56.4237C16.2024 56.6371 15.9499 56.8063 15.6718 56.9218C15.3937 57.0374 15.0955 57.0968 14.7944 57.0968H11.5742" fill="#EBF7FE"/>
<path d="M17.0817 50.2529V54.8005C17.0828 55.1017 17.0246 55.4001 16.9101 55.6786C16.7957 55.9572 16.6274 56.2104 16.4149 56.4237C16.2024 56.6371 15.9499 56.8063 15.6718 56.9218C15.3937 57.0374 15.0955 57.0968 14.7944 57.0968H11.5742" stroke="#252B2D" stroke-width="1.4" stroke-linecap="round" stroke-linejoin="round"/>
<path d="M34.3574 24.025C34.3574 24.4532 34.5275 24.8639 34.8303 25.1667C35.1331 25.4695 35.5438 25.6396 35.972 25.6396C36.4002 25.6396 36.8109 25.4695 37.1137 25.1667C37.4164 24.8639 37.5865 24.4532 37.5865 24.025" stroke="#252B2D" stroke-width="1.4" stroke-linecap="round" stroke-linejoin="round"/>
<path d="M51.9043 22.5018C52.5275 22.4743 53.1497 22.5733 53.7336 22.7929C54.3174 23.0124 54.8508 23.3479 55.3015 23.7791C55.7522 24.2104 56.1108 24.7284 56.3559 25.3021C56.6009 25.8757 56.7272 26.493 56.7272 27.1168C56.7272 27.7405 56.6009 28.3578 56.3559 28.9315C56.1108 29.5051 55.7522 30.0231 55.3015 30.4544C54.8508 30.8856 54.3174 31.2211 53.7336 31.4407C53.1497 31.6602 52.5275 31.7592 51.9043 31.7317" stroke="#252B2D" stroke-width="1.4" stroke-linecap="round" stroke-linejoin="round"/>
<path d="M52.2793 25.6403C52.7265 25.6403 53.1555 25.8179 53.4717 26.1342C53.788 26.4504 53.9656 26.8793 53.9656 27.3266C53.9656 27.7738 53.788 28.2027 53.4717 28.519C53.1555 28.8352 52.7265 29.0129 52.2793 29.0129" stroke="#252B2D" stroke-width="1.4" stroke-linecap="round" stroke-linejoin="round"/>
<path d="M35.6777 20.3218C35.946 20.0936 36.2697 19.9402 36.6162 19.8772C36.9627 19.8142 37.3197 19.8438 37.6511 19.963C37.9483 20.0592 38.2194 20.2225 38.4433 20.4403C38.6673 20.658 38.8382 20.9244 38.9427 21.2188" stroke="#252B2D" stroke-width="1.4" stroke-linecap="round" stroke-linejoin="round"/>
<path d="M37.5879 9.39653C38.9423 26.6006 53.1236 22.1964 53.1236 22.1964" stroke="#252B2D" stroke-width="1.4" stroke-linecap="round" stroke-linejoin="round"/>
<path d="M57.7336 73.2604V59.743H39.6953V74.9288" stroke="#16A1DC" stroke-width="1.4" stroke-linecap="round" stroke-linejoin="round"/>
<path d="M62.6386 73.2617V56.1025H44.6094V59.7442" stroke="#16A1DC" stroke-width="1.4" stroke-linecap="round" stroke-linejoin="round"/>
<path d="M3.8613 62.0765C3.62679 61.8761 3.43419 61.6314 3.29458 61.3563C3.15496 61.0813 3.07107 60.7814 3.04773 60.4738C3.02439 60.1662 3.06206 59.8571 3.15858 59.5641C3.2551 59.2711 3.40856 59.0001 3.61014 58.7667L14.1407 46.6036L17.7286 49.6713L7.17115 61.8254C6.76511 62.2969 6.18863 62.5881 5.56815 62.6352C4.94767 62.6823 4.33384 62.4814 3.8613 62.0765Z" fill="#16A1DC" stroke="#16A1DC" stroke-width="1.4" stroke-linecap="round" stroke-linejoin="round"/>
<path d="M20.2302 49.9845C24.0249 49.9845 27.1011 46.9084 27.1011 43.1137C27.1011 39.319 24.0249 36.2428 20.2302 36.2428C16.4356 36.2428 13.3594 39.319 13.3594 43.1137C13.3594 46.9084 16.4356 49.9845 20.2302 49.9845Z" fill="#EBF7FE" stroke="#16A1DC" stroke-width="1.4" stroke-linecap="round" stroke-linejoin="round"/>
<path d="M4.66074 51.6019L8.77479 47.4706C9.16759 47.0762 9.701 46.8539 10.2577 46.8527C10.8143 46.8516 11.3487 47.0716 11.7431 47.4644L12.3787 48.0973C12.8453 48.562 13.2158 49.1139 13.469 49.7217C13.7223 50.3296 13.8534 50.9813 13.8547 51.6398C13.8561 52.2982 13.7278 52.9505 13.4771 53.5594C13.2264 54.1682 12.8582 54.7218 12.3936 55.1883C11.9289 55.6549 11.377 56.0254 10.7691 56.2787C10.1613 56.5319 9.50959 56.663 8.85113 56.6644C8.19267 56.6657 7.54038 56.5374 6.93152 56.2867C6.32265 56.036 5.76913 55.6678 5.30255 55.2032L4.66696 54.5703C4.27251 54.1775 4.05026 53.6441 4.04909 53.0874C4.04793 52.5307 4.26794 51.9964 4.66074 51.6019Z" fill="#EBF7FE" stroke="#252B2D" stroke-width="1.4" stroke-linecap="round" stroke-linejoin="round"/>
<path d="M3.69991 61.9241L1 64.5971" stroke="#16A1DC" stroke-width="1.4" stroke-linecap="round" stroke-linejoin="round"/>
<path d="M66.1383 38.6749H60.7565C60.4789 38.6714 60.2047 38.6131 59.9497 38.5033C59.6947 38.3936 59.4639 38.2346 59.2706 38.0354C59.0772 37.8362 58.9251 37.6007 58.823 37.3426C58.7208 37.0845 58.6707 36.8087 58.6755 36.5311C58.7203 34.2707 58.4512 30.7905 56.5586 29.0144" fill="#EBF7FE"/>
<path d="M66.1383 38.6749H60.7565C60.4789 38.6714 60.2047 38.6131 59.9497 38.5033C59.6947 38.3936 59.4639 38.2346 59.2706 38.0354C59.0772 37.8362 58.9251 37.6007 58.823 37.3426C58.7208 37.0845 58.6707 36.8087 58.6755 36.5311C58.7203 34.2707 58.4512 30.7905 56.5586 29.0144" stroke="#252B2D" stroke-width="1.4" stroke-linecap="round" stroke-linejoin="round"/>
<path d="M46.9238 47.2308C46.9238 47.2308 56.3421 51.348 66.1371 47.2308" stroke="#252B2D" stroke-width="1.4" stroke-linecap="round" stroke-linejoin="round"/>
<path d="M68.8312 63.8347V74.0693H50.6046L50.5149 73.8988L46.6041 69.2345C46.4123 69.0056 46.1773 68.8168 45.9124 68.6789C45.6476 68.541 45.3581 68.4567 45.0607 68.4309C44.7632 68.405 44.4635 68.4382 44.1789 68.5284C43.8942 68.6186 43.6302 68.764 43.4018 68.9565V68.9565C43.1723 69.1476 42.9827 69.3821 42.844 69.6467C42.7053 69.9112 42.6201 70.2005 42.5935 70.498C42.5668 70.7955 42.5991 71.0953 42.6886 71.3803C42.778 71.6653 42.9229 71.9298 43.1148 72.1587L44.4513 74.0693H42.747C42.1311 74.0657 41.5205 74.184 40.9504 74.4172C40.3803 74.6505 39.8619 74.9942 39.4251 75.4285C38.9883 75.8628 38.6417 76.3792 38.4052 76.9479C38.1686 77.5167 38.0469 78.1265 38.0469 78.7425C38.0469 79.3558 38.1678 79.9631 38.4028 80.5295C38.6377 81.096 38.9821 81.6106 39.4162 82.0438C39.8503 82.4771 40.3655 82.8205 40.9324 83.0543C41.4994 83.2882 42.1069 83.408 42.7201 83.4068H75.5496C76.9769 83.4068 78.3458 82.8398 79.3551 81.8305C80.3644 80.8212 80.9314 79.4523 80.9314 78.0249V60.0854C80.9314 58.9593 80.7096 57.8442 80.2787 56.8038C79.8478 55.7634 79.2161 54.8181 78.4198 54.0218C77.6236 53.2256 76.6783 52.5939 75.6379 52.163C74.5975 51.732 73.4824 51.5102 72.3563 51.5102H66.1672V38.6745" stroke="#252B2D" stroke-width="1.4" stroke-linecap="round" stroke-linejoin="round"/>
<path d="M53.9668 83.2714V74.0684" stroke="#252B2D" stroke-width="1.4" stroke-linecap="round" stroke-linejoin="round"/>
<path d="M46.0469 11.4953C46.0469 11.4953 48.0561 17.0117 53.124 17.0117" stroke="#252B2D" stroke-width="1.4" stroke-linecap="round" stroke-linejoin="round"/>
</svg>
