<svg width="30" height="30" viewBox="0 0 30 30" fill="none" xmlns="http://www.w3.org/2000/svg">
<path d="M0.96387 13.9921C1.19189 14.3043 1.31449 14.6787 1.31449 15.0627C1.31449 15.4467 1.19189 15.821 0.96387 16.1332L0.387918 16.9313C0.237268 17.1437 0.133999 17.3847 0.0848526 17.6389C0.0357061 17.893 0.0417864 18.1544 0.102697 18.406C0.163607 18.6577 0.277977 18.8939 0.438344 19.0993C0.59871 19.3047 0.801468 19.4746 1.03338 19.598L1.86752 20.0554C2.2228 20.2341 2.51066 20.5192 2.68925 20.8693C2.86783 21.2194 2.92784 21.6161 2.86054 22.0019L2.69173 22.9752C2.64774 23.2335 2.66055 23.4981 2.7293 23.7512C2.79805 24.0043 2.92115 24.24 3.09037 24.4427C3.25959 24.6454 3.47102 24.8104 3.71053 24.9266C3.95004 25.0427 4.21209 25.1074 4.47917 25.1163H5.47219C5.86454 25.1306 6.24217 25.2664 6.55084 25.5042C6.8595 25.7421 7.08331 26.0696 7.19012 26.4399L7.45823 27.3548C7.53243 27.6062 7.66023 27.8393 7.8332 28.0387C8.00616 28.2381 8.22033 28.3992 8.46157 28.5115C8.7028 28.6237 8.9656 28.6845 9.23258 28.6898C9.49956 28.6951 9.76464 28.6447 10.0103 28.5421L10.9239 28.182C11.2864 28.0352 11.686 28.0003 12.0693 28.0821C12.4526 28.1638 12.8013 28.3583 13.0688 28.6395L13.7143 29.3694C13.8895 29.5674 14.1061 29.7261 14.3494 29.8349C14.5927 29.9437 14.857 30 15.1244 30C15.3918 30 15.6561 29.9437 15.8993 29.8349C16.1426 29.7261 16.3592 29.5674 16.5345 29.3694L17.1799 28.6395C17.4363 28.3517 17.7776 28.1493 18.1567 28.0604C18.5357 27.9715 18.9336 28.0004 19.2951 28.1431L20.1987 28.5129C20.446 28.6095 20.7116 28.6528 20.9775 28.6399C21.2434 28.627 21.5034 28.5582 21.7397 28.4382C21.9761 28.3182 22.1834 28.1498 22.3476 27.9444C22.5118 27.739 22.6289 27.5014 22.6912 27.2477L22.9593 26.3231C23.0653 25.9507 23.2883 25.6205 23.5967 25.3794C23.9051 25.1383 24.2832 24.9986 24.6772 24.9801L25.6703 24.9119C25.9368 24.8954 26.1967 24.8239 26.4331 24.7021C26.6694 24.5803 26.8769 24.411 27.0419 24.2052C27.2069 23.9994 27.3256 23.7618 27.3905 23.5079C27.4553 23.254 27.4646 22.9896 27.418 22.7319L27.2492 21.817C27.1821 21.4368 27.2368 21.0456 27.4057 20.6971C27.5746 20.3485 27.8495 20.0598 28.1925 19.8705L29.0366 19.4034C29.2685 19.2758 29.4703 19.1016 29.6288 18.8922C29.7872 18.6829 29.8987 18.443 29.9559 18.1884C30.0131 17.9339 30.0147 17.6703 29.9607 17.4151C29.9066 17.1599 29.7982 16.9187 29.6423 16.7075L29.0664 15.9483C28.8384 15.6361 28.7158 15.2617 28.7158 14.8778C28.7158 14.4938 28.8384 14.1194 29.0664 13.8072L29.6423 13.0091C29.7934 12.7974 29.8972 12.5568 29.9471 12.3032C29.997 12.0495 29.9917 11.7883 29.9318 11.5368C29.8718 11.2852 29.7585 11.0488 29.5991 10.843C29.4397 10.6373 29.2379 10.4667 29.0068 10.3424L28.1627 9.885C27.8075 9.7063 27.5196 9.42119 27.341 9.07113C27.1624 8.72106 27.1024 8.32429 27.1697 7.93851L27.3385 6.96526C27.3763 6.70984 27.3589 6.44948 27.2873 6.20111C27.2157 5.95273 27.0916 5.7219 26.923 5.52363C26.7544 5.32536 26.5451 5.16407 26.3088 5.05026C26.0724 4.93645 25.8143 4.87267 25.5511 4.86305H24.5581C24.1666 4.85088 23.7892 4.71703 23.4804 4.48086C23.1715 4.24468 22.9473 3.91841 22.8401 3.54917L22.572 2.57592C22.4978 2.32451 22.37 2.0914 22.1971 1.892C22.0241 1.6926 21.8099 1.53146 21.5687 1.41922C21.3275 1.30699 21.0647 1.24622 20.7977 1.24093C20.5307 1.23565 20.2656 1.28596 20.02 1.38856L19.0269 1.74866C18.6629 1.9059 18.258 1.94822 17.8683 1.86974C17.4786 1.79126 17.1235 1.59588 16.8522 1.3107L16.2365 0.580764C16.0565 0.391881 15.8377 0.242518 15.5946 0.142513C15.3514 0.0425083 15.0894 -0.00586902 14.8257 0.000567504C14.5621 0.00700403 14.3029 0.0681083 14.0651 0.179856C13.8273 0.291603 13.6163 0.451458 13.4462 0.648891L12.8106 1.36909C12.5536 1.65885 12.2105 1.86252 11.8294 1.95153C11.4483 2.04054 11.0483 2.01044 10.6856 1.86545L9.78191 1.50535C9.53634 1.40323 9.27121 1.35417 9.00456 1.36149C8.73791 1.36882 8.476 1.43236 8.23665 1.54781C7.99731 1.66325 7.78616 1.82787 7.61756 2.03048C7.44896 2.23308 7.32688 2.46891 7.25963 2.72191L6.99151 3.69515C6.87986 4.06107 6.65418 4.38357 6.3461 4.61744C6.03802 4.85132 5.66299 4.98484 5.27359 4.9993L4.28056 5.06743C4.01678 5.08672 3.76004 5.15987 3.52681 5.28218C3.29359 5.40449 3.08905 5.57326 2.92633 5.77765C2.76361 5.98204 2.64631 6.21753 2.58197 6.46899C2.51762 6.72044 2.50766 6.98231 2.55271 7.23777L2.72152 8.21102C2.78708 8.59113 2.73172 8.98182 2.56296 9.33004C2.39419 9.67826 2.12019 9.96715 1.77815 10.1575L0.96387 10.5663C0.731641 10.6948 0.529688 10.87 0.371196 11.0802C0.212705 11.2904 0.101238 11.5311 0.0440743 11.7864C-0.0130895 12.0417 -0.0146654 12.306 0.0394496 12.562C0.0935645 12.818 0.202153 13.0599 0.358127 13.2719L0.96387 13.9921Z" fill="white"/>
<path d="M2.49305 14.1079C2.70589 14.3895 2.82078 14.7307 2.82078 15.0812C2.82078 15.4316 2.70589 15.7728 2.49305 16.0544L1.95682 16.726C1.82223 16.915 1.72994 17.1297 1.68599 17.3562C1.64205 17.5826 1.64745 17.8156 1.70184 18.0398C1.75622 18.2641 1.85837 18.4745 2.00157 18.6573C2.14477 18.8402 2.3258 18.9913 2.53277 19.1007L3.27754 19.5192C3.58765 19.6767 3.83909 19.9262 3.99601 20.232C4.15292 20.5379 4.20731 20.8845 4.1514 21.2224L4.00244 22.0399C3.95446 22.2729 3.9592 22.5134 4.01632 22.7444C4.07345 22.9754 4.18157 23.1913 4.33306 23.3768C4.48455 23.5624 4.67573 23.7132 4.89312 23.8185C5.11051 23.9239 5.34883 23.9812 5.59128 23.9864H6.45521C6.80501 23.9969 7.1422 24.1169 7.41739 24.3288C7.69257 24.5408 7.8913 24.8335 7.98446 25.1641L8.22279 25.9914C8.29179 26.2145 8.40786 26.4209 8.56347 26.5973C8.71909 26.7736 8.91077 26.916 9.1261 27.0151C9.34143 27.1142 9.57561 27.1678 9.81345 27.1725C10.0513 27.1772 10.2875 27.1329 10.5067 27.0425L11.3111 26.7213C11.6364 26.5888 11.9953 26.557 12.3396 26.63C12.6839 26.7031 12.9972 26.8776 13.2375 27.1301L13.8036 27.7821C13.9602 27.9578 14.1533 28.0985 14.3699 28.1949C14.5866 28.2914 14.8218 28.3413 15.0597 28.3413C15.2977 28.3413 15.5329 28.2914 15.7496 28.1949C15.9662 28.0985 16.1593 27.9578 16.3159 27.7821L16.8919 27.1301C17.1215 26.8747 17.4262 26.6954 17.7642 26.617C18.1021 26.5386 18.4565 26.5648 18.7786 26.6921L19.5929 27.0133C19.8128 27.101 20.0494 27.1411 20.2867 27.1309C20.5239 27.1207 20.756 27.0604 20.9672 26.9542C21.1785 26.8479 21.3638 26.6981 21.5105 26.5152C21.6572 26.3322 21.7618 26.1203 21.8172 25.894L22.0556 25.0668C22.1489 24.7337 22.3469 24.4379 22.6213 24.2213C22.8958 24.0047 23.2329 23.8782 23.5848 23.8599L24.4587 23.8015C24.6962 23.7859 24.9278 23.7215 25.1383 23.6124C25.3488 23.5034 25.5336 23.3522 25.6806 23.1686C25.8276 22.9851 25.9336 22.7733 25.9917 22.547C26.0498 22.3207 26.0586 22.0849 26.0177 21.855L25.8588 21.0375C25.8097 20.6904 25.8723 20.337 26.0379 20.0265C26.2034 19.716 26.4637 19.4638 26.7824 19.3051L27.5271 18.8963C27.7245 18.7798 27.8952 18.6247 28.0287 18.4406C28.1622 18.2566 28.2557 18.0476 28.3032 17.8267C28.3507 17.6057 28.3513 17.3775 28.3049 17.1564C28.2585 16.9352 28.1661 16.7257 28.0336 16.541L27.5271 15.8598C27.3097 15.5801 27.1919 15.2381 27.1919 14.8865C27.1919 14.5349 27.3097 14.1929 27.5271 13.9132L28.0336 13.2125C28.1683 13.0227 28.2607 12.8072 28.3047 12.58C28.3488 12.3529 28.3434 12.1192 28.2891 11.8942C28.2347 11.6692 28.1326 11.4579 27.9893 11.2742C27.8461 11.0905 27.6649 10.9385 27.4576 10.828L26.7128 10.4193C26.4118 10.2618 26.167 10.0182 26.0108 9.72082C25.8547 9.42348 25.7948 9.08657 25.839 8.75498L25.9979 7.92772C26.0458 7.69474 26.0411 7.45428 25.984 7.22329C25.9269 6.9923 25.8187 6.7764 25.6673 6.5908C25.5158 6.40521 25.3246 6.25443 25.1072 6.14911C24.8898 6.04378 24.6515 5.98647 24.409 5.9812H23.5352C23.1802 5.96832 22.839 5.8427 22.5632 5.62327C22.2874 5.40384 22.0918 5.10249 22.0059 4.76463L21.8172 3.9471C21.7471 3.71951 21.6281 3.50928 21.4681 3.33057C21.3081 3.15186 21.111 3.00882 20.8899 2.91107C20.6687 2.81332 20.4288 2.76313 20.1863 2.76389C19.9437 2.76464 19.7041 2.81632 19.4836 2.91545L18.5899 3.23662C18.2663 3.36972 17.9087 3.40188 17.5658 3.32874C17.2229 3.2556 16.9113 3.08071 16.6734 2.82785L16.0974 2.17577C15.9377 2.00723 15.7432 1.87385 15.5269 1.78445C15.3106 1.69506 15.0774 1.65169 14.8428 1.65721C14.6081 1.66273 14.3773 1.71701 14.1656 1.81647C13.9539 1.91593 13.7662 2.0583 13.6149 2.23417L13.0389 2.88625C12.8102 3.14281 12.5054 3.32294 12.1672 3.40146C11.8289 3.47998 11.474 3.45297 11.1522 3.32421L10.3479 3.00304C10.1302 2.91125 9.89501 2.86623 9.65811 2.87102C9.42122 2.87582 9.18812 2.93031 8.97452 3.03084C8.76092 3.13136 8.57178 3.27558 8.41984 3.45378C8.2679 3.63198 8.15669 3.84002 8.09369 4.06389L7.85537 4.86196C7.76842 5.20011 7.57281 5.50188 7.29743 5.7227C7.02205 5.94353 6.68151 6.07169 6.32611 6.08826L5.46219 6.14666C5.22909 6.16755 5.00291 6.23545 4.79786 6.34609C4.59281 6.45674 4.41332 6.60774 4.27064 6.78961C4.12797 6.97148 4.02521 7.1803 3.9688 7.40295C3.91239 7.6256 3.90356 7.85728 3.94286 8.08344L4.09182 8.91071C4.15239 9.24964 4.10365 9.59865 3.95236 9.90916C3.80107 10.2197 3.55477 10.4762 3.24775 10.6431L2.50298 11.0519C2.29489 11.1656 2.11373 11.3213 1.97141 11.5086C1.82909 11.6959 1.72884 11.9106 1.67725 12.1386C1.62566 12.3666 1.6239 12.6027 1.67209 12.8314C1.72027 13.0601 1.81731 13.2762 1.95682 13.4655L2.49305 14.1079ZM8.24265 12.1614L12.5027 11.8694L14.1213 7.97638C14.1857 7.81339 14.2989 7.67329 14.446 7.5745C14.5931 7.47571 14.7672 7.42284 14.9455 7.42284C15.1239 7.42284 15.298 7.47571 15.4451 7.5745C15.5922 7.67329 15.7054 7.81339 15.7697 7.97638L17.3884 11.8694L21.6484 12.1614C21.8286 12.1719 22.0013 12.2357 22.1437 12.3443C22.2862 12.4529 22.3918 12.6012 22.4466 12.7697C22.5014 12.9383 22.5029 13.1191 22.4508 13.2885C22.3987 13.4579 22.2956 13.6078 22.1549 13.7186L18.8878 16.4242L19.8809 20.5022C19.9206 20.6724 19.9086 20.8502 19.8466 21.0138C19.7845 21.1775 19.675 21.3197 19.5315 21.4232C19.388 21.5266 19.2167 21.5866 19.0389 21.5959C18.861 21.6052 18.6842 21.5633 18.5303 21.4754L14.9356 19.237L11.3012 21.4462C11.1473 21.5341 10.9705 21.576 10.7926 21.5667C10.6148 21.5574 10.4435 21.4974 10.3 21.394C10.1565 21.2906 10.047 21.1483 9.98493 20.9846C9.92286 20.821 9.91094 20.6432 9.95064 20.473L10.9437 16.395L7.7362 13.7283C7.59605 13.6199 7.49315 13.472 7.44136 13.3045C7.38958 13.137 7.3914 12.9579 7.44656 12.7915C7.50173 12.625 7.60761 12.4791 7.74994 12.3734C7.89227 12.2677 8.06422 12.2073 8.24265 12.2003V12.1614Z" fill="#FFBB0F"/>
</svg>
