<svg width="146" height="163" viewBox="0 0 146 163" fill="none" xmlns="http://www.w3.org/2000/svg">
<path d="M114.057 3.35008C113.487 2.61817 112.758 2.02599 111.925 1.61871C111.092 1.21143 110.176 0.999817 109.249 1H108.747C104.54 1.34085 102.656 6.52539 105.455 9.69173L108.514 13.1361L114.227 19.5944L119.609 13.3155L122.605 9.83524C123.199 9.14412 123.602 8.30955 123.773 7.41451C123.945 6.51947 123.879 5.59515 123.582 4.73346C123.286 3.87178 122.769 3.10274 122.083 2.50283C121.397 1.90293 120.565 1.49304 119.672 1.31394C119.346 1.25962 119.016 1.23261 118.685 1.23321C117.808 1.23326 116.942 1.42239 116.145 1.7877C115.347 2.15301 114.638 2.68591 114.066 3.35008" fill="#16A1DC"/>
<path d="M114.057 3.35008C113.487 2.61817 112.758 2.02599 111.925 1.61871C111.092 1.21143 110.176 0.999817 109.249 1H108.747C104.54 1.34085 102.656 6.52539 105.455 9.69173L108.514 13.1361L114.227 19.5944L119.609 13.3155L122.605 9.83524C123.199 9.14412 123.602 8.30955 123.773 7.41451C123.945 6.51947 123.879 5.59515 123.582 4.73346C123.286 3.87178 122.769 3.10274 122.083 2.50283C121.397 1.90293 120.565 1.49304 119.672 1.31394C119.346 1.25962 119.016 1.23261 118.685 1.23321C117.808 1.23326 116.942 1.42239 116.145 1.7877C115.347 2.15301 114.638 2.68591 114.066 3.35008" stroke="#16A1DC" stroke-width="1.4" stroke-linecap="round" stroke-linejoin="round"/>
<path d="M114.057 31.0408C113.487 30.3089 112.758 29.7167 111.925 29.3094C111.092 28.9022 110.176 28.6905 109.249 28.6907H108.747C104.54 29.0316 102.656 34.2161 105.455 37.3824L108.514 40.8268L114.227 47.2851L119.609 41.0062L122.605 37.526C123.199 36.8348 123.602 36.0003 123.773 35.1052C123.945 34.2102 123.879 33.2859 123.582 32.4242C123.286 31.5625 122.769 30.7935 122.083 30.1936C121.397 29.5936 120.565 29.1838 119.672 29.0047C119.346 28.9503 119.016 28.9233 118.685 28.9239C117.808 28.924 116.942 29.1131 116.145 29.4784C115.347 29.8437 114.638 30.3766 114.066 31.0408" fill="#16A1DC"/>
<path d="M114.057 31.0408C113.487 30.3089 112.758 29.7167 111.925 29.3094C111.092 28.9022 110.176 28.6905 109.249 28.6907H108.747C104.54 29.0316 102.656 34.2161 105.455 37.3824L108.514 40.8268L114.227 47.2851L119.609 41.0062L122.605 37.526C123.199 36.8348 123.602 36.0003 123.773 35.1052C123.945 34.2102 123.879 33.2859 123.582 32.4242C123.286 31.5625 122.769 30.7935 122.083 30.1936C121.397 29.5936 120.565 29.1838 119.672 29.0047C119.346 28.9503 119.016 28.9233 118.685 28.9239C117.808 28.924 116.942 29.1131 116.145 29.4784C115.347 29.8437 114.638 30.3766 114.066 31.0408" stroke="#16A1DC" stroke-width="1.4" stroke-linecap="round" stroke-linejoin="round"/>
<path d="M88.9396 16.1773C88.3701 15.4454 87.6409 14.8532 86.8077 14.4459C85.9745 14.0386 85.0592 13.827 84.1318 13.8272C83.9645 13.8183 83.7968 13.8183 83.6295 13.8272C79.4137 14.1681 77.539 19.3526 80.3376 22.5189L83.3963 25.9633L89.1101 32.4126L94.4919 26.1338L97.4968 22.6445C98.089 21.9536 98.49 21.1197 98.6599 20.2257C98.8298 19.3317 98.7626 18.4088 98.465 17.5489C98.1675 16.6889 97.65 15.9218 96.9639 15.324C96.2779 14.7261 95.4473 14.3183 94.5547 14.1411C94.2286 14.0872 93.8986 14.0602 93.568 14.0604C92.6911 14.0605 91.8246 14.2496 91.0274 14.6149C90.2302 14.9802 89.5212 15.5131 88.9486 16.1773" fill="#16A1DC"/>
<path d="M88.9396 16.1773C88.3701 15.4454 87.6409 14.8532 86.8077 14.4459C85.9745 14.0386 85.0592 13.827 84.1318 13.8272C83.9645 13.8183 83.7968 13.8183 83.6295 13.8272C79.4137 14.1681 77.539 19.3526 80.3376 22.5189L83.3963 25.9633L89.1101 32.4126L94.4919 26.1338L97.4968 22.6445C98.089 21.9536 98.49 21.1197 98.6599 20.2257C98.8298 19.3317 98.7626 18.4088 98.465 17.5489C98.1675 16.6889 97.65 15.9218 96.9639 15.324C96.2779 14.7261 95.4473 14.3183 94.5547 14.1411C94.2286 14.0872 93.8986 14.0602 93.568 14.0604C92.6911 14.0605 91.8246 14.2496 91.0274 14.6149C90.2302 14.9802 89.5212 15.5131 88.9486 16.1773" stroke="#16A1DC" stroke-width="1.4" stroke-linecap="round" stroke-linejoin="round"/>
<path d="M98.4824 17.5756L107.363 11.8619" stroke="#16A1DC" stroke-width="1.4" stroke-linecap="round" stroke-linejoin="round"/>
<path d="M94.4746 26.1855L104.126 32.4285" stroke="#16A1DC" stroke-width="1.4" stroke-linecap="round" stroke-linejoin="round"/>
<path d="M77.315 18.0426H7.81704C6.00905 18.0426 4.27511 18.7608 2.99666 20.0393C1.71822 21.3177 1 23.0516 1 24.8596V61.5012C1 63.3092 1.71822 65.0432 2.99666 66.3216C4.27511 67.6 6.00905 68.3183 7.81704 68.3183H62.3264C63.6846 68.317 65.0297 68.5842 66.2842 69.1045C67.5388 69.6248 68.6782 70.3879 69.6368 71.35L84.132 85.8452V24.8507C84.1296 23.0442 83.4104 21.3126 82.1322 20.0361C80.854 18.7596 79.1214 18.0426 77.315 18.0426Z" fill="#EBF7FE" stroke="#16A1DC" stroke-width="1.4" stroke-miterlimit="10"/>
<path d="M10.1309 29.2653H72.5606" stroke="#252B2D" stroke-width="1.4" stroke-linecap="round" stroke-linejoin="round"/>
<path d="M10.1309 38.2071H72.5606" stroke="#252B2D" stroke-width="1.4" stroke-linecap="round" stroke-linejoin="round"/>
<path d="M10.1309 47.1489H52.7732" stroke="#252B2D" stroke-width="1.4" stroke-linecap="round" stroke-linejoin="round"/>
<path d="M10.1309 55.1954H52.7732" stroke="#252B2D" stroke-width="1.4" stroke-linecap="round" stroke-linejoin="round"/>
<path d="M95.4523 56.8825H139.341C140.802 56.8825 142.203 57.4627 143.236 58.4956C144.269 59.5284 144.849 60.9293 144.849 62.3899V77.7821C144.849 79.2428 144.269 80.6436 143.236 81.6764C142.203 82.7093 140.802 83.2895 139.341 83.2895H107.57C105.353 83.2897 103.227 84.1705 101.659 85.7383L89.9986 97.4528V62.4707C89.988 61.7452 90.1208 61.0247 90.3894 60.3507C90.658 59.6766 91.0572 59.0623 91.564 58.5431C92.0708 58.0238 92.6752 57.6098 93.3424 57.3248C94.0097 57.0398 94.7267 56.8895 95.4523 56.8825Z" fill="#EBF7FE" stroke="#16A1DC" stroke-width="1.4" stroke-miterlimit="10"/>
<path d="M97.3262 67.0804H124.2" stroke="#252B2D" stroke-width="1.4" stroke-linecap="round" stroke-linejoin="round"/>
<path d="M97.3262 74.3105H124.2" stroke="#252B2D" stroke-width="1.4" stroke-linecap="round" stroke-linejoin="round"/>
<path d="M132.254 78.1907C131.928 78.1907 131.652 78.0779 131.426 77.8522C131.201 77.6264 131.088 77.3506 131.088 77.0245C131.088 76.6859 131.201 76.4038 131.426 76.1781C131.665 75.9398 131.947 75.8207 132.273 75.8207C132.599 75.8207 132.875 75.9398 133.1 76.1781C133.339 76.4163 133.458 76.6985 133.458 77.0245C133.458 77.3506 133.339 77.6264 133.1 77.8522C132.875 78.0779 132.592 78.1907 132.254 78.1907ZM131.257 72.5477C131.257 71.9458 131.382 71.4317 131.633 71.0053C131.896 70.5664 132.223 70.1777 132.611 69.8391C133.013 69.5005 133.439 69.1933 133.89 68.9174C134.342 68.629 134.762 68.3406 135.151 68.0521C135.552 67.7637 135.878 67.4565 136.129 67.1305C136.392 66.8044 136.524 66.4282 136.524 66.0019C136.524 65.4752 136.336 65.0488 135.959 64.7228C135.583 64.3842 135.094 64.2149 134.492 64.2149C133.966 64.2149 133.52 64.3466 133.157 64.6099C132.806 64.8607 132.63 65.1868 132.63 65.588C132.63 65.8388 132.699 66.0081 132.837 66.0959C132.975 66.1711 133.125 66.2401 133.288 66.3028C133.451 66.353 133.602 66.4219 133.74 66.5097C133.878 66.5975 133.947 66.7793 133.947 67.0552C133.947 67.3436 133.853 67.5694 133.665 67.7324C133.489 67.8954 133.238 67.9769 132.912 67.9769C132.398 67.9769 131.965 67.7951 131.614 67.4314C131.276 67.0678 131.106 66.6163 131.106 66.0771C131.106 65.7009 131.194 65.3435 131.37 65.0049C131.558 64.6663 131.809 64.3717 132.122 64.1209C132.436 63.8701 132.806 63.6757 133.232 63.5377C133.658 63.3873 134.11 63.312 134.586 63.312C135.063 63.312 135.495 63.3873 135.884 63.5377C136.273 63.6757 136.599 63.8763 136.862 64.1397C137.138 64.403 137.351 64.7228 137.502 65.099C137.652 65.4626 137.728 65.8702 137.728 66.3216C137.728 66.9612 137.59 67.5192 137.314 67.9957C137.05 68.4597 136.718 68.8798 136.317 69.256C135.916 69.6196 135.477 69.9457 135 70.2341C134.524 70.5225 134.085 70.8047 133.683 71.0806C133.282 71.3564 132.944 71.6386 132.668 71.927C132.404 72.2029 132.273 72.5101 132.273 72.8487C132.273 73.3503 132.561 73.6011 133.138 73.6011C133.715 73.6011 134.179 73.2813 134.53 72.6418L135.038 72.9427C134.561 73.9209 133.865 74.4099 132.95 74.4099C132.398 74.4099 131.978 74.2532 131.69 73.9397C131.401 73.6136 131.257 73.1497 131.257 72.5477Z" fill="#252B2D"/>
<path d="M66.8304 95.3443C66.8302 89.633 65.3219 84.0229 62.458 79.0815C59.5941 74.1401 55.4762 70.0425 50.5206 67.2031C45.565 64.3637 39.9476 62.8831 34.2363 62.9112C28.525 62.9393 22.9223 64.4749 17.9949 67.3629C13.0675 70.2509 8.99007 74.3888 6.17487 79.3581C3.35967 84.3275 1.90657 89.9521 1.96249 95.6632C2.01842 101.374 3.58139 106.969 6.49337 111.883C9.40534 116.796 13.5631 120.853 18.5461 123.644C19.4768 125.586 19.7413 127.782 19.2986 129.89C18.856 131.998 17.7308 133.901 16.0973 135.305C19.5115 136.903 23.4205 137.081 26.9658 135.8C30.5111 134.518 33.4027 131.882 35.0056 128.47C35.1222 128.228 35.2119 127.976 35.3106 127.725C43.7447 127.49 51.7548 123.976 57.64 117.93C63.5252 111.884 66.8221 103.782 66.8304 95.3443Z" fill="#EBF1F2" stroke="#252B2D" stroke-width="1.4" stroke-linecap="round" stroke-linejoin="round"/>
<path d="M53.8145 122.567C53.8157 117.156 55.2458 111.841 57.96 107.16C60.6742 102.479 64.5763 98.5972 69.2717 95.9078C73.9671 93.2185 79.2894 91.8166 84.7005 91.844C90.1115 91.8714 95.4193 93.327 100.087 96.0638C104.755 98.8005 108.618 102.721 111.285 107.43C113.951 112.138 115.327 117.467 115.274 122.878C115.22 128.289 113.739 133.589 110.98 138.244C108.221 142.899 104.282 146.743 99.5604 149.386C98.6721 151.231 98.4184 153.317 98.8385 155.32C99.2587 157.324 100.329 159.132 101.884 160.464C100.281 161.221 98.5449 161.654 96.7746 161.738C95.0044 161.822 93.235 161.556 91.568 160.954C89.9011 160.352 88.3694 159.427 87.061 158.232C85.7527 157.036 84.6934 155.594 83.944 153.988C83.8274 153.755 83.7466 153.513 83.6569 153.279C75.6639 153.051 68.0751 149.714 62.5027 143.979C56.9303 138.245 53.8135 130.563 53.8145 122.567Z" fill="white" stroke="#252B2D" stroke-width="1.4" stroke-linecap="round" stroke-linejoin="round"/>
<path d="M50.2071 90.474C50.0897 89.7121 49.6992 89.0189 49.1083 88.5238C48.5174 88.0287 47.7666 87.7654 46.9959 87.7831H32.9493C34.0001 85.8542 34.8334 83.8145 35.4339 81.7016L35.5326 81.3787C35.783 80.5782 35.7304 79.7136 35.3847 78.9495C35.039 78.1853 34.4244 77.575 33.6579 77.2346C33.2349 77.0624 32.7808 76.9798 32.3242 76.9921C31.8677 77.0044 31.4187 77.1113 31.0056 77.3061C30.5924 77.5008 30.2243 77.7792 29.9243 78.1235C29.6243 78.4679 29.399 78.8708 29.2627 79.3066C28.576 81.8954 27.5601 84.3854 26.2399 86.7157C25.3134 88.2277 24.1505 89.5814 22.7955 90.7252C21.4325 91.9028 20.3499 93.3701 19.6267 95.0197C18.9035 96.6694 18.5581 98.4598 18.6155 100.26C18.8129 106.898 24.5804 112.037 31.2271 112.037H42.9147C43.6914 112.049 44.4456 111.777 45.0354 111.271C45.6251 110.766 46.0098 110.062 46.1169 109.293C46.1595 108.868 46.1126 108.438 45.9792 108.033C45.8458 107.627 45.6289 107.253 45.3424 106.936C45.056 106.62 44.7063 106.366 44.316 106.193C43.9257 106.019 43.5033 105.929 43.0761 105.929H44.3229C45.1017 105.945 45.8591 105.674 46.4512 105.168C47.0433 104.662 47.4287 103.956 47.5341 103.184C47.5767 102.759 47.5298 102.33 47.3964 101.924C47.263 101.518 47.0461 101.145 46.7597 100.828C46.4732 100.511 46.1236 100.258 45.7332 100.084C45.3429 99.9108 44.9205 99.8209 44.4934 99.8205H45.7402C46.5233 99.8397 47.2844 99.5602 47.8691 99.0388C48.4537 98.5174 48.8182 97.7932 48.8886 97.013C48.9316 96.2812 48.7096 95.5584 48.2632 94.9769C47.8168 94.3954 47.1758 93.9942 46.4578 93.8467H47.2022C47.6276 93.8428 48.0475 93.75 48.4349 93.5742C48.8223 93.3984 49.1686 93.1435 49.4516 92.8258C49.7346 92.5082 49.948 92.1349 50.0781 91.7298C50.2082 91.3248 50.2522 90.897 50.2071 90.474Z" fill="#EBF7FE" stroke="#252B2D" stroke-width="1.4" stroke-linecap="round" stroke-linejoin="round"/>
<path d="M46.424 93.8373H40.0195" stroke="#252B2D" stroke-width="1.4" stroke-linecap="round" stroke-linejoin="round"/>
<path d="M45.1144 99.8026H40.0195" stroke="#252B2D" stroke-width="1.4" stroke-linecap="round" stroke-linejoin="round"/>
<path d="M43.212 105.964H40.0098" stroke="#252B2D" stroke-width="1.4" stroke-linecap="round" stroke-linejoin="round"/>
<path d="M69.9137 130.828C70.0147 131.558 70.3802 132.225 70.9408 132.703C71.5014 133.181 72.218 133.436 72.9545 133.421H86.2567C85.2673 135.253 84.4794 137.186 83.9066 139.188L83.8169 139.493C83.5826 140.253 83.636 141.072 83.9668 141.795C84.2976 142.518 84.8828 143.094 85.6108 143.413C86.0154 143.577 86.45 143.654 86.8864 143.639C87.3227 143.624 87.7511 143.518 88.1436 143.327C88.5361 143.136 88.884 142.864 89.1647 142.53C89.4454 142.195 89.6526 141.805 89.7728 141.386C90.4214 138.933 91.3863 136.575 92.6431 134.371C93.5298 132.941 94.6449 131.665 95.944 130.595C97.2409 129.483 98.2725 128.094 98.9632 126.531C99.6539 124.968 99.9861 123.27 99.9356 121.562C99.7472 115.284 94.2846 110.404 87.9878 110.404H76.8204C76.084 110.388 75.3673 110.644 74.8068 111.122C74.2462 111.599 73.8807 112.267 73.7797 112.996C73.7383 113.399 73.7819 113.807 73.9077 114.192C74.0335 114.577 74.2387 114.932 74.5101 115.233C74.7814 115.533 75.1129 115.774 75.483 115.939C75.8532 116.104 76.2538 116.189 76.659 116.19H75.5198C74.7847 116.174 74.0692 116.428 73.5088 116.904C72.9484 117.38 72.582 118.045 72.4791 118.773C72.4377 119.176 72.4813 119.583 72.6071 119.968C72.7329 120.354 72.9381 120.708 73.2094 121.009C73.4808 121.31 73.8122 121.551 74.1824 121.716C74.5525 121.88 74.9532 121.966 75.3584 121.966H74.1743C73.428 121.952 72.7042 122.222 72.1496 122.722C71.5949 123.221 71.251 123.913 71.1874 124.657C71.1497 125.351 71.3627 126.035 71.7875 126.585C72.2124 127.135 72.8207 127.514 73.5016 127.653H72.793C72.3886 127.651 71.9884 127.734 71.6182 127.897C71.2481 128.06 70.9164 128.299 70.6448 128.598C70.3731 128.898 70.1677 129.251 70.0417 129.635C69.9157 130.02 69.8721 130.426 69.9137 130.828Z" fill="#EBF7FE" stroke="#252B2D" stroke-width="1.4" stroke-linecap="round" stroke-linejoin="round"/>
<path d="M73.502 127.644H79.5655" stroke="#252B2D" stroke-width="1.4" stroke-linecap="round" stroke-linejoin="round"/>
<path d="M74.7305 121.994H79.5652" stroke="#252B2D" stroke-width="1.4" stroke-linecap="round" stroke-linejoin="round"/>
<path d="M76.5449 116.155H79.5767" stroke="#252B2D" stroke-width="1.4" stroke-linecap="round" stroke-linejoin="round"/>
<path d="M59.0078 53.0874C59.1775 53.2823 59.2825 53.525 59.3082 53.7821C59.3339 54.0392 59.2791 54.298 59.1513 54.5226L58.8284 55.0877C58.744 55.239 58.6923 55.4063 58.6767 55.5789C58.661 55.7514 58.6818 55.9253 58.7376 56.0893C58.7934 56.2534 58.883 56.4039 59.0006 56.5311C59.1183 56.6583 59.2613 56.7594 59.4204 56.8278L60.0035 57.0879C60.2427 57.1826 60.4456 57.351 60.5827 57.5687C60.7198 57.7865 60.7839 58.0422 60.7659 58.2989V58.9267C60.7511 59.1029 60.7747 59.2801 60.8351 59.4462C60.8956 59.6123 60.9914 59.7633 61.116 59.8887C61.2405 60.0141 61.3908 60.1109 61.5565 60.1725C61.7222 60.2341 61.8993 60.2589 62.0755 60.2453H62.7213C62.9788 60.2293 63.2347 60.2954 63.4523 60.434C63.6699 60.5726 63.8379 60.7766 63.9322 61.0167L64.1655 61.6177C64.2328 61.7845 64.335 61.935 64.4652 62.0591C64.5954 62.1833 64.7505 62.2782 64.9203 62.3377C65.0901 62.3971 65.2706 62.4196 65.4498 62.4037C65.629 62.3879 65.8027 62.3339 65.9594 62.2456L66.5245 61.9406C66.7538 61.8182 67.0151 61.769 67.2733 61.7995C67.5314 61.8299 67.7741 61.9386 67.9686 62.111L68.4351 62.5505C68.5681 62.6527 68.7206 62.7265 68.8832 62.7675C69.0458 62.8085 69.2151 62.8158 69.3806 62.7889C69.5462 62.762 69.7044 62.7015 69.8457 62.6112C69.987 62.5208 70.1083 62.4025 70.2021 62.2635L70.5699 61.7432C70.72 61.5329 70.9322 61.3748 71.1767 61.2912C71.4212 61.2075 71.6858 61.2025 71.9333 61.2768L72.5522 61.4562C72.7198 61.5071 72.8963 61.5215 73.0699 61.4986C73.2435 61.4757 73.4102 61.416 73.5588 61.3234C73.7075 61.2308 73.8346 61.1076 73.9317 60.9618C74.0288 60.8161 74.0937 60.6513 74.1219 60.4785L74.2385 59.8417C74.2799 59.5848 74.4023 59.3479 74.5879 59.1655C74.7735 58.9832 75.0125 58.8649 75.27 58.8281L75.9069 58.7204C76.0793 58.6904 76.2436 58.6247 76.3891 58.5275C76.5347 58.4303 76.6583 58.3037 76.752 58.1559C76.8458 58.0081 76.9076 57.8423 76.9335 57.6692C76.9594 57.4961 76.9489 57.3195 76.9025 57.1507L76.7321 56.5408C76.664 56.2917 76.6748 56.0277 76.7632 55.785C76.8516 55.5424 77.0131 55.3332 77.2255 55.1863L77.7457 54.8186C77.8894 54.7176 78.0101 54.5873 78.1 54.4364C78.1898 54.2855 78.2467 54.1173 78.2671 53.9429C78.2874 53.7684 78.2706 53.5917 78.2179 53.4241C78.1651 53.2566 78.0776 53.1021 77.961 52.9708L77.5125 52.5402C77.3404 52.3467 77.2338 52.1037 77.208 51.8459C77.1823 51.5882 77.2386 51.3289 77.369 51.1051L77.6919 50.54C77.7753 50.3902 77.8267 50.2246 77.8428 50.0539C77.8588 49.8832 77.8393 49.711 77.7853 49.5482C77.7313 49.3855 77.6441 49.2357 77.5292 49.1084C77.4143 48.9811 77.2742 48.8791 77.1178 48.8088L76.5348 48.5487C76.298 48.4506 76.0974 48.2815 75.9609 48.0646C75.8243 47.8477 75.7584 47.5937 75.7724 47.3378L75.8262 46.7099C75.8381 46.5337 75.8122 46.3569 75.7501 46.1915C75.6881 46.0261 75.5913 45.876 75.4664 45.7511C75.3415 45.6262 75.1914 45.5294 75.026 45.4674C74.8606 45.4053 74.6838 45.3794 74.5076 45.3913H73.8708C73.613 45.4087 73.3565 45.3432 73.1386 45.2044C72.9208 45.0657 72.753 44.8608 72.6598 44.6199L72.4177 44.0189C72.3506 43.8573 72.2505 43.7115 72.1239 43.5908C71.9972 43.4701 71.8467 43.3772 71.682 43.3181C71.5173 43.259 71.3421 43.235 71.1676 43.2475C70.993 43.2601 70.8231 43.309 70.6685 43.3911L70.0317 43.696C69.8036 43.8208 69.5425 43.8723 69.2841 43.8434C69.0257 43.8145 68.7825 43.7067 68.5876 43.5346L68.1211 43.0861C67.9914 42.9764 67.8404 42.8947 67.6775 42.8463C67.5147 42.7979 67.3436 42.7838 67.175 42.8049C67.0064 42.8259 66.844 42.8817 66.6981 42.9687C66.5522 43.0557 66.4259 43.1721 66.3272 43.3103L65.9504 43.8396C65.8018 44.0491 65.5912 44.2069 65.3482 44.2905C65.1053 44.3742 64.8422 44.3796 64.596 44.306L63.9771 44.1266C63.8095 44.0742 63.6326 44.0585 63.4585 44.0808C63.2843 44.103 63.117 44.1626 62.968 44.2554C62.8189 44.3482 62.6917 44.4721 62.595 44.6186C62.4982 44.7651 62.4342 44.9308 62.4074 45.1043L62.2908 45.7412C62.2481 45.9975 62.1252 46.2336 61.9399 46.4157C61.7545 46.5979 61.5163 46.7165 61.2592 46.7547L60.6224 46.8624C60.4411 46.8847 60.267 46.9464 60.112 47.043C59.957 47.1395 59.825 47.2688 59.7251 47.4216C59.6251 47.5745 59.5598 47.7473 59.5335 47.928C59.5072 48.1087 59.5207 48.293 59.5729 48.468L59.7433 49.0689C59.8158 49.3183 59.808 49.5841 59.7211 49.8288C59.6342 50.0735 59.4725 50.2846 59.259 50.4323L58.7387 50.8001C58.595 50.9011 58.4743 51.0313 58.3845 51.1823C58.2946 51.3332 58.2377 51.5013 58.2174 51.6758C58.197 51.8502 58.2138 52.027 58.2665 52.1945C58.3193 52.3621 58.4068 52.5166 58.5235 52.6479L59.0078 53.0874ZM63.098 51.2307L66.2016 50.7014L67.0986 47.6786C67.1341 47.5523 67.2067 47.4396 67.3071 47.3551C67.4074 47.2705 67.5309 47.2181 67.6614 47.2046C67.7919 47.191 67.9235 47.217 68.039 47.2791C68.1546 47.3413 68.2488 47.4367 68.3095 47.553L69.7895 50.3516L72.9379 50.253C73.0706 50.2513 73.2008 50.2888 73.3122 50.361C73.4235 50.4331 73.5111 50.5365 73.5638 50.6583C73.6166 50.78 73.6321 50.9147 73.6085 51.0453C73.5849 51.1758 73.5232 51.2965 73.4312 51.3921L71.2336 53.6525L72.2921 56.6394C72.3291 56.7616 72.3311 56.8917 72.2979 57.0149C72.2646 57.1382 72.1975 57.2496 72.104 57.3365C72.0105 57.4235 71.8945 57.4824 71.7692 57.5066C71.6439 57.5309 71.5142 57.5194 71.3951 57.4736L68.5427 56.0564L66.0401 57.9759C65.934 58.0545 65.8072 58.1001 65.6753 58.1071C65.5435 58.1141 65.4125 58.0821 65.2987 58.0152C65.1849 57.9482 65.0933 57.8493 65.0353 57.7306C64.9774 57.612 64.9556 57.479 64.9727 57.3481L65.4212 54.2086L62.82 52.4147C62.7082 52.3424 62.6214 52.2372 62.5717 52.1137C62.5219 51.9902 62.5115 51.8544 62.542 51.7247C62.5724 51.5951 62.6422 51.478 62.7417 51.3896C62.8413 51.3012 62.9657 51.2456 63.098 51.2307Z" fill="#16A1DC"/>
</svg>
