<svg width="146" height="165" viewBox="0 0 146 165" fill="none" xmlns="http://www.w3.org/2000/svg">
<path d="M21.2617 141.171V1H109.004V152.643" fill="white"/>
<path d="M21.2617 141.171V1H109.004V152.643" stroke="#252B2D" stroke-width="1.4" stroke-miterlimit="10"/>
<path d="M101.004 7.95158H29.2637V97.9903H101.004V7.95158Z" fill="#EBF7FE" stroke="#252B2D" stroke-width="1.4" stroke-linecap="round" stroke-linejoin="round"/>
<path d="M44.0655 20.58C44.0655 20.58 54.6678 6.2732 62.7585 6.37187C69.0374 6.4526 59.933 83.5838 59.933 83.5838L47.8059 93.4506C47.8059 93.4506 40.4865 94.7512 39.9483 89.6294C39.4371 84.7768 40.2174 76.7668 40.2174 76.7668L39.3205 59.5179C39.3107 57.9663 39.7802 56.4496 40.6648 55.1749C41.5494 53.9002 42.8059 52.9296 44.2628 52.3959L46.6129 51.4989V34.546L43.2761 31.7653L41.8679 26.4283L42.5316 24.159L40.1905 22.5175L44.0655 20.58Z" fill="#EBF7FE"/>
<path d="M68.6779 8.97316C68.6779 8.97316 73.6382 11.7089 70.2566 15.3866C58.1653 28.5183 41.8672 22.383 41.8672 22.383C41.8672 22.383 45.4551 19.9881 50.7024 13.4132C51.2286 12.7315 51.7947 12.0815 52.3977 11.4668C55.6088 8.1944 59.9853 6.32706 64.5697 6.27325C67.9607 6.2881 71.2683 7.32601 74.0598 9.25122C75.3174 10.1171 76.4467 11.1558 77.4145 12.3368C80.4195 16.0028 83.7194 19.4167 87.2812 22.5445C87.2812 22.5445 79.7376 27.7649 70.3463 15.3686" fill="#EBF7FE"/>
<path d="M68.6779 8.97316C68.6779 8.97316 73.6382 11.7089 70.2566 15.3866C58.1653 28.5183 41.8672 22.383 41.8672 22.383C41.8672 22.383 45.4551 19.9881 50.7024 13.4132C51.2286 12.7315 51.7947 12.0815 52.3977 11.4668C55.6088 8.1944 59.9853 6.32706 64.5697 6.27325C67.9607 6.2881 71.2683 7.32601 74.0598 9.25122C75.3174 10.1171 76.4467 11.1558 77.4145 12.3368C80.4195 16.0028 83.7194 19.4167 87.2812 22.5445C87.2812 22.5445 79.7376 27.7649 70.3463 15.3686" stroke="#252B2D" stroke-width="1.4" stroke-linecap="round" stroke-linejoin="round"/>
<path d="M47.8051 23.7643C46.6038 23.7643 45.4516 24.2416 44.6021 25.0911C43.7526 25.9406 43.2754 27.0927 43.2754 28.2941C43.2754 29.4954 43.7526 30.6476 44.6021 31.4971C45.4516 32.3466 46.6038 32.8238 47.8051 32.8238" stroke="#252B2D" stroke-width="1.4" stroke-linecap="round" stroke-linejoin="round"/>
<path d="M47.4379 26.8512C47.02 26.882 46.6293 27.0697 46.3441 27.3767C46.0589 27.6837 45.9004 28.0871 45.9004 28.5061C45.9004 28.9251 46.0589 29.3286 46.3441 29.6356C46.6293 29.9426 47.02 30.1303 47.4379 30.1611" stroke="#252B2D" stroke-width="1.4" stroke-linecap="round" stroke-linejoin="round"/>
<path d="M82.1133 32.8238C83.3146 32.8238 84.4668 32.3466 85.3163 31.4971C86.1658 30.6476 86.643 29.4954 86.643 28.2941C86.643 27.0927 86.1658 25.9406 85.3163 25.0911C84.4668 24.2416 83.3146 23.7643 82.1133 23.7643" stroke="#252B2D" stroke-width="1.4" stroke-linecap="round" stroke-linejoin="round"/>
<path d="M82.4805 29.7381C82.708 29.7548 82.9366 29.7245 83.1519 29.6489C83.3672 29.5734 83.5647 29.4542 83.7318 29.2989C83.899 29.1436 84.0324 28.9554 84.1235 28.7463C84.2147 28.5371 84.2618 28.3113 84.2618 28.0832C84.2618 27.855 84.2147 27.6292 84.1235 27.4201C84.0324 27.2109 83.899 27.0227 83.7318 26.8674C83.5647 26.7121 83.3672 26.593 83.1519 26.5174C82.9366 26.4418 82.708 26.4115 82.4805 26.4282" stroke="#252B2D" stroke-width="1.4" stroke-linecap="round" stroke-linejoin="round"/>
<path d="M82.1141 32.8252C81.1082 36.6069 78.8809 39.9503 75.7785 42.3353C72.6761 44.7204 68.8726 46.0134 64.9594 46.0134C61.0462 46.0134 57.2427 44.7204 54.1403 42.3353C51.0379 39.9503 48.8106 36.6069 47.8047 32.8252" fill="#EBF7FE"/>
<path d="M82.1141 32.8252C81.1082 36.6069 78.8809 39.9503 75.7785 42.3353C72.6761 44.7204 68.8726 46.0134 64.9594 46.0134C61.0462 46.0134 57.2427 44.7204 54.1403 42.3353C51.0379 39.9503 48.8106 36.6069 47.8047 32.8252" stroke="#252B2D" stroke-width="1.4" stroke-linecap="round" stroke-linejoin="round"/>
<path d="M55.4023 43.2211V51.5181" stroke="#252B2D" stroke-width="1.4" stroke-linecap="round" stroke-linejoin="round"/>
<path d="M75.0547 43.0319V51.5173" stroke="#252B2D" stroke-width="1.4" stroke-linecap="round" stroke-linejoin="round"/>
<path d="M64.5957 31.8192C64.8922 31.9256 65.2099 31.9592 65.522 31.9171C65.8342 31.875 66.1316 31.7585 66.3893 31.5773C66.6469 31.3962 66.8573 31.1557 67.0025 30.8762C67.1478 30.5967 67.2237 30.2864 67.2239 29.9714C67.2239 28.8771 66.3269 28.7336 65.0173 26.4553" stroke="#252B2D" stroke-width="1.4" stroke-linecap="round" stroke-linejoin="round"/>
<path d="M56.99 30.4225C57.8668 30.4225 58.5776 29.7116 58.5776 28.8348C58.5776 27.958 57.8668 27.2471 56.99 27.2471C56.1132 27.2471 55.4023 27.958 55.4023 28.8348C55.4023 29.7116 56.1132 30.4225 56.99 30.4225Z" fill="#252B2D"/>
<path d="M68.2372 35.0846C68.2605 35.5296 68.1929 35.9746 68.0387 36.3926C67.8844 36.8107 67.6467 37.1929 67.34 37.5161C67.0333 37.8393 66.664 38.0967 66.2546 38.2725C65.8452 38.4484 65.4043 38.5391 64.9587 38.5391C64.5132 38.5391 64.0723 38.4484 63.6629 38.2725C63.2535 38.0967 62.8842 37.8393 62.5775 37.5161C62.2707 37.1929 62.033 36.8107 61.8788 36.3926C61.7245 35.9746 61.657 35.5296 61.6803 35.0846C61.6803 33.2727 68.2372 33.2727 68.2372 35.0846Z" stroke="#252B2D" stroke-width="1.4" stroke-linecap="round" stroke-linejoin="round"/>
<path d="M57.931 25.3902C57.6989 25.1338 57.4037 24.9427 57.0749 24.8357C56.746 24.7287 56.3949 24.7096 56.0563 24.7803C55.751 24.8435 55.4654 24.9792 55.2234 25.1759C54.9815 25.3726 54.7903 25.6245 54.666 25.9105" stroke="#252B2D" stroke-width="1.4" stroke-linecap="round" stroke-linejoin="round"/>
<path d="M72.3357 30.4225C73.2125 30.4225 73.9234 29.7116 73.9234 28.8348C73.9234 27.958 73.2125 27.2471 72.3357 27.2471C71.4589 27.2471 70.748 27.958 70.748 28.8348C70.748 29.7116 71.4589 30.4225 72.3357 30.4225Z" fill="#252B2D"/>
<path d="M71.3945 25.3877C71.6137 25.1421 71.8911 24.9556 72.2012 24.8452C72.5113 24.7348 72.8441 24.7041 73.1692 24.7559C73.4942 24.8077 73.801 24.9403 74.0615 25.1416C74.3219 25.3429 74.5275 25.6064 74.6595 25.908" stroke="#252B2D" stroke-width="1.4" stroke-linecap="round" stroke-linejoin="round"/>
<path d="M69.1706 58.4872H62.0755C61.4513 58.4872 60.9453 58.9932 60.9453 59.6174V60.7835C60.9453 61.4077 61.4513 61.9137 62.0755 61.9137H69.1706C69.7948 61.9137 70.3008 61.4077 70.3008 60.7835V59.6174C70.3008 58.9932 69.7948 58.4872 69.1706 58.4872Z" stroke="#252B2D" stroke-width="1.4" stroke-linecap="round" stroke-linejoin="round"/>
<path d="M62.9727 61.9227H68.2648V78.7321C68.2648 79.0796 68.1964 79.4237 68.0634 79.7447C67.9304 80.0658 67.7355 80.3575 67.4898 80.6032C67.2441 80.8489 66.9524 81.0438 66.6314 81.1768C66.3103 81.3098 65.9662 81.3782 65.6187 81.3782C64.917 81.3782 64.2439 81.0994 63.7477 80.6032C63.2514 80.1069 62.9727 79.4339 62.9727 78.7321V61.9227Z" stroke="#252B2D" stroke-width="1.4" stroke-linecap="round" stroke-linejoin="round"/>
<path d="M40.2168 86.8954V59.3312C40.2145 58.3038 40.4148 57.2859 40.8064 56.3359C41.1979 55.386 41.773 54.5226 42.4988 53.7952C43.2245 53.0679 44.0865 52.4908 45.0356 52.097C45.9846 51.7033 47.002 51.5006 48.0295 51.5006H55.4027C55.4027 51.5006 55.0887 57.035 64.9555 57.035C74.8223 57.035 75.0555 51.5006 75.0555 51.5006H83.1911C85.26 51.5101 87.2407 52.3399 88.6986 53.8079C90.1566 55.2759 90.9727 57.2623 90.9679 59.3312V93.5599" stroke="#252B2D" stroke-width="1.4" stroke-linecap="round" stroke-linejoin="round"/>
<path d="M69.5194 63.4391C69.2629 63.2293 68.938 63.1215 68.6069 63.1364C68.2759 63.1513 67.962 63.2879 67.7254 63.5199L67.0258 64.1747L65.6265 65.4932L63.4199 67.5563C63.1868 66.6558 62.8559 65.7836 62.4332 64.955L62.3704 64.8295C62.216 64.5061 61.9468 64.2518 61.6153 64.1159C61.2837 63.9799 60.9135 63.9721 60.5765 64.0939C60.3945 64.1621 60.2291 64.2681 60.0911 64.405C59.9532 64.5419 59.8459 64.7066 59.7764 64.888C59.7069 65.0695 59.6767 65.2637 59.6878 65.4577C59.6989 65.6517 59.7511 65.8411 59.841 66.0135C60.3696 67.0117 60.7704 68.0725 61.0339 69.1708C61.1744 69.904 61.1987 70.6547 61.1057 71.3953C61.0211 72.1501 61.107 72.9143 61.3569 73.6315C61.6068 74.3487 62.0145 75.0006 62.5498 75.5394C63.5284 76.4774 64.8316 77.0011 66.1871 77.0011C67.5426 77.0011 68.8458 76.4774 69.8243 75.5394L71.2774 74.1849L72.605 72.9471L73.4392 72.1667C73.6935 71.9489 73.8561 71.6429 73.8943 71.3102C73.9326 70.9776 73.8437 70.6427 73.6455 70.3728C73.5378 70.228 73.4006 70.1077 73.243 70.0199C73.0853 69.9321 72.9108 69.8788 72.7311 69.8636C72.5513 69.8483 72.3703 69.8714 72.2001 69.9314C72.0299 69.9913 71.8744 70.0867 71.7439 70.2113L71.5824 70.3548L72.1206 69.8615C72.3736 69.6424 72.5344 69.3359 72.571 69.0032C72.6076 68.6706 72.5172 68.3364 72.3179 68.0675C72.2101 67.9233 72.0731 67.8034 71.9158 67.7156C71.7585 67.6278 71.5846 67.5742 71.4052 67.5581C71.2258 67.542 71.045 67.5639 70.8747 67.6223C70.7043 67.6807 70.5481 67.7744 70.4163 67.8971L70.802 67.5383C71.0374 67.3273 71.1859 67.0364 71.2187 66.722C71.2514 66.4076 71.1662 66.0923 70.9794 65.8373C70.7926 65.5823 70.5177 65.4059 70.2081 65.3423C69.8985 65.2787 69.5763 65.3325 69.3041 65.4932L69.5373 65.2779C69.6579 65.1566 69.7532 65.0125 69.8177 64.854C69.8821 64.6956 69.9145 64.5259 69.9128 64.3548C69.9111 64.1837 69.8755 64.0147 69.8079 63.8575C69.7404 63.7003 69.6423 63.5581 69.5194 63.4391Z" fill="#EBF7FE" stroke="#252B2D" stroke-width="1.4" stroke-linecap="round" stroke-linejoin="round"/>
<path d="M69.323 65.565L67.3496 67.4038" stroke="#252B2D" stroke-width="1.4" stroke-linecap="round" stroke-linejoin="round"/>
<path d="M70.6342 67.7794L69.0645 69.2415" stroke="#252B2D" stroke-width="1.4" stroke-linecap="round" stroke-linejoin="round"/>
<path d="M71.8168 70.2285L70.8301 71.1524" stroke="#252B2D" stroke-width="1.4" stroke-linecap="round" stroke-linejoin="round"/>
<path d="M59.2245 69.5347L66.4073 78.1557L49.0135 92.6477C47.8694 93.6009 46.3934 94.0606 44.9104 93.9257C43.4273 93.7907 42.0586 93.0721 41.1053 91.928C40.152 90.7838 39.6923 89.3079 39.8273 87.8248C39.9623 86.3417 40.6809 84.973 41.825 84.0197L59.2188 69.5278L59.2245 69.5347Z" fill="#EBF7FE" stroke="#252B2D" stroke-width="1.4" stroke-linecap="round" stroke-linejoin="round"/>
<path d="M50.6211 64.6505V76.7238" stroke="#252B2D" stroke-width="1.4" stroke-linecap="round" stroke-linejoin="round"/>
<path d="M73.1166 48.558C73.1166 52.702 69.7619 58.1108 65.6179 58.1108C61.4738 58.1108 58.1191 52.7289 58.1191 48.558C58.1191 46.5692 58.9092 44.6618 60.3155 43.2555C61.7218 41.8493 63.6291 41.0592 65.6179 41.0592C67.6067 41.0592 69.514 41.8493 70.9203 43.2555C72.3266 44.6618 73.1166 46.5692 73.1166 48.558Z" fill="#EBF7FE" stroke="#252B2D" stroke-width="1.4" stroke-linecap="round" stroke-linejoin="round"/>
<path d="M80.3828 64.6505V93.5601" stroke="#252B2D" stroke-width="1.4" stroke-linecap="round" stroke-linejoin="round"/>
<path d="M48.3516 34.5456V51.5165" stroke="#252B2D" stroke-width="1.4" stroke-linecap="round" stroke-linejoin="round"/>
<path d="M81.7539 34.5456V51.5165" stroke="#252B2D" stroke-width="1.4" stroke-linecap="round" stroke-linejoin="round"/>
<path d="M51.1133 45.3654V51.5187" stroke="#252B2D" stroke-width="1.4" stroke-linecap="round" stroke-linejoin="round"/>
<path d="M78.9473 45.3654V51.5187" stroke="#252B2D" stroke-width="1.4" stroke-linecap="round" stroke-linejoin="round"/>
<path d="M50.1992 20.0174C50.1992 20.0174 58.272 19.542 63.9678 13.873" stroke="#252B2D" stroke-width="1.4" stroke-linecap="round" stroke-linejoin="round"/>
<path d="M73.9961 15.2185C75.0444 16.6946 76.4481 17.8823 78.0773 18.6719" stroke="#252B2D" stroke-width="1.4" stroke-linecap="round" stroke-linejoin="round"/>
<path d="M63.2676 49.338L67.5731 45.0325" stroke="#252B2D" stroke-width="1.4" stroke-linecap="round" stroke-linejoin="round"/>
<path d="M66.166 50.5309L70.2383 46.4586" stroke="#252B2D" stroke-width="1.4" stroke-linecap="round" stroke-linejoin="round"/>
<path d="M64.0586 46.5935L68.2744 50.8093" stroke="#252B2D" stroke-width="1.4" stroke-linecap="round" stroke-linejoin="round"/>
<path d="M65.6094 44.7908L69.4843 48.6657" stroke="#252B2D" stroke-width="1.4" stroke-linecap="round" stroke-linejoin="round"/>
<path d="M65.6176 81.3777V85.0374C65.6176 85.0374 65.3127 90.796 70.5421 90.5987C75.7714 90.4013 77.9242 85.3244 75.0897 84.3198C69.0979 82.0774 69.8514 96.2137 61.5723 93.6035" stroke="#252B2D" stroke-width="1.4" stroke-linecap="round" stroke-linejoin="round"/>
<path d="M42.8438 139.843V153.674" stroke="#16A1DC" stroke-width="1.4" stroke-linecap="round" stroke-linejoin="round"/>
<path d="M35.9277 146.759H49.7681" stroke="#16A1DC" stroke-width="1.4" stroke-linecap="round" stroke-linejoin="round"/>
<path d="M7.91602 65.6175V79.4579" stroke="#16A1DC" stroke-width="1.4" stroke-linecap="round" stroke-linejoin="round"/>
<path d="M1 72.5428H14.8404" stroke="#16A1DC" stroke-width="1.4" stroke-linecap="round" stroke-linejoin="round"/>
<path d="M137.43 27.2086V41.049" stroke="#16A1DC" stroke-width="1.4" stroke-linecap="round" stroke-linejoin="round"/>
<path d="M130.506 34.1357H144.346" stroke="#16A1DC" stroke-width="1.4" stroke-linecap="round" stroke-linejoin="round"/>
<path d="M69.5569 89.7746H12.536C11.8119 89.7735 11.0948 89.915 10.4256 90.1913C9.75636 90.4675 9.14816 90.873 8.6358 91.3846C8.12343 91.8961 7.71695 92.5036 7.43962 93.1724C7.16228 93.8412 7.01953 94.5581 7.01953 95.2821V123.609C7.01953 125.069 7.59978 126.47 8.63263 127.503C9.66547 128.536 11.0663 129.116 12.527 129.116H57.4477C58.5443 129.115 59.6302 129.331 60.6431 129.752C61.656 130.172 62.5758 130.788 63.3498 131.565L75.0643 143.279V95.2821C75.0643 94.5588 74.9219 93.8427 74.6451 93.1745C74.3683 92.5063 73.9627 91.8991 73.4513 91.3877C72.9398 90.8763 72.3327 90.4706 71.6645 90.1939C70.9963 89.9171 70.2801 89.7746 69.5569 89.7746Z" fill="#EBF7FE" stroke="#16A1DC" stroke-width="1.4" stroke-miterlimit="10"/>
<path d="M14.8496 98.8425H65.7173" stroke="#252B2D" stroke-width="1.4" stroke-linecap="round" stroke-linejoin="round"/>
<path d="M14.8496 106.073H65.7173" stroke="#252B2D" stroke-width="1.4" stroke-linecap="round" stroke-linejoin="round"/>
<path d="M14.8496 113.292H49.7241" stroke="#252B2D" stroke-width="1.4" stroke-linecap="round" stroke-linejoin="round"/>
<path d="M14.8496 120.522H49.7241" stroke="#252B2D" stroke-width="1.4" stroke-linecap="round" stroke-linejoin="round"/>
<path d="M54.7207 115.76L59.3401 121.886L69.2249 109.517" stroke="#252B2D" stroke-width="1.4" stroke-linecap="round" stroke-linejoin="round"/>
<path d="M92.1149 109.804H138.839C140.299 109.804 141.7 110.384 142.733 111.417C143.766 112.45 144.346 113.851 144.346 115.312V142.741C144.346 144.202 143.766 145.603 142.733 146.636C141.7 147.668 140.299 148.249 138.839 148.249H104.224C102.007 148.249 99.8808 149.13 98.3131 150.697L86.6523 162.403V115.312C86.6523 113.859 87.2264 112.465 88.2495 111.433C89.2727 110.402 90.6621 109.816 92.1149 109.804Z" fill="#EBF7FE" stroke="#16A1DC" stroke-width="1.4" stroke-miterlimit="10"/>
<path d="M93.9805 118.827H134.999" stroke="#252B2D" stroke-width="1.4" stroke-linecap="round" stroke-linejoin="round"/>
<path d="M93.9805 126.048H134.999" stroke="#252B2D" stroke-width="1.4" stroke-linecap="round" stroke-linejoin="round"/>
<path d="M93.9805 133.278H119.006" stroke="#252B2D" stroke-width="1.4" stroke-linecap="round" stroke-linejoin="round"/>
<path d="M93.9805 140.498H119.006" stroke="#252B2D" stroke-width="1.4" stroke-linecap="round" stroke-linejoin="round"/>
<path d="M127.805 131.223L137.591 141.009" stroke="#252B2D" stroke-width="1.4" stroke-linecap="round" stroke-linejoin="round"/>
<path d="M127.805 141.009L137.591 131.223" stroke="#252B2D" stroke-width="1.4" stroke-linecap="round" stroke-linejoin="round"/>
<path d="M92.1151 65.1883H138.839C140.299 65.1883 141.7 65.7685 142.733 66.8014C143.766 67.8342 144.346 69.2351 144.346 70.6958V86.052C144.346 87.5127 143.766 88.9135 142.733 89.9464C141.7 90.9792 140.299 91.5595 138.839 91.5595H104.224C102.007 91.5596 99.8809 92.4404 98.3133 94.0082L86.6525 105.723V70.7406C86.6466 70.0173 86.7832 69.3 87.0545 68.6295C87.3259 67.9591 87.7266 67.3486 88.2339 66.8331C88.7411 66.3175 89.3449 65.9069 90.0109 65.6246C90.6769 65.3424 91.3919 65.1942 92.1151 65.1883Z" fill="#EBF7FE" stroke="#16A1DC" stroke-width="1.4" stroke-miterlimit="10"/>
<path d="M93.9805 75.3511H125.07" stroke="#252B2D" stroke-width="1.4" stroke-linecap="round" stroke-linejoin="round"/>
<path d="M93.9805 82.5795H125.07" stroke="#252B2D" stroke-width="1.4" stroke-linecap="round" stroke-linejoin="round"/>
<path d="M133.24 86.4615C132.914 86.4615 132.638 86.3487 132.413 86.1229C132.187 85.8972 132.074 85.6213 132.074 85.2953C132.074 84.9567 132.187 84.6746 132.413 84.4488C132.651 84.2106 132.933 84.0915 133.259 84.0915C133.585 84.0915 133.861 84.2106 134.087 84.4488C134.325 84.6871 134.444 84.9693 134.444 85.2953C134.444 85.6213 134.325 85.8972 134.087 86.1229C133.861 86.3487 133.579 86.4615 133.24 86.4615ZM132.243 80.8185C132.243 80.2166 132.369 79.7025 132.619 79.2761C132.883 78.8372 133.209 78.4485 133.598 78.1099C133.999 77.7713 134.425 77.4641 134.877 77.1882C135.328 76.8998 135.748 76.6113 136.137 76.3229C136.538 76.0345 136.864 75.7273 137.115 75.4012C137.378 75.0752 137.51 74.699 137.51 74.2726C137.51 73.746 137.322 73.3196 136.946 72.9936C136.57 72.655 136.081 72.4857 135.479 72.4857C134.952 72.4857 134.507 72.6174 134.143 72.8807C133.792 73.1315 133.616 73.4575 133.616 73.8588C133.616 74.1096 133.685 74.2789 133.823 74.3667C133.961 74.4419 134.112 74.5109 134.275 74.5736C134.438 74.6238 134.588 74.6927 134.726 74.7805C134.864 74.8683 134.933 75.0501 134.933 75.326C134.933 75.6144 134.839 75.8401 134.651 76.0032C134.475 76.1662 134.225 76.2477 133.899 76.2477C133.384 76.2477 132.952 76.0659 132.601 75.7022C132.262 75.3385 132.093 74.8871 132.093 74.3479C132.093 73.9717 132.181 73.6143 132.356 73.2757C132.544 72.9371 132.795 72.6424 133.109 72.3916C133.422 72.1408 133.792 71.9465 134.218 71.8085C134.645 71.658 135.096 71.5828 135.573 71.5828C136.049 71.5828 136.482 71.658 136.871 71.8085C137.259 71.9465 137.585 72.1471 137.849 72.4104C138.125 72.6738 138.338 72.9936 138.488 73.3698C138.639 73.7334 138.714 74.141 138.714 74.5924C138.714 75.2319 138.576 75.79 138.3 76.2665C138.037 76.7305 137.704 77.1506 137.303 77.5268C136.902 77.8904 136.463 78.2165 135.986 78.5049C135.51 78.7933 135.071 79.0755 134.67 79.3513C134.268 79.6272 133.93 79.9094 133.654 80.1978C133.391 80.4737 133.259 80.7809 133.259 81.1195C133.259 81.6211 133.547 81.8719 134.124 81.8719C134.701 81.8719 135.165 81.5521 135.516 80.9126L136.024 81.2135C135.548 82.1916 134.852 82.6807 133.936 82.6807C133.384 82.6807 132.964 82.524 132.676 82.2105C132.387 81.8844 132.243 81.4204 132.243 80.8185Z" fill="#252B2D"/>
<path d="M21.2617 145.566V153.468" stroke="#252B2D" stroke-width="1.4" stroke-linecap="round" stroke-linejoin="round"/>
<path d="M21.2617 159.093V163.371" stroke="#252B2D" stroke-width="1.4" stroke-linecap="round" stroke-linejoin="round"/>
<path d="M109.006 156.402V163.371" stroke="#252B2D" stroke-width="1.4" stroke-linecap="round" stroke-linejoin="round"/>
</svg>
