<svg width="125" height="162" viewBox="0 0 125 162" fill="none" xmlns="http://www.w3.org/2000/svg">
<path d="M68.9461 34.5888H118.127C119.265 34.5888 120.355 35.0406 121.159 35.8446C121.963 36.6487 122.415 37.7393 122.415 38.8764V66.3239C122.415 67.4611 121.963 68.5516 121.159 69.3557C120.355 70.1598 119.265 70.6115 118.127 70.6115H98.3132V87.2146C89.6753 87.2146 82.6699 79.2494 82.6699 70.6115H65.8516V87.2146C57.2137 87.2146 50.2172 79.2494 50.2172 70.6115H33.354V87.2146C24.7161 87.2146 17.7197 79.2494 17.7197 70.6115H5.28756C2.91953 70.6115 1 69.7145 1 66.611V38.8764C1 37.7393 1.45172 36.6487 2.2558 35.8446C3.05987 35.0406 4.15043 34.5888 5.28756 34.5888H53.2939V18.9545C55.3482 18.9533 57.3826 19.3568 59.281 20.1418C61.1794 20.9269 62.9045 22.0782 64.358 23.53C65.8114 24.9818 66.9647 26.7056 67.7519 28.6031C68.5392 30.5006 68.945 32.5345 68.9461 34.5888Z" stroke="#16A1DC" stroke-width="1.4" stroke-linecap="round" stroke-linejoin="round"/>
<path d="M9.32422 44.6796H98.0265" stroke="#16A1DC" stroke-width="1.4" stroke-linecap="round" stroke-linejoin="round"/>
<path d="M9.32422 52.663H98.0265" stroke="#16A1DC" stroke-width="1.4" stroke-linecap="round" stroke-linejoin="round"/>
<path d="M9.32422 60.6552H98.0265" stroke="#16A1DC" stroke-width="1.4" stroke-linecap="round" stroke-linejoin="round"/>
<path d="M108.592 62.5933C108.375 62.5974 108.158 62.5574 107.956 62.4757C107.754 62.394 107.571 62.2723 107.417 62.1179C107.262 61.9648 107.14 61.7816 107.058 61.5795C106.976 61.3775 106.937 61.1608 106.942 60.9428C106.936 60.7165 106.977 60.4914 107.062 60.2816C107.147 60.0717 107.274 59.8816 107.435 59.7229C107.588 59.5642 107.773 59.4385 107.976 59.3536C108.18 59.2688 108.399 59.2266 108.619 59.2296C108.842 59.2261 109.062 59.2699 109.266 59.358C109.47 59.4462 109.653 59.5767 109.803 59.7409C109.964 59.8967 110.092 60.0836 110.178 60.2902C110.264 60.4968 110.308 60.7189 110.306 60.9428C110.308 61.1628 110.264 61.3808 110.178 61.5831C110.091 61.7854 109.964 61.9675 109.803 62.1179C109.644 62.2742 109.454 62.3968 109.246 62.4785C109.038 62.5601 108.816 62.5992 108.592 62.5933ZM107.175 54.5743C107.156 53.8058 107.345 53.0466 107.722 52.3767C108.092 51.7568 108.562 51.2022 109.113 50.7352C109.678 50.2503 110.278 49.8067 110.907 49.4077C111.546 49.013 112.144 48.6094 112.701 48.1968C113.22 47.8235 113.687 47.3831 114.091 46.8872C114.451 46.4333 114.644 45.8697 114.638 45.2905C114.644 44.9505 114.575 44.6133 114.435 44.3031C114.296 43.993 114.089 43.7175 113.831 43.4966C113.251 43.006 112.508 42.7528 111.75 42.788C111.08 42.7645 110.419 42.9562 109.866 43.3351C109.634 43.4873 109.444 43.695 109.312 43.9393C109.18 44.1836 109.112 44.4569 109.113 44.7344C109.095 44.8673 109.112 45.0025 109.162 45.1268C109.213 45.251 109.294 45.36 109.4 45.443C109.605 45.5628 109.821 45.662 110.045 45.739C110.269 45.8151 110.483 45.9174 110.682 46.044C110.79 46.1394 110.873 46.2593 110.924 46.3936C110.976 46.5278 110.994 46.6725 110.978 46.8154C110.99 46.994 110.961 47.1729 110.894 47.3389C110.827 47.5049 110.724 47.654 110.593 47.7752C110.288 48.0245 109.9 48.1495 109.507 48.125C109.171 48.1263 108.839 48.0586 108.53 47.9259C108.221 47.7931 107.943 47.5984 107.713 47.3536C107.227 46.8349 106.966 46.1448 106.987 45.4341C106.984 44.9012 107.116 44.3764 107.373 43.9092C107.632 43.4229 107.99 42.9954 108.422 42.6534C108.894 42.2816 109.429 41.9961 110.001 41.8103C110.619 41.6031 111.268 41.5 111.92 41.5053C112.532 41.5 113.139 41.6033 113.714 41.8103C114.245 41.9788 114.733 42.2622 115.142 42.6405C115.552 43.0188 115.872 43.4826 116.082 43.9989C116.303 44.5554 116.412 45.1495 116.405 45.748C116.426 46.5742 116.228 47.3913 115.831 48.116C115.452 48.7845 114.971 49.3898 114.405 49.91C113.818 50.4384 113.178 50.9044 112.494 51.3003C111.813 51.7129 111.194 52.1165 110.62 52.5022C110.107 52.8464 109.629 53.2399 109.193 53.6773C109.014 53.8472 108.871 54.0516 108.772 54.2781C108.673 54.5047 108.621 54.7488 108.619 54.9959C108.619 55.7045 109.032 56.0633 109.848 56.0633C110.273 56.0483 110.685 55.9119 111.034 55.6703C111.384 55.4287 111.657 55.0919 111.822 54.6998L112.548 55.1304C112.33 55.7467 111.929 56.2817 111.398 56.6633C110.868 57.0449 110.233 57.255 109.579 57.2652C109.248 57.2901 108.916 57.242 108.606 57.1242C108.296 57.0064 108.016 56.8218 107.785 56.5835C107.33 56.0174 107.112 55.2976 107.175 54.5743Z" fill="#16A1DC"/>
<path d="M45.7848 22.5071C45.7848 26.0233 44.7421 29.4605 42.7886 32.3841C40.8351 35.3077 38.0586 37.5863 34.81 38.9319C31.5615 40.2775 27.9869 40.6296 24.5383 39.9436C21.0897 39.2576 17.9219 37.5644 15.4356 35.0781C12.9493 32.5918 11.2561 29.424 10.5701 25.9754C9.88415 22.5268 10.2362 18.9522 11.5818 15.7037C12.9274 12.4552 15.2061 9.6786 18.1296 7.72512C21.0532 5.77163 24.4905 4.72897 28.0066 4.72897C32.721 4.73134 37.2415 6.60515 40.5751 9.93868C43.9086 13.2722 45.7824 17.7928 45.7848 22.5071Z" fill="white" stroke="#252B2D" stroke-width="1.4" stroke-linecap="round" stroke-linejoin="round"/>
<path d="M36.3141 26.3714L30.9143 36.7494L21.4512 29.8696L21.209 16.9531L30.7618 14.6658L36.3141 26.3714Z" stroke="#252B2D" stroke-width="1.4" stroke-linecap="round" stroke-linejoin="round"/>
<path d="M29.5337 9.98019L20.2169 12.1706C18.8329 12.496 17.9747 13.8817 18.3001 15.2657L18.3022 15.2745C18.6275 16.6585 20.0133 17.5167 21.3973 17.1913L30.7141 15.0009C32.0981 14.6755 32.9563 13.2898 32.6309 11.9058L32.6289 11.897C32.3035 10.513 30.9177 9.65481 29.5337 9.98019Z" fill="#16A1DC" stroke="#16A1DC" stroke-width="1.4" stroke-linecap="round" stroke-linejoin="round"/>
<path d="M28.5913 1.38281L17.2266 4.05581L20.0341 12.0838L29.6587 9.82338L28.5913 1.38281Z" fill="#16A1DC" stroke="#16A1DC" stroke-width="1.4" stroke-linecap="round" stroke-linejoin="round"/>
<path d="M28.8613 28.0329L30.9154 36.7515" stroke="#252B2D" stroke-width="1.4" stroke-linecap="round" stroke-linejoin="round"/>
<path d="M28.3578 28.0869C29.5715 28.0869 30.5554 27.103 30.5554 25.8893C30.5554 24.6756 29.5715 23.6917 28.3578 23.6917C27.1441 23.6917 26.1602 24.6756 26.1602 25.8893C26.1602 27.103 27.1441 28.0869 28.3578 28.0869Z" stroke="#252B2D" stroke-width="1.4" stroke-linecap="round" stroke-linejoin="round"/>
<path d="M31.8573 142.774C33.7605 142.774 35.5857 142.018 36.9314 140.672C38.2772 139.326 39.0332 137.501 39.0332 135.598V107.496C38.9685 106.576 38.5577 105.716 37.8836 105.087C37.2094 104.459 36.322 104.109 35.4004 104.109C34.4788 104.109 33.5914 104.459 32.9173 105.087C32.2431 105.716 31.8323 106.576 31.7676 107.496V101.737C31.7676 100.774 31.3849 99.8496 30.7036 99.1683C30.0224 98.487 29.0984 98.1043 28.1349 98.1043C27.1714 98.1043 26.2474 98.487 25.5661 99.1683C24.8849 99.8496 24.5021 100.774 24.5021 101.737V115.192V95.6196C24.5266 95.1268 24.4507 94.6341 24.2789 94.1715C24.1072 93.7089 23.8432 93.286 23.5031 92.9286C23.1629 92.5711 22.7537 92.2865 22.3001 92.092C21.8466 91.8975 21.3583 91.7972 20.8649 91.7972C20.3714 91.7972 19.8831 91.8975 19.4296 92.092C18.9761 92.2865 18.5668 92.5711 18.2267 92.9286C17.8865 93.286 17.6226 93.7089 17.4508 94.1715C17.2791 94.6341 17.2031 95.1268 17.2276 95.6196V103.065C17.1813 102.131 16.7778 101.251 16.1008 100.607C15.4237 99.9628 14.5249 99.6035 13.5904 99.6035C12.6558 99.6035 11.757 99.9628 11.08 100.607C10.4029 101.251 9.99949 102.131 9.95312 103.065V115.622" stroke="#252B2D" stroke-width="1.4" stroke-linecap="round" stroke-linejoin="round"/>
<path d="M17.1719 103.064V115.119" stroke="#252B2D" stroke-width="1.4" stroke-linecap="round" stroke-linejoin="round"/>
<path d="M31.6953 106.957V115.137" stroke="#252B2D" stroke-width="1.4" stroke-linecap="round" stroke-linejoin="round"/>
<path d="M19.334 136.826C19.601 135.713 19.6122 134.553 19.3667 133.435C19.1213 132.316 18.6256 131.268 17.9169 130.369C17.2082 129.469 16.305 128.742 15.2749 128.242C14.2449 127.741 13.1149 127.481 11.9698 127.48C11.8711 127.48 11.7814 127.48 11.6828 127.48V118.716C11.6887 118.241 11.6003 117.77 11.4226 117.33C11.245 116.889 10.9816 116.488 10.6479 116.15C10.3141 115.812 9.91659 115.544 9.47833 115.361C9.04008 115.178 8.56983 115.084 8.09486 115.084V115.084C7.61704 115.082 7.14369 115.176 6.70191 115.358C6.26012 115.54 5.85859 115.807 5.52031 116.144C5.18202 116.482 4.91363 116.883 4.73051 117.324C4.54738 117.765 4.45312 118.239 4.45313 118.716V134.638C4.45313 134.763 4.45313 135.086 4.45313 135.212C4.45313 139.159 6.40854 142.738 13.2256 142.738V150.165" stroke="#252B2D" stroke-width="1.4" stroke-linecap="round" stroke-linejoin="round"/>
<path d="M33.0039 142.774V150.201" stroke="#252B2D" stroke-width="1.4" stroke-linecap="round" stroke-linejoin="round"/>
<path d="M10.1309 160.713V151.627C10.1309 151.25 10.2799 150.889 10.5454 150.622C10.8109 150.354 11.1714 150.203 11.5481 150.201H34.2865C34.6648 150.201 35.0275 150.351 35.295 150.618C35.5624 150.886 35.7127 151.249 35.7127 151.627V160.713" fill="#EBEBEB"/>
<path d="M10.1309 160.713V151.627C10.1309 151.25 10.2799 150.889 10.5454 150.622C10.8109 150.354 11.1714 150.203 11.5481 150.201H34.2865C34.6648 150.201 35.0275 150.351 35.295 150.618C35.5624 150.886 35.7127 151.249 35.7127 151.627V160.713" stroke="#252B2D" stroke-width="1.4" stroke-linecap="round" stroke-linejoin="round"/>
<path d="M74.4269 142.773C76.33 142.773 78.1552 142.017 79.5009 140.672C80.8467 139.326 81.6027 137.501 81.6027 135.598V107.495C81.5563 106.562 81.1529 105.682 80.4758 105.038C79.7988 104.393 78.9 104.034 77.9654 104.034C77.0309 104.034 76.1321 104.393 75.455 105.038C74.778 105.682 74.3746 106.562 74.3282 107.495V101.737C74.2818 100.803 73.8784 99.9233 73.2014 99.2791C72.5243 98.6348 71.6255 98.2755 70.6909 98.2755C69.7564 98.2755 68.8576 98.6348 68.1805 99.2791C67.5035 99.9233 67.1001 100.803 67.0537 101.737V115.191V95.6192C67.0537 94.6557 66.671 93.7317 65.9897 93.0504C65.3084 92.3692 64.3844 91.9864 63.4209 91.9864C62.4575 91.9864 61.5335 92.3692 60.8522 93.0504C60.1709 93.7317 59.7882 94.6557 59.7882 95.6192V103.064C59.7418 102.131 59.3384 101.251 58.6613 100.607C57.9843 99.9624 57.0855 99.6031 56.1509 99.6031C55.2164 99.6031 54.3176 99.9624 53.6405 100.607C52.9635 101.251 52.56 102.131 52.5137 103.064V115.622" stroke="#252B2D" stroke-width="1.4" stroke-linecap="round" stroke-linejoin="round"/>
<path d="M59.7441 103.064V115.119" stroke="#252B2D" stroke-width="1.4" stroke-linecap="round" stroke-linejoin="round"/>
<path d="M74.2656 106.957V115.137" stroke="#252B2D" stroke-width="1.4" stroke-linecap="round" stroke-linejoin="round"/>
<path d="M61.8947 136.826C62.1633 135.714 62.176 134.554 61.9318 133.436C61.6875 132.317 61.1928 131.268 60.4848 130.369C59.7767 129.469 58.8738 128.742 57.8441 128.241C56.8143 127.741 55.6844 127.481 54.5395 127.48C54.4408 127.48 54.3511 127.48 54.2525 127.48V118.716C54.2525 117.761 53.876 116.843 53.2044 116.163C52.5328 115.483 51.6202 115.095 50.6646 115.084V115.084C50.1829 115.081 49.7057 115.175 49.2605 115.358C48.8153 115.542 48.4111 115.813 48.0714 116.154C47.7317 116.495 47.4632 116.901 47.2817 117.347C47.1001 117.793 47.0091 118.271 47.0138 118.752V134.674V135.248C47.0138 139.194 48.9782 142.773 55.7953 142.773V150.2" stroke="#252B2D" stroke-width="1.4" stroke-linecap="round" stroke-linejoin="round"/>
<path d="M75.5762 142.774V150.201" stroke="#252B2D" stroke-width="1.4" stroke-linecap="round" stroke-linejoin="round"/>
<path d="M52.7031 160.713V151.627C52.7031 151.25 52.8521 150.889 53.1177 150.622C53.3832 150.354 53.7437 150.203 54.1203 150.201H76.8588C77.237 150.201 77.5998 150.351 77.8672 150.618C78.1347 150.886 78.285 151.249 78.285 151.627V160.713" fill="#849899"/>
<path d="M52.7031 160.713V151.627C52.7031 151.25 52.8521 150.889 53.1177 150.622C53.3832 150.354 53.7437 150.203 54.1203 150.201H76.8588C77.237 150.201 77.5998 150.351 77.8672 150.618C78.1347 150.886 78.285 151.249 78.285 151.627V160.713" stroke="#252B2D" stroke-width="1.4" stroke-linecap="round" stroke-linejoin="round"/>
<path d="M116.978 142.774C118.881 142.774 120.706 142.018 122.052 140.672C123.397 139.326 124.153 137.501 124.153 135.598V107.496C124.107 106.562 123.704 105.682 123.027 105.038C122.35 104.394 121.451 104.035 120.516 104.035C119.582 104.035 118.683 104.394 118.006 105.038C117.329 105.682 116.925 106.562 116.879 107.496V101.737C116.833 100.804 116.429 99.9238 115.752 99.2795C115.075 98.6353 114.176 98.276 113.242 98.276C112.307 98.276 111.408 98.6353 110.731 99.2795C110.054 99.9238 109.651 100.804 109.604 101.737V115.192V95.6196C109.629 95.1268 109.553 94.6341 109.381 94.1715C109.21 93.7089 108.946 93.286 108.605 92.9286C108.265 92.5711 107.856 92.2865 107.403 92.092C106.949 91.8975 106.461 91.7972 105.967 91.7972C105.474 91.7972 104.985 91.8975 104.532 92.092C104.078 92.2865 103.669 92.5711 103.329 92.9286C102.989 93.286 102.725 93.7089 102.553 94.1715C102.381 94.6341 102.305 95.1268 102.33 95.6196V103.065C102.33 102.101 101.947 101.177 101.266 100.496C100.585 99.8145 99.6607 99.4318 98.6972 99.4318C97.7338 99.4318 96.8097 99.8145 96.1285 100.496C95.4472 101.177 95.0645 102.101 95.0645 103.065V115.622" fill="#EBF7FE"/>
<path d="M116.978 142.774C118.881 142.774 120.706 142.018 122.052 140.672C123.397 139.326 124.153 137.501 124.153 135.598V107.496C124.107 106.562 123.704 105.682 123.027 105.038C122.35 104.394 121.451 104.035 120.516 104.035C119.582 104.035 118.683 104.394 118.006 105.038C117.329 105.682 116.925 106.562 116.879 107.496V101.737C116.833 100.804 116.429 99.9238 115.752 99.2795C115.075 98.6353 114.176 98.276 113.242 98.276C112.307 98.276 111.408 98.6353 110.731 99.2795C110.054 99.9238 109.651 100.804 109.604 101.737V115.192V95.6196C109.629 95.1268 109.553 94.6341 109.381 94.1715C109.21 93.7089 108.946 93.286 108.605 92.9286C108.265 92.5711 107.856 92.2865 107.403 92.092C106.949 91.8975 106.461 91.7972 105.967 91.7972C105.474 91.7972 104.985 91.8975 104.532 92.092C104.078 92.2865 103.669 92.5711 103.329 92.9286C102.989 93.286 102.725 93.7089 102.553 94.1715C102.381 94.6341 102.305 95.1268 102.33 95.6196V103.065C102.33 102.101 101.947 101.177 101.266 100.496C100.585 99.8145 99.6607 99.4318 98.6972 99.4318C97.7338 99.4318 96.8097 99.8145 96.1285 100.496C95.4472 101.177 95.0645 102.101 95.0645 103.065V115.622" stroke="#252B2D" stroke-width="1.4" stroke-linecap="round" stroke-linejoin="round"/>
<path d="M102.305 103.064V115.119" stroke="#252B2D" stroke-width="1.4" stroke-linecap="round" stroke-linejoin="round"/>
<path d="M116.836 106.957V115.137" stroke="#252B2D" stroke-width="1.4" stroke-linecap="round" stroke-linejoin="round"/>
<path d="M104.466 136.826C104.735 135.713 104.747 134.554 104.503 133.436C104.259 132.317 103.764 131.268 103.056 130.369C102.348 129.469 101.445 128.742 100.415 128.241C99.3855 127.741 98.2556 127.481 97.1107 127.48C97.012 127.48 96.9223 127.48 96.8237 127.48V118.716C96.8237 118.239 96.7294 117.765 96.5463 117.324C96.3632 116.883 96.0948 116.482 95.7565 116.144C95.4182 115.807 95.0167 115.54 94.5749 115.358C94.1331 115.176 93.6598 115.082 93.1819 115.084C92.707 115.084 92.2367 115.178 91.7985 115.361C91.3602 115.544 90.9627 115.812 90.6289 116.15C90.2952 116.488 90.0318 116.889 89.8542 117.33C89.6765 117.77 89.5881 118.241 89.594 118.716V134.638C89.594 134.763 89.594 135.086 89.594 135.212C89.594 139.159 91.5584 142.738 98.3755 142.738V150.165" fill="#EBF7FE"/>
<path d="M104.466 136.826C104.735 135.713 104.747 134.554 104.503 133.436C104.259 132.317 103.764 131.268 103.056 130.369C102.348 129.469 101.445 128.742 100.415 128.241C99.3855 127.741 98.2556 127.481 97.1107 127.48C97.012 127.48 96.9223 127.48 96.8237 127.48V118.716C96.8237 118.239 96.7294 117.765 96.5463 117.324C96.3632 116.883 96.0948 116.482 95.7565 116.144C95.4182 115.807 95.0167 115.54 94.5749 115.358C94.1331 115.176 93.6598 115.082 93.1819 115.084V115.084C92.707 115.084 92.2367 115.178 91.7985 115.361C91.3602 115.544 90.9627 115.812 90.6289 116.15C90.2952 116.488 90.0318 116.889 89.8542 117.33C89.6765 117.77 89.5881 118.241 89.594 118.716V134.638C89.594 134.763 89.594 135.086 89.594 135.212C89.594 139.159 91.5584 142.738 98.3755 142.738V150.165" stroke="#252B2D" stroke-width="1.4" stroke-linecap="round" stroke-linejoin="round"/>
<path d="M118.145 142.774V150.201" stroke="#252B2D" stroke-width="1.4" stroke-linecap="round" stroke-linejoin="round"/>
<path d="M95.2715 160.713V151.627C95.2703 151.44 95.3061 151.255 95.3768 151.082C95.4475 150.909 95.5517 150.752 95.6834 150.619C95.8151 150.486 95.9718 150.381 96.1443 150.309C96.3168 150.238 96.5019 150.201 96.6887 150.201H119.427C119.804 150.203 120.164 150.354 120.43 150.622C120.695 150.889 120.844 151.25 120.844 151.627V160.713" fill="#16A1DC"/>
<path d="M95.2715 160.713V151.627C95.2703 151.44 95.3061 151.255 95.3768 151.082C95.4475 150.909 95.5517 150.752 95.6834 150.619C95.8151 150.486 95.9718 150.381 96.1443 150.309C96.3168 150.238 96.5019 150.201 96.6887 150.201H119.427C119.804 150.203 120.164 150.354 120.43 150.622C120.695 150.889 120.844 151.25 120.844 151.627V160.713" stroke="#252B2D" stroke-width="1.4" stroke-linecap="round" stroke-linejoin="round"/>
</svg>
