<svg width="125" height="162" viewBox="0 0 125 162" fill="none" xmlns="http://www.w3.org/2000/svg">
<path d="M68.9461 34.206H118.127C119.265 34.206 120.355 34.6577 121.159 35.4618C121.963 36.2659 122.415 37.3564 122.415 38.4936V65.9411C122.415 67.0782 121.963 68.1688 121.159 68.9729C120.355 69.7769 119.265 70.2287 118.127 70.2287H98.3132V86.8317C89.6753 86.8317 82.6699 78.8666 82.6699 70.2287H65.8516V86.8317C57.2137 86.8317 50.2172 78.8666 50.2172 70.2287H33.354V86.8317C24.7161 86.8317 17.7197 78.8666 17.7197 70.2287H5.28756C2.91953 70.2287 1 69.3317 1 66.2281V38.4936C1 37.3564 1.45172 36.2659 2.2558 35.4618C3.05987 34.6577 4.15043 34.206 5.28756 34.206H53.2939V18.5717C55.3482 18.5705 57.3826 18.9739 59.281 19.759C61.1794 20.5441 62.9045 21.6953 64.358 23.1471C65.8114 24.5989 66.9647 26.3228 67.7519 28.2202C68.5392 30.1177 68.945 32.1517 68.9461 34.206Z" stroke="#FFBB0F" stroke-width="1.4" stroke-linecap="round" stroke-linejoin="round"/>
<path d="M9.32422 44.2966H98.0265" stroke="#FFBB0F" stroke-width="1.4" stroke-linecap="round" stroke-linejoin="round"/>
<path d="M9.32422 52.2803H98.0265" stroke="#FFBB0F" stroke-width="1.4" stroke-linecap="round" stroke-linejoin="round"/>
<path d="M9.32422 60.2725H98.0265" stroke="#FFBB0F" stroke-width="1.4" stroke-linecap="round" stroke-linejoin="round"/>
<path d="M108.592 62.2105C108.375 62.2146 108.158 62.1746 107.956 62.0929C107.754 62.0112 107.571 61.8895 107.417 61.7351C107.262 61.5821 107.14 61.3988 107.058 61.1968C106.976 60.9947 106.937 60.778 106.942 60.56C106.936 60.3337 106.977 60.1087 107.062 59.8988C107.147 59.6889 107.274 59.4988 107.435 59.3401C107.588 59.1814 107.773 59.0557 107.976 58.9709C108.18 58.886 108.399 58.8438 108.619 58.8468C108.842 58.8433 109.062 58.8871 109.266 58.9752C109.47 59.0634 109.653 59.1939 109.803 59.3581C109.964 59.5139 110.092 59.7008 110.178 59.9074C110.264 60.114 110.308 60.3361 110.306 60.56C110.308 60.78 110.264 60.998 110.178 61.2003C110.091 61.4026 109.964 61.5847 109.803 61.7351C109.644 61.8914 109.454 62.014 109.246 62.0957C109.038 62.1773 108.816 62.2164 108.592 62.2105ZM107.175 54.1915C107.156 53.4231 107.345 52.6638 107.722 51.9939C108.092 51.374 108.562 50.8194 109.113 50.3524C109.678 49.8675 110.278 49.4239 110.907 49.0249C111.546 48.6302 112.144 48.2266 112.701 47.814C113.22 47.4407 113.687 47.0003 114.091 46.5044C114.451 46.0505 114.644 45.4869 114.638 44.9078C114.644 44.5677 114.575 44.2305 114.435 43.9203C114.296 43.6102 114.089 43.3348 113.831 43.1138C113.251 42.6232 112.508 42.3701 111.75 42.4052C111.08 42.3817 110.419 42.5735 109.866 42.9523C109.634 43.1045 109.444 43.3122 109.312 43.5565C109.18 43.8008 109.112 44.0741 109.113 44.3516C109.095 44.4845 109.112 44.6197 109.162 44.744C109.213 44.8683 109.294 44.9773 109.4 45.0602C109.605 45.18 109.821 45.2792 110.045 45.3562C110.269 45.4323 110.483 45.5347 110.682 45.6612C110.79 45.7567 110.873 45.8766 110.924 46.0108C110.976 46.1451 110.994 46.2897 110.978 46.4326C110.99 46.6112 110.961 46.7901 110.894 46.9561C110.827 47.1222 110.724 47.2712 110.593 47.3924C110.288 47.6417 109.9 47.7667 109.507 47.7422C109.171 47.7436 108.839 47.6758 108.53 47.5431C108.221 47.4104 107.943 47.2156 107.713 46.9708C107.227 46.4521 106.966 45.762 106.987 45.0513C106.984 44.5184 107.116 43.9936 107.373 43.5264C107.632 43.0401 107.99 42.6126 108.422 42.2706C108.894 41.8988 109.429 41.6134 110.001 41.4275C110.619 41.2203 111.268 41.1172 111.92 41.1225C112.532 41.1172 113.139 41.2205 113.714 41.4275C114.245 41.596 114.733 41.8795 115.142 42.2577C115.552 42.636 115.872 43.0998 116.082 43.6161C116.303 44.1726 116.412 44.7667 116.405 45.3652C116.426 46.1914 116.228 47.0086 115.831 47.7332C115.452 48.4017 114.971 49.007 114.405 49.5272C113.818 50.0557 113.178 50.5216 112.494 50.9175C111.813 51.3301 111.194 51.7338 110.62 52.1195C110.107 52.4636 109.629 52.8572 109.193 53.2945C109.014 53.4644 108.871 53.6688 108.772 53.8953C108.673 54.1219 108.621 54.366 108.619 54.6131C108.619 55.3217 109.032 55.6805 109.848 55.6805C110.273 55.6655 110.685 55.5291 111.034 55.2875C111.384 55.0459 111.657 54.7091 111.822 54.3171L112.548 54.7476C112.33 55.364 111.929 55.8989 111.398 56.2805C110.868 56.6621 110.233 56.8722 109.579 56.8824C109.248 56.9074 108.916 56.8592 108.606 56.7414C108.296 56.6236 108.016 56.439 107.785 56.2007C107.33 55.6346 107.112 54.9148 107.175 54.1915Z" fill="#FFBB0F"/>
<path d="M45.7848 22.1243C45.7848 25.6405 44.7421 29.0777 42.7886 32.0013C40.8351 34.9249 38.0586 37.2036 34.81 38.5492C31.5615 39.8947 27.9869 40.2468 24.5383 39.5608C21.0897 38.8749 17.9219 37.1817 15.4356 34.6953C12.9493 32.209 11.2561 29.0413 10.5701 25.5927C9.88415 22.144 10.2362 18.5694 11.5818 15.3209C12.9274 12.0724 15.2061 9.29583 18.1296 7.34235C21.0532 5.38886 24.4905 4.34619 28.0066 4.34619C32.721 4.34857 37.2415 6.22238 40.5751 9.55591C43.9086 12.8894 45.7824 17.41 45.7848 22.1243Z" fill="#FFE7A9" stroke="#252B2D" stroke-width="1.4" stroke-linecap="round" stroke-linejoin="round"/>
<path d="M36.3141 25.9885L30.9143 36.3666L21.4512 29.4867L21.209 16.5703L30.7618 14.283L36.3141 25.9885Z" fill="#FFF4D8" stroke="#252B2D" stroke-width="1.4" stroke-linecap="round" stroke-linejoin="round"/>
<path d="M29.5337 9.59742L20.2169 11.7878C18.8329 12.1132 17.9747 13.4989 18.3001 14.883L18.3022 14.8917C18.6275 16.2757 20.0133 17.1339 21.3973 16.8085L30.7141 14.6182C32.0981 14.2928 32.9563 12.907 32.6309 11.523L32.6289 11.5143C32.3035 10.1302 30.9177 9.27203 29.5337 9.59742Z" fill="#FFBB0F" stroke="#FFBB0F" stroke-width="1.4" stroke-linecap="round" stroke-linejoin="round"/>
<path d="M28.5913 1L17.2266 3.673L20.0341 11.701L29.6587 9.44057L28.5913 1Z" fill="#FFBB0F" stroke="#FFBB0F" stroke-width="1.4" stroke-linecap="round" stroke-linejoin="round"/>
<path d="M28.8613 27.65L30.9154 36.3687" stroke="#252B2D" stroke-width="1.4" stroke-linecap="round" stroke-linejoin="round"/>
<path d="M28.3578 27.704C29.5715 27.704 30.5554 26.7201 30.5554 25.5064C30.5554 24.2927 29.5715 23.3088 28.3578 23.3088C27.1441 23.3088 26.1602 24.2927 26.1602 25.5064C26.1602 26.7201 27.1441 27.704 28.3578 27.704Z" stroke="#252B2D" stroke-width="1.4" stroke-linecap="round" stroke-linejoin="round"/>
<path d="M31.8573 142.391C33.7605 142.391 35.5857 141.635 36.9314 140.289C38.2772 138.943 39.0332 137.118 39.0332 135.215V107.113C38.9685 106.193 38.5577 105.333 37.8836 104.704C37.2094 104.076 36.322 103.726 35.4004 103.726C34.4788 103.726 33.5914 104.076 32.9173 104.704C32.2431 105.333 31.8323 106.193 31.7676 107.113V101.354C31.7676 100.391 31.3849 99.4666 30.7036 98.7854C30.0224 98.1041 29.0984 97.7214 28.1349 97.7214C27.1714 97.7214 26.2474 98.1041 25.5661 98.7854C24.8849 99.4666 24.5021 100.391 24.5021 101.354V114.809V95.2367C24.5266 94.7439 24.4507 94.2512 24.2789 93.7886C24.1072 93.326 23.8432 92.9031 23.5031 92.5456C23.1629 92.1882 22.7537 91.9036 22.3001 91.7091C21.8466 91.5146 21.3583 91.4143 20.8649 91.4143C20.3714 91.4143 19.8831 91.5146 19.4296 91.7091C18.9761 91.9036 18.5668 92.1882 18.2267 92.5456C17.8865 92.9031 17.6226 93.326 17.4508 93.7886C17.2791 94.2512 17.2031 94.7439 17.2276 95.2367V102.682C17.1813 101.748 16.7778 100.868 16.1008 100.224C15.4237 99.5799 14.5249 99.2206 13.5904 99.2206C12.6558 99.2206 11.757 99.5799 11.08 100.224C10.4029 100.868 9.99949 101.748 9.95312 102.682V115.239" stroke="#252B2D" stroke-width="1.4" stroke-linecap="round" stroke-linejoin="round"/>
<path d="M17.1719 102.681V114.736" stroke="#252B2D" stroke-width="1.4" stroke-linecap="round" stroke-linejoin="round"/>
<path d="M31.6953 106.574V114.754" stroke="#252B2D" stroke-width="1.4" stroke-linecap="round" stroke-linejoin="round"/>
<path d="M19.334 136.444C19.601 135.33 19.6122 134.171 19.3667 133.052C19.1213 131.934 18.6256 130.885 17.9169 129.986C17.2082 129.086 16.305 128.359 15.2749 127.859C14.2449 127.359 13.1149 127.098 11.9698 127.097C11.8711 127.097 11.7814 127.097 11.6828 127.097V118.334C11.6887 117.859 11.6003 117.387 11.4226 116.947C11.245 116.506 10.9816 116.106 10.6479 115.768C10.3141 115.43 9.91659 115.161 9.47833 114.978C9.04008 114.795 8.56983 114.701 8.09486 114.701V114.701C7.61704 114.7 7.14369 114.793 6.70191 114.975C6.26012 115.157 5.85859 115.424 5.52031 115.762C5.18202 116.099 4.91363 116.5 4.73051 116.941C4.54738 117.383 4.45312 117.856 4.45313 118.334V134.255C4.45313 134.381 4.45313 134.704 4.45313 134.829C4.45313 138.776 6.40854 142.355 13.2256 142.355V149.782" stroke="#252B2D" stroke-width="1.4" stroke-linecap="round" stroke-linejoin="round"/>
<path d="M33.0039 142.392V149.819" stroke="#252B2D" stroke-width="1.4" stroke-linecap="round" stroke-linejoin="round"/>
<path d="M10.1309 160.33V151.244C10.1309 150.867 10.2799 150.506 10.5454 150.239C10.8109 149.972 11.1714 149.82 11.5481 149.818H34.2865C34.6648 149.818 35.0275 149.968 35.295 150.236C35.5624 150.503 35.7127 150.866 35.7127 151.244V160.33" fill="#FFE7A9"/>
<path d="M10.1309 160.33V151.244C10.1309 150.867 10.2799 150.506 10.5454 150.239C10.8109 149.972 11.1714 149.82 11.5481 149.818H34.2865C34.6648 149.818 35.0275 149.968 35.295 150.236C35.5624 150.503 35.7127 150.866 35.7127 151.244V160.33" stroke="#252B2D" stroke-width="1.4" stroke-linecap="round" stroke-linejoin="round"/>
<path d="M74.4269 142.39C76.33 142.39 78.1552 141.634 79.5009 140.289C80.8467 138.943 81.6027 137.118 81.6027 135.215V107.112C81.5563 106.179 81.1529 105.299 80.4758 104.655C79.7988 104.011 78.9 103.651 77.9654 103.651C77.0309 103.651 76.1321 104.011 75.455 104.655C74.778 105.299 74.3746 106.179 74.3282 107.112V101.354C74.2818 100.42 73.8784 99.5404 73.2014 98.8962C72.5243 98.2519 71.6255 97.8926 70.6909 97.8926C69.7564 97.8926 68.8576 98.2519 68.1805 98.8962C67.5035 99.5404 67.1001 100.42 67.0537 101.354V114.808V95.2363C67.0537 94.2728 66.671 93.3488 65.9897 92.6675C65.3084 91.9863 64.3844 91.6035 63.4209 91.6035C62.4575 91.6035 61.5335 91.9863 60.8522 92.6675C60.1709 93.3488 59.7882 94.2728 59.7882 95.2363V102.681C59.7418 101.748 59.3384 100.868 58.6613 100.224C57.9843 99.5794 57.0855 99.2202 56.1509 99.2202C55.2164 99.2202 54.3176 99.5794 53.6405 100.224C52.9635 100.868 52.56 101.748 52.5137 102.681V115.239" stroke="#252B2D" stroke-width="1.4" stroke-linecap="round" stroke-linejoin="round"/>
<path d="M59.7441 102.681V114.736" stroke="#252B2D" stroke-width="1.4" stroke-linecap="round" stroke-linejoin="round"/>
<path d="M74.2656 106.574V114.754" stroke="#252B2D" stroke-width="1.4" stroke-linecap="round" stroke-linejoin="round"/>
<path d="M61.8947 136.444C62.1633 135.331 62.176 134.171 61.9318 133.053C61.6875 131.934 61.1928 130.886 60.4848 129.986C59.7767 129.086 58.8738 128.359 57.8441 127.858C56.8143 127.358 55.6844 127.098 54.5395 127.097C54.4408 127.097 54.3511 127.097 54.2525 127.097V118.334C54.2525 117.378 53.876 116.461 53.2044 115.781C52.5328 115.101 51.6202 114.713 50.6646 114.701V114.701C50.1829 114.699 49.7057 114.792 49.2605 114.976C48.8153 115.159 48.4111 115.43 48.0714 115.771C47.7317 116.113 47.4632 116.518 47.2817 116.964C47.1001 117.41 47.0091 117.888 47.0138 118.37V134.291V134.865C47.0138 138.812 48.9782 142.391 55.7953 142.391V149.818" stroke="#252B2D" stroke-width="1.4" stroke-linecap="round" stroke-linejoin="round"/>
<path d="M75.5762 142.392V149.819" stroke="#252B2D" stroke-width="1.4" stroke-linecap="round" stroke-linejoin="round"/>
<path d="M52.7031 160.33V151.244C52.7031 150.867 52.8521 150.506 53.1177 150.239C53.3832 149.972 53.7437 149.82 54.1203 149.818H76.8588C77.237 149.818 77.5998 149.968 77.8672 150.236C78.1347 150.503 78.285 150.866 78.285 151.244V160.33" fill="#FFBB0F"/>
<path d="M52.7031 160.33V151.244C52.7031 150.867 52.8521 150.506 53.1177 150.239C53.3832 149.972 53.7437 149.82 54.1203 149.818H76.8588C77.237 149.818 77.5998 149.968 77.8672 150.236C78.1347 150.503 78.285 150.866 78.285 151.244V160.33" stroke="#252B2D" stroke-width="1.4" stroke-linecap="round" stroke-linejoin="round"/>
<path d="M116.978 142.391C118.881 142.391 120.706 141.635 122.052 140.289C123.397 138.943 124.153 137.118 124.153 135.215V107.113C124.107 106.179 123.704 105.299 123.027 104.655C122.35 104.011 121.451 103.652 120.516 103.652C119.582 103.652 118.683 104.011 118.006 104.655C117.329 105.299 116.925 106.179 116.879 107.113V101.354C116.833 100.421 116.429 99.5408 115.752 98.8966C115.075 98.2524 114.176 97.8931 113.242 97.8931C112.307 97.8931 111.408 98.2524 110.731 98.8966C110.054 99.5408 109.651 100.421 109.604 101.354V114.809V95.2367C109.629 94.7439 109.553 94.2512 109.381 93.7886C109.21 93.326 108.946 92.9031 108.605 92.5456C108.265 92.1882 107.856 91.9036 107.403 91.7091C106.949 91.5146 106.461 91.4143 105.967 91.4143C105.474 91.4143 104.985 91.5146 104.532 91.7091C104.078 91.9036 103.669 92.1882 103.329 92.5456C102.989 92.9031 102.725 93.326 102.553 93.7886C102.381 94.2512 102.305 94.7439 102.33 95.2367V102.682C102.33 101.718 101.947 100.794 101.266 100.113C100.585 99.4316 99.6607 99.0489 98.6972 99.0489C97.7338 99.0489 96.8097 99.4316 96.1285 100.113C95.4472 100.794 95.0645 101.718 95.0645 102.682V115.239" fill="#FFF4D8"/>
<path d="M116.978 142.391C118.881 142.391 120.706 141.635 122.052 140.289C123.397 138.943 124.153 137.118 124.153 135.215V107.113C124.107 106.179 123.704 105.299 123.027 104.655C122.35 104.011 121.451 103.652 120.516 103.652C119.582 103.652 118.683 104.011 118.006 104.655C117.329 105.299 116.925 106.179 116.879 107.113V101.354C116.833 100.421 116.429 99.5408 115.752 98.8966C115.075 98.2524 114.176 97.8931 113.242 97.8931C112.307 97.8931 111.408 98.2524 110.731 98.8966C110.054 99.5408 109.651 100.421 109.604 101.354V114.809V95.2367C109.629 94.7439 109.553 94.2512 109.381 93.7886C109.21 93.326 108.946 92.9031 108.605 92.5456C108.265 92.1882 107.856 91.9036 107.403 91.7091C106.949 91.5146 106.461 91.4143 105.967 91.4143C105.474 91.4143 104.985 91.5146 104.532 91.7091C104.078 91.9036 103.669 92.1882 103.329 92.5456C102.989 92.9031 102.725 93.326 102.553 93.7886C102.381 94.2512 102.305 94.7439 102.33 95.2367V102.682C102.33 101.718 101.947 100.794 101.266 100.113C100.585 99.4316 99.6607 99.0489 98.6972 99.0489C97.7338 99.0489 96.8097 99.4316 96.1285 100.113C95.4472 100.794 95.0645 101.718 95.0645 102.682V115.239" stroke="#252B2D" stroke-width="1.4" stroke-linecap="round" stroke-linejoin="round"/>
<path d="M102.305 102.681V114.736" stroke="#252B2D" stroke-width="1.4" stroke-linecap="round" stroke-linejoin="round"/>
<path d="M116.836 106.574V114.754" stroke="#252B2D" stroke-width="1.4" stroke-linecap="round" stroke-linejoin="round"/>
<path d="M104.466 136.444C104.735 135.331 104.747 134.171 104.503 133.053C104.259 131.934 103.764 130.886 103.056 129.986C102.348 129.086 101.445 128.359 100.415 127.858C99.3855 127.358 98.2556 127.098 97.1107 127.097C97.012 127.097 96.9223 127.097 96.8237 127.097V118.334C96.8237 117.856 96.7294 117.383 96.5463 116.941C96.3632 116.5 96.0948 116.099 95.7565 115.762C95.4182 115.424 95.0167 115.157 94.5749 114.975C94.1331 114.793 93.6598 114.7 93.1819 114.701C92.707 114.701 92.2367 114.795 91.7985 114.978C91.3602 115.161 90.9627 115.43 90.6289 115.768C90.2952 116.106 90.0318 116.506 89.8542 116.947C89.6765 117.387 89.5881 117.859 89.594 118.334V134.255C89.594 134.381 89.594 134.704 89.594 134.829C89.594 138.776 91.5584 142.355 98.3755 142.355V149.782" fill="#FFF4D8"/>
<path d="M104.466 136.444C104.735 135.331 104.747 134.171 104.503 133.053C104.259 131.934 103.764 130.886 103.056 129.986C102.348 129.086 101.445 128.359 100.415 127.858C99.3855 127.358 98.2556 127.098 97.1107 127.097C97.012 127.097 96.9223 127.097 96.8237 127.097V118.334C96.8237 117.856 96.7294 117.383 96.5463 116.941C96.3632 116.5 96.0948 116.099 95.7565 115.762C95.4182 115.424 95.0167 115.157 94.5749 114.975C94.1331 114.793 93.6598 114.7 93.1819 114.701V114.701C92.707 114.701 92.2367 114.795 91.7985 114.978C91.3602 115.161 90.9627 115.43 90.6289 115.768C90.2952 116.106 90.0318 116.506 89.8542 116.947C89.6765 117.387 89.5881 117.859 89.594 118.334V134.255C89.594 134.381 89.594 134.704 89.594 134.829C89.594 138.776 91.5584 142.355 98.3755 142.355V149.782" stroke="#252B2D" stroke-width="1.4" stroke-linecap="round" stroke-linejoin="round"/>
<path d="M118.145 142.392V149.819" stroke="#252B2D" stroke-width="1.4" stroke-linecap="round" stroke-linejoin="round"/>
<path d="M95.2715 160.33V151.244C95.2703 151.057 95.3061 150.872 95.3768 150.699C95.4475 150.526 95.5517 150.369 95.6834 150.236C95.8151 150.104 95.9718 149.998 96.1443 149.927C96.3168 149.855 96.5019 149.818 96.6887 149.818H119.427C119.804 149.82 120.164 149.972 120.43 150.239C120.695 150.506 120.844 150.867 120.844 151.244V160.33" fill="#FFF4D8"/>
<path d="M95.2715 160.33V151.244C95.2703 151.057 95.3061 150.872 95.3768 150.699C95.4475 150.526 95.5517 150.369 95.6834 150.236C95.8151 150.104 95.9718 149.998 96.1443 149.927C96.3168 149.855 96.5019 149.818 96.6887 149.818H119.427C119.804 149.82 120.164 149.972 120.43 150.239C120.695 150.506 120.844 150.867 120.844 151.244V160.33" stroke="#252B2D" stroke-width="1.4" stroke-linecap="round" stroke-linejoin="round"/>
</svg>
