<svg width="25" height="25" viewBox="0 0 25 25" fill="none" xmlns="http://www.w3.org/2000/svg">
<path d="M12.5 0C10.0277 0 7.61099 0.733112 5.55538 2.10663C3.49976 3.48015 1.89761 5.43238 0.951511 7.71646C0.005416 10.0005 -0.242126 12.5139 0.24019 14.9386C0.722505 17.3634 1.91301 19.5907 3.66117 21.3388C5.40933 23.087 7.63661 24.2775 10.0614 24.7598C12.4861 25.2421 14.9995 24.9946 17.2835 24.0485C19.5676 23.1024 21.5199 21.5002 22.8934 19.4446C24.2669 17.389 25 14.9723 25 12.5C25 9.18479 23.683 6.00537 21.3388 3.66116C18.9946 1.31696 15.8152 0 12.5 0V0ZM11.2738 19.0476C11.2504 19.4098 11.09 19.7495 10.8252 19.9977C10.5605 20.2459 10.2111 20.384 9.84822 20.384C9.48529 20.384 9.13597 20.2459 8.87119 19.9977C8.60642 19.7495 8.44604 19.4098 8.42262 19.0476V5.98809C8.44604 5.62592 8.60642 5.28624 8.87119 5.03803C9.13597 4.78982 9.48529 4.65169 9.84822 4.65169C10.2111 4.65169 10.5605 4.78982 10.8252 5.03803C11.09 5.28624 11.2504 5.62592 11.2738 5.98809V19.0476ZM16.5833 19.0476C16.5599 19.4098 16.3995 19.7495 16.1348 19.9977C15.87 20.2459 15.5207 20.384 15.1577 20.384C14.7948 20.384 14.4455 20.2459 14.1807 19.9977C13.9159 19.7495 13.7556 19.4098 13.7321 19.0476V5.98809C13.7556 5.62592 13.9159 5.28624 14.1807 5.03803C14.4455 4.78982 14.7948 4.65169 15.1577 4.65169C15.5207 4.65169 15.87 4.78982 16.1348 5.03803C16.3995 5.28624 16.5599 5.62592 16.5833 5.98809V19.0476Z" fill="#16A1DC"/>
</svg>
