<svg width="75" height="76" viewBox="0 0 75 76" fill="none" xmlns="http://www.w3.org/2000/svg">
<path d="M37.5 75C57.6584 75 74 58.4345 74 38C74 17.5655 57.6584 1 37.5 1C17.3416 1 1 17.5655 1 38C1 58.4345 17.3416 75 37.5 75Z" fill="#EBF7FE" stroke="#16A1DC" stroke-width="2" stroke-miterlimit="10"/>
<path d="M32.9717 20.5714L52.3213 36.6401C52.756 37.003 53 37.4941 53 38.006C53 38.5178 52.756 39.0089 52.3213 39.3718L32.9717 55.4405C32.6451 55.7088 32.2303 55.8909 31.7794 55.964C31.3286 56.0372 30.8617 55.9982 30.4375 55.8518C30.0133 55.7055 29.6505 55.4584 29.3948 55.1415C29.139 54.8245 29.0017 54.452 29 54.0705V21.933C28.9989 21.5504 29.1348 21.1762 29.3905 20.858C29.6462 20.5398 30.0101 20.2919 30.4359 20.1459C30.8617 19.9999 31.3302 19.9624 31.7818 20.0382C32.2334 20.114 32.6476 20.2996 32.9717 20.5714Z" fill="#16A1DC" stroke="#16A1DC" stroke-width="2" stroke-miterlimit="10"/>
</svg>
