<svg width="25" height="25" viewBox="0 0 25 25" fill="none" xmlns="http://www.w3.org/2000/svg">
<path d="M12.5 0C10.0277 0 7.61099 0.733112 5.55538 2.10663C3.49976 3.48015 1.89761 5.43238 0.951511 7.71646C0.00541604 10.0005 -0.242126 12.5139 0.24019 14.9386C0.722505 17.3634 1.91301 19.5907 3.66117 21.3388C5.40933 23.087 7.63661 24.2775 10.0614 24.7598C12.4861 25.2421 14.9995 24.9946 17.2835 24.0485C19.5676 23.1024 21.5199 21.5002 22.8934 19.4446C24.2669 17.389 25 14.9723 25 12.5C25 9.18479 23.683 6.00537 21.3388 3.66116C18.9946 1.31696 15.8152 0 12.5 0ZM19.0476 13.4583L10.5952 19.7262C10.3901 19.8774 10.1418 19.9588 9.88691 19.9583C9.70103 19.9591 9.51756 19.9162 9.35119 19.8333C9.15396 19.7339 8.98827 19.5817 8.87264 19.3935C8.75701 19.2053 8.696 18.9887 8.69643 18.7679V6.26786C8.69051 6.04475 8.74742 5.82447 8.86068 5.63216C8.97393 5.43985 9.13897 5.28324 9.33695 5.18022C9.53493 5.07719 9.75788 5.0319 9.98037 5.0495C10.2029 5.0671 10.4159 5.14689 10.5952 5.27976L19.0476 11.5476C19.1966 11.6584 19.3176 11.8025 19.401 11.9684C19.4844 12.1342 19.5278 12.3173 19.5278 12.503C19.5278 12.6886 19.4844 12.8717 19.401 13.0376C19.3176 13.2035 19.1966 13.3476 19.0476 13.4583Z" fill="#849899"/>
</svg>
