<svg width="35" height="35" viewBox="0 0 35 35" fill="none" xmlns="http://www.w3.org/2000/svg">
<path d="M14.0613 34.3259C21.455 34.3259 27.4487 28.3322 27.4487 20.9385C27.4487 13.5448 21.455 7.55103 14.0613 7.55103C6.66759 7.55103 0.673828 13.5448 0.673828 20.9385C0.673828 28.3322 6.66759 34.3259 14.0613 34.3259Z" stroke="#2E2A26" stroke-width="1.4" stroke-linecap="round" stroke-linejoin="round"/>
<path d="M14.0615 3.9585C17.2694 3.96028 20.4113 4.87024 23.1236 6.5831C25.8359 8.29596 28.0079 10.7417 29.3883 13.6374C30.7686 16.5332 31.301 19.7605 30.9237 22.9462C30.5464 26.1318 29.2749 29.1456 27.2563 31.6387" stroke="#2E2A26" stroke-width="1.4" stroke-linecap="round" stroke-linejoin="round"/>
<path d="M14.0615 0.674216C17.8748 0.659863 21.6145 1.72382 24.8491 3.74336C28.0838 5.76289 30.6816 8.65572 32.3429 12.0881C34.0043 15.5205 34.6614 19.3527 34.2386 23.1425C33.8157 26.9323 32.3301 30.5254 29.9531 33.5072" stroke="#2E2A26" stroke-width="1.4" stroke-linecap="round" stroke-linejoin="round"/>
<path d="M19.474 16.7294C19.474 13.74 17.0506 11.3167 14.0612 11.3167C11.0718 11.3167 8.64844 13.74 8.64844 16.7294V22.1807C8.64844 25.1701 11.0718 27.5935 14.0612 27.5935C17.0506 27.5935 19.474 25.1701 19.474 22.1807V16.7294Z" stroke="#2E2A26" stroke-width="1.4" stroke-linecap="round" stroke-linejoin="round"/>
<path d="M8.82227 15.959H19.3011" stroke="#2E2A26" stroke-width="1.4" stroke-linecap="round" stroke-linejoin="round"/>
<path d="M8.82227 19.6189H19.3011" stroke="#2E2A26" stroke-width="1.4" stroke-linecap="round" stroke-linejoin="round"/>
<path d="M8.82227 23.2883H19.3011" stroke="#2E2A26" stroke-width="1.4" stroke-linecap="round" stroke-linejoin="round"/>
<path d="M14.9278 27.5935V29.6931H16.2088C16.5528 29.6956 16.8821 29.8334 17.1254 30.0767C17.3687 30.32 17.5065 30.6493 17.509 30.9933V31.5038H10.5938V30.9933C10.5938 30.6485 10.7307 30.3178 10.9746 30.0739C11.2184 29.8301 11.5491 29.6931 11.894 29.6931H13.0305V27.5935" stroke="#2E2A26" stroke-width="1.4" stroke-linecap="round" stroke-linejoin="round"/>
</svg>
