<svg width="50" height="50" viewBox="0 0 50 50" fill="none" xmlns="http://www.w3.org/2000/svg">
<path d="M18.2645 19.6417C20.7308 19.6417 22.7301 17.6424 22.7301 15.1761C22.7301 12.7098 20.7308 10.7104 18.2645 10.7104C15.7982 10.7104 13.7988 12.7098 13.7988 15.1761C13.7988 17.6424 15.7982 19.6417 18.2645 19.6417Z" stroke="#252B2D" stroke-width="1.2" stroke-linecap="round" stroke-linejoin="round"/>
<path d="M34.0984 29.3978C36.5648 29.3978 38.5641 27.3985 38.5641 24.9322C38.5641 22.4659 36.5648 20.4666 34.0984 20.4666C31.6321 20.4666 29.6328 22.4659 29.6328 24.9322C29.6328 27.3985 31.6321 29.3978 34.0984 29.3978Z" stroke="#252B2D" stroke-width="1.2" stroke-linecap="round" stroke-linejoin="round"/>
<path d="M23.7195 39.1469C26.1858 39.1469 28.1852 37.1475 28.1852 34.6812C28.1852 32.2149 26.1858 30.2156 23.7195 30.2156C21.2532 30.2156 19.2539 32.2149 19.2539 34.6812C19.2539 37.1475 21.2532 39.1469 23.7195 39.1469Z" stroke="#252B2D" stroke-width="1.2" stroke-linecap="round" stroke-linejoin="round"/>
<path d="M8.36328 15.1759H13.7902" stroke="#252B2D" stroke-width="1.2" stroke-linecap="round" stroke-linejoin="round"/>
<path d="M8.36328 24.9324H29.6243" stroke="#252B2D" stroke-width="1.2" stroke-linecap="round" stroke-linejoin="round"/>
<path d="M22.7285 15.1759H41.8929" stroke="#252B2D" stroke-width="1.2" stroke-linecap="round" stroke-linejoin="round"/>
<path d="M38.5625 24.9324H41.8928" stroke="#252B2D" stroke-width="1.2" stroke-linecap="round" stroke-linejoin="round"/>
<path d="M28.1855 34.6813H41.8928" stroke="#252B2D" stroke-width="1.2" stroke-linecap="round" stroke-linejoin="round"/>
<path d="M8.36328 34.6813H19.2549" stroke="#252B2D" stroke-width="1.2" stroke-linecap="round" stroke-linejoin="round"/>
</svg>
