<svg width="34" height="36" viewBox="0 0 34 36" fill="none" xmlns="http://www.w3.org/2000/svg">
<path d="M8.86127 19.5454C8.24974 18.8642 7.77517 18.066 7.46471 17.1966C7.15425 16.3271 7.01399 15.4034 7.05194 14.4784C7.0899 13.5533 7.30532 12.645 7.6859 11.8053C8.06648 10.9657 8.60475 10.2112 9.26992 9.58505M23.9387 5.37743C22.1701 3.40549 19.8711 2.01543 17.3323 1.38297C14.7934 0.750506 12.1287 0.904028 9.67494 1.82413C7.22117 2.74423 5.08851 4.38961 3.54654 6.55228C2.00456 8.71495 1.12251 11.2978 1.01186 13.9744C0.901209 16.651 1.56694 19.3011 2.92489 21.5899C4.28284 23.8786 6.27206 25.7031 8.64109 26.8328C11.0101 27.9625 13.6526 28.3467 16.2346 27.9368C18.8165 27.5269 21.222 26.3414 23.1469 24.5299C25.7284 22.0976 27.262 18.7134 27.4105 15.1218C27.559 11.5302 26.3101 8.0251 23.9387 5.37743V5.37743ZM21.2399 22.4436C19.7309 23.8657 17.8446 24.7969 15.8194 25.1196C13.7942 25.4423 11.7212 25.1418 9.8626 24.2563C8.00398 23.3707 6.44323 21.9398 5.37779 20.1447C4.31235 18.3495 3.79008 16.2706 3.87703 14.171C3.96399 12.0714 4.65627 10.0455 5.8663 8.34935C7.07634 6.65324 8.74977 5.36321 10.6749 4.64242C12.6001 3.92164 14.6905 3.80248 16.6817 4.30002C18.6729 4.79757 20.4754 5.88946 21.8614 7.43759C22.7821 8.46442 23.4965 9.66725 23.9636 10.9773C24.4307 12.2874 24.6414 13.679 24.5837 15.0727C24.526 16.4663 24.201 17.8346 23.6272 19.0994C23.0535 20.3641 22.2422 21.5005 21.2399 22.4436V22.4436Z" stroke="#2E2A26" stroke-width="1.5" stroke-linecap="round" stroke-linejoin="round"/>
<path d="M32.4776 32.4739L30.2641 34.5602C30.1092 34.708 29.9273 34.8228 29.7289 34.898C29.5304 34.9732 29.3194 35.0074 29.1081 34.9984C28.8967 34.9895 28.6891 34.9377 28.4974 34.846C28.3056 34.7543 28.1336 34.6245 27.991 34.4642L23.5725 29.7154C23.2909 29.3934 23.1431 28.9713 23.1606 28.5392C23.1781 28.107 23.3595 27.699 23.6662 27.402L25.8882 25.2982C26.0424 25.1507 26.2236 25.0361 26.4213 24.961C26.6191 24.8859 26.8294 24.8518 27.0401 24.8608C27.2508 24.8697 27.4576 24.9215 27.6486 25.013C27.8396 25.1046 28.011 25.2342 28.1528 25.3943L32.5713 30.1431C32.7154 30.3019 32.8274 30.4885 32.9007 30.6919C32.9741 30.8954 33.0074 31.1118 32.9986 31.3285C32.9899 31.5453 32.9394 31.7581 32.85 31.9547C32.7606 32.1513 32.634 32.3278 32.4776 32.4739V32.4739Z" stroke="#2E2A26" stroke-width="1.5" stroke-linecap="round" stroke-linejoin="round"/>
<path d="M23.6661 27.3846L22.04 25.5688" stroke="#2E2A26" stroke-width="1.5" stroke-linecap="round" stroke-linejoin="round"/>
<path d="M26.0753 25.1146L24.4492 23.2988" stroke="#2E2A26" stroke-width="1.5" stroke-linecap="round" stroke-linejoin="round"/>
</svg>
