<svg width="23" height="23" viewBox="0 0 23 23" fill="none" xmlns="http://www.w3.org/2000/svg">
<path d="M11.5 22C17.299 22 22 17.299 22 11.5C22 5.70101 17.299 1 11.5 1C5.70101 1 1 5.70101 1 11.5C1 17.299 5.70101 22 11.5 22Z" stroke="white" stroke-linecap="round" stroke-linejoin="round"/>
<path d="M6.90918 6.4981C8.77568 6.07768 10.7207 6.16493 12.5421 6.75079C14.3635 7.33664 15.9946 8.39971 17.266 9.82946" stroke="white" stroke-linecap="round" stroke-linejoin="round"/>
<path d="M6.76562 9.65776C8.359 9.30363 10.0181 9.38243 11.5708 9.88599C13.1234 10.3895 14.5129 11.2995 15.5952 12.5214" stroke="white" stroke-linecap="round" stroke-linejoin="round"/>
<path d="M7.56738 13.0461C8.6142 12.8185 9.7029 12.8754 10.7202 13.2112C11.7375 13.5469 12.6463 14.1492 13.3519 14.9552" stroke="white" stroke-linecap="round" stroke-linejoin="round"/>
</svg>
