<svg width="196" height="182" viewBox="0 0 196 182" fill="none" xmlns="http://www.w3.org/2000/svg">
<path d="M19.5709 158.7H7.86094C7.74275 158.7 7.62572 158.723 7.51652 158.768C7.40733 158.814 7.30811 158.88 7.22454 158.964C7.14097 159.047 7.07467 159.146 7.02945 159.255C6.98422 159.365 6.96094 159.482 6.96094 159.6V169.79C6.96092 171.991 7.83337 174.103 9.38719 175.662C10.941 177.222 13.0495 178.102 15.2509 178.11H50.1409C51.0886 178.111 52.0272 177.926 52.9032 177.564C53.7791 177.202 54.5751 176.671 55.2456 176.002C55.9162 175.332 56.4482 174.537 56.8112 173.661C57.1741 172.786 57.3609 171.848 57.3609 170.9V131.74C57.3609 131.621 57.3373 131.503 57.2915 131.393C57.2456 131.283 57.1784 131.184 57.0938 131.1C57.0092 131.016 56.9088 130.95 56.7984 130.906C56.6881 130.861 56.57 130.839 56.4509 130.84H20.4509C20.2122 130.84 19.9833 130.935 19.8145 131.104C19.6458 131.272 19.5509 131.501 19.5509 131.74V173.33C19.5509 174.598 19.0473 175.813 18.1509 176.71C17.2545 177.606 16.0387 178.11 14.7709 178.11" fill="white"/>
<path d="M19.5709 158.7H7.86094C7.74275 158.7 7.62572 158.723 7.51652 158.768C7.40733 158.814 7.30811 158.88 7.22454 158.964C7.14097 159.047 7.07467 159.146 7.02945 159.255C6.98422 159.365 6.96094 159.482 6.96094 159.6V169.79C6.96092 171.991 7.83337 174.103 9.38719 175.662C10.941 177.222 13.0495 178.102 15.2509 178.11H50.1409C51.0886 178.111 52.0272 177.926 52.9032 177.564C53.7791 177.202 54.5751 176.671 55.2456 176.002C55.9162 175.332 56.4482 174.537 56.8112 173.661C57.1741 172.786 57.3609 171.848 57.3609 170.9V131.74C57.3609 131.621 57.3373 131.503 57.2915 131.393C57.2456 131.283 57.1784 131.184 57.0938 131.1C57.0092 131.016 56.9088 130.95 56.7984 130.906C56.6881 130.861 56.57 130.839 56.4509 130.84H20.4509C20.2122 130.84 19.9833 130.935 19.8145 131.104C19.6458 131.272 19.5509 131.501 19.5509 131.74V173.33C19.5509 174.598 19.0473 175.813 18.1509 176.71C17.2545 177.606 16.0387 178.11 14.7709 178.11" stroke="#252B2D" stroke-width="1.5" stroke-linecap="round" stroke-linejoin="round"/>
<path d="M25.9707 154.99H46.5607" stroke="#252B2D" stroke-width="1.5" stroke-linecap="round" stroke-linejoin="round"/>
<path d="M25.9707 160.73H51.4907" stroke="#252B2D" stroke-width="1.5" stroke-linecap="round" stroke-linejoin="round"/>
<path d="M25.9707 166.46H51.4907" stroke="#252B2D" stroke-width="1.5" stroke-linecap="round" stroke-linejoin="round"/>
<path d="M25.9707 143.52H43.4107" stroke="#252B2D" stroke-width="1.5" stroke-linecap="round" stroke-linejoin="round"/>
<path d="M25.9707 149.25H44.4607" stroke="#252B2D" stroke-width="1.5" stroke-linecap="round" stroke-linejoin="round"/>
<path d="M10.9707 164.15H19.5707" stroke="#252B2D" stroke-width="1.5" stroke-linecap="round" stroke-linejoin="round"/>
<path d="M10.9707 169.89H19.5707" stroke="#252B2D" stroke-width="1.5" stroke-linecap="round" stroke-linejoin="round"/>
<path d="M25.9707 171.95H51.4907" stroke="#252B2D" stroke-width="1.5" stroke-linecap="round" stroke-linejoin="round"/>
<path d="M66.08 159.39C74.5465 159.39 81.41 152.527 81.41 144.06C81.41 135.593 74.5465 128.73 66.08 128.73C57.6135 128.73 50.75 135.593 50.75 144.06C50.75 152.527 57.6135 159.39 66.08 159.39Z" fill="white"/>
<path d="M117.06 6.18C115.565 4.25612 113.65 2.69927 111.461 1.62825C109.272 0.557217 106.867 0.00030568 104.43 0C103.99 0 103.55 0 103.11 0.05C92.0404 0.95 87.1104 14.56 94.4604 22.88L102.46 31.94L117.46 48.88L131.56 32.48L139.44 23.32C146.3 15.32 142.13 2.52 131.75 0.83C129.042 0.383553 126.265 0.641178 123.686 1.57811C121.106 2.51504 118.811 4.09978 117.02 6.18" fill="#16A1DC"/>
<path d="M109.699 16.0799L110.229 12.1499H126.579L126.049 16.0799H120.159L117.649 33.6999H113.089L115.599 16.0799H109.699Z" fill="white"/>
<path d="M142.759 149.8L146.139 158.59L137.559 155L121.759 139.2C121.073 138.509 120.687 137.574 120.688 136.6C120.688 135.626 121.073 134.691 121.759 134V134C122.101 133.657 122.507 133.386 122.954 133.2C123.401 133.015 123.88 132.919 124.364 132.919C124.848 132.919 125.327 133.015 125.774 133.2C126.221 133.386 126.627 133.657 126.969 134L142.759 149.8Z" stroke="#16A1DC" stroke-width="1.5" stroke-linecap="round" stroke-linejoin="round"/>
<path d="M123.289 140.73L128.499 135.53" stroke="#16A1DC" stroke-width="1.5" stroke-linecap="round" stroke-linejoin="round"/>
<path d="M122.5 141.74L121.01 143.23L125.64 147.86" stroke="#16A1DC" stroke-width="1.5" stroke-linecap="round" stroke-linejoin="round"/>
<path d="M129.789 149.88L135.449 143.63C135.875 143.556 136.314 143.595 136.72 143.742C137.127 143.89 137.489 144.141 137.769 144.47C138.549 145.58 138.079 149.01 137.319 149.88C136.559 150.75 141.759 150.31 142.679 152.12C143.599 153.93 144.759 158.56 143.219 159.6C141.679 160.64 137.569 159.6 137.569 159.6L129.789 149.88Z" fill="white"/>
<path d="M146.36 94.1599C147.399 94.1599 148.24 93.3182 148.24 92.2799C148.24 91.2416 147.399 90.3999 146.36 90.3999C145.322 90.3999 144.48 91.2416 144.48 92.2799C144.48 93.3182 145.322 94.1599 146.36 94.1599Z" fill="#252B2D"/>
<path d="M147.01 101.22C148.378 102.296 150.06 102.896 151.8 102.93C152.154 102.934 152.508 102.914 152.86 102.87" stroke="#252B2D" stroke-width="1.5" stroke-linecap="round" stroke-linejoin="round"/>
<path d="M127.85 90.5C126.429 90.5 125.065 91.0647 124.06 92.0699C123.055 93.0751 122.49 94.4384 122.49 95.86C122.49 97.2816 123.055 98.6449 124.06 99.6501C125.065 100.655 126.429 101.22 127.85 101.22" stroke="#252B2D" stroke-width="1.5" stroke-linecap="round" stroke-linejoin="round"/>
<path d="M127.42 94.1499C126.968 94.2417 126.562 94.487 126.27 94.8442C125.978 95.2014 125.818 95.6486 125.818 96.1099C125.818 96.5712 125.978 97.0184 126.27 97.3756C126.562 97.7328 126.968 97.9781 127.42 98.0699" stroke="#252B2D" stroke-width="1.5" stroke-linecap="round" stroke-linejoin="round"/>
<path d="M146.711 87.9201C146.397 87.6571 146.019 87.481 145.615 87.409C145.212 87.3371 144.797 87.372 144.411 87.5101C144.064 87.6335 143.752 87.8375 143.5 88.1052C143.248 88.373 143.063 88.6969 142.961 89.0501" stroke="#252B2D" stroke-width="1.5" stroke-linecap="round" stroke-linejoin="round"/>
<path d="M127.42 89.5799C127.42 89.5799 142.53 94.7599 145.82 77.4399" stroke="#252B2D" stroke-width="1.5" stroke-linecap="round" stroke-linejoin="round"/>
<path d="M125.46 100.66C125.46 100.66 143.7 113.59 136.99 124.38C136.049 125.814 134.795 127.016 133.323 127.896C131.851 128.776 130.198 129.31 128.49 129.46C123.7 129.97 115.33 129 109.49 127.29C92.4195 122.29 103.73 99.19 109.99 85.1C115.99 71.67 133.76 73.23 133.76 73.23C139.084 73.2389 144.208 75.2612 148.103 78.891C151.998 82.5209 154.376 87.4896 154.76 92.8C156.33 95.49 157.36 95.67 157.36 96.96C157.36 97.266 157.299 97.569 157.182 97.8517C157.065 98.1343 156.893 98.3912 156.677 98.6076C156.461 98.8239 156.204 98.9955 155.921 99.1126C155.638 99.2297 155.336 99.29 155.03 99.29C154.767 99.2899 154.506 99.2425 154.26 99.15C153.328 103.123 151.263 106.741 148.317 109.565C145.371 112.389 141.669 114.297 137.66 115.06" stroke="#252B2D" stroke-width="1.5" stroke-linecap="round" stroke-linejoin="round"/>
<path d="M118.74 75.94C118.74 75.94 120.85 72.75 119.42 70.01C117.99 67.27 110.49 62.64 105.25 72.01C100.01 81.38 105.49 84.73 111.25 82.71" stroke="#252B2D" stroke-width="1.5" stroke-linecap="round" stroke-linejoin="round"/>
<path d="M117.9 80.72C118.09 82.2725 118.641 83.7588 119.51 85.0597C120.378 86.3605 121.539 87.4395 122.9 88.21" stroke="#252B2D" stroke-width="1.5" stroke-linecap="round" stroke-linejoin="round"/>
<path d="M114.8 83.8799C114.8 83.8799 113.55 90.3099 118.74 94.3299" stroke="#252B2D" stroke-width="1.5" stroke-linecap="round" stroke-linejoin="round"/>
<path d="M108.19 144.84H94.1602" stroke="#252B2D" stroke-width="1.5" stroke-linecap="round" stroke-linejoin="round"/>
<path d="M150.15 133.77V161.27" stroke="#252B2D" stroke-width="1.5" stroke-linecap="round" stroke-linejoin="round"/>
<path d="M150.15 142.28L167.07 161.27" stroke="#252B2D" stroke-width="1.5" stroke-linecap="round" stroke-linejoin="round"/>
<path d="M157.631 150.19L169.461 139.02" stroke="#252B2D" stroke-width="1.5" stroke-linecap="round" stroke-linejoin="round"/>
<path d="M104.119 124.21C101.467 124.21 98.9234 125.264 97.0481 127.139C95.1727 129.014 94.1191 131.558 94.1191 134.21V155.09C94.1178 155.907 94.2778 156.717 94.5899 157.472C94.9021 158.227 95.3602 158.913 95.938 159.491C96.5158 160.069 97.2021 160.527 97.9573 160.839C98.7125 161.151 99.522 161.311 100.339 161.31H138.489C139.927 161.31 141.305 160.739 142.322 159.722C143.338 158.706 143.909 157.327 143.909 155.89V155.89C143.909 154.452 143.338 153.072 142.322 152.054C141.306 151.036 139.928 150.463 138.489 150.46H136.489L138.039 148.24C138.489 147.701 138.708 147.006 138.646 146.307C138.584 145.607 138.247 144.961 137.709 144.51V144.51C137.169 144.062 136.475 143.846 135.776 143.907C135.078 143.969 134.432 144.304 133.979 144.84L129.439 150.27L129.339 150.46H108.189V138.53" stroke="#252B2D" stroke-width="1.5" stroke-linecap="round" stroke-linejoin="round"/>
<path d="M183.73 159.07L165.57 132.52C164.018 129.979 161.839 127.881 159.242 126.426C156.645 124.97 153.717 124.207 150.74 124.21H136.99" stroke="#252B2D" stroke-width="1.5" stroke-linecap="round" stroke-linejoin="round"/>
<path d="M180.829 156.07H182.959C184.285 156.07 185.557 156.597 186.495 157.535C187.432 158.472 187.959 159.744 187.959 161.07H175.789C175.789 159.744 176.316 158.472 177.254 157.535C178.191 156.597 179.463 156.07 180.789 156.07H180.829Z" fill="white" stroke="#252B2D" stroke-width="1.5" stroke-linecap="round" stroke-linejoin="round"/>
<path d="M87.8496 161.28H190.42C190.928 161.28 191.431 161.38 191.901 161.575C192.37 161.769 192.797 162.054 193.156 162.414C193.515 162.773 193.801 163.2 193.995 163.669C194.19 164.139 194.29 164.642 194.29 165.15" stroke="#252B2D" stroke-width="1.5" stroke-linecap="round" stroke-linejoin="round"/>
<path d="M90.4609 120.24V104.21" stroke="#252B2D" stroke-width="1.5" stroke-linecap="round" stroke-linejoin="round"/>
<path d="M79.4102 50.36C90.4102 44.89 86.9902 29.29 86.9902 29.29C81.4902 5.77002 55.6002 10.37 55.6002 10.37C41.9702 12.37 35.2002 21.94 34.3902 33.27C32.7602 36.06 31.6802 36.27 31.6802 37.58C31.6828 38.221 31.9386 38.835 32.3919 39.2883C32.8451 39.7416 33.4591 39.9974 34.1002 40C34.3735 39.9965 34.6441 39.9458 34.9002 39.85C35.2861 41.1753 35.7811 42.4664 36.3802 43.71C36.7431 43.7342 37.1072 43.7342 37.4702 43.71C39.2841 43.6842 41.04 43.0661 42.4702 41.95C42.4702 41.95 44.6202 47.78 40.6602 50.32C43.7468 53.4961 47.7704 55.599 52.1402 56.32L56.3302 56.71V65.79H45.1302C42.0451 65.7877 39.0113 66.5784 36.3198 68.0861C33.6283 69.5938 31.3695 71.768 29.7602 74.4L21.6602 91V72.65H10.6602V98.51C10.6588 99.902 10.9317 101.281 11.4632 102.567C11.9947 103.854 12.7744 105.023 13.7578 106.008C14.7411 106.994 15.9089 107.775 17.1945 108.309C18.48 108.843 19.8581 109.119 21.2502 109.12C22.9876 109.119 24.6982 108.691 26.2311 107.873C27.764 107.055 29.0722 105.873 30.0402 104.43L41.1602 88V130.21" fill="white"/>
<path d="M79.4102 50.36C90.4102 44.89 86.9902 29.29 86.9902 29.29C81.4902 5.77002 55.6002 10.37 55.6002 10.37C41.9702 12.37 35.2002 21.94 34.3902 33.27C32.7602 36.06 31.6802 36.27 31.6802 37.58C31.6828 38.221 31.9386 38.835 32.3919 39.2883C32.8451 39.7416 33.4591 39.9974 34.1002 40C34.3735 39.9965 34.6441 39.9458 34.9002 39.85C35.2861 41.1753 35.7811 42.4664 36.3802 43.71C36.7431 43.7342 37.1072 43.7342 37.4702 43.71C39.2841 43.6842 41.04 43.0661 42.4702 41.95C42.4702 41.95 44.6202 47.78 40.6602 50.32C43.7468 53.4961 47.7704 55.599 52.1402 56.32L56.3302 56.71V65.79H45.1302C42.0451 65.7877 39.0113 66.5784 36.3198 68.0861C33.6283 69.5938 31.3695 71.768 29.7602 74.4L21.6602 91V72.65H10.6602V98.51C10.6588 99.902 10.9317 101.281 11.4632 102.567C11.9947 103.854 12.7744 105.023 13.7578 106.008C14.7411 106.994 15.9089 107.775 17.1945 108.309C18.48 108.843 19.8581 109.119 21.2502 109.12V109.12C22.9876 109.119 24.6982 108.691 26.2311 107.873C27.764 107.055 29.0722 105.873 30.0402 104.43L41.1602 88V130.21" stroke="#252B2D" stroke-width="1.5" stroke-linecap="round" stroke-linejoin="round"/>
<path d="M20.3605 64.3101V69.7701C20.3605 70.5003 20.0711 71.2008 19.5556 71.7181C19.0402 72.2355 18.3407 72.5274 17.6105 72.5301H13.7305" fill="white"/>
<path d="M20.3605 64.3101V69.7701C20.3605 70.5003 20.0711 71.2008 19.5556 71.7181C19.0402 72.2355 18.3407 72.5274 17.6105 72.5301H13.7305" stroke="#252B2D" stroke-width="1.5" stroke-linecap="round" stroke-linejoin="round"/>
<path d="M41.1602 32.73C41.1954 33.2217 41.4157 33.6819 41.7766 34.0178C42.1374 34.3537 42.6121 34.5404 43.1052 34.5404C43.5982 34.5404 44.0729 34.3537 44.4338 34.0178C44.7946 33.6819 45.0149 33.2217 45.0502 32.73" stroke="#252B2D" stroke-width="1.5" stroke-linecap="round" stroke-linejoin="round"/>
<path d="M62.25 30.8899C63.6825 30.9507 65.0361 31.5625 66.0283 32.5976C67.0204 33.6327 67.5743 35.0111 67.5743 36.4449C67.5743 37.8787 67.0204 39.257 66.0283 40.2922C65.0361 41.3273 63.6825 41.9391 62.25 41.9999" stroke="#252B2D" stroke-width="1.5" stroke-linecap="round" stroke-linejoin="round"/>
<path d="M62.7305 34.6699C63.2689 34.6699 63.7852 34.8838 64.1659 35.2645C64.5466 35.6452 64.7605 36.1615 64.7605 36.6999C64.7605 37.2383 64.5466 37.7547 64.1659 38.1353C63.7852 38.516 63.2689 38.7299 62.7305 38.7299" stroke="#252B2D" stroke-width="1.5" stroke-linecap="round" stroke-linejoin="round"/>
<path d="M42.7402 28.22C43.0481 27.9587 43.4164 27.7786 43.8117 27.6961C44.207 27.6136 44.6166 27.6313 45.0033 27.7476C45.39 27.8639 45.7414 28.0751 46.0256 28.362C46.3097 28.6488 46.5176 29.0023 46.6302 29.39" stroke="#252B2D" stroke-width="1.5" stroke-linecap="round" stroke-linejoin="round"/>
<path d="M45.0508 15.1101C46.6308 35.8701 63.7508 30.5301 63.7508 30.5301" stroke="#252B2D" stroke-width="1.5" stroke-linecap="round" stroke-linejoin="round"/>
<path d="M69.2998 92V75.72H47.5898V94.01" stroke="#16A1DC" stroke-width="1.5" stroke-linecap="round" stroke-linejoin="round"/>
<path d="M75.21 92.0001V71.3401H53.5V75.7201" stroke="#16A1DC" stroke-width="1.5" stroke-linecap="round" stroke-linejoin="round"/>
<path d="M4.44042 78.5299C4.1562 78.2882 3.92277 77.9925 3.75364 77.66C3.58452 77.3274 3.48307 76.9646 3.45516 76.5926C3.42726 76.2205 3.47346 75.8466 3.59109 75.4926C3.70872 75.1385 3.89543 74.8113 4.14042 74.5299L16.8204 59.9099L21.1004 63.5899L8.43042 78.2299C8.18884 78.5127 7.89372 78.7448 7.56204 78.9131C7.23037 79.0813 6.8687 79.1823 6.49784 79.2101C6.12699 79.238 5.75429 79.1923 5.40119 79.0755C5.04809 78.9588 4.72156 78.7734 4.44042 78.5299Z" fill="#16A1DC" stroke="#16A1DC" stroke-width="1.5" stroke-linecap="round" stroke-linejoin="round"/>
<path d="M24.1609 63.9899C28.7338 63.9899 32.4409 60.2828 32.4409 55.7099C32.4409 51.137 28.7338 47.4299 24.1609 47.4299C19.5879 47.4299 15.8809 51.137 15.8809 55.7099C15.8809 60.2828 19.5879 63.9899 24.1609 63.9899Z" fill="white" stroke="#16A1DC" stroke-width="1.5" stroke-linecap="round" stroke-linejoin="round"/>
<path d="M5.43039 65.9075L10.3698 60.9474C10.8432 60.4719 11.4862 60.204 12.1572 60.2026C12.8282 60.2012 13.4723 60.4664 13.9477 60.9399L14.7484 61.7373C15.876 62.8601 16.5113 64.3849 16.5147 65.9762C16.518 67.5675 15.8891 69.095 14.7662 70.2225C13.6433 71.3501 12.1185 71.9854 10.5272 71.9888C8.93594 71.9921 7.4085 71.3632 6.28093 70.2403L5.47313 69.4359C5.00789 68.9692 4.74311 68.3393 4.73512 67.6804C4.72714 67.0214 4.97659 66.3854 5.43039 65.9075Z" fill="white" stroke="#252B2D" stroke-width="1.5" stroke-linecap="round" stroke-linejoin="round"/>
<path d="M4.25 78.3501L1 81.5701" stroke="#16A1DC" stroke-width="1.5" stroke-linecap="round" stroke-linejoin="round"/>
<path d="M79.4099 50.36H72.9298C72.5925 50.3614 72.2583 50.2953 71.9469 50.1656C71.6355 50.036 71.3531 49.8453 71.1165 49.605C70.8798 49.3646 70.6936 49.0793 70.5688 48.7659C70.444 48.4525 70.3832 48.1173 70.3898 47.78C70.4498 45.06 70.1198 40.87 67.8398 38.73" fill="white"/>
<path d="M79.4099 50.36H72.9298C72.5925 50.3614 72.2583 50.2953 71.9469 50.1656C71.6355 50.036 71.3531 49.8453 71.1165 49.605C70.8798 49.3646 70.6936 49.0793 70.5688 48.7659C70.444 48.4525 70.3832 48.1173 70.3898 47.78C70.4498 45.06 70.1198 40.87 67.8398 38.73" stroke="#252B2D" stroke-width="1.5" stroke-linecap="round" stroke-linejoin="round"/>
<path d="M56.25 60.6599C56.25 60.6599 67.58 65.6599 79.37 60.6599" stroke="#252B2D" stroke-width="1.5" stroke-linecap="round" stroke-linejoin="round"/>
<path d="M82.6609 80.6501V93.0001H60.6609L60.5609 92.8001L55.8509 87.1801C55.3841 86.6232 54.7152 86.2744 53.9913 86.2107C53.2674 86.1469 52.5478 86.3733 51.9909 86.8401V86.8401C51.714 87.0705 51.4854 87.3533 51.3183 87.6724C51.1512 87.9915 51.0489 88.3405 51.0173 88.6993C50.9857 89.0581 51.0254 89.4196 51.1341 89.763C51.2429 90.1064 51.4185 90.4249 51.6509 90.7001L53.2509 93.0001H51.2509C49.7603 93.0001 48.3309 93.5922 47.2769 94.6462C46.223 95.7001 45.6309 97.1296 45.6309 98.6201C45.6388 100.105 46.2344 101.527 47.2875 102.575C48.3406 103.622 49.7655 104.21 51.2509 104.21H90.7509C91.5966 104.21 92.434 104.044 93.2153 103.72C93.9967 103.396 94.7066 102.922 95.3046 102.324C95.9026 101.726 96.377 101.016 96.7006 100.235C97.0243 99.4533 97.1909 98.6158 97.1909 97.7701V76.1301C97.1909 73.3931 96.1036 70.7681 94.1682 68.8328C92.2328 66.8974 89.6079 65.8101 86.8709 65.8101H79.4109V50.3601" stroke="#252B2D" stroke-width="1.5" stroke-linecap="round" stroke-linejoin="round"/>
<path d="M64.7598 104.05V92.97" stroke="#252B2D" stroke-width="1.5" stroke-linecap="round" stroke-linejoin="round"/>
<path d="M55.25 17.6399C55.25 17.6399 57.67 24.2799 63.77 24.2799" stroke="#252B2D" stroke-width="1.5" stroke-linecap="round" stroke-linejoin="round"/>
<path d="M174.71 51.65C174.715 49.7578 174.258 47.8929 173.378 46.218C172.497 44.543 171.221 43.1088 169.659 42.0405C168.097 40.9722 166.298 40.3022 164.418 40.0889C162.537 39.8755 160.634 40.1254 158.872 40.8166C157.111 41.5078 155.545 42.6195 154.312 44.0546C153.079 45.4897 152.215 47.2048 151.797 49.0502C151.378 50.8955 151.418 52.8153 151.912 54.6419C152.405 56.4686 153.339 58.1467 154.63 59.53H154.57V66.13C154.568 66.8859 154.716 67.6347 155.005 68.3335C155.293 69.0323 155.716 69.6673 156.25 70.2023C156.784 70.7373 157.419 71.1618 158.117 71.4513C158.815 71.7409 159.564 71.89 160.32 71.89H165.9C167.426 71.8873 168.888 71.2793 169.966 70.1994C171.044 69.1195 171.65 67.6559 171.65 66.13V59.53H171.58C173.585 57.3957 174.704 54.5787 174.71 51.65V51.65Z" stroke="#16A1DC" stroke-width="1.5" stroke-linecap="round" stroke-linejoin="round"/>
<path d="M163.11 75.8999C162.732 75.8986 162.357 75.8224 162.008 75.6757C161.659 75.529 161.342 75.3147 161.077 75.0452C160.811 74.7756 160.601 74.4561 160.459 74.1051C160.317 73.7541 160.246 73.3785 160.25 72.9999V71.8899H165.99V72.9999C165.994 73.3801 165.922 73.7574 165.779 74.1097C165.636 74.4621 165.425 74.7825 165.157 75.0523C164.889 75.3221 164.57 75.536 164.219 75.6815C163.867 75.827 163.49 75.9012 163.11 75.8999Z" fill="#16A1DC" stroke="#16A1DC" stroke-width="1.5" stroke-linecap="round" stroke-linejoin="round"/>
<path d="M155.08 67.6001H171.14" stroke="#16A1DC" stroke-width="1.5" stroke-linecap="round" stroke-linejoin="round"/>
<path d="M171.54 63.96H154.68" stroke="#16A1DC" stroke-width="1.5" stroke-linecap="round" stroke-linejoin="round"/>
<path d="M167.56 50.09L163.11 59.19V59.11L158.66 50.02" stroke="#16A1DC" stroke-width="1.5" stroke-linecap="round" stroke-linejoin="round"/>
<path d="M149.18 40.0499L142.9 37.8899" stroke="#16A1DC" stroke-width="1.5" stroke-linecap="round" stroke-linejoin="round"/>
<path d="M155.13 35.5801L151.58 29.3601" stroke="#16A1DC" stroke-width="1.5" stroke-linecap="round" stroke-linejoin="round"/>
<path d="M177.221 40.0499L183.501 37.8899" stroke="#16A1DC" stroke-width="1.5" stroke-linecap="round" stroke-linejoin="round"/>
<path d="M171.27 35.5801L174.82 29.3601" stroke="#16A1DC" stroke-width="1.5" stroke-linecap="round" stroke-linejoin="round"/>
<path d="M163.109 32.8601V25.8701" stroke="#16A1DC" stroke-width="1.5" stroke-linecap="round" stroke-linejoin="round"/>
<path d="M79.2507 132.35C76.8359 129.732 73.6987 127.889 70.2362 127.055C66.7736 126.22 63.1414 126.432 59.7992 127.663C56.457 128.894 53.555 131.088 51.4606 133.969C49.3662 136.85 48.1735 140.287 48.0335 143.846C47.8934 147.405 48.8123 150.925 50.6738 153.962C52.5354 156.998 55.2559 159.414 58.491 160.904C61.7262 162.394 65.3305 162.89 68.8479 162.33C72.3653 161.771 75.6376 160.18 78.2507 157.76C81.7484 154.52 83.8181 150.026 84.0056 145.262C84.1931 140.498 82.483 135.854 79.2507 132.35ZM76.2507 155.59C74.0642 157.59 71.3342 158.898 68.4052 159.348C65.4762 159.798 62.4795 159.371 59.7932 158.12C57.1069 156.869 54.8513 154.85 53.3112 152.318C51.771 149.787 51.0153 146.855 51.1393 143.895C51.2633 140.934 52.2615 138.076 54.0079 135.682C55.7544 133.288 58.1709 131.465 60.9524 130.443C63.7339 129.421 66.7559 129.245 69.6369 129.939C72.518 130.633 75.1291 132.164 77.1407 134.34C78.4823 135.791 79.5239 137.493 80.2056 139.349C80.8873 141.204 81.1957 143.175 81.113 145.15C81.0303 147.125 80.5581 149.064 79.7237 150.855C78.8893 152.647 77.709 154.256 76.2507 155.59Z" fill="white" stroke="#16A1DC" stroke-width="1.5" stroke-linecap="round" stroke-linejoin="round"/>
<path d="M55.0993 147.07C54.698 145.205 54.7702 143.27 55.3093 141.44" stroke="#16A1DC" stroke-width="1.5" stroke-linecap="round" stroke-linejoin="round"/>
<path d="M73.8301 153C71.6187 155.031 68.6915 156.102 65.6914 155.976C62.6914 155.851 59.8639 154.539 57.8301 152.33" stroke="#16A1DC" stroke-width="1.5" stroke-linecap="round" stroke-linejoin="round"/>
<path d="M81.9223 158.779L78.9038 161.553C78.0174 162.368 77.9593 163.747 78.7741 164.634L92.7625 179.851C93.5773 180.737 94.9564 180.796 95.8428 179.981L98.8612 177.206C99.7476 176.391 99.8057 175.012 98.9909 174.126L85.0025 158.908C84.1877 158.022 82.8086 157.964 81.9223 158.779Z" fill="white" stroke="#16A1DC" stroke-width="1.5" stroke-linecap="round" stroke-linejoin="round"/>
<path d="M78.9092 161.55L76.6992 159.14" stroke="#16A1DC" stroke-width="1.5" stroke-linecap="round" stroke-linejoin="round"/>
<path d="M82.1905 158.54L79.9805 156.13" stroke="#16A1DC" stroke-width="1.5" stroke-linecap="round" stroke-linejoin="round"/>
</svg>
