<svg width="179" height="182" viewBox="0 0 179 182" fill="none" xmlns="http://www.w3.org/2000/svg">
<path d="M123.779 52.1799C123.779 45.8125 122.097 39.5582 118.904 34.0492C115.712 28.5402 111.121 23.972 105.596 20.8065C100.071 17.6409 93.8085 15.9904 87.4413 16.0217C81.074 16.053 74.8279 17.765 69.3345 20.9847C63.8412 24.2044 59.2954 28.8175 56.1569 34.3576C53.0184 39.8977 51.3984 46.1683 51.4607 52.5353C51.5231 58.9024 53.2656 65.14 56.512 70.6176C59.7584 76.0952 64.3937 80.6184 69.949 83.7299C70.9883 85.8951 71.2841 88.3428 70.7905 90.6933C70.2969 93.0437 69.0415 95.1656 67.219 96.7299C71.0165 98.5069 75.3636 98.7058 79.3076 97.2831C83.2515 95.8603 86.4705 92.932 88.259 89.1399C88.389 88.8699 88.489 88.5899 88.599 88.3199C98.0157 88.0671 106.962 84.1485 113.533 77.3984C120.103 70.6484 123.78 61.6 123.779 52.1799Z" fill="white" stroke="#252B2D" stroke-width="1.5" stroke-linecap="round" stroke-linejoin="round"/>
<path d="M105.258 89.4299C105.258 83.0625 106.94 76.8082 110.132 71.2992C113.325 65.7902 117.916 61.222 123.441 58.0565C128.966 54.8909 135.228 53.2404 141.596 53.2717C147.963 53.303 154.209 55.015 159.702 58.2347C165.196 61.4544 169.741 66.0675 172.88 71.6076C176.018 77.1477 177.638 83.4183 177.576 89.7853C177.514 96.1524 175.771 102.39 172.525 107.868C169.278 113.345 164.643 117.868 159.088 120.98C158.048 123.145 157.753 125.593 158.246 127.943C158.74 130.294 159.995 132.416 161.818 133.98C159.934 134.865 157.893 135.37 155.814 135.466C153.734 135.562 151.656 135.247 149.698 134.54C147.74 133.832 145.941 132.745 144.404 131.342C142.866 129.938 141.621 128.245 140.738 126.36C140.608 126.09 140.508 125.81 140.398 125.54C130.994 125.275 122.064 121.355 115.503 114.613C108.942 107.871 105.267 98.8373 105.258 89.4299Z" fill="white" stroke="#16A1DC" stroke-width="1.5" stroke-linecap="round" stroke-linejoin="round"/>
<path d="M105.259 46.75C105.14 45.8905 104.709 45.1047 104.05 44.5409C103.39 43.9771 102.547 43.6744 101.679 43.69H86.0092C87.178 41.5405 88.1101 39.2705 88.7892 36.92L88.8892 36.55C89.168 35.659 89.109 34.6966 88.7235 33.8464C88.338 32.9961 87.653 32.3175 86.7992 31.94C86.3226 31.7477 85.8109 31.6578 85.2973 31.6759C84.7836 31.694 84.2795 31.8197 83.8176 32.045C83.3557 32.2703 82.9462 32.5902 82.6157 32.9838C82.2853 33.3774 82.0412 33.836 81.8992 34.33C81.1335 37.2128 80.0009 39.9855 78.5292 42.58C77.484 44.2627 76.1699 45.7626 74.6392 47.02C73.1209 48.3338 71.9147 49.9697 71.1085 51.8086C70.3024 53.6475 69.9166 55.6431 69.9792 57.65C70.1992 65.06 76.6292 70.78 84.0392 70.78H97.1192C97.9784 70.7997 98.8155 70.5062 99.4742 69.9542C100.133 69.4022 100.568 68.6294 100.699 67.78C100.748 67.3053 100.697 66.8257 100.549 66.3721C100.401 65.9185 100.159 65.501 99.8399 65.1466C99.5203 64.7922 99.13 64.5088 98.6941 64.3147C98.2582 64.1207 97.7864 64.0203 97.3092 64.02H98.6492C99.5301 64.0439 100.388 63.7384 101.056 63.1633C101.723 62.5881 102.153 61.7847 102.259 60.91C102.308 60.4358 102.257 59.9566 102.109 59.5035C101.961 59.0504 101.719 58.6335 101.399 58.2799C101.08 57.9263 100.689 57.6439 100.253 57.4509C99.8175 57.258 99.3459 57.1589 98.8692 57.16H100.259C101.133 57.1791 101.981 56.867 102.634 56.2864C103.287 55.7059 103.696 54.8997 103.779 54.03C103.823 53.2136 103.572 52.4087 103.073 51.7612C102.574 51.1136 101.86 50.6662 101.059 50.5H101.899C102.373 50.4954 102.84 50.3922 103.272 50.1969C103.704 50.0016 104.09 49.7185 104.406 49.3657C104.722 49.0129 104.961 48.5981 105.108 48.1477C105.255 47.6974 105.306 47.2213 105.259 46.75Z" fill="white" stroke="#252B2D" stroke-width="1.5" stroke-linecap="round" stroke-linejoin="round"/>
<path d="M101.029 50.5H93.8887" stroke="#252B2D" stroke-width="1.5" stroke-linecap="round" stroke-linejoin="round"/>
<path d="M99.5787 57.1399H93.8887" stroke="#252B2D" stroke-width="1.5" stroke-linecap="round" stroke-linejoin="round"/>
<path d="M97.4489 64.02H93.8789" stroke="#252B2D" stroke-width="1.5" stroke-linecap="round" stroke-linejoin="round"/>
<path d="M137.179 110.25C136.746 110.251 136.317 110.167 135.916 110.001C135.516 109.836 135.152 109.593 134.846 109.286C134.54 108.979 134.298 108.615 134.134 108.214C133.97 107.813 133.886 107.383 133.889 106.95C133.882 106.506 133.964 106.065 134.13 105.653C134.295 105.241 134.541 104.865 134.852 104.549C135.164 104.233 135.536 103.981 135.945 103.81C136.355 103.638 136.795 103.55 137.239 103.55C137.68 103.544 138.118 103.63 138.524 103.802C138.931 103.974 139.297 104.229 139.599 104.55C139.919 104.86 140.172 105.232 140.344 105.643C140.516 106.053 140.603 106.495 140.599 106.94C140.607 107.379 140.522 107.814 140.349 108.217C140.177 108.62 139.921 108.983 139.599 109.28C139.282 109.597 138.904 109.846 138.488 110.013C138.072 110.179 137.627 110.26 137.179 110.25ZM134.369 94.2501C134.325 92.7147 134.702 91.1964 135.459 89.8601C136.21 88.6434 137.156 87.5589 138.259 86.6501C139.388 85.6845 140.588 84.8053 141.849 84.0201C143.129 83.2201 144.319 82.4101 145.439 81.6001C146.475 80.8581 147.407 79.9802 148.209 78.9901C148.916 78.0796 149.287 76.9527 149.259 75.8001C149.279 75.1127 149.145 74.4296 148.869 73.8C148.592 73.1705 148.179 72.6104 147.659 72.1601C146.503 71.1836 145.021 70.68 143.509 70.7501C142.175 70.7022 140.86 71.0843 139.759 71.8401C139.296 72.1427 138.916 72.5566 138.654 73.044C138.392 73.5314 138.256 74.0767 138.259 74.6301C138.221 74.8955 138.255 75.1663 138.357 75.4143C138.459 75.6623 138.625 75.8784 138.839 76.0401C139.245 76.2785 139.674 76.4761 140.119 76.6301C140.567 76.7845 140.997 76.9891 141.399 77.2401C141.616 77.4285 141.783 77.6679 141.884 77.9367C141.985 78.2056 142.018 78.4954 141.979 78.7801C141.998 79.1354 141.939 79.4907 141.806 79.8207C141.673 80.1508 141.469 80.4475 141.209 80.6901C140.607 81.1858 139.837 81.4326 139.059 81.3801C138.376 81.3967 137.698 81.2679 137.069 81.0024C136.439 80.7369 135.874 80.3407 135.409 79.8401C134.926 79.329 134.548 78.7277 134.298 78.0705C134.047 77.4133 133.929 76.7131 133.949 76.0101C133.955 74.962 134.22 73.9317 134.719 73.0101C135.247 72.0466 135.961 71.197 136.819 70.5101C137.76 69.7744 138.823 69.2092 139.959 68.8401C141.193 68.4266 142.487 68.2205 143.789 68.2301C145.039 68.2119 146.282 68.4185 147.459 68.8401C148.491 69.2051 149.432 69.7878 150.219 70.5487C151.006 71.3097 151.62 72.231 152.019 73.2501C152.459 74.3603 152.677 75.5461 152.659 76.7401C152.699 78.3798 152.306 80.0011 151.519 81.4401C150.758 82.7666 149.797 83.9675 148.669 85.0001C147.527 86.0573 146.281 86.9955 144.949 87.8001C143.616 88.6134 142.376 89.4101 141.229 90.1901C140.199 90.8783 139.244 91.6726 138.379 92.5601C137.678 93.2453 137.275 94.1797 137.259 95.1601C137.259 96.5801 138.069 97.2901 139.699 97.2901C141.329 97.2901 142.699 96.3801 143.639 94.5701L145.069 95.4201C143.736 98.1868 141.769 99.5701 139.169 99.5701C138.512 99.6224 137.852 99.5314 137.234 99.3035C136.616 99.0756 136.055 98.7162 135.589 98.2501C134.7 97.1379 134.264 95.7304 134.369 94.3101V94.2501Z" fill="#16A1DC"/>
<path d="M147.598 5.97V4.66C147.598 3.68931 147.983 2.75837 148.67 2.07199C149.356 1.38561 150.287 1 151.258 1C152.228 1 153.159 1.38561 153.846 2.07199C154.532 2.75837 154.918 3.68931 154.918 4.66V5.97C157.972 6.78031 160.673 8.57602 162.602 11.0785C164.532 13.5809 165.581 16.6502 165.588 19.81V30.44C165.589 31.421 165.727 32.3972 165.998 33.34L168.488 36.96C168.637 37.1819 168.723 37.4403 168.736 37.7074C168.749 37.9744 168.689 38.2401 168.563 38.4756C168.436 38.7112 168.248 38.9078 168.018 39.0442C167.788 39.1807 167.525 39.2518 167.258 39.25H135.258C134.99 39.2494 134.728 39.1759 134.5 39.0375C134.271 38.8991 134.085 38.701 133.96 38.4644C133.836 38.2279 133.778 37.9619 133.793 37.695C133.809 37.4282 133.897 37.1706 134.048 36.95L136.538 33.33C136.809 32.3872 136.947 31.411 136.948 30.43V19.81C136.955 16.6533 138.002 13.5868 139.927 11.085C141.852 8.58327 144.548 6.78556 147.598 5.97Z" fill="white" stroke="#252B2D" stroke-width="1.5" stroke-miterlimit="10"/>
<path d="M144.488 39.25H158.038V39.41C158.04 40.3007 157.865 41.183 157.525 42.0061C157.185 42.8293 156.685 43.5773 156.055 44.2071C155.426 44.837 154.678 45.3363 153.854 45.6766C153.031 46.0168 152.149 46.1913 151.258 46.19C149.463 46.19 147.741 45.4767 146.471 44.2071C145.202 42.9375 144.488 41.2155 144.488 39.42V39.25Z" fill="white" stroke="#252B2D" stroke-width="1.5" stroke-miterlimit="10"/>
<path d="M127.768 15.93C128.556 12.5032 130.093 9.29314 132.268 6.53003" stroke="#252B2D" stroke-width="1.5" stroke-miterlimit="10"/>
<path d="M131.639 16.2499C132.053 14.4426 132.727 12.7046 133.639 11.0899C133.919 10.5999 134.209 10.0899 134.529 9.66992" stroke="#252B2D" stroke-width="1.5" stroke-miterlimit="10"/>
<path d="M174.369 15.93C173.579 12.5058 172.046 9.29684 169.879 6.53003" stroke="#252B2D" stroke-width="1.5" stroke-miterlimit="10"/>
<path d="M170.499 16.2499C170.085 14.4425 169.411 12.7045 168.499 11.0899C168.219 10.5999 167.919 10.0899 167.609 9.66992" stroke="#252B2D" stroke-width="1.5" stroke-miterlimit="10"/>
<path d="M32.139 160.98C34.2607 160.98 36.2955 160.137 37.7958 158.637C39.2961 157.136 40.139 155.102 40.139 152.98V121.63C40.139 120.556 39.7123 119.526 38.9528 118.766C38.1932 118.007 37.1631 117.58 36.089 117.58C35.0149 117.58 33.9847 118.007 33.2252 118.766C32.4657 119.526 32.039 120.556 32.039 121.63V115.25C32.0663 114.7 31.9816 114.151 31.7902 113.635C31.5987 113.12 31.3044 112.648 30.9252 112.25C30.546 111.851 30.0897 111.534 29.5841 111.317C29.0785 111.1 28.5341 110.988 27.984 110.988C27.4339 110.988 26.8895 111.1 26.3839 111.317C25.8783 111.534 25.422 111.851 25.0428 112.25C24.6635 112.648 24.3693 113.12 24.1778 113.635C23.9863 114.151 23.9017 114.7 23.929 115.25V130.25V108.45C23.8773 107.409 23.4275 106.428 22.6727 105.71C21.9179 104.992 20.9159 104.591 19.874 104.591C18.8321 104.591 17.83 104.992 17.0753 105.71C16.3205 106.428 15.8707 107.409 15.819 108.45V116.76C15.7673 115.719 15.3175 114.738 14.5627 114.02C13.8079 113.302 12.8059 112.901 11.764 112.901C10.7221 112.901 9.72005 113.302 8.96525 114.02C8.21046 114.738 7.76068 115.719 7.70898 116.76V130.76" stroke="#252B2D" stroke-width="1.5" stroke-linecap="round" stroke-linejoin="round"/>
<path d="M15.7676 116.71V130.14" stroke="#252B2D" stroke-width="1.5" stroke-linecap="round" stroke-linejoin="round"/>
<path d="M31.959 121.05V130.16" stroke="#252B2D" stroke-width="1.5" stroke-linecap="round" stroke-linejoin="round"/>
<path d="M18.1777 154.34C18.4753 153.1 18.4881 151.808 18.215 150.563C17.9419 149.317 17.3901 148.149 16.6009 147.147C15.8118 146.146 14.8058 145.336 13.6587 144.778C12.5115 144.221 11.253 143.931 9.97767 143.93H9.64767V134.25C9.64899 133.717 9.5452 133.19 9.34226 132.697C9.13931 132.204 8.8412 131.757 8.46499 131.38C8.08879 131.003 7.64187 130.703 7.14985 130.499C6.65783 130.295 6.13037 130.19 5.59767 130.19V130.19C4.5305 130.203 3.51166 130.637 2.76264 131.397C2.01361 132.158 1.59495 133.183 1.59767 134.25V152C1.59767 152.14 1.59767 152.49 1.59767 152.63C1.59767 157.04 3.77767 161.03 11.3777 161.03V169.25" stroke="#252B2D" stroke-width="1.5" stroke-linecap="round" stroke-linejoin="round"/>
<path d="M33.4277 160.98V169.26" stroke="#252B2D" stroke-width="1.5" stroke-linecap="round" stroke-linejoin="round"/>
<path d="M7.91797 180.97V170.84C7.91797 170.418 8.08549 170.014 8.38367 169.716C8.68185 169.418 9.08627 169.25 9.50797 169.25H34.858C35.0655 169.25 35.2709 169.291 35.4626 169.37C35.6543 169.45 35.8285 169.566 35.9752 169.713C36.1219 169.859 36.2383 170.034 36.3177 170.225C36.3971 170.417 36.438 170.623 36.438 170.83V180.96" stroke="#252B2D" stroke-width="1.5" stroke-linecap="round" stroke-linejoin="round"/>
<path d="M79.5982 160.98C81.7199 160.98 83.7548 160.137 85.2551 158.637C86.7553 157.136 87.5982 155.102 87.5982 152.98V121.63C87.5465 120.589 87.0967 119.608 86.3419 118.89C85.5871 118.172 84.5851 117.771 83.5432 117.771C82.5013 117.771 81.4993 118.172 80.7445 118.89C79.9897 119.608 79.5399 120.589 79.4882 121.63V115.25C79.5155 114.7 79.4308 114.151 79.2394 113.635C79.0479 113.12 78.7536 112.648 78.3744 112.25C77.9952 111.851 77.5389 111.534 77.0333 111.317C76.5277 111.1 75.9833 110.988 75.4332 110.988C74.8831 110.988 74.3387 111.1 73.8331 111.317C73.3275 111.534 72.8712 111.851 72.492 112.25C72.1128 112.648 71.8185 113.12 71.627 113.635C71.4356 114.151 71.3509 114.7 71.3782 115.25V130.25V108.45C71.3265 107.409 70.8767 106.428 70.1219 105.71C69.3671 104.992 68.3651 104.591 67.3232 104.591C66.2813 104.591 65.2793 104.992 64.5245 105.71C63.7697 106.428 63.3199 107.409 63.2682 108.45V116.76C63.2165 115.719 62.7667 114.738 62.0119 114.02C61.2571 113.302 60.2551 112.901 59.2132 112.901C58.1713 112.901 57.1693 113.302 56.4145 114.02C55.6597 114.738 55.2099 115.719 55.1582 116.76V130.76" stroke="#252B2D" stroke-width="1.5" stroke-linecap="round" stroke-linejoin="round"/>
<path d="M63.2285 116.71V130.14" stroke="#252B2D" stroke-width="1.5" stroke-linecap="round" stroke-linejoin="round"/>
<path d="M79.418 121.05V130.16" stroke="#252B2D" stroke-width="1.5" stroke-linecap="round" stroke-linejoin="round"/>
<path d="M65.638 154.34C65.9359 153.099 65.9485 151.807 65.6749 150.56C65.4012 149.314 64.8485 148.145 64.0582 147.143C63.2679 146.141 62.2607 145.332 61.1123 144.775C59.9639 144.218 58.7042 143.929 57.428 143.93C57.318 143.93 57.218 143.93 57.108 143.93V134.25C57.1094 133.717 57.0056 133.19 56.8026 132.697C56.5997 132.204 56.3016 131.757 55.9254 131.38C55.5492 131.003 55.1022 130.703 54.6102 130.499C54.1182 130.295 53.5907 130.19 53.058 130.19V130.19C51.9813 130.19 50.9486 130.618 50.1872 131.379C49.4258 132.14 48.998 133.173 48.998 134.25V152V152.63C48.998 157.04 51.188 161.03 58.788 161.03V169.25" stroke="#252B2D" stroke-width="1.5" stroke-linecap="round" stroke-linejoin="round"/>
<path d="M80.8789 160.98V169.26" stroke="#252B2D" stroke-width="1.5" stroke-linecap="round" stroke-linejoin="round"/>
<path d="M55.3789 180.97V170.84C55.3776 170.632 55.4175 170.425 55.4963 170.232C55.5751 170.039 55.6913 169.864 55.8382 169.716C55.985 169.569 56.1596 169.451 56.352 169.371C56.5443 169.291 56.7506 169.25 56.9589 169.25H82.3089C82.7289 169.25 83.1318 169.416 83.4297 169.712C83.7276 170.008 83.8963 170.41 83.8989 170.83V180.96" stroke="#252B2D" stroke-width="1.5" stroke-linecap="round" stroke-linejoin="round"/>
<path d="M127.059 160.98C128.109 160.98 129.15 160.773 130.12 160.371C131.091 159.969 131.973 159.38 132.716 158.637C133.459 157.894 134.048 157.012 134.45 156.041C134.852 155.071 135.059 154.03 135.059 152.98V121.63C135.007 120.589 134.557 119.608 133.803 118.89C133.048 118.172 132.046 117.771 131.004 117.771C129.962 117.771 128.96 118.172 128.205 118.89C127.45 119.608 127.001 120.589 126.949 121.63V115.25C126.976 114.7 126.892 114.151 126.7 113.635C126.509 113.12 126.214 112.648 125.835 112.25C125.456 111.851 125 111.534 124.494 111.317C123.988 111.1 123.444 110.988 122.894 110.988C122.344 110.988 121.799 111.1 121.294 111.317C120.788 111.534 120.332 111.851 119.953 112.25C119.573 112.648 119.279 113.12 119.088 113.635C118.896 114.151 118.812 114.7 118.839 115.25V130.25V108.45C118.839 107.376 118.412 106.346 117.653 105.586C116.893 104.827 115.863 104.4 114.789 104.4C113.715 104.4 112.685 104.827 111.925 105.586C111.166 106.346 110.739 107.376 110.739 108.45V116.76C110.687 115.719 110.237 114.738 109.483 114.02C108.728 113.302 107.726 112.901 106.684 112.901C105.642 112.901 104.64 113.302 103.885 114.02C103.13 114.738 102.681 115.719 102.629 116.76V130.76" fill="white"/>
<path d="M127.059 160.98C128.109 160.98 129.15 160.773 130.12 160.371C131.091 159.969 131.973 159.38 132.716 158.637C133.459 157.894 134.048 157.012 134.45 156.041C134.852 155.071 135.059 154.03 135.059 152.98V121.63C135.007 120.589 134.557 119.608 133.803 118.89C133.048 118.172 132.046 117.771 131.004 117.771C129.962 117.771 128.96 118.172 128.205 118.89C127.45 119.608 127.001 120.589 126.949 121.63V115.25C126.976 114.7 126.892 114.151 126.7 113.635C126.509 113.12 126.214 112.648 125.835 112.25C125.456 111.851 125 111.534 124.494 111.317C123.988 111.1 123.444 110.988 122.894 110.988C122.344 110.988 121.799 111.1 121.294 111.317C120.788 111.534 120.332 111.851 119.953 112.25C119.573 112.648 119.279 113.12 119.088 113.635C118.896 114.151 118.812 114.7 118.839 115.25V130.25V108.45C118.839 107.376 118.412 106.346 117.653 105.586C116.893 104.827 115.863 104.4 114.789 104.4C113.715 104.4 112.685 104.827 111.925 105.586C111.166 106.346 110.739 107.376 110.739 108.45V116.76C110.687 115.719 110.237 114.738 109.483 114.02C108.728 113.302 107.726 112.901 106.684 112.901C105.642 112.901 104.64 113.302 103.885 114.02C103.13 114.738 102.681 115.719 102.629 116.76V130.76" stroke="#252B2D" stroke-width="1.5" stroke-linecap="round" stroke-linejoin="round"/>
<path d="M110.688 116.71V130.14" stroke="#252B2D" stroke-width="1.5" stroke-linecap="round" stroke-linejoin="round"/>
<path d="M126.879 121.05V130.16" stroke="#252B2D" stroke-width="1.5" stroke-linecap="round" stroke-linejoin="round"/>
<path d="M113.089 154.34C113.387 153.1 113.399 151.808 113.126 150.563C112.853 149.317 112.301 148.149 111.512 147.147C110.723 146.146 109.717 145.336 108.57 144.778C107.423 144.221 106.164 143.931 104.889 143.93C104.779 143.93 104.679 143.93 104.569 143.93V134.25C104.569 133.184 104.15 132.16 103.401 131.4C102.653 130.64 101.635 130.206 100.569 130.19C100.032 130.183 99.4983 130.284 98.9999 130.485C98.5016 130.686 98.0481 130.984 97.6658 131.361C97.2834 131.739 96.9799 132.189 96.7728 132.685C96.5656 133.181 96.4589 133.713 96.459 134.25V152V152.63C96.459 157.04 98.649 161.03 106.249 161.03V169.25" fill="white"/>
<path d="M113.089 154.34C113.387 153.1 113.399 151.808 113.126 150.563C112.853 149.317 112.301 148.149 111.512 147.147C110.723 146.146 109.717 145.336 108.57 144.778C107.423 144.221 106.164 143.931 104.889 143.93C104.779 143.93 104.679 143.93 104.569 143.93V134.25C104.569 133.184 104.15 132.16 103.401 131.4C102.653 130.64 101.635 130.206 100.569 130.19V130.19C100.032 130.183 99.4983 130.284 98.9999 130.485C98.5016 130.686 98.0481 130.984 97.6658 131.361C97.2834 131.739 96.9799 132.189 96.7728 132.685C96.5656 133.181 96.4589 133.713 96.459 134.25V152V152.63C96.459 157.04 98.649 161.03 106.249 161.03V169.25" stroke="#252B2D" stroke-width="1.5" stroke-linecap="round" stroke-linejoin="round"/>
<path d="M128.338 160.98V169.26" stroke="#252B2D" stroke-width="1.5" stroke-linecap="round" stroke-linejoin="round"/>
<path d="M102.838 180.97V170.84C102.838 170.421 103.004 170.019 103.301 169.723C103.597 169.426 103.999 169.26 104.418 169.26H129.768C130.187 169.26 130.589 169.426 130.885 169.723C131.181 170.019 131.348 170.421 131.348 170.84V180.97" fill="white"/>
<path d="M102.838 180.97V170.84C102.838 170.421 103.004 170.019 103.301 169.723C103.597 169.426 103.999 169.26 104.418 169.26H129.768C130.187 169.26 130.589 169.426 130.885 169.723C131.181 170.019 131.348 170.421 131.348 170.84V180.97" stroke="#252B2D" stroke-width="1.5" stroke-linecap="round" stroke-linejoin="round"/>
<path d="M43.3083 49.0299C42.621 48.1468 41.7415 47.432 40.7364 46.9398C39.7314 46.4477 38.6273 46.1912 37.5083 46.1899C37.3083 46.1899 37.0983 46.1899 36.8983 46.1899C31.8183 46.5999 29.5483 52.8599 32.8983 56.6799L36.5883 60.8399L43.4783 68.6199L49.9683 61.0899L53.5783 56.8799C56.7583 53.2499 54.8483 47.3499 50.0783 46.5699C49.6812 46.5094 49.28 46.4793 48.8783 46.4799C47.8212 46.4801 46.7765 46.7079 45.8154 47.1479C44.8542 47.5879 43.9991 48.2298 43.3083 49.0299Z" fill="#16A1DC"/>
<path d="M43.3083 49.0299C42.621 48.1468 41.7415 47.432 40.7364 46.9398C39.7314 46.4477 38.6273 46.1912 37.5083 46.1899C37.3083 46.1899 37.0983 46.1899 36.8983 46.1899C31.8183 46.5999 29.5483 52.8599 32.8983 56.6799L36.5883 60.8399L43.4783 68.6199L49.9683 61.0899L53.5783 56.8799C56.7583 53.2499 54.8483 47.3499 50.0783 46.5699C49.6812 46.5094 49.28 46.4793 48.8783 46.4799C47.8212 46.4801 46.7765 46.7079 45.8154 47.1479C44.8542 47.5879 43.9991 48.2298 43.3083 49.0299" stroke="#16A1DC" stroke-width="1.5" stroke-linecap="round" stroke-linejoin="round"/>
<path d="M43.3083 82.4601C42.6231 81.574 41.7441 80.8564 40.7388 80.3624C39.7335 79.8685 38.6284 79.6111 37.5083 79.6101C37.3083 79.6101 37.0983 79.6101 36.8983 79.6101C31.8183 80.0201 29.5483 86.2801 32.8983 90.1001L36.6183 94.2501L43.5083 102.03L49.9983 94.5001L53.6083 90.2901C56.7583 86.6301 54.8483 80.7301 50.0783 79.9601C49.682 79.8912 49.2805 79.8578 48.8783 79.8601C47.8201 79.8595 46.7743 80.088 45.8128 80.5299C44.8513 80.9718 43.9969 81.6166 43.3083 82.4201" fill="#16A1DC"/>
<path d="M43.3083 82.4601C42.6231 81.574 41.7441 80.8564 40.7388 80.3624C39.7335 79.8685 38.6284 79.6111 37.5083 79.6101C37.3083 79.6101 37.0983 79.6101 36.8983 79.6101C31.8183 80.0201 29.5483 86.2801 32.8983 90.1001L36.6183 94.2501L43.5083 102.03L49.9983 94.5001L53.6083 90.2901C56.7583 86.6301 54.8483 80.7301 50.0783 79.9601C49.682 79.8912 49.2805 79.8578 48.8783 79.8601C47.8201 79.8595 46.7743 80.088 45.8128 80.5299C44.8513 80.9718 43.9969 81.6166 43.3083 82.4201" stroke="#16A1DC" stroke-width="1.5" stroke-linecap="round" stroke-linejoin="round"/>
<path d="M12.9985 64.5099C12.3107 63.6249 11.4296 62.9088 10.4226 62.4166C9.41558 61.9244 8.30933 61.669 7.18846 61.6699H6.58846C1.49846 62.0899 -0.771543 68.3399 2.58846 72.1599L6.25846 76.3399L13.1585 84.1299L19.6385 76.5899L23.2585 72.3899C26.4085 68.7199 24.4985 62.8299 19.7285 62.0499C19.3316 61.986 18.9304 61.9526 18.5285 61.9499C17.4705 61.9506 16.4251 62.1797 15.4638 62.6215C14.5025 63.0633 13.6479 63.7075 12.9585 64.5099" fill="#16A1DC"/>
<path d="M12.9985 64.5099C12.3107 63.6249 11.4296 62.9088 10.4226 62.4166C9.41558 61.9244 8.30933 61.669 7.18846 61.6699H6.58846C1.49846 62.0899 -0.771543 68.3399 2.58846 72.1599L6.25846 76.3399L13.1585 84.1299L19.6385 76.5899L23.2585 72.3899C26.4085 68.7199 24.4985 62.8299 19.7285 62.0499C19.3316 61.986 18.9304 61.9526 18.5285 61.9499C17.4705 61.9506 16.4251 62.1797 15.4638 62.6215C14.5025 63.0633 13.6479 63.7075 12.9585 64.5099" stroke="#16A1DC" stroke-width="1.5" stroke-linecap="round" stroke-linejoin="round"/>
<path d="M24.5176 66.2001L35.2376 59.3101" stroke="#16A1DC" stroke-width="1.5" stroke-linecap="round" stroke-linejoin="round"/>
<path d="M19.6777 76.5901L31.3177 84.1301" stroke="#16A1DC" stroke-width="1.5" stroke-linecap="round" stroke-linejoin="round"/>
</svg>
