<svg width="182" height="180" viewBox="0 0 182 180" fill="none" xmlns="http://www.w3.org/2000/svg">
<path d="M125.961 60.06C139.856 60.06 151.121 48.7955 151.121 34.9C151.121 21.0045 139.856 9.73999 125.961 9.73999C112.065 9.73999 100.801 21.0045 100.801 34.9C100.801 48.7955 112.065 60.06 125.961 60.06Z" stroke="#252B2D" stroke-width="1.5" stroke-miterlimit="10"/>
<path d="M123.911 20.5801L137.111 33.7801C137.258 33.9269 137.376 34.1014 137.455 34.2936C137.535 34.4858 137.576 34.6919 137.576 34.9001C137.576 35.1082 137.535 35.3143 137.455 35.5065C137.376 35.6987 137.258 35.8732 137.111 36.0201L123.911 49.2501C123.69 49.4722 123.408 49.6235 123.101 49.685C122.793 49.7464 122.475 49.7151 122.186 49.595C121.896 49.475 121.649 49.2716 121.475 49.0108C121.302 48.7499 121.21 48.4434 121.211 48.1301V21.7001C121.21 21.3868 121.302 21.0802 121.475 20.8194C121.649 20.5585 121.896 20.3551 122.186 20.2351C122.475 20.115 122.793 20.0837 123.101 20.1452C123.408 20.2066 123.69 20.358 123.911 20.5801V20.5801Z" stroke="#252B2D" stroke-width="1.5" stroke-miterlimit="10"/>
<path d="M25.8009 45.25H21.0309C20.4156 45.25 19.8255 45.0056 19.3905 44.5705C18.9554 44.1354 18.7109 43.5453 18.7109 42.93V3.32C18.7109 2.7047 18.9554 2.1146 19.3905 1.67951C19.8255 1.24443 20.4156 1 21.0309 1H69.3009C69.9162 1 70.5063 1.24443 70.9414 1.67951C71.3765 2.1146 71.6209 2.7047 71.6209 3.32V9.32" stroke="#252B2D" stroke-width="1.5" stroke-miterlimit="10"/>
<path d="M25.9509 52.0401H13.9509C13.3356 52.0401 12.7455 51.7957 12.3104 51.3606C11.8753 50.9255 11.6309 50.3354 11.6309 49.7201V10.1601C11.6309 9.54479 11.8753 8.95468 12.3104 8.5196C12.7455 8.08452 13.3356 7.84009 13.9509 7.84009H18.7109" stroke="#252B2D" stroke-width="1.5" stroke-miterlimit="10"/>
<path d="M25.8008 33.26L40.0908 18.96L58.4008 37.28" stroke="#252B2D" stroke-width="1.5" stroke-miterlimit="10"/>
<path d="M41.7891 53.5199L63.8891 31.4199L78.6991 46.2299" stroke="#252B2D" stroke-width="1.5" stroke-miterlimit="10"/>
<path d="M66.8193 25.06C69.4647 25.06 71.6093 22.9154 71.6093 20.27C71.6093 17.6245 69.4647 15.48 66.8193 15.48C64.1739 15.48 62.0293 17.6245 62.0293 20.27C62.0293 22.9154 64.1739 25.06 66.8193 25.06Z" stroke="#252B2D" stroke-width="1.5" stroke-linecap="round" stroke-linejoin="round"/>
<path d="M76.3908 9.32007H28.1208C26.8395 9.32007 25.8008 10.3588 25.8008 11.6401V51.2001C25.8008 52.4814 26.8395 53.5201 28.1208 53.5201H76.3908C77.6721 53.5201 78.7108 52.4814 78.7108 51.2001V11.6401C78.7108 10.3588 77.6721 9.32007 76.3908 9.32007Z" stroke="#252B2D" stroke-width="1.5" stroke-miterlimit="10"/>
<path d="M29.5801 175.08H114.44C116.173 175.081 117.888 174.741 119.489 174.079C121.09 173.416 122.545 172.445 123.77 171.22C124.995 169.995 125.966 168.54 126.629 166.939C127.291 165.338 127.631 163.622 127.63 161.89V56.3399C127.63 53.9769 126.691 51.7106 125.02 50.0396C123.349 48.3687 121.083 47.4299 118.72 47.4299H43.6001C39.887 47.4299 36.3261 48.9049 33.7006 51.5304C31.0751 54.1559 29.6001 57.7169 29.6001 61.4299V160.61" fill="white"/>
<path d="M29.5801 175.08H114.44C116.173 175.081 117.888 174.741 119.489 174.079C121.09 173.416 122.545 172.445 123.77 171.22C124.995 169.995 125.966 168.54 126.629 166.939C127.291 165.338 127.631 163.622 127.63 161.89V56.3399C127.63 53.9769 126.691 51.7106 125.02 50.0396C123.349 48.3687 121.083 47.4299 118.72 47.4299H43.6001C39.887 47.4299 36.3261 48.9049 33.7006 51.5304C31.0751 54.1559 29.6001 57.7169 29.6001 61.4299V160.61" stroke="#252B2D" stroke-width="1.5" stroke-linejoin="round"/>
<path d="M43.9804 47.4299C47.6934 47.4299 51.2544 48.9049 53.8799 51.5304C56.5054 54.1559 57.9804 57.7169 57.9804 61.4299V69.4299H138.28V61.4299C138.28 57.7169 136.805 54.1559 134.18 51.5304C131.554 48.9049 127.993 47.4299 124.28 47.4299H43.6504" fill="white"/>
<path d="M43.9804 47.4299C47.6934 47.4299 51.2544 48.9049 53.8799 51.5304C56.5054 54.1559 57.9804 57.7169 57.9804 61.4299V69.4299H138.28V61.4299C138.28 57.7169 136.805 54.1559 134.18 51.5304C131.554 48.9049 127.993 47.4299 124.28 47.4299H43.6504" stroke="#252B2D" stroke-width="1.5" stroke-linejoin="round"/>
<path d="M29.58 161.06V153.06H1V161.06C1 164.773 2.475 168.334 5.1005 170.96C7.72601 173.585 11.287 175.06 15 175.06H43.9" fill="white"/>
<path d="M29.58 161.06V153.06H1V161.06C1 164.773 2.475 168.334 5.1005 170.96C7.72601 173.585 11.287 175.06 15 175.06H43.9" stroke="#252B2D" stroke-width="1.5" stroke-linejoin="round"/>
<path d="M15.4492 175.08C19.1622 175.08 22.7232 173.605 25.3487 170.98C27.9742 168.354 29.4492 164.793 29.4492 161.08V153.08" fill="white"/>
<path d="M15.4492 175.08C19.1622 175.08 22.7232 173.605 25.3487 170.98C27.9742 168.354 29.4492 164.793 29.4492 161.08V153.08" stroke="#252B2D" stroke-width="1.5" stroke-linejoin="round"/>
<path d="M100.389 83.3H57.1992V126.49H100.389V83.3Z" fill="#16A1DC"/>
<path d="M66.9707 95.3001L67.7107 89.8101H90.6107L89.8707 95.3001H81.6307L78.1107 119.99H71.7207L75.2507 95.3001H66.9707Z" fill="white"/>
<path d="M56.0293 156.89L57.8693 153.29H58.6093L59.4493 156.89H58.7193L58.5393 156.01H57.1693L56.7493 156.89H56.0293ZM57.4793 155.4H58.4093L58.1393 154.09L57.4793 155.4Z" fill="#16A1DC"/>
<path d="M60.3691 156.89L60.8791 153.29H61.8791C62.1996 153.266 62.5206 153.329 62.8091 153.47C62.9021 153.532 62.977 153.617 63.0262 153.717C63.0754 153.817 63.0971 153.929 63.0891 154.04C63.0934 154.288 63.0238 154.532 62.8891 154.74C62.7574 154.924 62.567 155.058 62.3491 155.12C62.4012 155.144 62.4466 155.18 62.4815 155.225C62.5164 155.27 62.5396 155.324 62.5491 155.38L62.7791 156.17C62.7791 156.22 62.7791 156.25 62.8791 156.28C62.9589 156.29 63.0394 156.29 63.1191 156.28L62.9291 156.87H62.7891C62.6415 156.874 62.4957 156.836 62.3691 156.76C62.2491 156.681 62.1634 156.56 62.1291 156.42L61.9091 155.58C61.8935 155.524 61.8699 155.47 61.8391 155.42C61.8098 155.38 61.7673 155.352 61.7191 155.34C61.633 155.327 61.5453 155.327 61.4591 155.34H61.2491L61.0291 156.85L60.3691 156.89ZM61.3691 154.77H61.7091H61.9491C62.029 154.749 62.1061 154.719 62.1791 154.68C62.2492 154.643 62.3079 154.588 62.3491 154.52C62.3975 154.45 62.422 154.365 62.4191 154.28C62.4213 154.229 62.4105 154.179 62.3877 154.133C62.365 154.088 62.3311 154.049 62.2891 154.02C62.1742 153.953 62.0419 153.922 61.9091 153.93H61.4991L61.3691 154.77Z" fill="#16A1DC"/>
<path d="M63.9899 155.42C63.9884 155.118 64.0461 154.819 64.1599 154.54C64.2634 154.28 64.4201 154.045 64.6199 153.85C64.8173 153.655 65.052 153.502 65.3099 153.4C65.5849 153.296 65.8761 153.242 66.1699 153.24C66.5534 153.234 66.9331 153.316 67.2799 153.48L66.9199 154.08C66.6715 153.943 66.3937 153.867 66.1099 153.86C65.911 153.855 65.7133 153.893 65.5299 153.97C65.362 154.044 65.212 154.153 65.0899 154.29C64.9713 154.425 64.8796 154.581 64.8199 154.75C64.7512 154.929 64.7173 155.119 64.7199 155.31C64.7125 155.445 64.7326 155.581 64.779 155.708C64.8254 155.835 64.8972 155.951 64.9899 156.05C65.0889 156.146 65.2066 156.22 65.3357 156.268C65.4648 156.317 65.6024 156.338 65.7399 156.33C65.8928 156.348 66.0471 156.348 66.1999 156.33L66.3799 155.05H67.0799L66.8299 156.81C66.4457 156.918 66.049 156.975 65.6499 156.98C65.207 157.008 64.7703 156.865 64.4299 156.58C64.277 156.43 64.1585 156.249 64.0825 156.048C64.0066 155.848 63.975 155.634 63.9899 155.42Z" fill="#16A1DC"/>
<path d="M68 156.89L68.51 153.29H70.66L70.58 153.9H69.11L69 154.72H70.42L70.33 155.33H68.92L68.78 156.28H70.25L70.17 156.89H68Z" fill="#16A1DC"/>
<path d="M71.3301 156.89L71.8401 153.29H72.5401L72.4801 153.74L73.7901 155.04L74.0401 153.29H74.7401L74.2201 156.89H73.5201L73.6701 155.89L72.3601 154.59L72.0301 156.89H71.3301Z" fill="#16A1DC"/>
<path d="M75.5508 153.9L75.6408 153.29H78.2508L78.1608 153.9H77.2408L76.8208 156.9H76.1108L76.5308 153.9H75.5508Z" fill="#16A1DC"/>
<path d="M78.5898 156.89L79.0898 153.29H79.8098L79.3098 156.89H78.5898Z" fill="#16A1DC"/>
<path d="M80.5391 156.89L81.0491 153.29H81.7491L81.6891 153.74L82.9991 155.04L83.2491 153.25H83.9391L83.4191 156.85H82.7191L82.8691 155.85L81.5591 154.55L81.2291 156.85L80.5391 156.89Z" fill="#16A1DC"/>
<path d="M84.6994 155.43C84.7004 155.133 84.7546 154.838 84.8594 154.56C84.9641 154.303 85.113 154.066 85.2994 153.86C85.4934 153.668 85.7203 153.512 85.9694 153.4C86.2357 153.29 86.5215 153.236 86.8094 153.24C87.0195 153.229 87.2297 153.26 87.4273 153.332C87.625 153.405 87.8059 153.516 87.9594 153.66C88.1045 153.805 88.2177 153.978 88.2918 154.17C88.3658 154.361 88.3991 154.565 88.3894 154.77C88.3892 155.053 88.3419 155.333 88.2494 155.6C88.1528 155.852 88.0141 156.085 87.8394 156.29C87.6518 156.495 87.4236 156.658 87.1694 156.77C86.8883 156.89 86.5848 156.947 86.2794 156.94C86.0692 156.953 85.8586 156.924 85.6595 156.856C85.4605 156.787 85.2769 156.68 85.1194 156.54C84.9761 156.394 84.8647 156.22 84.7924 156.029C84.7201 155.838 84.6884 155.634 84.6994 155.43ZM85.4294 155.33C85.4206 155.462 85.4382 155.595 85.4811 155.72C85.5241 155.845 85.5915 155.961 85.6794 156.06C85.7687 156.151 85.8764 156.223 85.9953 156.269C86.1143 156.316 86.2418 156.337 86.3694 156.33C86.5497 156.331 86.7276 156.29 86.8894 156.21C87.0488 156.132 87.1888 156.019 87.2994 155.88C87.4125 155.741 87.5036 155.586 87.5694 155.42C87.6293 155.243 87.6597 155.057 87.6594 154.87C87.6707 154.604 87.5815 154.343 87.4094 154.14C87.3228 154.044 87.216 153.968 87.0968 153.918C86.9775 153.868 86.8487 153.845 86.7194 153.85C86.4845 153.85 86.2548 153.92 86.0594 154.05C85.8631 154.188 85.7049 154.374 85.5994 154.59C85.4823 154.819 85.4238 155.073 85.4294 155.33Z" fill="#16A1DC"/>
<path d="M51.7891 136.75L52.2591 133.52H55.6191L55.1391 136.75H51.7891Z" fill="#252B2D"/>
<path d="M36.8008 136.75L37.2408 133.52H50.7108L50.2508 136.75H45.4308L43.3608 151.25H39.6008L41.6708 136.72L36.8008 136.75Z" fill="#252B2D"/>
<path d="M50.111 148.67C50.0984 148.527 50.0984 148.383 50.111 148.24L51.531 138.09H54.881L53.551 147.65C53.5545 147.673 53.5545 147.697 53.551 147.72V147.78C53.551 147.886 53.5776 147.99 53.6283 148.082C53.679 148.175 53.7521 148.253 53.841 148.31C54.1517 148.49 54.4893 148.618 54.841 148.69L53.351 151.58C52.501 151.521 51.6903 151.2 51.031 150.66C50.7359 150.421 50.4996 150.117 50.3402 149.772C50.1807 149.427 50.1023 149.05 50.111 148.67Z" fill="#252B2D"/>
<path d="M56.3 145.86C56.2975 144.792 56.4978 143.733 56.89 142.74C57.2572 141.793 57.8001 140.925 58.4901 140.18C59.1856 139.448 60.018 138.861 60.94 138.45C61.9043 138.026 62.9466 137.808 64.0001 137.81C64.7298 137.753 65.4632 137.855 66.15 138.108C66.8369 138.361 67.4609 138.759 67.9794 139.276C68.498 139.793 68.8987 140.415 69.1543 141.101C69.4098 141.787 69.5141 142.52 69.46 143.25V143.38L67.1801 145.95H59.8301C59.8449 146.314 59.9341 146.672 60.0924 147C60.2506 147.329 60.4744 147.621 60.7501 147.86C61.3676 148.385 62.1598 148.66 62.9701 148.63C63.7156 148.621 64.4575 148.524 65.1801 148.34C65.8345 148.202 66.4694 147.984 67.0701 147.69L67.64 150.42C65.9412 151.165 64.1052 151.547 62.2501 151.54C61.4444 151.595 60.6359 151.487 59.873 151.223C59.1101 150.958 58.4084 150.542 57.8101 150C57.29 149.449 56.8879 148.798 56.6282 148.086C56.3686 147.374 56.2569 146.616 56.3 145.86ZM60.3 143.11H66.45C66.4265 142.449 66.1435 141.825 65.6623 141.372C65.1812 140.919 64.5408 140.674 63.8801 140.69C63.0916 140.698 62.3254 140.953 61.69 141.42C61.0422 141.815 60.5376 142.408 60.2501 143.11H60.3Z" fill="#252B2D"/>
<path d="M70.4199 151.25L72.2499 138.09H75.4199L75.3999 139.25C75.8879 138.878 76.4183 138.566 76.9799 138.32C77.5362 138.055 78.1438 137.915 78.7599 137.91C79.4445 137.9 80.1243 138.026 80.7599 138.28C81.3371 138.494 81.8286 138.891 82.1599 139.41C82.7636 138.999 83.4151 138.663 84.0999 138.41C84.8473 138.097 85.6497 137.937 86.4599 137.94C89.0266 137.94 90.3133 139.243 90.3199 141.85C90.3051 142.373 90.255 142.894 90.1699 143.41L89.5299 147.84C89.5272 147.941 89.5518 148.04 89.6011 148.129C89.6504 148.217 89.7225 148.29 89.8099 148.34C90.1276 148.505 90.4631 148.632 90.8099 148.72L89.3099 151.61C88.4662 151.552 87.6602 151.238 86.9999 150.71C86.7066 150.468 86.4729 150.162 86.3168 149.815C86.1608 149.468 86.0866 149.09 86.0999 148.71C86.087 148.564 86.087 148.416 86.0999 148.27L86.7699 143.44C86.8193 143.166 86.8427 142.888 86.8399 142.61C86.8399 141.5 86.3599 140.95 85.3899 140.95C84.8799 140.969 84.3836 141.121 83.9499 141.39C83.4768 141.673 83.0373 142.008 82.6399 142.39C82.6399 142.58 82.6399 142.93 82.5399 143.39L81.4199 151.25H78.0499L79.1599 143.35C79.1999 142.99 79.2199 142.74 79.2199 142.6C79.2199 141.44 78.7199 140.86 77.7199 140.86C77.2117 140.887 76.7206 141.053 76.2999 141.34C75.8423 141.623 75.4194 141.959 75.0399 142.34L73.7799 151.25H70.4199Z" fill="#252B2D"/>
<path d="M91.4492 156.84L94.0892 138.09H97.0192V138.88C97.5062 138.574 98.0305 138.332 98.5792 138.16C99.1914 137.953 99.8329 137.845 100.479 137.84C101.192 137.808 101.904 137.929 102.566 138.194C103.228 138.46 103.826 138.864 104.319 139.38C105.296 140.476 105.803 141.913 105.729 143.38C105.76 144.817 105.416 146.237 104.729 147.5C104.026 148.758 102.988 149.797 101.729 150.5C100.428 151.237 98.9542 151.613 97.4592 151.59C96.7852 151.606 96.1122 151.528 95.4592 151.36L94.6692 156.92L91.4492 156.84ZM95.9792 148.3C96.5686 148.542 97.2023 148.658 97.8392 148.64C98.4487 148.638 99.0504 148.504 99.6029 148.247C100.155 147.989 100.645 147.615 101.039 147.15C101.909 146.236 102.392 145.022 102.389 143.76C102.432 142.992 102.178 142.236 101.679 141.65C101.411 141.374 101.086 141.161 100.727 141.024C100.368 140.888 99.9826 140.832 99.5992 140.86C99.0758 140.87 98.5594 140.982 98.0792 141.19C97.648 141.352 97.2435 141.578 96.8792 141.86L95.9792 148.3Z" fill="#252B2D"/>
<path d="M106.71 145.94C106.684 144.494 107.028 143.065 107.71 141.79C108.37 140.574 109.353 139.563 110.55 138.87C111.795 138.16 113.207 137.794 114.64 137.81C115.435 137.765 116.231 137.88 116.981 138.146C117.731 138.412 118.421 138.825 119.01 139.36C119.548 139.898 119.968 140.542 120.244 141.251C120.519 141.961 120.644 142.72 120.61 143.48C120.613 144.311 120.502 145.139 120.28 145.94C120.061 146.723 119.724 147.468 119.28 148.15C118.846 148.822 118.309 149.423 117.69 149.93C117.027 150.448 116.279 150.847 115.48 151.11C114.583 151.404 113.644 151.55 112.7 151.54C111.091 151.632 109.509 151.094 108.29 150.04C107.75 149.508 107.33 148.868 107.057 148.161C106.785 147.454 106.666 146.696 106.71 145.94ZM110.11 145.39C110.069 146.245 110.359 147.083 110.92 147.73C111.205 148.028 111.551 148.261 111.934 148.413C112.317 148.565 112.728 148.632 113.14 148.61C113.695 148.613 114.243 148.49 114.743 148.251C115.244 148.012 115.683 147.663 116.03 147.23C116.821 146.342 117.249 145.189 117.23 144C117.264 143.146 116.975 142.31 116.42 141.66C116.148 141.356 115.813 141.117 115.438 140.958C115.063 140.799 114.657 140.724 114.25 140.74C113.693 140.737 113.142 140.857 112.638 141.092C112.133 141.327 111.686 141.672 111.33 142.1C110.516 142.999 110.079 144.177 110.11 145.39Z" fill="#252B2D"/>
<path d="M134.401 166.32L149.801 135.82C150.383 134.646 150.475 133.29 150.057 132.048C149.638 130.807 148.744 129.782 147.571 129.2C146.397 128.618 145.04 128.526 143.799 128.944C142.558 129.362 141.533 130.256 140.951 131.43L125.551 161.93L134.401 166.32Z" fill="white" stroke="#16A1DC" stroke-width="1.5" stroke-miterlimit="10"/>
<path d="M138.59 136.2L147.44 140.58" stroke="#16A1DC" stroke-width="1.5" stroke-miterlimit="10"/>
<path d="M129.58 153.81L138.43 158.19" stroke="#16A1DC" stroke-width="1.5" stroke-miterlimit="10"/>
<path d="M148.84 137.76L151.21 138.93C151.966 139.304 152.543 139.963 152.813 140.762C153.083 141.561 153.024 142.434 152.65 143.19L146.65 155.24" stroke="#16A1DC" stroke-width="1.5" stroke-miterlimit="10"/>
<path d="M122.9 178.4C122.9 178.4 131.01 173.31 132.24 170.83C132.531 170.239 132.704 169.597 132.747 168.939C132.79 168.282 132.703 167.622 132.492 166.998C132.28 166.374 131.947 165.798 131.513 165.302C131.079 164.807 130.551 164.402 129.96 164.11C129.369 163.819 128.726 163.646 128.069 163.603C127.411 163.56 126.752 163.647 126.128 163.858C125.504 164.07 124.928 164.403 124.432 164.837C123.937 165.271 123.531 165.799 123.24 166.39C122.04 168.87 122.9 178.4 122.9 178.4Z" fill="white" stroke="#16A1DC" stroke-width="1.5" stroke-miterlimit="10"/>
<path d="M126.44 171.26L122.9 178.4" stroke="#16A1DC" stroke-width="1.5" stroke-miterlimit="10"/>
<path d="M145.311 122.52C158.201 122.52 168.651 112.07 168.651 99.1801C168.651 86.2898 158.201 75.8401 145.311 75.8401C132.42 75.8401 121.971 86.2898 121.971 99.1801C121.971 112.07 132.42 122.52 145.311 122.52Z" fill="white" stroke="#252B2D" stroke-width="1.5" stroke-miterlimit="10"/>
<path d="M145.311 69.5801C150.903 69.5789 156.381 71.162 161.111 74.1461C165.841 77.1302 169.629 81.3931 172.035 86.4411C174.442 91.4892 175.37 97.1158 174.71 102.669C174.051 108.223 171.832 113.476 168.311 117.82" stroke="#252B2D" stroke-width="1.5" stroke-miterlimit="10"/>
<path d="M145.311 63.8601C151.947 63.8607 158.448 65.7307 164.071 69.256C169.693 72.7813 174.208 77.8192 177.099 83.7925C179.991 89.7657 181.14 96.4326 180.417 103.029C179.694 109.626 177.127 115.885 173.011 121.09" stroke="#252B2D" stroke-width="1.5" stroke-miterlimit="10"/>
<path d="M154.751 91.8602C154.751 86.6466 150.527 82.4202 145.316 82.4202C140.105 82.4202 135.881 86.6466 135.881 91.8602V101.35C135.881 106.564 140.105 110.79 145.316 110.79C150.527 110.79 154.751 106.564 154.751 101.35V91.8602Z" stroke="#252B2D" stroke-width="1.5" stroke-miterlimit="10"/>
<path d="M136.182 90.5H154.452" stroke="#252B2D" stroke-width="1.5" stroke-miterlimit="10"/>
<path d="M136.182 96.8901H154.452" stroke="#252B2D" stroke-width="1.5" stroke-miterlimit="10"/>
<path d="M136.182 103.28H154.452" stroke="#252B2D" stroke-width="1.5" stroke-miterlimit="10"/>
<path d="M146.831 110.78V114.44H149.051C149.651 114.443 150.226 114.683 150.649 115.108C151.073 115.534 151.311 116.11 151.311 116.71V117.59H139.311V116.71C139.311 116.108 139.55 115.531 139.975 115.105C140.401 114.679 140.979 114.44 141.581 114.44H143.581V110.78" stroke="#252B2D" stroke-width="1.5" stroke-miterlimit="10"/>
</svg>
