<svg width="173" height="183" viewBox="0 0 173 183" fill="none" xmlns="http://www.w3.org/2000/svg">
<path d="M153.651 144.444H93.5909C92.0942 144.444 90.8809 145.655 90.8809 147.149C90.8809 148.643 92.0942 149.854 93.5909 149.854H153.651C155.148 149.854 156.361 148.643 156.361 147.149C156.361 145.655 155.148 144.444 153.651 144.444Z" stroke="#16A1DC" stroke-width="1.5" stroke-miterlimit="10"/>
<path d="M153.651 157.374H93.5909C92.0942 157.374 90.8809 158.585 90.8809 160.079C90.8809 161.572 92.0942 162.784 93.5909 162.784H153.651C155.148 162.784 156.361 161.572 156.361 160.079C156.361 158.585 155.148 157.374 153.651 157.374Z" stroke="#16A1DC" stroke-width="1.5" stroke-miterlimit="10"/>
<path d="M105.619 143.393V150.823C105.619 152.32 106.83 153.533 108.324 153.533C109.818 153.533 111.029 152.32 111.029 150.823V143.393C111.029 141.897 109.818 140.683 108.324 140.683C106.83 140.683 105.619 141.897 105.619 143.393Z" fill="white" stroke="#252B2D" stroke-width="1.5" stroke-miterlimit="10"/>
<path d="M153.651 131.513H93.5909C92.0942 131.513 90.8809 132.724 90.8809 134.218C90.8809 135.712 92.0942 136.923 93.5909 136.923H153.651C155.148 136.923 156.361 135.712 156.361 134.218C156.361 132.724 155.148 131.513 153.651 131.513Z" stroke="#16A1DC" stroke-width="1.5" stroke-miterlimit="10"/>
<path d="M131.08 129.744V137.174C131.08 138.67 132.291 139.884 133.785 139.884C135.279 139.884 136.49 138.67 136.49 137.174V129.744C136.49 128.247 135.279 127.034 133.785 127.034C132.291 127.034 131.08 128.247 131.08 129.744Z" fill="white" stroke="#252B2D" stroke-width="1.5" stroke-miterlimit="10"/>
<path d="M123.961 156.363V163.793C123.961 165.29 125.172 166.503 126.666 166.503C128.16 166.503 129.371 165.29 129.371 163.793V156.363C129.371 154.867 128.16 153.653 126.666 153.653C125.172 153.653 123.961 154.867 123.961 156.363Z" fill="white" stroke="#252B2D" stroke-width="1.5" stroke-miterlimit="10"/>
<path d="M75.6804 58.7036H25.9004C22.5867 58.7036 19.9004 61.3899 19.9004 64.7036V168.684C19.9004 171.997 22.5867 174.684 25.9004 174.684H75.6804C78.9941 174.684 81.6804 171.997 81.6804 168.684V64.7036C81.6804 61.3899 78.9941 58.7036 75.6804 58.7036Z" fill="white" stroke="#252B2D" stroke-width="1.5" stroke-miterlimit="10"/>
<path d="M73.3309 64.5234H63.9909V66.3634C63.9909 67.6046 63.4978 68.795 62.6201 69.6727C61.7424 70.5504 60.5521 71.0434 59.3109 71.0434H42.3109C41.6954 71.0447 41.0858 70.9247 40.5168 70.6901C39.9479 70.4555 39.4308 70.1109 38.9951 69.6762C38.5595 69.2415 38.2139 68.7252 37.9781 68.1567C37.7422 67.5883 37.6209 66.9789 37.6209 66.3634V64.5234H28.2509C27.6275 64.5234 27.0291 64.769 26.5855 65.2069C26.1419 65.6449 25.8888 66.2401 25.8809 66.8634V166.073C25.8835 166.7 26.1344 167.301 26.5785 167.743C27.0227 168.185 27.624 168.433 28.2509 168.433H73.3309C73.6408 168.433 73.9477 168.372 74.234 168.254C74.5203 168.135 74.7805 167.961 74.9996 167.742C75.2188 167.523 75.3926 167.263 75.5112 166.977C75.6298 166.69 75.6909 166.383 75.6909 166.073V66.8634C75.683 66.2418 75.4312 65.6482 74.9897 65.2105C74.5483 64.7727 73.9525 64.526 73.3309 64.5234V64.5234Z" stroke="#252B2D" stroke-width="1.5" stroke-miterlimit="10"/>
<path d="M41.0996 129.223C37.7882 127.543 35.0072 124.978 33.0654 121.813C31.1236 118.648 30.097 115.007 30.0996 111.293" stroke="#16A1DC" stroke-width="1.5" stroke-miterlimit="10"/>
<path d="M42.3906 92.7734C47.1191 90.7582 52.4403 90.633 57.2583 92.4235C62.0763 94.2141 66.0242 97.784 68.289 102.398C70.5538 107.012 70.9629 112.319 69.4321 117.226C67.9014 122.133 64.5473 126.266 60.0606 128.773" stroke="#16A1DC" stroke-width="1.5" stroke-miterlimit="10"/>
<path d="M50.1496 125.344C57.9092 125.344 64.1996 119.053 64.1996 111.294C64.1996 103.534 57.9092 97.2437 50.1496 97.2437C42.39 97.2437 36.0996 103.534 36.0996 111.294C36.0996 119.053 42.39 125.344 50.1496 125.344Z" stroke="#16A1DC" stroke-width="1.5" stroke-miterlimit="10"/>
<path d="M50.1509 118.563C54.166 118.563 57.4209 115.309 57.4209 111.293C57.4209 107.278 54.166 104.023 50.1509 104.023C46.1357 104.023 42.8809 107.278 42.8809 111.293C42.8809 115.309 46.1357 118.563 50.1509 118.563Z" stroke="#16A1DC" stroke-width="1.5" stroke-miterlimit="10"/>
<path d="M17.26 140.223L40.34 117.143C42.0254 115.473 44.3022 114.536 46.675 114.536C49.0478 114.536 51.3246 115.473 53.01 117.143C54.6802 118.829 55.6172 121.106 55.6172 123.478C55.6172 125.851 54.6802 128.128 53.01 129.813L34.01 148.813C37.1515 152.395 38.8794 156.999 38.87 161.763C38.8726 164.349 38.3659 166.91 37.3788 169.3C36.3918 171.69 34.9436 173.862 33.1171 175.692C31.2905 177.522 29.1214 178.975 26.7335 179.967C24.3456 180.959 21.7857 181.471 19.2 181.473C14.3731 181.473 9.74382 179.556 6.33066 176.143C2.91749 172.73 1 168.1 1 163.273V124.933C1.00018 122.441 1.59665 119.985 2.7396 117.771C3.88255 115.556 5.53879 113.647 7.57 112.203L17.42 104.783" fill="white"/>
<path d="M17.26 140.223L40.34 117.143C42.0254 115.473 44.3022 114.536 46.675 114.536C49.0478 114.536 51.3246 115.473 53.01 117.143V117.143C54.6802 118.829 55.6172 121.106 55.6172 123.478C55.6172 125.851 54.6802 128.128 53.01 129.813L34.01 148.813C37.1515 152.395 38.8794 156.999 38.87 161.763V161.763C38.8726 164.349 38.3659 166.91 37.3788 169.3C36.3918 171.69 34.9436 173.862 33.1171 175.692C31.2905 177.522 29.1214 178.975 26.7335 179.967C24.3456 180.959 21.7857 181.471 19.2 181.473V181.473C14.3731 181.473 9.74382 179.556 6.33066 176.143C2.91749 172.73 1 168.1 1 163.273V124.933C1.00018 122.441 1.59665 119.985 2.7396 117.771C3.88255 115.556 5.53879 113.647 7.57 112.203L17.42 104.783" stroke="#252B2D" stroke-width="1.5" stroke-miterlimit="10"/>
<path d="M16.7793 105.213L19.5793 103.073" stroke="#252B2D" stroke-width="1.5" stroke-miterlimit="10"/>
<path d="M129.31 91.1434C129.308 96.0598 127.848 100.865 125.115 104.952C122.382 109.039 118.499 112.224 113.956 114.104C109.414 115.984 104.415 116.475 99.5938 115.515C94.7721 114.554 90.3434 112.186 86.8676 108.709C83.3919 105.231 81.0252 100.802 80.0668 95.9797C79.1084 91.1576 79.6013 86.1596 81.4832 81.6176C83.3651 77.0756 86.5514 73.1936 90.6394 70.4624C94.7274 67.7312 99.5334 66.2734 104.45 66.2734C107.715 66.2734 110.949 66.9168 113.966 68.1667C116.982 69.4167 119.723 71.2488 122.032 73.5583C124.341 75.8678 126.172 78.6095 127.42 81.6269C128.669 84.6442 129.311 87.8779 129.31 91.1434Z" fill="white" stroke="#252B2D" stroke-width="1.5" stroke-linecap="round" stroke-linejoin="round"/>
<path d="M116.069 96.5536L108.519 111.074L95.2892 101.444L94.9492 83.3736L108.309 80.1836L116.069 96.5536Z" stroke="#252B2D" stroke-width="1.5" stroke-linecap="round" stroke-linejoin="round"/>
<path d="M106.58 73.6302L93.5455 76.6947C91.61 77.1497 90.4099 79.0876 90.8649 81.023L90.8672 81.0327C91.3222 82.9682 93.2601 84.1683 95.1956 83.7133L108.23 80.6489C110.166 80.1938 111.366 78.256 110.911 76.3205L110.908 76.3108C110.453 74.3753 108.516 73.1752 106.58 73.6302Z" fill="#16A1DC" stroke="#16A1DC" stroke-width="1.5" stroke-linecap="round" stroke-linejoin="round"/>
<path d="M105.271 61.6035L89.3809 65.3335L93.3009 76.5735L106.771 73.4035L105.271 61.6035Z" fill="#16A1DC" stroke="#16A1DC" stroke-width="1.5" stroke-linecap="round" stroke-linejoin="round"/>
<path d="M105.65 98.8635L108.52 111.074" stroke="#252B2D" stroke-width="1.5" stroke-linecap="round" stroke-linejoin="round"/>
<path d="M104.951 98.9435C106.646 98.9435 108.021 97.569 108.021 95.8735C108.021 94.178 106.646 92.8035 104.951 92.8035C103.255 92.8035 101.881 94.178 101.881 95.8735C101.881 97.569 103.255 98.9435 104.951 98.9435Z" stroke="#252B2D" stroke-width="1.5" stroke-linecap="round" stroke-linejoin="round"/>
<path d="M115.599 30.1635C115.601 35.0827 114.144 39.8921 111.413 43.9832C108.681 48.0744 104.798 51.2636 100.254 53.1475C95.7094 55.0314 90.7086 55.5253 85.8836 54.5668C81.0587 53.6083 76.6263 51.2405 73.1472 47.7627C69.668 44.285 67.2984 39.8536 66.338 35.029C65.3776 30.2045 65.8695 25.2034 67.7515 20.6584C69.6336 16.1135 72.8212 12.2287 76.9113 9.49551C81.0014 6.76232 85.8101 5.30347 90.7294 5.30347C97.3236 5.30347 103.648 7.92232 108.312 12.5842C112.975 17.2461 115.597 23.5693 115.599 30.1635Z" fill="white" stroke="#252B2D" stroke-width="1.5" stroke-linecap="round" stroke-linejoin="round"/>
<path d="M90.7305 54.2435C94.4137 54.2947 98.0565 53.4712 101.36 51.8405C104.663 50.2099 107.531 47.8187 109.73 44.8635C107.5 41.9406 104.625 39.5717 101.33 37.9411C98.0344 36.3105 94.4072 35.4622 90.7305 35.4622C87.0537 35.4622 83.4265 36.3105 80.1311 37.9411C76.8357 39.5717 73.9609 41.9406 71.7305 44.8635C73.9289 47.8193 76.7977 50.2109 80.1009 51.8416C83.404 53.4723 87.0471 54.2955 90.7305 54.2435Z" fill="#16A1DC"/>
<path d="M106.45 16.3235C106.45 25.0035 90.7295 42.1835 90.7295 42.1835C90.7295 42.1835 75.0195 25.0035 75.0195 16.3235C75.1229 12.2243 76.824 8.32772 79.7599 5.46499C82.6957 2.60226 86.634 1 90.7345 1C94.8351 1 98.7733 2.60226 101.709 5.46499C104.645 8.32772 106.346 12.2243 106.45 16.3235Z" fill="white" stroke="#252B2D" stroke-width="1.5" stroke-linecap="round" stroke-linejoin="round"/>
<path d="M90.7306 20.8336C93.5418 20.8336 95.8206 18.5547 95.8206 15.7436C95.8206 12.9324 93.5418 10.6536 90.7306 10.6536C87.9195 10.6536 85.6406 12.9324 85.6406 15.7436C85.6406 18.5547 87.9195 20.8336 90.7306 20.8336Z" fill="white" stroke="#252B2D" stroke-width="1.5" stroke-linecap="round" stroke-linejoin="round"/>
<path d="M171.74 50.5436C171.74 55.4624 170.281 60.2708 167.549 64.3606C164.816 68.4505 160.932 71.6381 156.387 73.5205C151.843 75.4028 146.842 75.8953 142.018 74.9357C137.194 73.9761 132.762 71.6075 129.284 68.1293C125.806 64.6512 123.437 60.2198 122.478 55.3955C121.518 50.5712 122.011 45.5706 123.893 41.0262C125.775 36.4819 128.963 32.5977 133.053 29.8649C137.143 27.1322 141.951 25.6736 146.87 25.6736C150.136 25.6723 153.371 26.3147 156.389 27.564C159.407 28.8134 162.149 30.6453 164.459 32.9549C166.768 35.2646 168.6 38.0067 169.85 41.0247C171.099 44.0427 171.741 47.2772 171.74 50.5436Z" fill="white" stroke="#252B2D" stroke-width="1.5" stroke-linecap="round" stroke-linejoin="round"/>
<path d="M129.73 68.3135V24.3135C129.729 23.948 129.8 23.5859 129.939 23.248C130.079 22.9102 130.283 22.6032 130.542 22.3448C130.8 22.0864 131.107 21.8816 131.445 21.7424C131.783 21.6031 132.145 21.5321 132.51 21.5335H162.56C162.925 21.5335 163.286 21.6054 163.623 21.7453C163.96 21.8851 164.265 22.09 164.523 22.3483C164.78 22.6066 164.984 22.9131 165.123 23.2504C165.261 23.5876 165.332 23.9489 165.33 24.3135V66.9735" fill="white"/>
<path d="M129.73 68.3135V24.3135C129.729 23.948 129.8 23.5859 129.939 23.248C130.079 22.9102 130.283 22.6032 130.542 22.3448C130.8 22.0864 131.107 21.8816 131.445 21.7424C131.783 21.6031 132.145 21.5321 132.51 21.5335H162.56C162.925 21.5335 163.286 21.6054 163.623 21.7453C163.96 21.8851 164.265 22.09 164.523 22.3483C164.78 22.6066 164.984 22.9131 165.123 23.2504C165.261 23.5876 165.332 23.9489 165.33 24.3135V66.9735" stroke="#252B2D" stroke-width="1.5" stroke-linecap="round" stroke-linejoin="round"/>
<path d="M135.98 58.0134H159.09" stroke="#16A1DC" stroke-width="1.5" stroke-linecap="round" stroke-linejoin="round"/>
<path d="M135.98 64.9136H159.09" stroke="#16A1DC" stroke-width="1.5" stroke-linecap="round" stroke-linejoin="round"/>
<path d="M136.461 34.5034L143.461 34.0134L146.201 27.4734C146.308 27.1997 146.495 26.9646 146.738 26.7988C146.981 26.6331 147.268 26.5444 147.561 26.5444C147.855 26.5444 148.142 26.6331 148.385 26.7988C148.628 26.9646 148.815 27.1997 148.921 27.4734L151.601 34.0134L158.601 34.5034C158.898 34.5243 159.181 34.6334 159.415 34.8166C159.649 34.9998 159.823 35.2487 159.914 35.5315C160.006 35.8142 160.01 36.1178 159.928 36.4032C159.845 36.6887 159.679 36.943 159.451 37.1334L154.051 41.6834L155.731 48.5734C155.799 48.8602 155.78 49.1605 155.678 49.4367C155.575 49.713 155.394 49.953 155.156 50.1269C154.918 50.3007 154.635 50.4007 154.34 50.4143C154.046 50.4279 153.754 50.3545 153.501 50.2034L147.561 46.4434L141.561 50.1534C141.309 50.3046 141.017 50.3779 140.722 50.3643C140.428 50.3507 140.144 50.2507 139.907 50.0769C139.669 49.903 139.487 49.663 139.385 49.3867C139.283 49.1105 139.264 48.8102 139.331 48.5234L141.021 41.6334L135.621 37.0834C135.391 36.8991 135.223 36.6492 135.139 36.3668C135.054 36.0845 135.058 35.7832 135.149 35.503C135.241 35.2228 135.415 34.977 135.649 34.7984C135.884 34.6199 136.167 34.517 136.461 34.5034Z" fill="#16A1DC"/>
</svg>
