<svg width="35" height="30" viewBox="0 0 35 30" fill="none" xmlns="http://www.w3.org/2000/svg">
<path d="M12.1536 29.3069H4.4707" stroke="#2E2A26" stroke-width="1.4" stroke-linecap="round" stroke-linejoin="round"/>
<path d="M28.6987 0.693359H12.032C11.5427 0.693358 11.0582 0.787447 10.6063 0.970237C10.1543 1.15303 9.74386 1.42093 9.39833 1.75858C9.05281 2.09624 8.77905 2.49702 8.59272 2.93797C8.4064 3.37891 8.31118 3.85135 8.31251 4.32822V25.563" stroke="#2E2A26" stroke-width="1.4" stroke-linecap="round" stroke-linejoin="round"/>
<path d="M8.3125 29.3069H27.5605C28.0209 29.3069 28.4768 29.2185 28.9022 29.0467C29.3276 28.875 29.7141 28.6233 30.0397 28.306C30.3652 27.9887 30.6235 27.6121 30.7997 27.1975C30.9759 26.7829 31.0666 26.3386 31.0666 25.8899V6.4082" stroke="#2E2A26" stroke-width="1.4" stroke-linecap="round" stroke-linejoin="round"/>
<path d="M12.134 0.693359C12.6238 0.693359 13.1088 0.787378 13.5613 0.970047C14.0138 1.15272 14.425 1.42046 14.7713 1.75799C15.1176 2.09551 15.3924 2.49622 15.5798 2.93722C15.7672 3.37822 15.8637 3.85089 15.8637 4.32822V6.40812H33.9023V4.32822C33.9037 3.85135 33.8084 3.37891 33.6221 2.93797C33.4358 2.49702 33.162 2.09624 32.8165 1.75858C32.471 1.42093 32.0605 1.15303 31.6086 0.970237C31.1566 0.787447 30.6721 0.693358 30.1828 0.693359H12.0527" stroke="#2E2A26" stroke-width="1.4" stroke-linecap="round" stroke-linejoin="round"/>
<path d="M15.9951 19.1549L19.8366 23.4434L34.2878 12.2219" stroke="#2E2A26" stroke-width="1.4" stroke-linecap="round" stroke-linejoin="round"/>
<path d="M8.31256 25.6719V23.592H0.710938V25.6719C0.710937 26.636 1.10388 27.5605 1.80333 28.2422C2.14967 28.5797 2.56082 28.8474 3.01333 29.0301C3.46583 29.2128 3.95082 29.3068 4.44061 29.3068H12.1235" stroke="#2E2A26" stroke-width="1.4" stroke-linecap="round" stroke-linejoin="round"/>
<path d="M4.55273 29.3068C5.54191 29.3068 6.49056 28.9238 7.19001 28.2422C7.88946 27.5605 8.28241 26.636 8.28241 25.6719V23.592" stroke="#2E2A26" stroke-width="1.4" stroke-linecap="round" stroke-linejoin="round"/>
</svg>
