<svg width="37" height="31" viewBox="0 0 37 31" fill="none" xmlns="http://www.w3.org/2000/svg">
<path d="M11.3519 18.5629C10.9782 18.7841 10.56 18.9203 10.1274 18.9619C9.6947 19.0034 9.25817 18.9492 8.84893 18.8032L1.32437 16.0831C1.22916 16.0478 1.14705 15.9844 1.08907 15.9013C1.03108 15.8181 1 15.7193 1 15.6181C1 15.5168 1.03108 15.418 1.08907 15.3349C1.14705 15.2518 1.22916 15.1883 1.32437 15.1531L34.12 1.11078C34.3399 1.01563 34.5814 0.980849 34.8194 1.01002C35.0573 1.0392 35.2831 1.13127 35.4734 1.27671C35.6637 1.42215 35.8115 1.61566 35.9016 1.83719C35.9916 2.05873 36.0206 2.30024 35.9855 2.53671L30.723 29.2497C30.7034 29.393 30.648 29.5292 30.5621 29.6458C30.4762 29.7624 30.3625 29.8558 30.2311 29.9174C30.0998 29.979 29.9552 30.0069 29.8103 29.9986C29.6654 29.9902 29.5249 29.9459 29.4016 29.8696L16.871 22.6935C16.7122 22.6056 16.5759 22.4823 16.4727 22.3333C16.3694 22.1843 16.302 22.0136 16.2757 21.8345C16.2494 21.6553 16.2649 21.4725 16.3209 21.3002C16.377 21.128 16.4721 20.971 16.5989 20.8413L25.1496 10.6428C25.2313 10.551 25.2773 10.433 25.279 10.3102C25.2807 10.1875 25.238 10.0682 25.1588 9.97417C25.0796 9.88016 24.9691 9.8177 24.8476 9.79818C24.726 9.77866 24.6014 9.80339 24.4966 9.86786L11.3519 18.5629Z" stroke="#252B2D" stroke-width="1.4" stroke-linecap="round" stroke-linejoin="round"/>
</svg>
