<svg width="131" height="37" viewBox="0 0 131 37" fill="none" xmlns="http://www.w3.org/2000/svg">
<path d="M30.0469 36.9213L32.9281 31.2241H34.076L35.3878 36.9213H34.2555L33.9666 35.5088H31.8272L31.1635 36.9055L30.0469 36.9213ZM32.3113 34.554H33.7714L33.342 32.4866L32.3113 34.554Z" fill="#849899"/>
<path d="M36.832 36.9211L37.6129 31.224H39.1745C39.6785 31.1837 40.1838 31.2847 40.6347 31.5159C40.7781 31.6132 40.8939 31.7466 40.9706 31.903C41.0473 32.0594 41.0822 32.2333 41.0719 32.4076C41.0835 32.7996 40.9744 33.1856 40.7596 33.5123C40.5628 33.8101 40.2661 34.0259 39.9241 34.1199C40.0647 34.1672 40.1584 34.3014 40.2208 34.5302L40.5878 35.7691C40.5972 35.8078 40.6156 35.8437 40.6414 35.8739C40.6672 35.904 40.6996 35.9276 40.7362 35.9427C40.8555 35.9896 40.9831 36.0111 41.111 36.0058L40.8221 36.9448H40.6034C40.3694 36.9509 40.1388 36.8878 39.9397 36.7633C39.7588 36.6352 39.6309 36.4442 39.5806 36.2267L39.2292 34.909C39.2044 34.8176 39.1677 34.73 39.1199 34.6486C39.07 34.5863 39.0015 34.542 38.9247 34.5223C38.7967 34.4926 38.6655 34.4794 38.5342 34.4829H38.261L37.9252 36.8501L36.832 36.9211ZM38.3937 33.5596H38.9325C39.0562 33.5586 39.1794 33.5427 39.2995 33.5123C39.422 33.4801 39.5401 33.4324 39.6508 33.3703C39.7606 33.3095 39.8544 33.2229 39.9241 33.1178C39.9964 33.005 40.0345 32.8733 40.0334 32.739C40.0307 32.6624 40.0103 32.5874 39.9736 32.5203C39.937 32.4531 39.8853 32.3956 39.8226 32.3524C39.6472 32.243 39.4428 32.1907 39.237 32.2024H38.5733L38.3937 33.5596Z" fill="#849899"/>
<path d="M42.4924 34.5851C42.4868 34.1088 42.5771 33.6362 42.7579 33.1963C42.9153 32.7863 43.1575 32.415 43.4685 32.1074C43.7778 31.8031 44.1441 31.5643 44.546 31.4051C44.9757 31.2329 45.4346 31.1471 45.8968 31.1526C46.498 31.1549 47.0907 31.2952 47.6303 31.5629L47.0759 32.5019C46.6826 32.2836 46.2439 32.1619 45.7953 32.1468C45.4859 32.1431 45.1795 32.2077 44.8974 32.3362C44.6333 32.4459 44.3981 32.6161 44.2103 32.8333C44.0223 33.0482 43.8765 33.2972 43.7808 33.5672C43.6799 33.8478 43.6296 34.1445 43.6324 34.4431C43.622 34.6557 43.6532 34.8683 43.7242 35.0687C43.7952 35.2691 43.9047 35.4533 44.0463 35.6109C44.2002 35.7635 44.3837 35.8823 44.5853 35.9597C44.7869 36.0371 45.0022 36.0715 45.2175 36.0607C45.461 36.0635 45.7042 36.0424 45.9437 35.9975L46.2326 33.9302H47.3102L46.9275 36.6998C46.3281 36.8747 45.7086 36.9702 45.0848 36.9839C44.3903 37.0289 43.7062 36.7965 43.1796 36.3369C42.9493 36.1103 42.7691 35.8371 42.6507 35.5352C42.5323 35.2333 42.4783 34.9095 42.4924 34.5851Z" fill="#849899"/>
<path d="M48.7559 36.9213L49.5367 31.2241H52.9021L52.7771 32.1868H50.4971L50.3175 33.4809H52.5429L52.4023 34.4515H50.1848L49.974 35.9507H52.3164L52.1759 36.9213H48.7559Z" fill="#849899"/>
<path d="M53.9629 36.9213L54.7437 31.2241H55.8369L55.7354 31.9422L57.7811 33.9859L58.1794 31.2241H59.2647L58.4449 36.9213H57.3829L57.6172 35.3431L55.5636 33.2915L55.0561 36.9292L53.9629 36.9213Z" fill="#849899"/>
<path d="M60.5605 32.1868L60.6933 31.2241H64.6911L64.5584 32.1868H63.1217L62.4658 36.9213H61.3492L62.0051 32.1868H60.5605Z" fill="#849899"/>
<path d="M65.3086 36.9213L66.0894 31.2241H67.2138L66.433 36.9213H65.3086Z" fill="#849899"/>
<path d="M68.3613 36.9213L69.1422 31.2241H70.2744L70.1729 31.9422L72.2343 33.9859L72.6247 31.2241H73.71L72.9292 36.9213H71.7814L72.0078 35.3431L69.9542 33.2915L69.4935 36.9213H68.3613Z" fill="#849899"/>
<path d="M74.8591 34.6091C74.8568 34.1397 74.9415 33.674 75.109 33.2361C75.2655 32.8248 75.5017 32.4492 75.8039 32.1314C76.0998 31.8196 76.456 31.5725 76.8502 31.4055C77.2603 31.2307 77.7013 31.1421 78.1464 31.1451C78.475 31.1276 78.8038 31.1765 79.1135 31.2889C79.4232 31.4014 79.7076 31.5751 79.9501 31.8C80.1754 32.0311 80.3513 32.3066 80.4668 32.6093C80.5823 32.912 80.635 33.2355 80.6216 33.5596C80.6233 34.0064 80.5467 34.4499 80.3952 34.8695C80.255 35.2723 80.0404 35.6445 79.7627 35.9663C79.475 36.3033 79.1179 36.5726 78.7164 36.7554C78.2783 36.9486 77.8045 37.0454 77.3265 37.0395C76.9978 37.0588 76.6685 37.0123 76.3576 36.9026C76.0467 36.793 75.7604 36.6223 75.515 36.4003C75.2861 36.1659 75.1093 35.885 74.9962 35.5761C74.8831 35.2673 74.8364 34.9376 74.8591 34.6091ZM75.9913 34.4434C75.9787 34.6526 76.0074 34.8621 76.0758 35.0599C76.1441 35.2577 76.2508 35.4398 76.3895 35.5955C76.5264 35.7414 76.6929 35.8557 76.8775 35.9306C77.0621 36.0055 77.2606 36.0392 77.4593 36.0295C77.7312 36.0262 77.9986 35.9587 78.2401 35.8322C78.4871 35.709 78.7053 35.5342 78.8804 35.3193C79.0574 35.0994 79.1972 34.8514 79.2942 34.5855C79.3938 34.3099 79.4441 34.0187 79.4426 33.7254C79.4586 33.3019 79.3164 32.8879 79.0444 32.5654C78.9099 32.4154 78.7442 32.2973 78.5593 32.2195C78.3744 32.1417 78.1747 32.1063 77.9746 32.1156C77.6096 32.1119 77.2524 32.2221 76.9517 32.4313C76.6332 32.6406 76.379 32.9358 76.2178 33.2835C76.0555 33.6475 75.9781 34.0444 75.9913 34.4434Z" fill="#849899"/>
<path d="M23.4258 5.10535L24.152 0H29.3991L28.6573 5.10535H23.4258Z" fill="#252B2D"/>
<path d="M0 5.10535L0.679323 0H21.7618L21.0824 5.10535H13.5084L10.2445 28.0439H4.36484L7.59748 5.10535H0Z" fill="#252B2D"/>
<path d="M20.7937 23.9251C20.7893 23.7005 20.805 23.476 20.8405 23.2543L23.0581 7.22021H28.3053L26.2205 22.3074C26.2265 22.3467 26.2265 22.3866 26.2205 22.4258C26.2166 22.4572 26.2166 22.489 26.2205 22.5205C26.2183 22.6866 26.258 22.8506 26.3358 22.9969C26.4137 23.1433 26.5272 23.2672 26.6655 23.3569C27.1499 23.6439 27.6774 23.8492 28.2272 23.9645L25.8847 28.5254C24.555 28.4322 23.2866 27.925 22.2538 27.0735C21.7886 26.6963 21.4152 26.2164 21.162 25.6706C20.9089 25.1248 20.7829 24.5277 20.7937 23.9251Z" fill="#252B2D"/>
<path d="M30.4516 19.498C30.448 17.8075 30.7606 16.1316 31.373 14.5584C31.9491 13.0641 32.7996 11.6934 33.8794 10.5183C34.9644 9.36095 36.2681 8.43526 37.7133 7.79597C39.2198 7.11976 40.8515 6.77545 42.4998 6.78595C43.6411 6.72348 44.783 6.89545 45.8567 7.29147C46.9303 7.68749 47.9134 8.29934 48.7465 9.09006C49.5412 9.92595 50.1589 10.9169 50.5617 12.0023C50.9645 13.0878 51.1439 14.2448 51.089 15.4027V15.6079L47.4659 19.7269H35.9799C36.0063 20.3027 36.1488 20.8671 36.3985 21.3853C36.6482 21.9036 37 22.365 37.4322 22.7412C38.3884 23.5741 39.6222 24.0086 40.8835 23.9563C42.0527 23.9466 43.2166 23.7956 44.3504 23.5066C45.3718 23.2781 46.3646 22.934 47.3097 22.4808L48.1921 26.7813C45.5481 27.9241 42.6971 28.4965 39.8216 28.462C36.8154 28.462 34.4963 27.6729 32.8878 26.0316C32.0613 25.1688 31.4186 24.1438 30.9996 23.02C30.5806 21.8962 30.3941 20.6975 30.4516 19.498ZM36.6982 15.1502H46.3025C46.2718 14.1051 45.8319 13.115 45.0794 12.3974C44.3269 11.6798 43.3232 11.2934 42.289 11.3232C41.0545 11.338 39.8556 11.7437 38.8611 12.4831C37.877 13.1161 37.1191 14.0507 36.6982 15.1502Z" fill="#252B2D"/>
<path d="M52.5352 28.0437L55.4398 7.21988H60.3825L60.3044 8.98742C61.0661 8.40063 61.8945 7.90791 62.7718 7.51973C63.653 7.09661 64.6151 6.87309 65.5906 6.86479C66.6601 6.85248 67.7215 7.05359 68.714 7.4566C69.6117 7.79729 70.3778 8.41947 70.9003 9.23203C71.8441 8.57291 72.8609 8.02738 73.9299 7.60653C75.102 7.12032 76.3563 6.86843 77.6232 6.86479C81.6367 6.86479 83.6435 8.92692 83.6435 13.0512C83.6232 13.8787 83.5476 14.7038 83.417 15.521L82.4175 22.5123C82.4126 22.6706 82.4498 22.8274 82.5254 22.9662C82.6009 23.1051 82.712 23.2208 82.847 23.3013C83.3423 23.5647 83.8664 23.7686 84.4087 23.9089L82.0662 28.4698C80.7446 28.3802 79.4823 27.8815 78.4509 27.0416C77.9311 26.5656 77.5357 25.9671 77.3 25.2995C77.0644 24.6318 76.9957 23.9155 77.1001 23.2145L78.1542 15.5762C78.2248 15.146 78.2587 14.7104 78.2557 14.2743C78.2557 12.5225 77.5009 11.6466 75.9913 11.6466C75.1911 11.6764 74.4128 11.9187 73.7347 12.3489C73.0006 12.7746 72.3146 13.28 71.6889 13.856C71.666 14.4085 71.6112 14.9592 71.525 15.5052L69.729 28.0437H64.4584L66.1997 15.5684C66.2544 15.0002 66.2856 14.6136 66.2856 14.3926C66.2856 12.5567 65.5048 11.6387 63.9431 11.6387C63.1462 11.691 62.379 11.964 61.7255 12.4278C61.0092 12.872 60.3485 13.4019 59.7578 14.006L57.7823 28.0437H52.5352Z" fill="#252B2D"/>
<path d="M85.4062 36.8342L89.529 7.22003H94.1047L94.1906 8.46678C94.9528 7.98722 95.7712 7.60552 96.6268 7.3305C97.5794 7.00026 98.579 6.82967 99.5861 6.82549C100.703 6.76815 101.819 6.95645 102.857 7.37741C103.895 7.79838 104.831 8.44196 105.599 9.26375C107.104 10.9722 107.896 13.2036 107.808 15.4896C107.84 17.7673 107.283 20.0139 106.192 22.0074C105.103 23.9617 103.507 25.5794 101.577 26.6867C99.5349 27.8582 97.218 28.4524 94.8699 28.4069C93.8422 28.4275 92.8168 28.3 91.8247 28.0281L90.5754 36.8342H85.4062ZM92.4806 23.341C93.4017 23.7303 94.3953 23.9134 95.3931 23.8775C96.3451 23.8735 97.2848 23.6596 98.1465 23.2507C99.0083 22.8419 99.7714 22.2479 100.383 21.5103C101.75 20.0692 102.511 18.1488 102.506 16.1524C102.567 14.9382 102.171 13.7458 101.398 12.8146C100.974 12.3823 100.463 12.0477 99.9 11.8339C99.3366 11.62 98.7341 11.532 98.1338 11.5758C97.3267 11.5924 96.5308 11.7693 95.7913 12.0966C95.1182 12.3443 94.4882 12.6985 93.9251 13.146L92.4806 23.341Z" fill="#252B2D"/>
<path d="M109.253 19.6085C109.226 17.3232 109.777 15.0688 110.854 13.0591C111.884 11.1419 113.419 9.54985 115.289 8.4588C117.233 7.33146 119.442 6.75365 121.684 6.78595C124.562 6.78595 126.835 7.5987 128.5 9.22421C129.341 10.0763 129.997 11.0957 130.428 12.2177C130.858 13.3398 131.052 14.5399 130.999 15.742C131.001 17.0531 130.83 18.3586 130.491 19.6243C129.828 22.1015 128.417 24.3081 126.455 25.9369C125.419 26.7601 124.248 27.393 122.995 27.8071C121.594 28.2688 120.128 28.498 118.654 28.4857C115.734 28.4857 113.43 27.6966 111.759 26.1184C110.907 25.2766 110.242 24.2602 109.809 23.1374C109.377 22.0147 109.187 20.8115 109.253 19.6085ZM114.555 18.7563C114.494 20.1068 114.95 21.4291 115.827 22.4492C116.275 22.918 116.817 23.2845 117.416 23.5241C118.015 23.7636 118.658 23.8707 119.302 23.838C120.169 23.8404 121.025 23.646 121.808 23.269C122.59 22.8921 123.279 22.3422 123.823 21.6601C125.057 20.2599 125.731 18.4454 125.713 16.5706C125.768 15.2186 125.313 13.8959 124.44 12.8698C124.014 12.3858 123.487 12.0037 122.897 11.7512C122.307 11.4987 121.668 11.3821 121.028 11.41C120.158 11.4046 119.297 11.5935 118.507 11.9632C117.718 12.3328 117.019 12.8741 116.46 13.5484C115.191 14.9752 114.509 16.8383 114.555 18.7563Z" fill="#252B2D"/>
</svg>
