<svg width="256" height="71" viewBox="0 0 256 71" fill="none" xmlns="http://www.w3.org/2000/svg">
<path d="M58.7163 70.8484L64.3469 59.916H66.5899L69.1535 70.8484H66.9409L66.3763 68.138H62.1954L60.8983 70.8181L58.7163 70.8484ZM63.1414 66.3059H65.9948L65.1556 62.3387L63.1414 66.3059Z" fill="#16A1DC"/>
<path d="M71.9766 70.8493L73.5025 59.917H76.5543C77.5392 59.8397 78.5266 60.0336 79.4077 60.4772C79.688 60.6639 79.9142 60.9199 80.0641 61.22C80.214 61.5201 80.2823 61.8539 80.2622 62.1882C80.2849 62.9405 80.0716 63.6812 79.6518 64.3081C79.2673 64.8795 78.6873 65.2937 78.0191 65.474C78.2938 65.5649 78.4769 65.8223 78.599 66.2614L79.3161 68.6386C79.3345 68.7129 79.3704 68.7819 79.4208 68.8398C79.4712 68.8977 79.5347 68.9429 79.6061 68.9718C79.8392 69.0618 80.0885 69.103 80.3385 69.0929L79.7739 70.8948H79.3467C78.8894 70.9064 78.4386 70.7854 78.0496 70.5465C77.696 70.3007 77.4461 69.9341 77.3477 69.5169L76.6611 66.9882C76.6127 66.8129 76.5409 66.6448 76.4474 66.4885C76.35 66.369 76.2162 66.284 76.066 66.2462C75.8159 66.1893 75.5595 66.1638 75.303 66.1705H74.769L74.1128 70.7131L71.9766 70.8493ZM75.0284 64.3989H76.0812C76.3231 64.397 76.5638 64.3665 76.7984 64.3081C77.038 64.2464 77.2687 64.1548 77.4851 64.0355C77.6997 63.9188 77.8828 63.7527 78.0191 63.551C78.1605 63.3347 78.2347 63.082 78.2328 62.8242C78.2275 62.6771 78.1875 62.5334 78.1159 62.4045C78.0443 62.2756 77.9432 62.1652 77.8208 62.0822C77.4779 61.8724 77.0785 61.772 76.6763 61.7945H75.3793L75.0284 64.3989Z" fill="#16A1DC"/>
<path d="M83.0394 66.3665C83.0284 65.4524 83.2049 64.5457 83.5582 63.7015C83.8657 62.9147 84.3392 62.2023 84.9468 61.6119C85.5513 61.028 86.2672 60.5698 87.0526 60.2643C87.8923 59.9339 88.789 59.7693 89.6924 59.7798C90.8671 59.7841 92.0254 60.0534 93.0799 60.5671L91.9965 62.369C91.2278 61.9501 90.3705 61.7166 89.494 61.6876C88.8894 61.6805 88.2905 61.8045 87.7392 62.051C87.2232 62.2615 86.7635 62.5881 86.3964 63.005C86.0291 63.4172 85.7442 63.8951 85.5572 64.4132C85.3599 64.9517 85.2617 65.5209 85.2673 66.0939C85.2468 66.5019 85.3078 66.9098 85.4465 67.2944C85.5853 67.6789 85.7992 68.0325 86.076 68.3349C86.3768 68.6278 86.7354 68.8557 87.1294 69.0042C87.5233 69.1527 87.9439 69.2187 88.3648 69.198C88.8407 69.2034 89.316 69.1629 89.7839 69.0768L90.3485 65.1097H92.4542L91.7065 70.4245C90.535 70.7601 89.3245 70.9433 88.1054 70.9696C86.7483 71.0559 85.4114 70.61 84.3822 69.7279C83.9323 69.2932 83.5801 68.7689 83.3487 68.1896C83.1173 67.6103 83.0119 66.989 83.0394 66.3665Z" fill="#16A1DC"/>
<path d="M95.2773 70.8484L96.8032 59.916H103.38L103.136 61.7633H98.6801L98.3291 64.2466H102.678L102.403 66.109H98.0697L97.6577 68.986H102.235L101.961 70.8484H95.2773Z" fill="#16A1DC"/>
<path d="M105.455 70.8484L106.981 59.916H109.117L108.919 61.2939L112.917 65.2157L113.695 59.916H115.816L114.214 70.8484H112.139L112.596 67.82L108.583 63.8832L107.591 70.8636L105.455 70.8484Z" fill="#16A1DC"/>
<path d="M118.349 61.7633L118.608 59.916H126.421L126.161 61.7633H123.354L122.072 70.8484H119.89L121.172 61.7633H118.349Z" fill="#16A1DC"/>
<path d="M127.626 70.8484L129.152 59.916H131.349L129.823 70.8484H127.626Z" fill="#16A1DC"/>
<path d="M133.592 70.8484L135.118 59.916H137.331L137.132 61.2939L141.161 65.2157L141.924 59.916H144.045L142.519 70.8484H140.276L140.718 67.82L136.705 63.8832L135.805 70.8484H133.592Z" fill="#16A1DC"/>
<path d="M146.288 66.4117C146.283 65.5109 146.449 64.6173 146.776 63.777C147.082 62.9877 147.544 62.2669 148.134 61.6572C148.712 61.0589 149.408 60.5847 150.179 60.2641C150.98 59.9287 151.842 59.7587 152.712 59.7645C153.354 59.7309 153.997 59.8248 154.602 60.0406C155.207 60.2563 155.763 60.5897 156.237 61.0212C156.677 61.4648 157.021 61.9934 157.246 62.5743C157.472 63.1551 157.575 63.7758 157.549 64.3978C157.552 65.2551 157.402 66.1061 157.106 66.9114C156.833 67.6843 156.413 68.3986 155.87 69.0161C155.308 69.6626 154.61 70.1794 153.826 70.5303C152.97 70.9009 152.044 71.0867 151.11 71.0754C150.467 71.1125 149.824 71.0233 149.216 70.8128C148.609 70.6023 148.049 70.2747 147.57 69.8489C147.122 69.3991 146.777 68.8599 146.556 68.2673C146.335 67.6746 146.243 67.0421 146.288 66.4117ZM148.5 66.0937C148.476 66.495 148.532 66.8972 148.665 67.2767C148.799 67.6563 149.007 68.0057 149.279 68.3044C149.546 68.5844 149.871 68.8037 150.232 68.9474C150.593 69.0912 150.981 69.1559 151.369 69.1372C151.9 69.131 152.423 69.0014 152.895 68.7587C153.378 68.5223 153.804 68.1868 154.146 67.7745C154.492 67.3525 154.765 66.8767 154.955 66.3663C155.15 65.8376 155.248 65.2787 155.245 64.7158C155.276 63.9033 154.998 63.1088 154.467 62.49C154.204 62.2021 153.88 61.9754 153.519 61.8262C153.157 61.677 152.767 61.6089 152.376 61.6269C151.663 61.6197 150.965 61.8313 150.377 62.2326C149.755 62.6343 149.258 63.2008 148.943 63.8679C148.626 64.5665 148.474 65.328 148.5 66.0937Z" fill="#16A1DC"/>
<path d="M45.7769 9.79676L47.1959 0H57.45L56.0004 9.79676H45.7769Z" fill="#010101"/>
<path d="M0 9.79676L1.32753 0H42.5268L41.1993 9.79676H26.398L20.0198 53.814H8.52977L14.847 9.79676H0Z" fill="#010101"/>
<path d="M40.6347 45.9107C40.6261 45.4798 40.6568 45.0491 40.7263 44.6236L45.0598 13.8555H55.3138L51.2397 42.8066C51.2514 42.8819 51.2514 42.9585 51.2397 43.0338C51.2322 43.0941 51.2322 43.1551 51.2397 43.2155C51.2354 43.5343 51.313 43.8489 51.4652 44.1297C51.6174 44.4105 51.8391 44.6482 52.1095 44.8205C53.056 45.3713 54.0869 45.7651 55.1613 45.9864L50.5836 54.7384C47.9851 54.5595 45.5064 53.5862 43.4881 51.9523C42.5791 51.2284 41.8492 50.3075 41.3546 49.2602C40.8599 48.2129 40.6137 47.0671 40.6347 45.9107Z" fill="#010101"/>
<path d="M59.5101 37.4155C59.5031 34.1716 60.114 30.9555 61.3107 27.9367C62.4367 25.0694 64.0985 22.4391 66.2088 20.1841C68.3292 17.9633 70.8768 16.1869 73.701 14.9602C76.6449 13.6626 79.8335 13.0019 83.0548 13.022C85.285 12.9022 87.5166 13.2322 89.6147 13.9921C91.7128 14.752 93.6339 15.9261 95.262 17.4435C96.8151 19.0475 98.0222 20.9491 98.8093 23.0319C99.5964 25.1147 99.947 27.335 99.8396 29.5569V29.9506L92.7595 37.8546H70.3135C70.3652 38.9596 70.6436 40.0426 71.1316 41.0371C71.6196 42.0317 72.307 42.917 73.1517 43.6388C75.0202 45.2372 77.4313 46.0709 79.8962 45.9707C82.1811 45.952 84.4556 45.6623 86.6711 45.1076C88.6673 44.6691 90.6072 44.0088 92.4543 43.1391L94.1786 51.3914C89.0116 53.5844 83.4402 54.6829 77.8209 54.6166C71.9462 54.6166 67.4143 53.1025 64.271 49.953C62.6558 48.2972 61.3999 46.3303 60.5811 44.1739C59.7622 42.0174 59.3977 39.7173 59.5101 37.4155ZM71.7173 29.0724H90.4859C90.426 27.0668 89.5664 25.1669 88.0958 23.7899C86.6252 22.4129 84.6639 21.6715 82.6428 21.7286C80.2302 21.7572 77.8875 22.5356 75.9441 23.9544C74.0209 25.1691 72.5398 26.9625 71.7173 29.0724Z" fill="#010101"/>
<path d="M102.663 53.8136L108.339 13.8543H117.998L117.845 17.246C119.334 16.12 120.953 15.1746 122.667 14.4297C124.389 13.6177 126.269 13.1888 128.176 13.1729C130.266 13.1493 132.34 13.5352 134.279 14.3085C136.033 14.9623 137.531 16.1562 138.552 17.7154C140.396 16.4506 142.383 15.4038 144.472 14.5962C146.763 13.6632 149.214 13.1799 151.69 13.1729C159.533 13.1729 163.454 17.13 163.454 25.0441C163.415 26.632 163.267 28.2154 163.012 29.7835L161.059 43.1991C161.049 43.503 161.122 43.8039 161.269 44.0703C161.417 44.3366 161.634 44.5587 161.898 44.7133C162.866 45.2187 163.89 45.61 164.95 45.8792L160.372 54.6312C157.789 54.4592 155.323 53.5023 153.307 51.8905C152.291 50.9772 151.519 49.8288 151.058 48.5475C150.598 47.2663 150.463 45.8919 150.667 44.5468L152.727 29.8895C152.865 29.0638 152.932 28.228 152.926 27.3911C152.926 24.0296 151.451 22.3488 148.501 22.3488C146.937 22.4061 145.416 22.8709 144.091 23.6965C142.656 24.5133 141.316 25.4831 140.093 26.5886C140.048 27.6487 139.941 28.7054 139.772 29.7532L136.263 53.8136H125.963L129.366 29.8743C129.473 28.7841 129.534 28.0422 129.534 27.6182C129.534 24.0952 128.008 22.3337 124.956 22.3337C123.399 22.4341 121.899 22.958 120.622 23.8479C119.223 24.7002 117.932 25.717 116.777 26.8762L112.917 53.8136H102.663Z" fill="#010101"/>
<path d="M166.903 70.6818L174.96 13.8545H183.901L184.069 16.2469C185.559 15.3267 187.158 14.5942 188.83 14.0665C190.692 13.4328 192.645 13.1055 194.613 13.0974C196.796 12.9874 198.977 13.3487 201.006 14.1565C203.034 14.9643 204.862 16.1993 206.363 17.7763C209.305 21.0546 210.852 25.3366 210.681 29.7231C210.743 34.0939 209.654 38.405 207.522 42.2303C205.394 45.9805 202.276 49.0846 198.504 51.2094C194.513 53.4575 189.985 54.5977 185.397 54.5103C183.388 54.5499 181.384 54.3052 179.446 53.7835L177.004 70.6818H166.903ZM180.727 44.7893C182.527 45.5365 184.469 45.8877 186.419 45.8189C188.279 45.8112 190.116 45.4007 191.8 44.6162C193.484 43.8316 194.975 42.6918 196.17 41.2764C198.841 38.511 200.329 34.8259 200.32 30.9951C200.439 28.6651 199.665 26.3769 198.153 24.5901C197.326 23.7605 196.328 23.1185 195.227 22.7081C194.126 22.2978 192.948 22.1288 191.775 22.2128C190.198 22.2447 188.642 22.5843 187.197 23.2122C185.882 23.6875 184.651 24.3673 183.55 25.226L180.727 44.7893Z" fill="#010101"/>
<path d="M213.504 37.6275C213.45 33.2422 214.527 28.9162 216.632 25.0597C218.646 21.3807 221.645 18.3257 225.299 16.2321C229.099 14.0688 233.416 12.96 237.796 13.022C243.421 13.022 247.862 14.5816 251.117 17.7008C252.76 19.3358 254.043 21.292 254.883 23.4451C255.724 25.5982 256.104 27.9012 256 30.208C256.003 32.7238 255.67 35.229 255.008 37.6577C253.712 42.4113 250.954 46.6455 247.119 49.7712C245.095 51.3507 242.807 52.5653 240.36 53.3598C237.621 54.2459 234.756 54.6856 231.876 54.662C226.169 54.662 221.667 53.1478 218.402 50.1195C216.735 48.504 215.436 46.5536 214.591 44.3991C213.746 42.2446 213.376 39.9358 213.504 37.6275ZM223.865 35.9921C223.746 38.5836 224.636 41.121 226.352 43.0785C227.226 43.9781 228.285 44.6814 229.456 45.1411C230.627 45.6007 231.884 45.8062 233.142 45.7435C234.836 45.7481 236.51 45.375 238.039 44.6517C239.568 43.9283 240.914 42.8732 241.977 41.5643C244.388 38.8773 245.705 35.3956 245.67 31.7979C245.777 29.2035 244.888 26.6655 243.182 24.6963C242.35 23.7676 241.32 23.0344 240.167 22.5499C239.013 22.0653 237.766 21.8417 236.514 21.8951C234.814 21.8849 233.132 22.2473 231.589 22.9567C230.046 23.666 228.68 24.7047 227.588 25.9985C225.107 28.7365 223.775 32.3116 223.865 35.9921Z" fill="#010101"/>
</svg>
