<svg width="29" height="26" viewBox="0 0 29 26" fill="none" xmlns="http://www.w3.org/2000/svg">
<path d="M1 20.3855C1 20.3855 8.902 27.3613 18.4771 22.6542C26.4177 18.7426 24.9119 8.61134 24.9119 8.61134L27.8333 5.61239H25.3495L27.5631 3.3045L23.8823 4.15203C23.8823 4.15203 21.3084 -0.176884 16.9713 1.80503C13.0332 3.57832 14.3974 8.32448 14.3974 8.32448C14.3974 8.32448 7.80807 11.4277 2.15827 4.21723C1.73207 5.35042 1.76316 6.60802 2.24481 7.71818C2.72646 8.82834 3.61998 9.70187 4.73221 10.1499H1.79792C1.79792 10.1499 1.66922 12.5491 5.65883 14.0616H2.67306C3.19304 15.2322 4.09459 16.1859 5.22641 16.7628C6.35824 17.3398 7.65148 17.5047 8.88913 17.2301C8.88913 17.2301 8.07834 20.568 1 20.3855Z" class="redes-stroke" stroke="#000000" stroke-width="1.5" stroke-linecap="round" stroke-linejoin="round"/>
</svg>
