<svg width="41" height="35" viewBox="0 0 41 35" fill="none" xmlns="http://www.w3.org/2000/svg">
<path d="M1.78046 28.4101C1.68708 28.4085 1.63094 28.5156 1.70331 28.5746C3.28605 29.8656 13.9109 37.8853 26.5758 31.6593C37.5919 26.2326 35.9365 12.4628 35.8149 11.5577C35.8108 11.5267 35.8212 11.4977 35.843 11.4753L39.8346 7.37772C39.8963 7.31436 39.8514 7.20794 39.763 7.20794H36.6707C36.5826 7.20794 36.5375 7.10229 36.5985 7.03872L39.3802 4.1385C39.449 4.06679 39.3825 3.94953 39.2856 3.97183L34.4023 5.09627C34.3599 5.10603 34.3172 5.0893 34.2939 5.05259C33.8929 4.42063 30.2761 -0.932983 24.4153 1.74521C19.1279 4.12607 20.5022 10.242 20.7006 11.0179C20.7128 11.0654 20.6956 11.1117 20.6505 11.1311C19.7697 11.5115 10.943 14.9921 3.2745 5.34886C3.22595 5.28782 3.12698 5.29978 3.10147 5.37349C2.55417 6.95516 2.61859 8.69089 3.28603 10.2293C3.90779 11.6624 5.00791 12.8207 6.38456 13.5068C6.48298 13.5558 6.44904 13.7183 6.33907 13.7183H2.73962C2.68648 13.7183 2.64337 13.7591 2.64523 13.8122C2.66436 14.3585 2.99492 17.1726 7.67693 19.1287C7.77947 19.1716 7.74967 19.3307 7.63855 19.3307H4.05432C3.98197 19.3307 3.93365 19.4052 3.96428 19.4707C4.71907 21.0863 5.98542 22.4018 7.56398 23.2064C9.14974 24.0147 10.9563 24.2594 12.6939 23.9035C12.7576 23.8904 12.8026 23.9371 12.7808 23.9984C12.519 24.7349 10.7267 28.5614 1.78046 28.4101Z" stroke="#16A1DC" stroke-width="1.5" stroke-linecap="round" stroke-linejoin="round"/>
</svg>
