<svg width="42" height="41" viewBox="0 0 42 41" fill="none" xmlns="http://www.w3.org/2000/svg">
<path d="M26.2425 23.9573L30.92 29.6902M13 8.70719L17.7228 14.4038M29.6014 22.9857L32.4735 26.4321C32.6018 26.5848 32.6984 26.7613 32.7577 26.9513C32.8169 27.1413 32.8376 27.3412 32.8186 27.5392C32.7995 27.7372 32.7412 27.9295 32.6468 28.105C32.5525 28.2805 32.424 28.4357 32.2689 28.5615L29.5711 30.819C28.6165 31.6047 27.5154 32.196 26.3305 32.5589C25.1457 32.9218 23.9004 33.0492 22.666 32.9339C21.4315 32.8186 20.232 32.4628 19.1361 31.8869C18.0402 31.3109 17.0694 30.5261 16.2792 29.5774L10.6714 22.8052C9.88008 21.8573 9.28464 20.7639 8.91916 19.5874C8.55369 18.4109 8.42534 17.1744 8.54147 15.9486C8.6576 14.7229 9.01592 13.5318 9.59595 12.4437C10.176 11.3555 10.9663 10.3915 11.9218 9.60685L14.6272 7.34944C14.781 7.22199 14.9587 7.12609 15.1501 7.06728C15.3415 7.00846 15.5427 6.98791 15.7422 7.0068C15.9416 7.0257 16.1353 7.08366 16.312 7.17735C16.4887 7.27103 16.645 7.39858 16.7718 7.55261L19.5529 10.9387C19.6813 11.0915 19.7779 11.2679 19.8371 11.458C19.8963 11.648 19.917 11.8478 19.898 12.0458C19.879 12.2439 19.8206 12.4362 19.7262 12.6117C19.6319 12.7872 19.5034 12.9423 19.3483 13.0682L16.0973 15.7395C15.8588 15.9289 15.6611 16.1641 15.5161 16.4311C15.3712 16.6981 15.2819 16.9913 15.2536 17.2933C15.2253 17.5954 15.2586 17.8999 15.3515 18.1889C15.4444 18.4778 15.5949 18.7452 15.7942 18.9751L20.9321 25.1529C21.1266 25.3856 21.3654 25.5781 21.6349 25.7192C21.9043 25.8603 22.1991 25.9473 22.5024 25.9753C22.8057 26.0032 23.1116 25.9715 23.4026 25.8821C23.6935 25.7926 23.9639 25.6471 24.1983 25.4538L27.4492 22.7826C27.6033 22.654 27.7815 22.5571 27.9736 22.4976C28.1658 22.4381 28.3679 22.4172 28.5682 22.4361C28.7686 22.4551 28.9631 22.5134 29.1405 22.6078C29.3179 22.7021 29.4746 22.8306 29.6014 22.9857Z" stroke="#16A1DC" stroke-width="1.5" stroke-linecap="round" stroke-linejoin="round"/>
<path d="M40.4779 19.577C40.5994 22.1332 40.2196 24.6884 39.3603 27.0967C38.501 29.5051 37.179 31.7193 35.4698 33.613C33.7607 35.5067 31.6978 37.0428 29.399 38.1335C27.1003 39.2241 24.6107 39.848 22.0725 39.9695C18.1645 40.1924 14.284 39.1889 10.9661 37.0974C9.78571 38.4365 8.12603 39.2492 6.35131 39.3572C4.57659 39.4651 2.83184 38.8596 1.5 37.6734L5.95462 32.6112C3.41166 29.4315 1.95031 25.5131 1.78594 21.4336C1.54147 16.2663 3.34524 11.2129 6.80045 7.38503C10.2557 3.55713 15.0793 1.26833 20.2101 1.02213C25.341 0.775922 30.3588 2.59249 34.1598 6.0722C37.9607 9.55191 40.2334 14.4097 40.4779 19.577Z" stroke="#16A1DC" stroke-width="1.5" stroke-linecap="round" stroke-linejoin="round"/>
</svg>
