<svg width="33" height="32" viewBox="0 0 33 32" fill="none" xmlns="http://www.w3.org/2000/svg">
<path d="M23.1398 18.1717L25.546 21.0379C25.645 21.1575 25.7194 21.2954 25.765 21.4438C25.8106 21.5921 25.8264 21.7481 25.8116 21.9026C25.7968 22.0571 25.7517 22.2071 25.6788 22.3442C25.6059 22.4812 25.5067 22.6025 25.3868 22.7011L23.299 24.4291C21.8081 25.661 19.889 26.2506 17.9636 26.0681C16.0382 25.8856 14.2641 24.9461 13.0312 23.456L8.69636 18.2188C8.08511 17.4808 7.62526 16.6296 7.34305 15.7138C7.06085 14.7981 6.96183 13.8356 7.05165 12.8816C7.14147 11.9275 7.41837 11.0005 7.86653 10.1535C8.31469 9.30648 8.92533 8.55605 9.66358 7.94508L11.7514 6.21705C11.9925 6.01899 12.3023 5.92454 12.6129 5.95439C12.9235 5.98423 13.2096 6.13594 13.4086 6.37629L15.5672 8.96538C15.7652 9.2065 15.8597 9.51628 15.8298 9.82689C15.8 10.1375 15.6483 10.4236 15.4079 10.6226L12.8955 12.6986C12.7116 12.847 12.5593 13.0307 12.4475 13.2389C12.3358 13.4472 12.2669 13.6757 12.2449 13.9109C12.2229 14.1462 12.2483 14.3835 12.3195 14.6088C12.3907 14.8342 12.5064 15.0429 12.6596 15.2228L16.4518 19.8407C16.6002 20.0237 16.7836 20.1753 16.9913 20.2865C17.199 20.3977 17.4268 20.4663 17.6614 20.4883C17.8959 20.5103 18.1325 20.4852 18.3573 20.4145C18.582 20.3438 18.7904 20.2289 18.9701 20.0766L21.4825 18.0006C21.7251 17.8039 22.0358 17.7115 22.3465 17.7435C22.6572 17.7756 22.9425 17.9296 23.1398 18.1717V18.1717Z" stroke="#252B2D" stroke-width="1.4" stroke-linecap="round" stroke-linejoin="round"/>
<path d="M31.3023 15.4528C31.3975 17.429 31.1025 19.4046 30.434 21.2668C29.7656 23.1289 28.7368 24.8412 27.4065 26.3056C26.0762 27.7701 24.4704 28.9582 22.6809 29.802C20.8913 30.6457 18.9531 31.1287 16.9768 31.2232C13.9481 31.3913 10.9412 30.621 8.36621 29.0175V29.0175C7.44536 30.0496 6.15289 30.6744 4.77208 30.7551C3.39128 30.8359 2.03481 30.3658 1 29.448L4.46784 25.5379C2.48775 23.0799 1.3487 20.0514 1.21821 16.8978C1.10721 14.9133 1.39018 12.9266 2.05081 11.0521C2.71144 9.17756 3.73665 7.45239 5.06732 5.97606C6.39799 4.49974 8.00778 3.30147 9.80385 2.45037C11.5999 1.59927 13.5467 1.11218 15.532 1.0172C17.5172 0.922223 19.5016 1.22123 21.3707 1.89697C23.2398 2.57272 24.9567 3.61183 26.4222 4.95438C27.8877 6.29693 29.073 7.91634 29.9095 9.71922C30.7461 11.5221 31.2175 13.4728 31.2964 15.4587L31.3023 15.4528Z" stroke="#252B2D" stroke-width="1.4" stroke-linecap="round" stroke-linejoin="round"/>
<path d="M10.8613 6.96021L14.5238 11.3776" stroke="#252B2D" stroke-width="1.4" stroke-linecap="round" stroke-linejoin="round"/>
<path d="M20.6211 19.0151L24.2777 23.4325" stroke="#252B2D" stroke-width="1.4" stroke-linecap="round" stroke-linejoin="round"/>
</svg>
