<svg width="45" height="47" viewBox="0 0 45 47" fill="none" xmlns="http://www.w3.org/2000/svg">
<path d="M2.39648 22.4595H42.6051V43.1487C42.6051 43.9046 42.3002 44.6296 41.7575 45.1641C41.2147 45.6986 40.4786 45.9989 39.711 45.9989H5.29059C4.52303 45.9989 3.7869 45.6986 3.24415 45.1641C2.7014 44.6296 2.39648 43.9046 2.39648 43.1487V22.4595Z" stroke="#EBF7FE" stroke-width="1.4" stroke-linecap="round" stroke-linejoin="round"/>
<path d="M3.8942 13.1831H41.1058C41.4878 13.1831 41.866 13.2576 42.2186 13.4022C42.5713 13.5468 42.8913 13.7588 43.1604 14.0259C43.4294 14.2929 43.6421 14.6098 43.7862 14.9582C43.9303 15.3066 44.0029 15.6796 43.9999 16.0558V22.4603H1.00009V16.0558C0.997071 15.6796 1.0697 15.3066 1.21379 14.9582C1.35788 14.6098 1.57058 14.2929 1.83962 14.0259C2.10867 13.7588 2.42873 13.5468 2.78136 13.4022C3.13399 13.2576 3.51221 13.1831 3.8942 13.1831Z" stroke="#EBF7FE" stroke-width="1.4" stroke-linecap="round" stroke-linejoin="round"/>
<path d="M27.5055 13.1836H17.502V46.0002H27.5055V13.1836Z" stroke="#EBF7FE" stroke-width="1.4" stroke-linecap="round" stroke-linejoin="round"/>
<path d="M10.6895 7.03295C10.6902 6.23998 10.8495 5.45493 11.1584 4.7226C11.4672 3.99028 11.9195 3.32503 12.4893 2.76484C13.0592 2.20466 13.7356 1.7605 14.4797 1.45773C15.2239 1.15495 16.0214 0.999501 16.8266 1.00024V1.00024C18.4497 1.00322 20.0055 1.63995 21.1527 2.77081C22.2999 3.90168 22.945 5.43441 22.9465 7.03295V13.0713H16.8266C16.0209 13.072 15.223 12.9164 14.4784 12.6133C13.7339 12.3101 13.0573 11.8655 12.4873 11.3047C11.9174 10.7439 11.4652 10.078 11.1567 9.34502C10.8482 8.61205 10.6895 7.82639 10.6895 7.03295V7.03295Z" stroke="#EBF7FE" stroke-width="1.4" stroke-linecap="round" stroke-linejoin="round"/>
<path d="M22.9512 13.0762V8.53615C22.9512 7.93995 23.0704 7.34958 23.3021 6.79876C23.5338 6.24794 23.8733 5.74745 24.3014 5.32587C24.7295 4.90429 25.2377 4.56987 25.797 4.34172C26.3563 4.11356 26.9558 3.99613 27.5612 3.99613V3.99613C28.1665 3.99613 28.766 4.11356 29.3253 4.34172C29.8846 4.56987 30.3928 4.90429 30.8209 5.32587C31.249 5.74745 31.5886 6.24794 31.8202 6.79876C32.0519 7.34958 32.1711 7.93995 32.1711 8.53615C32.1711 9.74024 31.6854 10.895 30.8209 11.7464C29.9564 12.5978 28.7838 13.0762 27.5612 13.0762H22.9512Z" stroke="#EBF7FE" stroke-width="1.4" stroke-linecap="round" stroke-linejoin="round"/>
</svg>
