<svg width="49" height="41" viewBox="0 0 49 41" fill="none" xmlns="http://www.w3.org/2000/svg">
<path d="M39.606 39.2623H7.17899C5.67283 39.2623 4.22835 38.664 3.16334 37.599C2.09832 36.5339 1.5 35.0895 1.5 33.5833V31.7021" stroke="white" stroke-width="1.5" stroke-miterlimit="10"/>
<path d="M1.52148 31.702V1H43.1982V30.3675" stroke="white" stroke-width="1.5" stroke-miterlimit="10"/>
<path d="M5.61035 25.8809H19.9498" stroke="white" stroke-width="1.5" stroke-linecap="round" stroke-linejoin="round"/>
<path d="M24.6348 25.8809H38.9742" stroke="white" stroke-width="1.5" stroke-linecap="round" stroke-linejoin="round"/>
<path d="M24.6348 22.5586H38.9742" stroke="white" stroke-width="1.5" stroke-linecap="round" stroke-linejoin="round"/>
<path d="M5.61035 19.2295H19.9498" stroke="white" stroke-width="1.5" stroke-linecap="round" stroke-linejoin="round"/>
<path d="M5.61035 22.5586H19.9498" stroke="white" stroke-width="1.5" stroke-linecap="round" stroke-linejoin="round"/>
<path d="M5.61035 15.9072H19.9498" stroke="white" stroke-width="1.5" stroke-linecap="round" stroke-linejoin="round"/>
<path d="M5.61035 9.5542H19.9498" stroke="white" stroke-width="1.5" stroke-linecap="round" stroke-linejoin="round"/>
<path d="M5.61035 6.08984H19.9498" stroke="white" stroke-width="1.5" stroke-linecap="round" stroke-linejoin="round"/>
<path d="M7.32846 39.2624C8.83462 39.2624 10.2791 38.6641 11.3441 37.5991C12.4091 36.534 13.0074 35.0896 13.0074 33.5834V30.3677H47.5002V33.6047C47.5002 35.1109 46.9019 36.5553 45.8369 37.6204C44.7719 38.6854 43.3274 39.2837 41.8212 39.2837H7.20068" stroke="white" stroke-width="1.5" stroke-miterlimit="10"/>
<path d="M38.9742 5.77734H24.6348V19.4353H38.9742V5.77734Z" stroke="white" stroke-width="1.5" stroke-linecap="round" stroke-linejoin="round"/>
</svg>
