<svg width="237" height="98" viewBox="0 0 237 98" fill="none" xmlns="http://www.w3.org/2000/svg">
<path d="M136.254 13.2417C133.776 10.0528 130.602 7.47208 126.973 5.69696C123.344 3.92183 119.357 2.99932 115.316 3C114.582 3 113.858 3 113.135 3.09037C94.7802 4.57642 86.578 27.1183 98.7908 40.8843L112.089 55.8855L136.977 84L160.368 56.8393L173.435 41.6776C184.793 28.4135 177.888 7.15694 160.669 4.3756C156.18 3.63789 151.576 4.06594 147.3 5.61862C143.025 7.1713 139.221 9.79643 136.254 13.2417Z" fill="white"/>
<path d="M136.254 13.2417C133.776 10.0528 130.602 7.47208 126.973 5.69696C123.344 3.92183 119.357 2.99932 115.316 3C114.582 3 113.858 3 113.135 3.09037C94.7802 4.57642 86.578 27.1183 98.7908 40.8843L112.089 55.8855L136.977 84L160.368 56.8393L173.435 41.6776C184.793 28.4135 177.888 7.15694 160.669 4.3756C156.18 3.63789 151.576 4.06594 147.3 5.61862C143.025 7.1713 139.221 9.79643 136.254 13.2417" stroke="#16A1DC" stroke-width="1.5" stroke-miterlimit="10" stroke-linecap="round"/>
<path d="M198.652 30.2891C197.946 30.8347 197.358 31.5177 196.923 32.297C196.488 33.0763 196.216 33.9356 196.123 34.8231C196.029 35.7107 196.116 36.6079 196.379 37.4607C196.642 38.3135 197.075 39.1042 197.652 39.785L197.572 39.8651C196.31 38.7984 194.694 38.2446 193.043 38.3131C191.393 38.3817 189.828 39.0677 188.659 40.2353C187.492 41.4047 186.806 42.9699 186.737 44.621C186.669 46.2721 187.222 47.8888 188.289 49.1509L188.209 49.241C186.946 48.1781 185.331 47.6275 183.683 47.6978C182.034 47.768 180.472 48.4542 179.305 49.6206C178.138 50.7871 177.45 52.3491 177.378 53.998C177.306 55.6469 177.855 57.263 178.916 58.5268L157.339 37.0433C156.195 35.8481 154.652 35.1153 153.003 34.9843C151.354 34.8533 149.714 35.3333 148.396 36.3329C147.691 36.9057 147.114 37.6205 146.702 38.4309C146.291 39.2413 146.055 40.1291 146.008 41.0367C145.962 41.9444 146.107 42.8516 146.434 43.6996C146.761 44.5476 147.262 45.3173 147.906 45.9589L169.683 67.7126L174.324 72.3556L180.276 78.3593H163.991C162.173 78.3203 160.404 78.9512 159.021 80.1321C157.637 81.3129 156.736 82.9612 156.489 84.7634C156.388 85.7552 156.496 86.7571 156.807 87.7043C157.118 88.6516 157.623 89.5231 158.292 90.2625C158.96 91.0019 159.776 91.5927 160.688 91.9968C161.599 92.4009 162.584 92.6092 163.581 92.6083H188.229C191.955 92.5479 195.653 93.2706 199.082 94.7296C204.4 97.0907 210.349 97.628 216.004 96.2582C221.659 94.8883 226.703 91.6881 230.352 87.1549C238.925 76.5682 237.464 61.0084 227.831 51.3823L218.408 41.9564L213.877 37.4135L207.595 31.0996C206.45 29.9122 204.916 29.1769 203.274 29.028C201.632 28.8792 199.991 29.3268 198.652 30.2891Z" fill="white" stroke="#2E2A26" stroke-width="1.5" stroke-linecap="round" stroke-linejoin="round"/>
<path d="M179 58L186 65" stroke="#2E2A26" stroke-width="1.5" stroke-linecap="round" stroke-linejoin="round"/>
<path d="M188 49L195 56" stroke="#2E2A26" stroke-width="1.5" stroke-linecap="round" stroke-linejoin="round"/>
<path d="M197 40L204 47" stroke="#2E2A26" stroke-width="1.5" stroke-linecap="round" stroke-linejoin="round"/>
<path d="M96.2701 17.0679L49.4583 12.4407C46.996 12.1973 44.8046 13.9802 44.5636 16.423L37.5813 87.1905C37.3403 89.6332 39.141 91.8107 41.6032 92.0541L88.4151 96.6813C90.8773 96.9247 93.0687 95.1418 93.3098 92.699L100.292 21.9315C100.533 19.4888 98.7324 17.3113 96.2701 17.0679Z" fill="white" stroke="#2E2A26" stroke-width="1.5" stroke-linecap="round" stroke-linejoin="round"/>
<path d="M86.5592 34.4161L55.2565 31.3219C53.458 31.1441 51.8573 32.4464 51.6813 34.2305L48.0967 70.5617C47.9206 72.3459 49.2359 73.9363 51.0344 74.1141L82.3371 77.2083C84.1356 77.3861 85.7363 76.0838 85.9124 74.2996L89.497 37.9685C89.673 36.1843 88.3577 34.5938 86.5592 34.4161Z" stroke="#16A1DC" stroke-width="1.5" stroke-linecap="round" stroke-linejoin="round"/>
<path d="M54 74.5303L55.0076 63.933C55.0921 63.0729 55.3445 62.238 55.7503 61.476C56.1561 60.7139 56.7074 60.0396 57.3727 59.4916C58.0381 58.9436 58.8043 58.5327 59.6278 58.2823C60.4513 58.0318 61.3158 57.9468 62.172 58.0321L74.0925 59.2062C74.9496 59.291 75.7817 59.5449 76.5411 59.9531C77.3005 60.3614 77.9722 60.9161 78.5179 61.5855C79.0636 62.2549 79.4725 63.0259 79.7211 63.8542C79.9698 64.6825 80.0533 65.552 79.967 66.4128L78.9594 77" stroke="#16A1DC" stroke-width="1.5" stroke-linecap="round" stroke-linejoin="round"/>
<path d="M69 59C74.5228 59 79 54.5228 79 49C79 43.4772 74.5228 39 69 39C63.4772 39 59 43.4772 59 49C59 54.5228 63.4772 59 69 59Z" stroke="#16A1DC" stroke-width="1.5" stroke-linecap="round" stroke-linejoin="round"/>
<path d="M51 80L81 83" stroke="#16A1DC" stroke-width="1.5" stroke-linecap="round" stroke-linejoin="round"/>
<path d="M50 85L80 88" stroke="#16A1DC" stroke-width="1.5" stroke-linecap="round" stroke-linejoin="round"/>
<path d="M82.8982 21.0657L62 19L61.3127 25.9662L82.2108 28.0319L82.8982 21.0657Z" stroke="#2E2A26" stroke-width="1.5" stroke-linecap="round" stroke-linejoin="round"/>
<path d="M71.1345 0.309831L75.7834 0.769367C76.6224 0.852293 77.3921 1.28535 77.9232 1.97328C78.4543 2.6612 78.7034 3.54764 78.6156 4.43758L76.9833 20.9814C76.9051 21.7743 76.5331 22.5053 75.9493 23.0137C75.3655 23.5221 74.6176 23.7662 73.8702 23.6923L68.5598 23.1674C67.8124 23.0935 67.1267 22.7077 66.6535 22.0949C66.1803 21.482 65.9584 20.6922 66.0366 19.8994L67.6739 3.3047C67.7728 2.43008 68.1902 1.62723 68.8368 1.06764C69.4834 0.508042 70.308 0.236076 71.1345 0.309831Z" fill="white" stroke="#2E2A26" stroke-width="1.5" stroke-linecap="round" stroke-linejoin="round"/>
<path d="M1.74272 66.0578C2.13031 66.4921 2.37032 67.0383 2.42818 67.618C2.48605 68.1976 2.35879 68.7806 2.06472 69.2832L1.34022 70.5532C1.14941 70.8943 1.03254 71.2718 0.997201 71.6612C0.961868 72.0506 1.00887 72.443 1.13515 72.813C1.26143 73.1829 1.46415 73.5221 1.73008 73.8083C1.99602 74.0945 2.31919 74.3213 2.67854 74.474L3.98667 75.0485C4.52158 75.2679 4.97484 75.6489 5.28329 76.1385C5.59173 76.6282 5.73997 77.202 5.70736 77.78L5.59667 79.1911C5.56687 79.5862 5.62227 79.983 5.75911 80.3547C5.89595 80.7264 6.11103 81.0643 6.38974 81.3454C6.66845 81.6264 7.00428 81.8442 7.37442 81.9838C7.74456 82.1234 8.14035 82.1816 8.53493 82.1544L9.97388 82.0637C10.5535 82.024 11.1306 82.1708 11.6212 82.4826C12.1117 82.7945 12.4899 83.2551 12.7008 83.7974L13.2341 85.148C13.3831 85.5136 13.6073 85.8437 13.8921 86.1167C14.1769 86.3898 14.5159 86.5997 14.887 86.7329C15.2582 86.866 15.6532 86.9193 16.0463 86.8894C16.4394 86.8594 16.8218 86.7469 17.1686 86.5591L18.4566 85.8737C18.9685 85.5953 19.5539 85.4826 20.1324 85.5512C20.7108 85.6198 21.2538 85.8662 21.6867 86.2567L22.6929 87.2646C22.9843 87.5341 23.33 87.7377 23.7067 87.8616C24.0835 87.9855 24.4824 88.0269 24.8765 87.983C25.2706 87.939 25.6507 87.8107 25.9909 87.6068C26.3312 87.4028 26.6238 87.128 26.8488 86.801L27.684 85.6116C28.0224 85.1529 28.494 84.8099 29.0342 84.6296C29.5745 84.4492 30.1572 84.4401 30.7027 84.6037L32.0914 85.0169C32.4687 85.1347 32.8669 85.1695 33.2588 85.119C33.6508 85.0685 34.0273 84.9339 34.3625 84.7243C34.6978 84.5148 34.984 84.2353 35.2016 83.9048C35.4192 83.5744 35.563 83.2008 35.6233 82.8096L35.8849 81.3884C35.9721 80.7977 36.2474 80.2509 36.6699 79.8296C37.0924 79.4082 37.6394 79.1348 38.2295 79.05L39.6483 78.8081C40.0377 78.7446 40.4094 78.5996 40.7391 78.3825C41.0688 78.1655 41.3491 77.8813 41.5618 77.5484C41.7745 77.2156 41.9147 76.8415 41.9734 76.4507C42.0321 76.0599 42.0079 75.6611 41.9023 75.2804L41.52 73.9197C41.3691 73.3639 41.3935 72.775 41.5898 72.2336C41.7862 71.6923 42.1449 71.225 42.6168 70.8959L43.784 70.0795C44.1141 69.8538 44.3919 69.5596 44.5985 69.217C44.8052 68.8743 44.9358 68.4911 44.9816 68.0935C45.0274 67.6958 44.9873 67.2929 44.864 66.9121C44.7407 66.5313 44.5371 66.1815 44.267 65.8865L43.3111 64.8785C42.9265 64.4424 42.6892 63.8957 42.6332 63.3165C42.5772 62.7373 42.7053 62.1551 42.9991 61.6532L43.7236 60.3832C43.9128 60.0417 44.0284 59.6643 44.063 59.2754C44.0975 58.8864 44.0501 58.4945 43.924 58.125C43.7979 57.7555 43.5958 57.4166 43.3307 57.1302C43.0657 56.8438 42.7436 56.6163 42.3853 56.4623L41.0772 55.8878C40.5405 55.671 40.0855 55.2905 39.7767 54.8003C39.4678 54.3101 39.3208 53.7349 39.3565 53.1563L39.4672 51.7452C39.4955 51.3497 39.4387 50.9526 39.3006 50.581C39.1626 50.2093 38.9466 49.8716 38.6671 49.5907C38.3876 49.3098 38.0512 49.0922 37.6806 48.9527C37.31 48.8132 36.9139 48.755 36.5189 48.7819L35.0799 48.8726C34.5026 48.9141 33.9272 48.769 33.4382 48.4588C32.9493 48.1486 32.5724 47.6896 32.363 47.1491L31.8297 45.7985C31.6807 45.4328 31.4566 45.1028 31.1718 44.8297C30.887 44.5566 30.548 44.3467 30.1768 44.2136C29.8057 44.0805 29.4107 44.0271 29.0176 44.0571C28.6245 44.087 28.2421 44.1995 27.8953 44.3874L26.4563 45.0828C25.9444 45.3613 25.359 45.4739 24.7805 45.4053C24.2021 45.3368 23.6591 45.0903 23.2262 44.6998L22.22 43.6919C21.9268 43.4332 21.5822 43.2396 21.2089 43.1239C20.8356 43.0082 20.4421 42.973 20.0543 43.0206C19.6664 43.0682 19.2931 43.1975 18.9587 43.4001C18.6244 43.6027 18.3366 43.8739 18.1145 44.1958L17.2893 45.3852C16.9499 45.8428 16.4783 46.1849 15.9384 46.3652C15.3984 46.5454 14.8162 46.5552 14.2706 46.3931L12.8518 45.99C12.4745 45.874 12.0767 45.8405 11.6854 45.8917C11.294 45.943 10.9182 46.0778 10.5834 46.2871C10.2486 46.4964 9.96247 46.7752 9.74448 47.1047C9.52649 47.4343 9.38167 47.8069 9.31981 48.1973L9.04813 49.6185C8.95029 50.1953 8.67273 50.7264 8.25519 51.1356C7.83766 51.5447 7.30156 51.8111 6.72368 51.8964L5.2948 52.1383C4.90683 52.2048 4.53698 52.3516 4.20892 52.5694C3.88086 52.7872 3.60182 53.0713 3.38965 53.4034C3.17748 53.7354 3.03686 54.1082 2.97678 54.4978C2.91671 54.8875 2.93851 55.2854 3.04079 55.6661L3.45335 57.0772C3.59834 57.6331 3.57107 58.2201 3.37517 58.7602C3.17927 59.3003 2.824 59.7679 2.35653 60.101L1.18928 60.9174C0.867757 61.1436 0.597429 61.4352 0.395906 61.7731C0.194384 62.111 0.0661888 62.4876 0.0196714 62.8784C-0.0268459 63.2693 0.00935863 63.6655 0.125926 64.0414C0.242494 64.4173 0.43681 64.7643 0.696215 65.06L1.74272 66.0578ZM10.9298 61.8951L17.9032 60.6956L19.9157 53.8921C19.9966 53.6088 20.1605 53.3564 20.3863 53.1675C20.6121 52.9787 20.8892 52.862 21.1819 52.8327C21.4746 52.8034 21.7694 52.8627 22.028 53.0031C22.2866 53.1435 22.4972 53.3584 22.6326 53.62L25.9532 59.8994L32.997 59.6978C33.3034 59.6654 33.6122 59.7291 33.881 59.8799C34.1497 60.0307 34.3652 60.2613 34.4977 60.54C34.6301 60.8186 34.673 61.1315 34.6205 61.4355C34.568 61.7396 34.4227 62.0199 34.2045 62.2378L29.1732 67.3379L31.5379 74.0608C31.6369 74.3411 31.6506 74.6446 31.5773 74.9327C31.504 75.2209 31.3469 75.4807 31.1259 75.6794C30.905 75.878 30.6302 76.0064 30.3363 76.0485C30.0424 76.0905 29.7427 76.0441 29.4751 75.9154L23.1558 72.7404L17.5409 77.0543C17.3022 77.2319 17.0164 77.3348 16.7195 77.3503C16.4225 77.3657 16.1276 77.293 15.8718 77.1412C15.616 76.9894 15.4106 76.7652 15.2815 76.497C15.1524 76.2287 15.1053 75.9282 15.146 75.6331L16.1523 68.5776L10.3059 64.5459C10.0589 64.3821 9.86791 64.1463 9.75876 63.8703C9.64962 63.5944 9.62756 63.2916 9.69555 63.0027C9.76354 62.7138 9.91831 62.4528 10.139 62.2547C10.3597 62.0567 10.6357 61.9311 10.9298 61.8951Z" fill="#FFBB0F"/>
</svg>
