<svg width="35" height="35" viewBox="0 0 35 35" fill="none" xmlns="http://www.w3.org/2000/svg">
<path d="M17.5 35C27.165 35 35 27.165 35 17.5C35 7.83502 27.165 0 17.5 0C7.83502 0 0 7.83502 0 17.5C0 27.165 7.83502 35 17.5 35Z" fill="#16A1DC"/>
<path d="M6.72559 23.9075C6.72559 23.9075 13.4833 29.772 21.6635 25.8154C28.4407 22.5288 27.1153 13.9845 27.1153 13.9845L29.6155 11.4504L27.494 11.4989L29.3825 9.55703L26.2366 10.2707C26.2366 10.2707 24.0471 6.61508 20.3187 8.28024C16.9593 9.78035 18.1681 13.7515 18.1681 13.7515C18.1681 13.7515 12.5512 16.3536 7.72565 10.2707C7.72565 10.2707 6.41003 13.7224 9.92969 15.271H7.41981C7.41981 15.271 7.30815 17.3003 10.7307 18.5576H8.182C8.182 18.5576 9.36654 21.7666 13.493 21.2229C13.4785 21.2229 12.7745 24.0629 6.72559 23.9075Z" stroke="white" stroke-width="1.2" stroke-linecap="round" stroke-linejoin="round"/>
</svg>
