<svg width="34" height="30" viewBox="0 0 34 30" fill="none" xmlns="http://www.w3.org/2000/svg">
<path d="M30.5216 4H3.47838C2.10961 4 1 5.1117 1 6.48305V26.517C1 27.8883 2.10961 29 3.47838 29H30.5216C31.8904 29 33 27.8883 33 26.517V6.48305C33 5.1117 31.8904 4 30.5216 4Z" fill="white" stroke="#16A1DC" stroke-width="1.5" stroke-linecap="round" stroke-linejoin="round"/>
<path d="M1.5 13.5V6.42454C1.5 5.91771 1.70571 5.42935 2.07555 5.06754C2.44577 4.70537 2.95018 4.5 3.47838 4.5H30.5216C31.0498 4.5 31.5542 4.70537 31.9244 5.06754C32.2943 5.42935 32.5 5.91771 32.5 6.42454V13.5H1.5Z" fill="#16A1DC" stroke="#16A1DC"/>
<mask id="path-3-inside-1" fill="white">
<path d="M27 4V2.21538C27 1.62783 26.7705 1.06434 26.3619 0.648871C25.9534 0.233406 25.3993 0 24.8215 0H9.17852C8.60074 0 8.04662 0.233406 7.63807 0.648871C7.22952 1.06434 7 1.62783 7 2.21538V4"/>
</mask>
<path d="M27 4V2.21538C27 1.62783 26.7705 1.06434 26.3619 0.648871C25.9534 0.233406 25.3993 0 24.8215 0H9.17852C8.60074 0 8.04662 0.233406 7.63807 0.648871C7.22952 1.06434 7 1.62783 7 2.21538V4" fill="#16A1DC"/>
<path d="M28 4V2.21538H26V4H28ZM28 2.21538C28 1.36798 27.6691 0.551965 27.0749 -0.052278L25.6489 1.35002C25.8718 1.57671 26 1.88768 26 2.21538H28ZM27.0749 -0.052278C26.4802 -0.657089 25.6699 -1 24.8215 -1V1C25.1286 1 25.4266 1.1239 25.6489 1.35002L27.0749 -0.052278ZM24.8215 -1H9.17852V1H24.8215V-1ZM9.17852 -1C8.33006 -1 7.5198 -0.657089 6.92506 -0.052278L8.35109 1.35002C8.57344 1.1239 8.87142 1 9.17852 1V-1ZM6.92506 -0.052278C6.33087 0.551964 6 1.36798 6 2.21538H8C8 1.88768 8.12817 1.57671 8.35109 1.35002L6.92506 -0.052278ZM6 2.21538V4H8V2.21538H6Z" fill="#16A1DC" mask="url(#path-3-inside-1)"/>
<path d="M5 10C6.10457 10 7 9.10457 7 8C7 6.89543 6.10457 6 5 6C3.89543 6 3 6.89543 3 8C3 9.10457 3.89543 10 5 10Z" fill="white"/>
<path d="M17.5 26C22.7467 26 27 21.7467 27 16.5C27 11.2533 22.7467 7 17.5 7C12.2533 7 8 11.2533 8 16.5C8 21.7467 12.2533 26 17.5 26Z" fill="white" stroke="#16A1DC" stroke-width="1.5" stroke-linecap="round" stroke-linejoin="round"/>
<path d="M23.5 16.5C23.5 19.8137 20.8137 22.5 17.5 22.5C14.1863 22.5 11.5 19.8137 11.5 16.5C11.5 13.1863 14.1863 10.5 17.5 10.5C20.8137 10.5 23.5 13.1863 23.5 16.5Z" fill="#16A1DC" stroke="#16A1DC"/>
</svg>
