<svg width="39" height="39" viewBox="0 0 39 39" fill="none" xmlns="http://www.w3.org/2000/svg">
<path d="M19.5 39C30.2696 39 39 30.2696 39 19.5C39 8.73045 30.2696 0 19.5 0C8.73045 0 0 8.73045 0 19.5C0 30.2696 8.73045 39 19.5 39Z" fill="#16A1DC"/>
<path d="M30.5682 8C30.7567 8 30.9434 8.03772 31.1175 8.11101C31.2916 8.1843 31.4497 8.29171 31.5827 8.42707C31.7158 8.56244 31.8211 8.72309 31.8927 8.89981C31.9643 9.07654 32.0008 9.26585 32 9.45689V26.229C32.0008 26.4201 31.9643 26.6094 31.8927 26.7861C31.8211 26.9628 31.7158 27.1235 31.5827 27.2589C31.4497 27.3942 31.2916 27.5016 31.1175 27.5749C30.9434 27.6482 30.7567 27.6859 30.5682 27.6859H28.5237V33C27.8348 33.0008 27.1526 32.8639 26.516 32.5971C25.8794 32.3303 25.301 31.9389 24.8139 31.4453C24.3268 30.9517 23.9406 30.3656 23.6773 29.7205C23.4141 29.0754 23.279 28.384 23.2797 27.6859H8.43766C8.05637 27.6859 7.6907 27.5324 7.42108 27.2592C7.15147 26.986 7 26.6154 7 26.229V9.45689C7 9.0705 7.15147 8.69993 7.42108 8.42671C7.6907 8.15349 8.05637 8 8.43766 8H30.5682Z" stroke="white" stroke-width="1.5" stroke-linecap="round" stroke-linejoin="round"/>
<path d="M11 16H29" stroke="white" stroke-width="1.5" stroke-linecap="round" stroke-linejoin="round"/>
<path d="M11 13H29" stroke="white" stroke-width="1.5" stroke-linecap="round" stroke-linejoin="round"/>
<path d="M11 19H29" stroke="white" stroke-width="1.5" stroke-linecap="round" stroke-linejoin="round"/>
<path d="M11 22H29" stroke="white" stroke-width="1.5" stroke-linecap="round" stroke-linejoin="round"/>
</svg>
