<svg width="37" height="32" viewBox="0 0 37 32" fill="none" xmlns="http://www.w3.org/2000/svg">
<path d="M1 9.96703V3.92308C1 3.14783 1.29886 2.40433 1.83084 1.85615C2.36281 1.30797 3.08433 1 3.83666 1H33.2163C33.5818 1 33.9438 1.07419 34.2815 1.21832C34.6191 1.36246 34.926 1.57373 35.1844 1.84006C35.4429 2.10639 35.6479 2.42257 35.7878 2.77055C35.9277 3.11852 35.9997 3.49148 35.9997 3.86813V31H28.0762" stroke="#2E2A26" stroke-width="1.4" stroke-linecap="round" stroke-linejoin="round"/>
<path d="M1.00034 6.96681V28.1976C0.994681 28.5635 1.05974 28.9269 1.19172 29.2666C1.3237 29.6063 1.51996 29.9156 1.76908 30.1764C2.0182 30.4372 2.3152 30.6443 2.64276 30.7857C2.97032 30.927 3.32191 30.9998 3.67704 30.9998H29.143V9.13164C29.143 8.54875 28.9183 7.98973 28.5183 7.57756C28.1183 7.16539 27.5758 6.93384 27.0101 6.93384H3.93297" stroke="#2E2A26" stroke-width="1.4" stroke-linecap="round" stroke-linejoin="round"/>
<path d="M1 4.02197C1 4.79722 1.29886 5.54072 1.83084 6.0889C2.36281 6.63708 3.08433 6.94505 3.83666 6.94505H5.46827" stroke="#2E2A26" stroke-width="1.4" stroke-linecap="round" stroke-linejoin="round"/>
<path d="M25.7307 10.769H5.21289V19.3515H25.7307V10.769Z" fill="white" stroke="#2E2A26" stroke-width="1.4" stroke-linecap="round" stroke-linejoin="round"/>
<path d="M1 9.98902V3.94507" stroke="#2E2A26" stroke-width="1.4" stroke-linecap="round" stroke-linejoin="round"/>
<path d="M5.21289 23.8572H13.9255" stroke="#2E2A26" stroke-width="1.4" stroke-linecap="round" stroke-linejoin="round"/>
<path d="M5.21289 26.8792H13.9255" stroke="#2E2A26" stroke-width="1.4" stroke-linecap="round" stroke-linejoin="round"/>
<path d="M16.9434 23.8572H25.6559" stroke="#2E2A26" stroke-width="1.4" stroke-linecap="round" stroke-linejoin="round"/>
<path d="M16.9434 26.8792H25.6559" stroke="#2E2A26" stroke-width="1.4" stroke-linecap="round" stroke-linejoin="round"/>
<path d="M1.32031 3.71436H30.2201C30.8451 3.71436 31.4446 3.97022 31.8866 4.42567C32.3286 4.88111 32.5769 5.49883 32.5769 6.14293V30.9012" stroke="#2E2A26" stroke-width="1.4" stroke-linecap="round" stroke-linejoin="round"/>
</svg>
