<svg width="23" height="23" viewBox="0 0 23 23" fill="none" xmlns="http://www.w3.org/2000/svg">
<path d="M19.6923 1H3.30769C2.03319 1 1 2.03319 1 3.30769V19.6923C1 20.9668 2.03319 22 3.30769 22H19.6923C20.9668 22 22 20.9668 22 19.6923V3.30769C22 2.03319 20.9668 1 19.6923 1Z" stroke="white" stroke-linecap="round" stroke-linejoin="round"/>
<path d="M16.7785 10.4519V8.79801C16.7785 8.30609 16.681 7.81905 16.4916 7.36505C16.3022 6.91105 16.0246 6.49912 15.675 6.15307C15.3254 5.80702 14.9106 5.53373 14.4547 5.349C13.9988 5.16427 13.5107 5.07177 13.0189 5.07686H11.8842C11.4008 5.07797 10.9225 5.17577 10.4774 5.3645C10.0323 5.55323 9.62951 5.82907 9.29263 6.1758C8.95576 6.52254 8.69164 6.93315 8.51582 7.38347C8.34 7.8338 8.25603 8.31475 8.26885 8.79801V21.9999H11.99V15.3269H14.4131V12.9038H11.99V9.05763C11.9798 8.98154 11.9859 8.90414 12.0081 8.83062C12.0302 8.7571 12.0678 8.68917 12.1183 8.63138C12.1689 8.57358 12.2312 8.52726 12.3011 8.49553C12.371 8.46379 12.4469 8.44737 12.5237 8.44737C12.6004 8.44737 12.6763 8.46379 12.7462 8.49553C12.8161 8.52726 12.8785 8.57358 12.929 8.63138C12.9795 8.68917 13.0171 8.7571 13.0393 8.83062C13.0614 8.90414 13.0676 8.98154 13.0573 9.05763V10.423L16.7785 10.4519Z" stroke="white" stroke-linecap="round" stroke-linejoin="round"/>
</svg>
