<svg width="35" height="30" viewBox="0 0 35 30" fill="none" xmlns="http://www.w3.org/2000/svg">
<path d="M0.733398 16.1891L9.79777 6.96411L21.3981 17.7142" stroke="#2E2A26" stroke-width="1.4" stroke-linecap="round" stroke-linejoin="round"/>
<path d="M10.8662 29.2534L24.8767 14.9946L34.2659 24.5503" stroke="#2E2A26" stroke-width="1.4" stroke-linecap="round" stroke-linejoin="round"/>
<path d="M26.7323 10.8994C28.4106 10.8994 29.7712 9.51475 29.7712 7.80665C29.7712 6.09855 28.4106 4.71387 26.7323 4.71387C25.0539 4.71387 23.6934 6.09855 23.6934 7.80665C23.6934 9.51475 25.0539 10.8994 26.7323 10.8994Z" stroke="#2E2A26" stroke-width="1.4" stroke-linecap="round" stroke-linejoin="round"/>
<path d="M32.7993 0.746582H2.20046C1.39023 0.746582 0.733398 1.41505 0.733398 2.23965V27.7604C0.733398 28.585 1.39023 29.2535 2.20046 29.2535H32.7993C33.6095 29.2535 34.2663 28.585 34.2663 27.7604V2.23965C34.2663 1.41505 33.6095 0.746582 32.7993 0.746582Z" stroke="#2E2A26" stroke-width="1.4" stroke-linecap="round" stroke-linejoin="round"/>
</svg>
