<svg width="36" height="36" viewBox="0 0 36 36" fill="none" xmlns="http://www.w3.org/2000/svg">
<path d="M17.8998 1.3877C21.5461 1.39107 25.0939 2.57159 28.0153 4.75362C30.9367 6.93564 33.0755 10.0025 34.1136 13.498C35.1516 16.9935 35.0334 20.7307 33.7765 24.1535C32.5196 27.5764 30.1912 30.502 27.1377 32.495C24.0843 34.488 20.4689 35.4419 16.8297 35.2148C13.1904 34.9877 9.72172 33.5917 6.93973 31.2346C4.15773 28.8774 2.2111 25.685 1.38949 22.1324C0.567879 18.5799 0.915194 14.857 2.37976 11.5177L17.8998 18.3177V1.3877Z" stroke="#252B2D" stroke-width="1.5" stroke-linecap="round" stroke-linejoin="round"/>
<path d="M2.37988 11.5177C3.70304 8.504 5.87548 5.94103 8.63169 4.14203C11.3879 2.34303 14.6085 1.38593 17.8999 1.3877V18.3277L2.37988 11.5177Z" fill="#252B2D"/>
</svg>
