<svg width="48" height="40" viewBox="0 0 48 40" fill="none" xmlns="http://www.w3.org/2000/svg">
<path d="M37.2125 39.8181H0V7.50757H37.2125L48 23.6996L37.2125 39.8181Z" fill="#16A1DC"/>
<path d="M35.81 20.5242C35.81 23.7765 34.864 26.9559 33.0916 29.6601C31.3193 32.3644 28.8002 34.4721 25.8529 35.7167C22.9056 36.9614 19.6624 37.287 16.5336 36.6525C13.4047 36.018 10.5307 34.4518 8.27493 32.1521C6.01916 29.8523 4.48296 26.9222 3.86059 23.7323C3.23823 20.5424 3.55765 17.236 4.77846 14.2312C5.99928 11.2264 8.06665 8.65813 10.7192 6.8512C13.3717 5.04428 16.4902 4.07983 19.6803 4.07983C23.9582 4.07983 28.0608 5.81236 31.0857 8.89627C34.1106 11.9802 35.81 16.1629 35.81 20.5242Z" fill="white" stroke="#252B2D" stroke-width="1.5" stroke-linecap="round" stroke-linejoin="round"/>
<path d="M27.2191 24.1096L22.3204 33.7092L13.7296 27.3375L13.5131 15.3932L22.176 13.2798L27.2191 24.1096Z" stroke="#252B2D" stroke-width="1.5" stroke-linecap="round" stroke-linejoin="round"/>
<path d="M21.0576 8.94977L12.6145 10.9735C11.3559 11.2752 10.5749 12.5577 10.8702 13.8381C11.1654 15.1185 12.4251 15.9119 13.6837 15.6102L22.1268 13.5865C23.3854 13.2848 24.1664 12.0023 23.8711 10.7219C23.5759 9.44148 22.3162 8.64809 21.0576 8.94977Z" fill="#16A1DC" stroke="#16A1DC" stroke-width="1.5" stroke-linecap="round" stroke-linejoin="round"/>
<path d="M20.206 0.98877L9.9032 3.45965L12.4402 10.8933L21.1857 8.79044L20.206 0.98877Z" fill="#16A1DC" stroke="#16A1DC" stroke-width="1.5" stroke-linecap="round" stroke-linejoin="round"/>
<path d="M20.4537 25.6343L22.3204 33.7092" stroke="#252B2D" stroke-width="1.5" stroke-linecap="round" stroke-linejoin="round"/>
<path d="M20.0003 25.6868C21.0996 25.6868 21.9907 24.7783 21.9907 23.6576C21.9907 22.5369 21.0996 21.6284 20.0003 21.6284C18.901 21.6284 18.0099 22.5369 18.0099 23.6576C18.0099 24.7783 18.901 25.6868 20.0003 25.6868Z" stroke="#252B2D" stroke-width="1.5" stroke-linecap="round" stroke-linejoin="round"/>
</svg>
