<svg width="48" height="40" viewBox="0 0 48 40" fill="none" xmlns="http://www.w3.org/2000/svg">
<path d="M37.2125 39.6506H0V7.32983H37.2125L48 23.5323L37.2125 39.6506Z" fill="#16A1DC"/>
<path d="M36.1293 20.546C36.1293 23.7984 35.1833 26.9778 33.411 29.6821C31.6386 32.3863 29.1195 34.4941 26.1722 35.7387C23.2249 36.9834 19.9818 37.309 16.8529 36.6745C13.7241 36.04 10.85 34.4738 8.59427 32.174C6.3385 29.8742 4.8023 26.9441 4.17993 23.7542C3.55756 20.5643 3.87698 17.2578 5.0978 14.253C6.31861 11.2482 8.38599 8.67989 11.0385 6.87295C13.691 5.06601 16.8095 4.10156 19.9997 4.10156C22.1178 4.10156 24.2153 4.52691 26.1722 5.35332C28.1291 6.17973 29.9073 7.39102 31.405 8.91803C32.9028 10.445 34.0909 12.2579 34.9015 14.253C35.7121 16.2481 36.1293 18.3865 36.1293 20.546Z" fill="white" stroke="#252B2D" stroke-width="1.5" stroke-linecap="round" stroke-linejoin="round"/>
<path d="M19.9998 36.181C22.3873 36.2133 24.7482 35.6679 26.8887 34.5895C29.0293 33.5111 30.8885 31.9306 32.3137 29.9775C30.8885 28.0245 29.0293 26.444 26.8887 25.3656C24.7482 24.2872 22.3873 23.7418 19.9998 23.7741C17.6124 23.7418 15.2515 24.2872 13.111 25.3656C10.9704 26.444 9.11123 28.0245 7.68604 29.9775C9.11123 31.9306 10.9704 33.5111 13.111 34.5895C15.2515 35.6679 17.6124 36.2133 19.9998 36.181Z" fill="#16A1DC"/>
<path d="M30.1588 11.3986C30.1588 17.1394 19.9592 28.4949 19.9592 28.4949C19.9592 28.4949 9.75952 17.1394 9.75952 11.3986C9.75952 8.64075 10.8341 5.99581 12.7469 4.04569C14.6597 2.09557 17.254 1 19.9592 1C22.6643 1 25.2586 2.09557 27.1714 4.04569C29.0842 5.99581 30.1588 8.64075 30.1588 11.3986Z" fill="white" stroke="#252B2D" stroke-width="1.5" stroke-linecap="round" stroke-linejoin="round"/>
<path d="M20.0004 14.374C21.823 14.374 23.3006 12.8677 23.3006 11.0095C23.3006 9.15136 21.823 7.64502 20.0004 7.64502C18.1777 7.64502 16.7002 9.15136 16.7002 11.0095C16.7002 12.8677 18.1777 14.374 20.0004 14.374Z" fill="white" stroke="#252B2D" stroke-width="1.5" stroke-linecap="round" stroke-linejoin="round"/>
</svg>
