<svg width="21" height="21" viewBox="0 0 21 21" fill="none" xmlns="http://www.w3.org/2000/svg">
<path d="M0.274809 17.5606L8.74179 1.13908C8.92068 0.792563 9.17722 0.504986 9.48576 0.305095C9.7943 0.105204 10.144 0 10.5 0C10.856 0 11.2057 0.105204 11.5142 0.305095C11.8228 0.504986 12.0793 0.792563 12.2582 1.13908L20.7252 17.5606C20.9046 17.9086 20.9993 18.3036 21 18.706C21.0006 19.1083 20.9071 19.5037 20.7289 19.8524C20.5506 20.2011 20.2939 20.4908 19.9846 20.6923C19.6753 20.8937 19.3243 20.9999 18.967 21H2.03302C1.6757 20.9999 1.32471 20.8937 1.0154 20.6923C0.70609 20.4908 0.449383 20.2011 0.271127 19.8524C0.0928702 19.5037 -0.000643057 19.1083 3.32835e-06 18.706C0.000649713 18.3036 0.0954329 17.9086 0.274809 17.5606Z" fill="#EBF7FE"/>
<path d="M10.5325 18.8378C10.3474 18.8411 10.1638 18.8006 9.99347 18.7189C9.82318 18.6372 9.67005 18.516 9.54401 18.3634C9.28455 18.0592 9.13965 17.6538 9.13965 17.2321C9.13965 16.8104 9.28455 16.405 9.54401 16.1009C9.6704 15.9512 9.82249 15.8321 9.99102 15.7507C10.1596 15.6693 10.341 15.6274 10.5244 15.6274C10.7078 15.6274 10.8893 15.6693 11.0578 15.7507C11.2263 15.8321 11.3784 15.9512 11.5048 16.1009C11.7643 16.405 11.9092 16.8104 11.9092 17.2321C11.9092 17.6538 11.7643 18.0592 11.5048 18.3634C11.3812 18.5146 11.2308 18.635 11.0634 18.7167C10.8959 18.7985 10.715 18.8397 10.5325 18.8378ZM9.60883 14.039L9.35766 6.87743C9.34998 6.69841 9.37468 6.51951 9.43027 6.35157C9.48586 6.18363 9.57118 6.03016 9.68105 5.90047C9.79092 5.77079 9.92305 5.6676 10.0694 5.59716C10.2158 5.52673 10.3733 5.49051 10.5325 5.49072C10.691 5.49057 10.8478 5.52651 10.9936 5.59639C11.1394 5.66627 11.2712 5.76863 11.3809 5.89732C11.4907 6.02602 11.5762 6.17838 11.6323 6.34525C11.6884 6.51212 11.7139 6.69004 11.7073 6.86831L11.4562 14.0299L9.60883 14.039Z" fill="#252B2D"/>
</svg>
