<svg width="29" height="29" viewBox="0 0 29 29" fill="none" xmlns="http://www.w3.org/2000/svg">
<path d="M25.033 1H3.96703C2.32839 1 1 2.32839 1 3.96703V25.033C1 26.6716 2.32839 28 3.96703 28H25.033C26.6716 28 28 26.6716 28 25.033V3.96703C28 2.32839 26.6716 1 25.033 1Z" stroke="#849899" stroke-width="1.5" stroke-linecap="round" stroke-linejoin="round"/>
<path d="M14.4997 21.1884C18.1935 21.1884 21.1879 18.194 21.1879 14.5002C21.1879 10.8064 18.1935 7.81201 14.4997 7.81201C10.8059 7.81201 7.81152 10.8064 7.81152 14.5002C7.81152 18.194 10.8059 21.1884 14.4997 21.1884Z" stroke="#849899" stroke-width="1.5" stroke-linecap="round" stroke-linejoin="round"/>
<path d="M23.0667 7.91071C24.043 7.91071 24.8345 7.11922 24.8345 6.14286C24.8345 5.1665 24.043 4.375 23.0667 4.375C22.0903 4.375 21.2988 5.1665 21.2988 6.14286C21.2988 7.11922 22.0903 7.91071 23.0667 7.91071Z" stroke="#849899" stroke-width="1.5" stroke-linecap="round" stroke-linejoin="round"/>
</svg>
