<svg width="35" height="30" viewBox="0 0 35 30" fill="none" xmlns="http://www.w3.org/2000/svg">
<path d="M31.2371 22.9014C32.0396 22.8878 32.8054 22.5551 33.3729 21.9736C33.9404 21.3921 34.2651 20.6074 34.2784 19.7852V7.49997C34.2345 7.11126 34.0527 6.75263 33.7676 6.49232C33.4824 6.232 33.1139 6.08817 32.732 6.08817C32.3501 6.08817 31.9815 6.232 31.6964 6.49232C31.4113 6.75263 31.2295 7.11126 31.1856 7.49997V4.98588C31.1856 4.56565 31.0227 4.16262 30.7326 3.86547C30.4426 3.56832 30.0493 3.40138 29.6392 3.40138C29.2291 3.40138 28.8357 3.56832 28.5457 3.86547C28.2557 4.16262 28.0928 4.56565 28.0928 4.98588V10.8591V2.32391C28.0489 1.9352 27.8671 1.57657 27.582 1.31626C27.2969 1.05595 26.9283 0.912109 26.5464 0.912109C26.1645 0.912109 25.7959 1.05595 25.5108 1.31626C25.2257 1.57657 25.0439 1.9352 25 2.32391V5.57743C25 5.1572 24.8371 4.75417 24.5471 4.45702C24.2571 4.15986 23.8637 3.99293 23.4536 3.99293C23.0435 3.99293 22.6502 4.15986 22.3602 4.45702C22.0702 4.75417 21.9072 5.1572 21.9072 5.57743V11.0598" stroke="#2E2A26" stroke-width="1.4" stroke-linecap="round" stroke-linejoin="round"/>
<path d="M24.9795 5.57764V10.8382" stroke="#2E2A26" stroke-width="1.4" stroke-linecap="round" stroke-linejoin="round"/>
<path d="M31.165 7.27832V10.8382" stroke="#2E2A26" stroke-width="1.4" stroke-linecap="round" stroke-linejoin="round"/>
<path d="M25.9075 20.3029C26.0184 19.8209 26.0225 19.3195 25.9196 18.8355C25.8167 18.3516 25.6093 17.8974 25.3127 17.5064C25.016 17.1153 24.6377 16.7973 24.2055 16.5756C23.7732 16.354 23.298 16.2343 22.8147 16.2255H22.6807V12.4226C22.6807 12.0024 22.5177 11.5994 22.2277 11.3022C21.9377 11.0051 21.5444 10.8381 21.1343 10.8381V10.8381C20.7242 10.8381 20.3308 11.0051 20.0408 11.3022C19.7508 11.5994 19.5879 12.0024 19.5879 12.4226V19.6163C19.5879 21.3381 20.4229 22.9015 23.3302 22.9015V26.1445" stroke="#2E2A26" stroke-width="1.4" stroke-linecap="round" stroke-linejoin="round"/>
<path d="M31.7217 22.9014V26.1443" stroke="#2E2A26" stroke-width="1.4" stroke-linecap="round" stroke-linejoin="round"/>
<path d="M21.9893 29.2606V26.7571C21.9893 26.5946 22.0523 26.4387 22.1644 26.3238C22.2765 26.2089 22.4286 26.1444 22.5872 26.1444H32.2676C32.347 26.143 32.4259 26.1578 32.4996 26.1879C32.5733 26.2181 32.6405 26.263 32.6971 26.32C32.7537 26.3771 32.7987 26.4451 32.8294 26.5201C32.8601 26.5952 32.8759 26.6757 32.8759 26.7571V29.2606" stroke="#2E2A26" stroke-width="1.4" stroke-linecap="round" stroke-linejoin="round"/>
<path d="M12.3711 22.9015C13.1825 22.9016 13.9615 22.575 14.54 21.992C15.1186 21.4091 15.4504 20.6166 15.4639 19.7853V7.50007C15.4639 7.07983 15.301 6.6768 15.011 6.37965C14.721 6.0825 14.3276 5.91556 13.9175 5.91556C13.5074 5.91556 13.1141 6.0825 12.8241 6.37965C12.534 6.6768 12.3711 7.07983 12.3711 7.50007V4.98598C12.3711 4.56574 12.2082 4.16272 11.9182 3.86557C11.6282 3.56841 11.2349 3.40147 10.8247 3.40147C10.4146 3.40147 10.0213 3.56841 9.73127 3.86557C9.44126 4.16272 9.27834 4.56574 9.27834 4.98598V10.8592V2.32401C9.27834 1.90377 9.11542 1.50075 8.82541 1.20359C8.53541 0.906441 8.14208 0.739502 7.73195 0.739502C7.32182 0.739502 6.92849 0.906441 6.63848 1.20359C6.34848 1.50075 6.18556 1.90377 6.18556 2.32401V5.57753C6.18556 5.15729 6.02263 4.75427 5.73263 4.45711C5.44262 4.15996 5.04929 3.99302 4.63917 3.99302C4.22904 3.99302 3.83571 4.15996 3.5457 4.45711C3.2557 4.75427 3.09277 5.15729 3.09277 5.57753V11.0599" stroke="#2E2A26" stroke-width="1.4" stroke-linecap="round" stroke-linejoin="round"/>
<path d="M6.1543 5.57764V10.8382" stroke="#2E2A26" stroke-width="1.4" stroke-linecap="round" stroke-linejoin="round"/>
<path d="M12.3398 7.27832V10.8382" stroke="#2E2A26" stroke-width="1.4" stroke-linecap="round" stroke-linejoin="round"/>
<path d="M7.07216 20.3029C7.18509 19.8207 7.1907 19.3186 7.08858 18.8338C6.98645 18.3491 6.77922 17.8941 6.48221 17.5025C6.18521 17.111 5.80604 16.7929 5.3728 16.5718C4.93955 16.3507 4.46332 16.2324 3.97937 16.2255H3.81443V12.4226C3.81443 12.0024 3.6515 11.5994 3.3615 11.3022C3.07149 11.0051 2.67816 10.8381 2.26803 10.8381V10.8381C1.85791 10.8381 1.46458 11.0051 1.17457 11.3022C0.884566 11.5994 0.721643 12.0024 0.721643 12.4226V19.3628C0.716484 19.4472 0.716484 19.5319 0.721643 19.6163C0.721643 21.3381 1.55669 22.9015 4.4536 22.9015V26.1445" stroke="#2E2A26" stroke-width="1.4" stroke-linecap="round" stroke-linejoin="round"/>
<path d="M12.8965 22.9014V26.1443" stroke="#2E2A26" stroke-width="1.4" stroke-linecap="round" stroke-linejoin="round"/>
<path d="M3.1543 29.2606V26.7571C3.15429 26.6757 3.17009 26.5952 3.20078 26.5201C3.23147 26.4451 3.27644 26.3771 3.33306 26.32C3.38968 26.263 3.45682 26.2181 3.53056 26.1879C3.6043 26.1578 3.68316 26.143 3.76254 26.1444H13.4017C13.5613 26.1444 13.7144 26.2086 13.8282 26.3232C13.942 26.4378 14.0073 26.5936 14.01 26.7571V29.2606" stroke="#2E2A26" stroke-width="1.4" stroke-linecap="round" stroke-linejoin="round"/>
</svg>
