<svg width="42" height="41" viewBox="0 0 42 41" fill="none" xmlns="http://www.w3.org/2000/svg">
<path d="M17.0213 40.0035C25.5934 40.0035 32.5426 33.0544 32.5426 24.4822C32.5426 15.91 25.5934 8.96094 17.0213 8.96094C8.44911 8.96094 1.5 15.91 1.5 24.4822C1.5 33.0544 8.44911 40.0035 17.0213 40.0035Z" stroke="white" stroke-width="1.5" stroke-miterlimit="10"/>
<path d="M17.021 4.81689C20.7388 4.81932 24.3798 5.87479 27.5225 7.86109C30.6651 9.84739 33.1809 12.6833 34.7784 16.0403C36.3759 19.3973 36.9898 23.1382 36.549 26.8298C36.1083 30.5213 34.6308 34.0125 32.2878 36.8991" stroke="white" stroke-width="1.5" stroke-miterlimit="10"/>
<path d="M17.021 1C21.4333 1.00196 25.7559 2.24665 29.4935 4.59151C33.2312 6.93637 36.2328 10.2866 38.1546 14.2584C40.0764 18.2302 40.8407 22.663 40.3598 27.049C39.8789 31.4351 38.1724 35.597 35.4357 39.058" stroke="white" stroke-width="1.5" stroke-miterlimit="10"/>
<path d="M23.2879 19.6113C23.2879 16.1463 20.4789 13.3374 17.0139 13.3374C13.5489 13.3374 10.74 16.1463 10.74 19.6113V25.9289C10.74 29.3939 13.5489 32.2028 17.0139 32.2028C20.4789 32.2028 23.2879 29.3939 23.2879 25.9289V19.6113Z" stroke="white" stroke-width="1.5" stroke-miterlimit="10"/>
<path d="M10.9438 18.7095H23.0919" stroke="white" stroke-width="1.5" stroke-miterlimit="10"/>
<path d="M10.9438 22.9624H23.0919" stroke="white" stroke-width="1.5" stroke-miterlimit="10"/>
<path d="M10.9438 27.208H23.0919" stroke="white" stroke-width="1.5" stroke-miterlimit="10"/>
<path d="M18.0244 32.2026V34.6235H19.4784C19.8775 34.6235 20.2603 34.7821 20.5425 35.0643C20.8247 35.3465 20.9832 35.7293 20.9832 36.1284V36.71H12.9863V36.1284C12.9862 35.927 13.0266 35.7277 13.1049 35.5422C13.1832 35.3568 13.298 35.1889 13.4424 35.0486C13.5868 34.9082 13.7579 34.7983 13.9455 34.7253C14.1332 34.6523 14.3336 34.6177 14.5348 34.6235H15.8507V32.2026" stroke="white" stroke-width="1.5" stroke-miterlimit="10"/>
</svg>
