<svg width="67" height="67" viewBox="0 0 67 67" fill="none" xmlns="http://www.w3.org/2000/svg">
<path d="M33.03 66.06C51.272 66.06 66.06 51.272 66.06 33.03C66.06 14.788 51.272 0 33.03 0C14.788 0 0 14.788 0 33.03C0 51.272 14.788 66.06 33.03 66.06Z" fill="#16A1DC"/>
<path d="M11 47.9199C11 47.9199 24.92 59.9999 41.77 51.8499C55.73 45.0799 53 27.4799 53 27.4799L58.15 22.2599L53.78 22.3599L57.67 18.3599L51.19 19.8299C51.19 19.8299 46.68 12.2999 39 15.7299C32.08 18.8199 34.57 26.9999 34.57 26.9999C34.57 26.9999 23 32.3599 13.06 19.8299C13.06 19.8299 10.35 26.9399 17.6 30.1299H12.43C12.43 30.1299 12.2 34.3099 19.25 36.8999H14C14 36.8999 16.44 43.5099 24.94 42.3899C24.91 42.3899 23.46 48.2399 11 47.9199Z" stroke="white" stroke-width="1.5" stroke-linecap="round" stroke-linejoin="round"/>
</svg>
