<svg width="23" height="20" viewBox="0 0 23 20" fill="none" xmlns="http://www.w3.org/2000/svg">
<path d="M1 15.9477C1 15.9477 7.18417 21.407 14.6777 17.7233C20.8921 14.6619 19.7137 6.73315 19.7137 6.73315L22 4.38615H20.0561L21.7885 2.57998L18.9079 3.24326C18.9079 3.24326 16.8935 -0.144587 13.4993 1.40648C10.4173 2.79427 11.4849 6.50866 11.4849 6.50866C11.4849 6.50866 6.32806 8.9373 1.90647 3.29428C1.57293 4.18113 1.59726 5.16534 1.9742 6.03416C2.35114 6.90298 3.05042 7.58661 3.92086 7.93727H1.62446C1.62446 7.93727 1.52374 9.81487 4.64604 10.9986H2.30935C2.7163 11.9147 3.42185 12.6611 4.30763 13.1126C5.1934 13.5641 6.2055 13.6932 7.1741 13.4782C7.1741 13.4782 6.53957 16.0906 1 15.9477Z" stroke="white" stroke-linecap="round" stroke-linejoin="round"/>
</svg>
