<svg width="41" height="46" viewBox="0 0 41 46" fill="none" xmlns="http://www.w3.org/2000/svg">
<path d="M18.9698 36.9074C26.2324 36.9074 32.1198 31.02 32.1198 23.7574C32.1198 16.4949 26.2324 10.6074 18.9698 10.6074C11.7073 10.6074 5.81982 16.4949 5.81982 23.7574C5.81982 31.02 11.7073 36.9074 18.9698 36.9074Z" stroke="#252B2D" stroke-width="1.5" stroke-linecap="round" stroke-linejoin="round"/>
<path d="M6.88979 12.4578C9.0216 12.4578 10.7498 10.7296 10.7498 8.59779C10.7498 6.46597 9.0216 4.73779 6.88979 4.73779C4.75797 4.73779 3.02979 6.46597 3.02979 8.59779C3.02979 10.7296 4.75797 12.4578 6.88979 12.4578Z" stroke="#252B2D" stroke-width="1.5" stroke-linecap="round" stroke-linejoin="round"/>
<path d="M31.7596 34.0676C34.0461 34.0676 35.8996 32.2141 35.8996 29.9276C35.8996 27.6411 34.0461 25.7876 31.7596 25.7876C29.4732 25.7876 27.6196 27.6411 27.6196 29.9276C27.6196 32.2141 29.4732 34.0676 31.7596 34.0676Z" fill="#252B2D" stroke="#252B2D" stroke-width="1.5" stroke-linecap="round" stroke-linejoin="round"/>
<path d="M5.9398 27.4475C8.22626 27.4475 10.0798 25.5939 10.0798 23.3075C10.0798 21.021 8.22626 19.1675 5.9398 19.1675C3.65335 19.1675 1.7998 21.021 1.7998 23.3075C1.7998 25.5939 3.65335 27.4475 5.9398 27.4475Z" fill="#252B2D" stroke="#252B2D" stroke-width="1.5" stroke-linecap="round" stroke-linejoin="round"/>
<path d="M35.8998 17.3576C38.1862 17.3576 40.0398 15.5041 40.0398 13.2176C40.0398 10.9312 38.1862 9.07764 35.8998 9.07764C33.6133 9.07764 31.7598 10.9312 31.7598 13.2176C31.7598 15.5041 33.6133 17.3576 35.8998 17.3576Z" stroke="#252B2D" stroke-width="1.5" stroke-linecap="round" stroke-linejoin="round"/>
<path d="M19.6799 25.3076C21.4914 25.3076 22.9599 23.8391 22.9599 22.0276C22.9599 20.2161 21.4914 18.7476 19.6799 18.7476C17.8684 18.7476 16.3999 20.2161 16.3999 22.0276C16.3999 23.8391 17.8684 25.3076 19.6799 25.3076Z" stroke="#252B2D" stroke-width="1.5" stroke-linecap="round" stroke-linejoin="round"/>
<path d="M26.2297 44.4277C28.0412 44.4277 29.5097 42.9592 29.5097 41.1477C29.5097 39.3362 28.0412 37.8677 26.2297 37.8677C24.4182 37.8677 22.9497 39.3362 22.9497 41.1477C22.9497 42.9592 24.4182 44.4277 26.2297 44.4277Z" stroke="#252B2D" stroke-width="1.5" stroke-linecap="round" stroke-linejoin="round"/>
<path d="M25.57 9.29764C27.8399 9.29764 29.68 7.45753 29.68 5.18764C29.68 2.91775 27.8399 1.07764 25.57 1.07764C23.3001 1.07764 21.46 2.91775 21.46 5.18764C21.46 7.45753 23.3001 9.29764 25.57 9.29764Z" stroke="#252B2D" stroke-width="1.5" stroke-linecap="round" stroke-linejoin="round"/>
<path d="M4.78984 41.2677C6.97137 41.2677 8.73984 39.4992 8.73984 37.3177C8.73984 35.1362 6.97137 33.3677 4.78984 33.3677C2.60832 33.3677 0.839844 35.1362 0.839844 37.3177C0.839844 39.4992 2.60832 41.2677 4.78984 41.2677Z" stroke="#252B2D" stroke-width="1.5" stroke-linecap="round" stroke-linejoin="round"/>
<path d="M16.4096 39.4477C18.3537 39.4477 19.9296 37.8718 19.9296 35.9277C19.9296 33.9837 18.3537 32.4077 16.4096 32.4077C14.4656 32.4077 12.8896 33.9837 12.8896 35.9277C12.8896 37.8718 14.4656 39.4477 16.4096 39.4477Z" fill="#252B2D" stroke="#252B2D" stroke-width="1.5" stroke-linecap="round" stroke-linejoin="round"/>
<path d="M7.65967 34.2876L8.99967 32.8276" stroke="#252B2D" stroke-width="1.5" stroke-linecap="round" stroke-linejoin="round"/>
<path d="M24.0901 9.0376L23.3101 11.0276" stroke="#252B2D" stroke-width="1.5" stroke-linecap="round" stroke-linejoin="round"/>
<path d="M32.3398 15.3374L30.3398 16.8074" stroke="#252B2D" stroke-width="1.5" stroke-linecap="round" stroke-linejoin="round"/>
<path d="M9.04004 11.7979L10.56 13.6579" stroke="#252B2D" stroke-width="1.5" stroke-linecap="round" stroke-linejoin="round"/>
<path d="M23.96 35.9277L24.85 38.1777" stroke="#252B2D" stroke-width="1.5" stroke-linecap="round" stroke-linejoin="round"/>
</svg>
